G04 #@! TF.GenerationSoftware,KiCad,Pcbnew,(5.1.4)-1*
G04 #@! TF.CreationDate,2019-11-19T15:05:47-05:00*
G04 #@! TF.ProjectId,MiniProj,4d696e69-5072-46f6-9a2e-6b696361645f,rev?*
G04 #@! TF.SameCoordinates,Original*
G04 #@! TF.FileFunction,Paste,Top*
G04 #@! TF.FilePolarity,Positive*
%FSLAX46Y46*%
G04 Gerber Fmt 4.6, Leading zero omitted, Abs format (unit mm)*
G04 Created by KiCad (PCBNEW (5.1.4)-1) date 2019-11-19 15:05:47*
%MOMM*%
%LPD*%
G04 APERTURE LIST*
%ADD10C,0.100000*%
%ADD11C,0.590000*%
%ADD12C,0.300000*%
%ADD13R,2.100000X1.000000*%
G04 APERTURE END LIST*
D10*
G36*
X155126958Y-54800710D02*
G01*
X155141276Y-54802834D01*
X155155317Y-54806351D01*
X155168946Y-54811228D01*
X155182031Y-54817417D01*
X155194447Y-54824858D01*
X155206073Y-54833481D01*
X155216798Y-54843202D01*
X155226519Y-54853927D01*
X155235142Y-54865553D01*
X155242583Y-54877969D01*
X155248772Y-54891054D01*
X155253649Y-54904683D01*
X155257166Y-54918724D01*
X155259290Y-54933042D01*
X155260000Y-54947500D01*
X155260000Y-55242500D01*
X155259290Y-55256958D01*
X155257166Y-55271276D01*
X155253649Y-55285317D01*
X155248772Y-55298946D01*
X155242583Y-55312031D01*
X155235142Y-55324447D01*
X155226519Y-55336073D01*
X155216798Y-55346798D01*
X155206073Y-55356519D01*
X155194447Y-55365142D01*
X155182031Y-55372583D01*
X155168946Y-55378772D01*
X155155317Y-55383649D01*
X155141276Y-55387166D01*
X155126958Y-55389290D01*
X155112500Y-55390000D01*
X154767500Y-55390000D01*
X154753042Y-55389290D01*
X154738724Y-55387166D01*
X154724683Y-55383649D01*
X154711054Y-55378772D01*
X154697969Y-55372583D01*
X154685553Y-55365142D01*
X154673927Y-55356519D01*
X154663202Y-55346798D01*
X154653481Y-55336073D01*
X154644858Y-55324447D01*
X154637417Y-55312031D01*
X154631228Y-55298946D01*
X154626351Y-55285317D01*
X154622834Y-55271276D01*
X154620710Y-55256958D01*
X154620000Y-55242500D01*
X154620000Y-54947500D01*
X154620710Y-54933042D01*
X154622834Y-54918724D01*
X154626351Y-54904683D01*
X154631228Y-54891054D01*
X154637417Y-54877969D01*
X154644858Y-54865553D01*
X154653481Y-54853927D01*
X154663202Y-54843202D01*
X154673927Y-54833481D01*
X154685553Y-54824858D01*
X154697969Y-54817417D01*
X154711054Y-54811228D01*
X154724683Y-54806351D01*
X154738724Y-54802834D01*
X154753042Y-54800710D01*
X154767500Y-54800000D01*
X155112500Y-54800000D01*
X155126958Y-54800710D01*
X155126958Y-54800710D01*
G37*
D11*
X154940000Y-55095000D03*
D10*
G36*
X155126958Y-53830710D02*
G01*
X155141276Y-53832834D01*
X155155317Y-53836351D01*
X155168946Y-53841228D01*
X155182031Y-53847417D01*
X155194447Y-53854858D01*
X155206073Y-53863481D01*
X155216798Y-53873202D01*
X155226519Y-53883927D01*
X155235142Y-53895553D01*
X155242583Y-53907969D01*
X155248772Y-53921054D01*
X155253649Y-53934683D01*
X155257166Y-53948724D01*
X155259290Y-53963042D01*
X155260000Y-53977500D01*
X155260000Y-54272500D01*
X155259290Y-54286958D01*
X155257166Y-54301276D01*
X155253649Y-54315317D01*
X155248772Y-54328946D01*
X155242583Y-54342031D01*
X155235142Y-54354447D01*
X155226519Y-54366073D01*
X155216798Y-54376798D01*
X155206073Y-54386519D01*
X155194447Y-54395142D01*
X155182031Y-54402583D01*
X155168946Y-54408772D01*
X155155317Y-54413649D01*
X155141276Y-54417166D01*
X155126958Y-54419290D01*
X155112500Y-54420000D01*
X154767500Y-54420000D01*
X154753042Y-54419290D01*
X154738724Y-54417166D01*
X154724683Y-54413649D01*
X154711054Y-54408772D01*
X154697969Y-54402583D01*
X154685553Y-54395142D01*
X154673927Y-54386519D01*
X154663202Y-54376798D01*
X154653481Y-54366073D01*
X154644858Y-54354447D01*
X154637417Y-54342031D01*
X154631228Y-54328946D01*
X154626351Y-54315317D01*
X154622834Y-54301276D01*
X154620710Y-54286958D01*
X154620000Y-54272500D01*
X154620000Y-53977500D01*
X154620710Y-53963042D01*
X154622834Y-53948724D01*
X154626351Y-53934683D01*
X154631228Y-53921054D01*
X154637417Y-53907969D01*
X154644858Y-53895553D01*
X154653481Y-53883927D01*
X154663202Y-53873202D01*
X154673927Y-53863481D01*
X154685553Y-53854858D01*
X154697969Y-53847417D01*
X154711054Y-53841228D01*
X154724683Y-53836351D01*
X154738724Y-53832834D01*
X154753042Y-53830710D01*
X154767500Y-53830000D01*
X155112500Y-53830000D01*
X155126958Y-53830710D01*
X155126958Y-53830710D01*
G37*
D11*
X154940000Y-54125000D03*
D10*
G36*
X228786958Y-49720710D02*
G01*
X228801276Y-49722834D01*
X228815317Y-49726351D01*
X228828946Y-49731228D01*
X228842031Y-49737417D01*
X228854447Y-49744858D01*
X228866073Y-49753481D01*
X228876798Y-49763202D01*
X228886519Y-49773927D01*
X228895142Y-49785553D01*
X228902583Y-49797969D01*
X228908772Y-49811054D01*
X228913649Y-49824683D01*
X228917166Y-49838724D01*
X228919290Y-49853042D01*
X228920000Y-49867500D01*
X228920000Y-50162500D01*
X228919290Y-50176958D01*
X228917166Y-50191276D01*
X228913649Y-50205317D01*
X228908772Y-50218946D01*
X228902583Y-50232031D01*
X228895142Y-50244447D01*
X228886519Y-50256073D01*
X228876798Y-50266798D01*
X228866073Y-50276519D01*
X228854447Y-50285142D01*
X228842031Y-50292583D01*
X228828946Y-50298772D01*
X228815317Y-50303649D01*
X228801276Y-50307166D01*
X228786958Y-50309290D01*
X228772500Y-50310000D01*
X228427500Y-50310000D01*
X228413042Y-50309290D01*
X228398724Y-50307166D01*
X228384683Y-50303649D01*
X228371054Y-50298772D01*
X228357969Y-50292583D01*
X228345553Y-50285142D01*
X228333927Y-50276519D01*
X228323202Y-50266798D01*
X228313481Y-50256073D01*
X228304858Y-50244447D01*
X228297417Y-50232031D01*
X228291228Y-50218946D01*
X228286351Y-50205317D01*
X228282834Y-50191276D01*
X228280710Y-50176958D01*
X228280000Y-50162500D01*
X228280000Y-49867500D01*
X228280710Y-49853042D01*
X228282834Y-49838724D01*
X228286351Y-49824683D01*
X228291228Y-49811054D01*
X228297417Y-49797969D01*
X228304858Y-49785553D01*
X228313481Y-49773927D01*
X228323202Y-49763202D01*
X228333927Y-49753481D01*
X228345553Y-49744858D01*
X228357969Y-49737417D01*
X228371054Y-49731228D01*
X228384683Y-49726351D01*
X228398724Y-49722834D01*
X228413042Y-49720710D01*
X228427500Y-49720000D01*
X228772500Y-49720000D01*
X228786958Y-49720710D01*
X228786958Y-49720710D01*
G37*
D11*
X228600000Y-50015000D03*
D10*
G36*
X228786958Y-48750710D02*
G01*
X228801276Y-48752834D01*
X228815317Y-48756351D01*
X228828946Y-48761228D01*
X228842031Y-48767417D01*
X228854447Y-48774858D01*
X228866073Y-48783481D01*
X228876798Y-48793202D01*
X228886519Y-48803927D01*
X228895142Y-48815553D01*
X228902583Y-48827969D01*
X228908772Y-48841054D01*
X228913649Y-48854683D01*
X228917166Y-48868724D01*
X228919290Y-48883042D01*
X228920000Y-48897500D01*
X228920000Y-49192500D01*
X228919290Y-49206958D01*
X228917166Y-49221276D01*
X228913649Y-49235317D01*
X228908772Y-49248946D01*
X228902583Y-49262031D01*
X228895142Y-49274447D01*
X228886519Y-49286073D01*
X228876798Y-49296798D01*
X228866073Y-49306519D01*
X228854447Y-49315142D01*
X228842031Y-49322583D01*
X228828946Y-49328772D01*
X228815317Y-49333649D01*
X228801276Y-49337166D01*
X228786958Y-49339290D01*
X228772500Y-49340000D01*
X228427500Y-49340000D01*
X228413042Y-49339290D01*
X228398724Y-49337166D01*
X228384683Y-49333649D01*
X228371054Y-49328772D01*
X228357969Y-49322583D01*
X228345553Y-49315142D01*
X228333927Y-49306519D01*
X228323202Y-49296798D01*
X228313481Y-49286073D01*
X228304858Y-49274447D01*
X228297417Y-49262031D01*
X228291228Y-49248946D01*
X228286351Y-49235317D01*
X228282834Y-49221276D01*
X228280710Y-49206958D01*
X228280000Y-49192500D01*
X228280000Y-48897500D01*
X228280710Y-48883042D01*
X228282834Y-48868724D01*
X228286351Y-48854683D01*
X228291228Y-48841054D01*
X228297417Y-48827969D01*
X228304858Y-48815553D01*
X228313481Y-48803927D01*
X228323202Y-48793202D01*
X228333927Y-48783481D01*
X228345553Y-48774858D01*
X228357969Y-48767417D01*
X228371054Y-48761228D01*
X228384683Y-48756351D01*
X228398724Y-48752834D01*
X228413042Y-48750710D01*
X228427500Y-48750000D01*
X228772500Y-48750000D01*
X228786958Y-48750710D01*
X228786958Y-48750710D01*
G37*
D11*
X228600000Y-49045000D03*
D10*
G36*
X164016958Y-95440710D02*
G01*
X164031276Y-95442834D01*
X164045317Y-95446351D01*
X164058946Y-95451228D01*
X164072031Y-95457417D01*
X164084447Y-95464858D01*
X164096073Y-95473481D01*
X164106798Y-95483202D01*
X164116519Y-95493927D01*
X164125142Y-95505553D01*
X164132583Y-95517969D01*
X164138772Y-95531054D01*
X164143649Y-95544683D01*
X164147166Y-95558724D01*
X164149290Y-95573042D01*
X164150000Y-95587500D01*
X164150000Y-95882500D01*
X164149290Y-95896958D01*
X164147166Y-95911276D01*
X164143649Y-95925317D01*
X164138772Y-95938946D01*
X164132583Y-95952031D01*
X164125142Y-95964447D01*
X164116519Y-95976073D01*
X164106798Y-95986798D01*
X164096073Y-95996519D01*
X164084447Y-96005142D01*
X164072031Y-96012583D01*
X164058946Y-96018772D01*
X164045317Y-96023649D01*
X164031276Y-96027166D01*
X164016958Y-96029290D01*
X164002500Y-96030000D01*
X163657500Y-96030000D01*
X163643042Y-96029290D01*
X163628724Y-96027166D01*
X163614683Y-96023649D01*
X163601054Y-96018772D01*
X163587969Y-96012583D01*
X163575553Y-96005142D01*
X163563927Y-95996519D01*
X163553202Y-95986798D01*
X163543481Y-95976073D01*
X163534858Y-95964447D01*
X163527417Y-95952031D01*
X163521228Y-95938946D01*
X163516351Y-95925317D01*
X163512834Y-95911276D01*
X163510710Y-95896958D01*
X163510000Y-95882500D01*
X163510000Y-95587500D01*
X163510710Y-95573042D01*
X163512834Y-95558724D01*
X163516351Y-95544683D01*
X163521228Y-95531054D01*
X163527417Y-95517969D01*
X163534858Y-95505553D01*
X163543481Y-95493927D01*
X163553202Y-95483202D01*
X163563927Y-95473481D01*
X163575553Y-95464858D01*
X163587969Y-95457417D01*
X163601054Y-95451228D01*
X163614683Y-95446351D01*
X163628724Y-95442834D01*
X163643042Y-95440710D01*
X163657500Y-95440000D01*
X164002500Y-95440000D01*
X164016958Y-95440710D01*
X164016958Y-95440710D01*
G37*
D11*
X163830000Y-95735000D03*
D10*
G36*
X164016958Y-94470710D02*
G01*
X164031276Y-94472834D01*
X164045317Y-94476351D01*
X164058946Y-94481228D01*
X164072031Y-94487417D01*
X164084447Y-94494858D01*
X164096073Y-94503481D01*
X164106798Y-94513202D01*
X164116519Y-94523927D01*
X164125142Y-94535553D01*
X164132583Y-94547969D01*
X164138772Y-94561054D01*
X164143649Y-94574683D01*
X164147166Y-94588724D01*
X164149290Y-94603042D01*
X164150000Y-94617500D01*
X164150000Y-94912500D01*
X164149290Y-94926958D01*
X164147166Y-94941276D01*
X164143649Y-94955317D01*
X164138772Y-94968946D01*
X164132583Y-94982031D01*
X164125142Y-94994447D01*
X164116519Y-95006073D01*
X164106798Y-95016798D01*
X164096073Y-95026519D01*
X164084447Y-95035142D01*
X164072031Y-95042583D01*
X164058946Y-95048772D01*
X164045317Y-95053649D01*
X164031276Y-95057166D01*
X164016958Y-95059290D01*
X164002500Y-95060000D01*
X163657500Y-95060000D01*
X163643042Y-95059290D01*
X163628724Y-95057166D01*
X163614683Y-95053649D01*
X163601054Y-95048772D01*
X163587969Y-95042583D01*
X163575553Y-95035142D01*
X163563927Y-95026519D01*
X163553202Y-95016798D01*
X163543481Y-95006073D01*
X163534858Y-94994447D01*
X163527417Y-94982031D01*
X163521228Y-94968946D01*
X163516351Y-94955317D01*
X163512834Y-94941276D01*
X163510710Y-94926958D01*
X163510000Y-94912500D01*
X163510000Y-94617500D01*
X163510710Y-94603042D01*
X163512834Y-94588724D01*
X163516351Y-94574683D01*
X163521228Y-94561054D01*
X163527417Y-94547969D01*
X163534858Y-94535553D01*
X163543481Y-94523927D01*
X163553202Y-94513202D01*
X163563927Y-94503481D01*
X163575553Y-94494858D01*
X163587969Y-94487417D01*
X163601054Y-94481228D01*
X163614683Y-94476351D01*
X163628724Y-94472834D01*
X163643042Y-94470710D01*
X163657500Y-94470000D01*
X164002500Y-94470000D01*
X164016958Y-94470710D01*
X164016958Y-94470710D01*
G37*
D11*
X163830000Y-94765000D03*
D10*
G36*
X101786958Y-97980710D02*
G01*
X101801276Y-97982834D01*
X101815317Y-97986351D01*
X101828946Y-97991228D01*
X101842031Y-97997417D01*
X101854447Y-98004858D01*
X101866073Y-98013481D01*
X101876798Y-98023202D01*
X101886519Y-98033927D01*
X101895142Y-98045553D01*
X101902583Y-98057969D01*
X101908772Y-98071054D01*
X101913649Y-98084683D01*
X101917166Y-98098724D01*
X101919290Y-98113042D01*
X101920000Y-98127500D01*
X101920000Y-98422500D01*
X101919290Y-98436958D01*
X101917166Y-98451276D01*
X101913649Y-98465317D01*
X101908772Y-98478946D01*
X101902583Y-98492031D01*
X101895142Y-98504447D01*
X101886519Y-98516073D01*
X101876798Y-98526798D01*
X101866073Y-98536519D01*
X101854447Y-98545142D01*
X101842031Y-98552583D01*
X101828946Y-98558772D01*
X101815317Y-98563649D01*
X101801276Y-98567166D01*
X101786958Y-98569290D01*
X101772500Y-98570000D01*
X101427500Y-98570000D01*
X101413042Y-98569290D01*
X101398724Y-98567166D01*
X101384683Y-98563649D01*
X101371054Y-98558772D01*
X101357969Y-98552583D01*
X101345553Y-98545142D01*
X101333927Y-98536519D01*
X101323202Y-98526798D01*
X101313481Y-98516073D01*
X101304858Y-98504447D01*
X101297417Y-98492031D01*
X101291228Y-98478946D01*
X101286351Y-98465317D01*
X101282834Y-98451276D01*
X101280710Y-98436958D01*
X101280000Y-98422500D01*
X101280000Y-98127500D01*
X101280710Y-98113042D01*
X101282834Y-98098724D01*
X101286351Y-98084683D01*
X101291228Y-98071054D01*
X101297417Y-98057969D01*
X101304858Y-98045553D01*
X101313481Y-98033927D01*
X101323202Y-98023202D01*
X101333927Y-98013481D01*
X101345553Y-98004858D01*
X101357969Y-97997417D01*
X101371054Y-97991228D01*
X101384683Y-97986351D01*
X101398724Y-97982834D01*
X101413042Y-97980710D01*
X101427500Y-97980000D01*
X101772500Y-97980000D01*
X101786958Y-97980710D01*
X101786958Y-97980710D01*
G37*
D11*
X101600000Y-98275000D03*
D10*
G36*
X101786958Y-97010710D02*
G01*
X101801276Y-97012834D01*
X101815317Y-97016351D01*
X101828946Y-97021228D01*
X101842031Y-97027417D01*
X101854447Y-97034858D01*
X101866073Y-97043481D01*
X101876798Y-97053202D01*
X101886519Y-97063927D01*
X101895142Y-97075553D01*
X101902583Y-97087969D01*
X101908772Y-97101054D01*
X101913649Y-97114683D01*
X101917166Y-97128724D01*
X101919290Y-97143042D01*
X101920000Y-97157500D01*
X101920000Y-97452500D01*
X101919290Y-97466958D01*
X101917166Y-97481276D01*
X101913649Y-97495317D01*
X101908772Y-97508946D01*
X101902583Y-97522031D01*
X101895142Y-97534447D01*
X101886519Y-97546073D01*
X101876798Y-97556798D01*
X101866073Y-97566519D01*
X101854447Y-97575142D01*
X101842031Y-97582583D01*
X101828946Y-97588772D01*
X101815317Y-97593649D01*
X101801276Y-97597166D01*
X101786958Y-97599290D01*
X101772500Y-97600000D01*
X101427500Y-97600000D01*
X101413042Y-97599290D01*
X101398724Y-97597166D01*
X101384683Y-97593649D01*
X101371054Y-97588772D01*
X101357969Y-97582583D01*
X101345553Y-97575142D01*
X101333927Y-97566519D01*
X101323202Y-97556798D01*
X101313481Y-97546073D01*
X101304858Y-97534447D01*
X101297417Y-97522031D01*
X101291228Y-97508946D01*
X101286351Y-97495317D01*
X101282834Y-97481276D01*
X101280710Y-97466958D01*
X101280000Y-97452500D01*
X101280000Y-97157500D01*
X101280710Y-97143042D01*
X101282834Y-97128724D01*
X101286351Y-97114683D01*
X101291228Y-97101054D01*
X101297417Y-97087969D01*
X101304858Y-97075553D01*
X101313481Y-97063927D01*
X101323202Y-97053202D01*
X101333927Y-97043481D01*
X101345553Y-97034858D01*
X101357969Y-97027417D01*
X101371054Y-97021228D01*
X101384683Y-97016351D01*
X101398724Y-97012834D01*
X101413042Y-97010710D01*
X101427500Y-97010000D01*
X101772500Y-97010000D01*
X101786958Y-97010710D01*
X101786958Y-97010710D01*
G37*
D11*
X101600000Y-97305000D03*
D10*
G36*
X134296958Y-103820710D02*
G01*
X134311276Y-103822834D01*
X134325317Y-103826351D01*
X134338946Y-103831228D01*
X134352031Y-103837417D01*
X134364447Y-103844858D01*
X134376073Y-103853481D01*
X134386798Y-103863202D01*
X134396519Y-103873927D01*
X134405142Y-103885553D01*
X134412583Y-103897969D01*
X134418772Y-103911054D01*
X134423649Y-103924683D01*
X134427166Y-103938724D01*
X134429290Y-103953042D01*
X134430000Y-103967500D01*
X134430000Y-104312500D01*
X134429290Y-104326958D01*
X134427166Y-104341276D01*
X134423649Y-104355317D01*
X134418772Y-104368946D01*
X134412583Y-104382031D01*
X134405142Y-104394447D01*
X134396519Y-104406073D01*
X134386798Y-104416798D01*
X134376073Y-104426519D01*
X134364447Y-104435142D01*
X134352031Y-104442583D01*
X134338946Y-104448772D01*
X134325317Y-104453649D01*
X134311276Y-104457166D01*
X134296958Y-104459290D01*
X134282500Y-104460000D01*
X133987500Y-104460000D01*
X133973042Y-104459290D01*
X133958724Y-104457166D01*
X133944683Y-104453649D01*
X133931054Y-104448772D01*
X133917969Y-104442583D01*
X133905553Y-104435142D01*
X133893927Y-104426519D01*
X133883202Y-104416798D01*
X133873481Y-104406073D01*
X133864858Y-104394447D01*
X133857417Y-104382031D01*
X133851228Y-104368946D01*
X133846351Y-104355317D01*
X133842834Y-104341276D01*
X133840710Y-104326958D01*
X133840000Y-104312500D01*
X133840000Y-103967500D01*
X133840710Y-103953042D01*
X133842834Y-103938724D01*
X133846351Y-103924683D01*
X133851228Y-103911054D01*
X133857417Y-103897969D01*
X133864858Y-103885553D01*
X133873481Y-103873927D01*
X133883202Y-103863202D01*
X133893927Y-103853481D01*
X133905553Y-103844858D01*
X133917969Y-103837417D01*
X133931054Y-103831228D01*
X133944683Y-103826351D01*
X133958724Y-103822834D01*
X133973042Y-103820710D01*
X133987500Y-103820000D01*
X134282500Y-103820000D01*
X134296958Y-103820710D01*
X134296958Y-103820710D01*
G37*
D11*
X134135000Y-104140000D03*
D10*
G36*
X135266958Y-103820710D02*
G01*
X135281276Y-103822834D01*
X135295317Y-103826351D01*
X135308946Y-103831228D01*
X135322031Y-103837417D01*
X135334447Y-103844858D01*
X135346073Y-103853481D01*
X135356798Y-103863202D01*
X135366519Y-103873927D01*
X135375142Y-103885553D01*
X135382583Y-103897969D01*
X135388772Y-103911054D01*
X135393649Y-103924683D01*
X135397166Y-103938724D01*
X135399290Y-103953042D01*
X135400000Y-103967500D01*
X135400000Y-104312500D01*
X135399290Y-104326958D01*
X135397166Y-104341276D01*
X135393649Y-104355317D01*
X135388772Y-104368946D01*
X135382583Y-104382031D01*
X135375142Y-104394447D01*
X135366519Y-104406073D01*
X135356798Y-104416798D01*
X135346073Y-104426519D01*
X135334447Y-104435142D01*
X135322031Y-104442583D01*
X135308946Y-104448772D01*
X135295317Y-104453649D01*
X135281276Y-104457166D01*
X135266958Y-104459290D01*
X135252500Y-104460000D01*
X134957500Y-104460000D01*
X134943042Y-104459290D01*
X134928724Y-104457166D01*
X134914683Y-104453649D01*
X134901054Y-104448772D01*
X134887969Y-104442583D01*
X134875553Y-104435142D01*
X134863927Y-104426519D01*
X134853202Y-104416798D01*
X134843481Y-104406073D01*
X134834858Y-104394447D01*
X134827417Y-104382031D01*
X134821228Y-104368946D01*
X134816351Y-104355317D01*
X134812834Y-104341276D01*
X134810710Y-104326958D01*
X134810000Y-104312500D01*
X134810000Y-103967500D01*
X134810710Y-103953042D01*
X134812834Y-103938724D01*
X134816351Y-103924683D01*
X134821228Y-103911054D01*
X134827417Y-103897969D01*
X134834858Y-103885553D01*
X134843481Y-103873927D01*
X134853202Y-103863202D01*
X134863927Y-103853481D01*
X134875553Y-103844858D01*
X134887969Y-103837417D01*
X134901054Y-103831228D01*
X134914683Y-103826351D01*
X134928724Y-103822834D01*
X134943042Y-103820710D01*
X134957500Y-103820000D01*
X135252500Y-103820000D01*
X135266958Y-103820710D01*
X135266958Y-103820710D01*
G37*
D11*
X135105000Y-104140000D03*
D10*
G36*
X141156958Y-75120710D02*
G01*
X141171276Y-75122834D01*
X141185317Y-75126351D01*
X141198946Y-75131228D01*
X141212031Y-75137417D01*
X141224447Y-75144858D01*
X141236073Y-75153481D01*
X141246798Y-75163202D01*
X141256519Y-75173927D01*
X141265142Y-75185553D01*
X141272583Y-75197969D01*
X141278772Y-75211054D01*
X141283649Y-75224683D01*
X141287166Y-75238724D01*
X141289290Y-75253042D01*
X141290000Y-75267500D01*
X141290000Y-75562500D01*
X141289290Y-75576958D01*
X141287166Y-75591276D01*
X141283649Y-75605317D01*
X141278772Y-75618946D01*
X141272583Y-75632031D01*
X141265142Y-75644447D01*
X141256519Y-75656073D01*
X141246798Y-75666798D01*
X141236073Y-75676519D01*
X141224447Y-75685142D01*
X141212031Y-75692583D01*
X141198946Y-75698772D01*
X141185317Y-75703649D01*
X141171276Y-75707166D01*
X141156958Y-75709290D01*
X141142500Y-75710000D01*
X140797500Y-75710000D01*
X140783042Y-75709290D01*
X140768724Y-75707166D01*
X140754683Y-75703649D01*
X140741054Y-75698772D01*
X140727969Y-75692583D01*
X140715553Y-75685142D01*
X140703927Y-75676519D01*
X140693202Y-75666798D01*
X140683481Y-75656073D01*
X140674858Y-75644447D01*
X140667417Y-75632031D01*
X140661228Y-75618946D01*
X140656351Y-75605317D01*
X140652834Y-75591276D01*
X140650710Y-75576958D01*
X140650000Y-75562500D01*
X140650000Y-75267500D01*
X140650710Y-75253042D01*
X140652834Y-75238724D01*
X140656351Y-75224683D01*
X140661228Y-75211054D01*
X140667417Y-75197969D01*
X140674858Y-75185553D01*
X140683481Y-75173927D01*
X140693202Y-75163202D01*
X140703927Y-75153481D01*
X140715553Y-75144858D01*
X140727969Y-75137417D01*
X140741054Y-75131228D01*
X140754683Y-75126351D01*
X140768724Y-75122834D01*
X140783042Y-75120710D01*
X140797500Y-75120000D01*
X141142500Y-75120000D01*
X141156958Y-75120710D01*
X141156958Y-75120710D01*
G37*
D11*
X140970000Y-75415000D03*
D10*
G36*
X141156958Y-74150710D02*
G01*
X141171276Y-74152834D01*
X141185317Y-74156351D01*
X141198946Y-74161228D01*
X141212031Y-74167417D01*
X141224447Y-74174858D01*
X141236073Y-74183481D01*
X141246798Y-74193202D01*
X141256519Y-74203927D01*
X141265142Y-74215553D01*
X141272583Y-74227969D01*
X141278772Y-74241054D01*
X141283649Y-74254683D01*
X141287166Y-74268724D01*
X141289290Y-74283042D01*
X141290000Y-74297500D01*
X141290000Y-74592500D01*
X141289290Y-74606958D01*
X141287166Y-74621276D01*
X141283649Y-74635317D01*
X141278772Y-74648946D01*
X141272583Y-74662031D01*
X141265142Y-74674447D01*
X141256519Y-74686073D01*
X141246798Y-74696798D01*
X141236073Y-74706519D01*
X141224447Y-74715142D01*
X141212031Y-74722583D01*
X141198946Y-74728772D01*
X141185317Y-74733649D01*
X141171276Y-74737166D01*
X141156958Y-74739290D01*
X141142500Y-74740000D01*
X140797500Y-74740000D01*
X140783042Y-74739290D01*
X140768724Y-74737166D01*
X140754683Y-74733649D01*
X140741054Y-74728772D01*
X140727969Y-74722583D01*
X140715553Y-74715142D01*
X140703927Y-74706519D01*
X140693202Y-74696798D01*
X140683481Y-74686073D01*
X140674858Y-74674447D01*
X140667417Y-74662031D01*
X140661228Y-74648946D01*
X140656351Y-74635317D01*
X140652834Y-74621276D01*
X140650710Y-74606958D01*
X140650000Y-74592500D01*
X140650000Y-74297500D01*
X140650710Y-74283042D01*
X140652834Y-74268724D01*
X140656351Y-74254683D01*
X140661228Y-74241054D01*
X140667417Y-74227969D01*
X140674858Y-74215553D01*
X140683481Y-74203927D01*
X140693202Y-74193202D01*
X140703927Y-74183481D01*
X140715553Y-74174858D01*
X140727969Y-74167417D01*
X140741054Y-74161228D01*
X140754683Y-74156351D01*
X140768724Y-74152834D01*
X140783042Y-74150710D01*
X140797500Y-74150000D01*
X141142500Y-74150000D01*
X141156958Y-74150710D01*
X141156958Y-74150710D01*
G37*
D11*
X140970000Y-74445000D03*
D10*
G36*
X195256958Y-42860710D02*
G01*
X195271276Y-42862834D01*
X195285317Y-42866351D01*
X195298946Y-42871228D01*
X195312031Y-42877417D01*
X195324447Y-42884858D01*
X195336073Y-42893481D01*
X195346798Y-42903202D01*
X195356519Y-42913927D01*
X195365142Y-42925553D01*
X195372583Y-42937969D01*
X195378772Y-42951054D01*
X195383649Y-42964683D01*
X195387166Y-42978724D01*
X195389290Y-42993042D01*
X195390000Y-43007500D01*
X195390000Y-43352500D01*
X195389290Y-43366958D01*
X195387166Y-43381276D01*
X195383649Y-43395317D01*
X195378772Y-43408946D01*
X195372583Y-43422031D01*
X195365142Y-43434447D01*
X195356519Y-43446073D01*
X195346798Y-43456798D01*
X195336073Y-43466519D01*
X195324447Y-43475142D01*
X195312031Y-43482583D01*
X195298946Y-43488772D01*
X195285317Y-43493649D01*
X195271276Y-43497166D01*
X195256958Y-43499290D01*
X195242500Y-43500000D01*
X194947500Y-43500000D01*
X194933042Y-43499290D01*
X194918724Y-43497166D01*
X194904683Y-43493649D01*
X194891054Y-43488772D01*
X194877969Y-43482583D01*
X194865553Y-43475142D01*
X194853927Y-43466519D01*
X194843202Y-43456798D01*
X194833481Y-43446073D01*
X194824858Y-43434447D01*
X194817417Y-43422031D01*
X194811228Y-43408946D01*
X194806351Y-43395317D01*
X194802834Y-43381276D01*
X194800710Y-43366958D01*
X194800000Y-43352500D01*
X194800000Y-43007500D01*
X194800710Y-42993042D01*
X194802834Y-42978724D01*
X194806351Y-42964683D01*
X194811228Y-42951054D01*
X194817417Y-42937969D01*
X194824858Y-42925553D01*
X194833481Y-42913927D01*
X194843202Y-42903202D01*
X194853927Y-42893481D01*
X194865553Y-42884858D01*
X194877969Y-42877417D01*
X194891054Y-42871228D01*
X194904683Y-42866351D01*
X194918724Y-42862834D01*
X194933042Y-42860710D01*
X194947500Y-42860000D01*
X195242500Y-42860000D01*
X195256958Y-42860710D01*
X195256958Y-42860710D01*
G37*
D11*
X195095000Y-43180000D03*
D10*
G36*
X196226958Y-42860710D02*
G01*
X196241276Y-42862834D01*
X196255317Y-42866351D01*
X196268946Y-42871228D01*
X196282031Y-42877417D01*
X196294447Y-42884858D01*
X196306073Y-42893481D01*
X196316798Y-42903202D01*
X196326519Y-42913927D01*
X196335142Y-42925553D01*
X196342583Y-42937969D01*
X196348772Y-42951054D01*
X196353649Y-42964683D01*
X196357166Y-42978724D01*
X196359290Y-42993042D01*
X196360000Y-43007500D01*
X196360000Y-43352500D01*
X196359290Y-43366958D01*
X196357166Y-43381276D01*
X196353649Y-43395317D01*
X196348772Y-43408946D01*
X196342583Y-43422031D01*
X196335142Y-43434447D01*
X196326519Y-43446073D01*
X196316798Y-43456798D01*
X196306073Y-43466519D01*
X196294447Y-43475142D01*
X196282031Y-43482583D01*
X196268946Y-43488772D01*
X196255317Y-43493649D01*
X196241276Y-43497166D01*
X196226958Y-43499290D01*
X196212500Y-43500000D01*
X195917500Y-43500000D01*
X195903042Y-43499290D01*
X195888724Y-43497166D01*
X195874683Y-43493649D01*
X195861054Y-43488772D01*
X195847969Y-43482583D01*
X195835553Y-43475142D01*
X195823927Y-43466519D01*
X195813202Y-43456798D01*
X195803481Y-43446073D01*
X195794858Y-43434447D01*
X195787417Y-43422031D01*
X195781228Y-43408946D01*
X195776351Y-43395317D01*
X195772834Y-43381276D01*
X195770710Y-43366958D01*
X195770000Y-43352500D01*
X195770000Y-43007500D01*
X195770710Y-42993042D01*
X195772834Y-42978724D01*
X195776351Y-42964683D01*
X195781228Y-42951054D01*
X195787417Y-42937969D01*
X195794858Y-42925553D01*
X195803481Y-42913927D01*
X195813202Y-42903202D01*
X195823927Y-42893481D01*
X195835553Y-42884858D01*
X195847969Y-42877417D01*
X195861054Y-42871228D01*
X195874683Y-42866351D01*
X195888724Y-42862834D01*
X195903042Y-42860710D01*
X195917500Y-42860000D01*
X196212500Y-42860000D01*
X196226958Y-42860710D01*
X196226958Y-42860710D01*
G37*
D11*
X196065000Y-43180000D03*
D10*
G36*
X195256958Y-40320710D02*
G01*
X195271276Y-40322834D01*
X195285317Y-40326351D01*
X195298946Y-40331228D01*
X195312031Y-40337417D01*
X195324447Y-40344858D01*
X195336073Y-40353481D01*
X195346798Y-40363202D01*
X195356519Y-40373927D01*
X195365142Y-40385553D01*
X195372583Y-40397969D01*
X195378772Y-40411054D01*
X195383649Y-40424683D01*
X195387166Y-40438724D01*
X195389290Y-40453042D01*
X195390000Y-40467500D01*
X195390000Y-40812500D01*
X195389290Y-40826958D01*
X195387166Y-40841276D01*
X195383649Y-40855317D01*
X195378772Y-40868946D01*
X195372583Y-40882031D01*
X195365142Y-40894447D01*
X195356519Y-40906073D01*
X195346798Y-40916798D01*
X195336073Y-40926519D01*
X195324447Y-40935142D01*
X195312031Y-40942583D01*
X195298946Y-40948772D01*
X195285317Y-40953649D01*
X195271276Y-40957166D01*
X195256958Y-40959290D01*
X195242500Y-40960000D01*
X194947500Y-40960000D01*
X194933042Y-40959290D01*
X194918724Y-40957166D01*
X194904683Y-40953649D01*
X194891054Y-40948772D01*
X194877969Y-40942583D01*
X194865553Y-40935142D01*
X194853927Y-40926519D01*
X194843202Y-40916798D01*
X194833481Y-40906073D01*
X194824858Y-40894447D01*
X194817417Y-40882031D01*
X194811228Y-40868946D01*
X194806351Y-40855317D01*
X194802834Y-40841276D01*
X194800710Y-40826958D01*
X194800000Y-40812500D01*
X194800000Y-40467500D01*
X194800710Y-40453042D01*
X194802834Y-40438724D01*
X194806351Y-40424683D01*
X194811228Y-40411054D01*
X194817417Y-40397969D01*
X194824858Y-40385553D01*
X194833481Y-40373927D01*
X194843202Y-40363202D01*
X194853927Y-40353481D01*
X194865553Y-40344858D01*
X194877969Y-40337417D01*
X194891054Y-40331228D01*
X194904683Y-40326351D01*
X194918724Y-40322834D01*
X194933042Y-40320710D01*
X194947500Y-40320000D01*
X195242500Y-40320000D01*
X195256958Y-40320710D01*
X195256958Y-40320710D01*
G37*
D11*
X195095000Y-40640000D03*
D10*
G36*
X196226958Y-40320710D02*
G01*
X196241276Y-40322834D01*
X196255317Y-40326351D01*
X196268946Y-40331228D01*
X196282031Y-40337417D01*
X196294447Y-40344858D01*
X196306073Y-40353481D01*
X196316798Y-40363202D01*
X196326519Y-40373927D01*
X196335142Y-40385553D01*
X196342583Y-40397969D01*
X196348772Y-40411054D01*
X196353649Y-40424683D01*
X196357166Y-40438724D01*
X196359290Y-40453042D01*
X196360000Y-40467500D01*
X196360000Y-40812500D01*
X196359290Y-40826958D01*
X196357166Y-40841276D01*
X196353649Y-40855317D01*
X196348772Y-40868946D01*
X196342583Y-40882031D01*
X196335142Y-40894447D01*
X196326519Y-40906073D01*
X196316798Y-40916798D01*
X196306073Y-40926519D01*
X196294447Y-40935142D01*
X196282031Y-40942583D01*
X196268946Y-40948772D01*
X196255317Y-40953649D01*
X196241276Y-40957166D01*
X196226958Y-40959290D01*
X196212500Y-40960000D01*
X195917500Y-40960000D01*
X195903042Y-40959290D01*
X195888724Y-40957166D01*
X195874683Y-40953649D01*
X195861054Y-40948772D01*
X195847969Y-40942583D01*
X195835553Y-40935142D01*
X195823927Y-40926519D01*
X195813202Y-40916798D01*
X195803481Y-40906073D01*
X195794858Y-40894447D01*
X195787417Y-40882031D01*
X195781228Y-40868946D01*
X195776351Y-40855317D01*
X195772834Y-40841276D01*
X195770710Y-40826958D01*
X195770000Y-40812500D01*
X195770000Y-40467500D01*
X195770710Y-40453042D01*
X195772834Y-40438724D01*
X195776351Y-40424683D01*
X195781228Y-40411054D01*
X195787417Y-40397969D01*
X195794858Y-40385553D01*
X195803481Y-40373927D01*
X195813202Y-40363202D01*
X195823927Y-40353481D01*
X195835553Y-40344858D01*
X195847969Y-40337417D01*
X195861054Y-40331228D01*
X195874683Y-40326351D01*
X195888724Y-40322834D01*
X195903042Y-40320710D01*
X195917500Y-40320000D01*
X196212500Y-40320000D01*
X196226958Y-40320710D01*
X196226958Y-40320710D01*
G37*
D11*
X196065000Y-40640000D03*
D10*
G36*
X194496958Y-47180710D02*
G01*
X194511276Y-47182834D01*
X194525317Y-47186351D01*
X194538946Y-47191228D01*
X194552031Y-47197417D01*
X194564447Y-47204858D01*
X194576073Y-47213481D01*
X194586798Y-47223202D01*
X194596519Y-47233927D01*
X194605142Y-47245553D01*
X194612583Y-47257969D01*
X194618772Y-47271054D01*
X194623649Y-47284683D01*
X194627166Y-47298724D01*
X194629290Y-47313042D01*
X194630000Y-47327500D01*
X194630000Y-47622500D01*
X194629290Y-47636958D01*
X194627166Y-47651276D01*
X194623649Y-47665317D01*
X194618772Y-47678946D01*
X194612583Y-47692031D01*
X194605142Y-47704447D01*
X194596519Y-47716073D01*
X194586798Y-47726798D01*
X194576073Y-47736519D01*
X194564447Y-47745142D01*
X194552031Y-47752583D01*
X194538946Y-47758772D01*
X194525317Y-47763649D01*
X194511276Y-47767166D01*
X194496958Y-47769290D01*
X194482500Y-47770000D01*
X194137500Y-47770000D01*
X194123042Y-47769290D01*
X194108724Y-47767166D01*
X194094683Y-47763649D01*
X194081054Y-47758772D01*
X194067969Y-47752583D01*
X194055553Y-47745142D01*
X194043927Y-47736519D01*
X194033202Y-47726798D01*
X194023481Y-47716073D01*
X194014858Y-47704447D01*
X194007417Y-47692031D01*
X194001228Y-47678946D01*
X193996351Y-47665317D01*
X193992834Y-47651276D01*
X193990710Y-47636958D01*
X193990000Y-47622500D01*
X193990000Y-47327500D01*
X193990710Y-47313042D01*
X193992834Y-47298724D01*
X193996351Y-47284683D01*
X194001228Y-47271054D01*
X194007417Y-47257969D01*
X194014858Y-47245553D01*
X194023481Y-47233927D01*
X194033202Y-47223202D01*
X194043927Y-47213481D01*
X194055553Y-47204858D01*
X194067969Y-47197417D01*
X194081054Y-47191228D01*
X194094683Y-47186351D01*
X194108724Y-47182834D01*
X194123042Y-47180710D01*
X194137500Y-47180000D01*
X194482500Y-47180000D01*
X194496958Y-47180710D01*
X194496958Y-47180710D01*
G37*
D11*
X194310000Y-47475000D03*
D10*
G36*
X194496958Y-46210710D02*
G01*
X194511276Y-46212834D01*
X194525317Y-46216351D01*
X194538946Y-46221228D01*
X194552031Y-46227417D01*
X194564447Y-46234858D01*
X194576073Y-46243481D01*
X194586798Y-46253202D01*
X194596519Y-46263927D01*
X194605142Y-46275553D01*
X194612583Y-46287969D01*
X194618772Y-46301054D01*
X194623649Y-46314683D01*
X194627166Y-46328724D01*
X194629290Y-46343042D01*
X194630000Y-46357500D01*
X194630000Y-46652500D01*
X194629290Y-46666958D01*
X194627166Y-46681276D01*
X194623649Y-46695317D01*
X194618772Y-46708946D01*
X194612583Y-46722031D01*
X194605142Y-46734447D01*
X194596519Y-46746073D01*
X194586798Y-46756798D01*
X194576073Y-46766519D01*
X194564447Y-46775142D01*
X194552031Y-46782583D01*
X194538946Y-46788772D01*
X194525317Y-46793649D01*
X194511276Y-46797166D01*
X194496958Y-46799290D01*
X194482500Y-46800000D01*
X194137500Y-46800000D01*
X194123042Y-46799290D01*
X194108724Y-46797166D01*
X194094683Y-46793649D01*
X194081054Y-46788772D01*
X194067969Y-46782583D01*
X194055553Y-46775142D01*
X194043927Y-46766519D01*
X194033202Y-46756798D01*
X194023481Y-46746073D01*
X194014858Y-46734447D01*
X194007417Y-46722031D01*
X194001228Y-46708946D01*
X193996351Y-46695317D01*
X193992834Y-46681276D01*
X193990710Y-46666958D01*
X193990000Y-46652500D01*
X193990000Y-46357500D01*
X193990710Y-46343042D01*
X193992834Y-46328724D01*
X193996351Y-46314683D01*
X194001228Y-46301054D01*
X194007417Y-46287969D01*
X194014858Y-46275553D01*
X194023481Y-46263927D01*
X194033202Y-46253202D01*
X194043927Y-46243481D01*
X194055553Y-46234858D01*
X194067969Y-46227417D01*
X194081054Y-46221228D01*
X194094683Y-46216351D01*
X194108724Y-46212834D01*
X194123042Y-46210710D01*
X194137500Y-46210000D01*
X194482500Y-46210000D01*
X194496958Y-46210710D01*
X194496958Y-46210710D01*
G37*
D11*
X194310000Y-46505000D03*
D10*
G36*
X200802351Y-45620361D02*
G01*
X200809632Y-45621441D01*
X200816771Y-45623229D01*
X200823701Y-45625709D01*
X200830355Y-45628856D01*
X200836668Y-45632640D01*
X200842579Y-45637024D01*
X200848033Y-45641967D01*
X200852976Y-45647421D01*
X200857360Y-45653332D01*
X200861144Y-45659645D01*
X200864291Y-45666299D01*
X200866771Y-45673229D01*
X200868559Y-45680368D01*
X200869639Y-45687649D01*
X200870000Y-45695000D01*
X200870000Y-47095000D01*
X200869639Y-47102351D01*
X200868559Y-47109632D01*
X200866771Y-47116771D01*
X200864291Y-47123701D01*
X200861144Y-47130355D01*
X200857360Y-47136668D01*
X200852976Y-47142579D01*
X200848033Y-47148033D01*
X200842579Y-47152976D01*
X200836668Y-47157360D01*
X200830355Y-47161144D01*
X200823701Y-47164291D01*
X200816771Y-47166771D01*
X200809632Y-47168559D01*
X200802351Y-47169639D01*
X200795000Y-47170000D01*
X200645000Y-47170000D01*
X200637649Y-47169639D01*
X200630368Y-47168559D01*
X200623229Y-47166771D01*
X200616299Y-47164291D01*
X200609645Y-47161144D01*
X200603332Y-47157360D01*
X200597421Y-47152976D01*
X200591967Y-47148033D01*
X200587024Y-47142579D01*
X200582640Y-47136668D01*
X200578856Y-47130355D01*
X200575709Y-47123701D01*
X200573229Y-47116771D01*
X200571441Y-47109632D01*
X200570361Y-47102351D01*
X200570000Y-47095000D01*
X200570000Y-45695000D01*
X200570361Y-45687649D01*
X200571441Y-45680368D01*
X200573229Y-45673229D01*
X200575709Y-45666299D01*
X200578856Y-45659645D01*
X200582640Y-45653332D01*
X200587024Y-45647421D01*
X200591967Y-45641967D01*
X200597421Y-45637024D01*
X200603332Y-45632640D01*
X200609645Y-45628856D01*
X200616299Y-45625709D01*
X200623229Y-45623229D01*
X200630368Y-45621441D01*
X200637649Y-45620361D01*
X200645000Y-45620000D01*
X200795000Y-45620000D01*
X200802351Y-45620361D01*
X200802351Y-45620361D01*
G37*
D12*
X200720000Y-46395000D03*
D10*
G36*
X201302351Y-45620361D02*
G01*
X201309632Y-45621441D01*
X201316771Y-45623229D01*
X201323701Y-45625709D01*
X201330355Y-45628856D01*
X201336668Y-45632640D01*
X201342579Y-45637024D01*
X201348033Y-45641967D01*
X201352976Y-45647421D01*
X201357360Y-45653332D01*
X201361144Y-45659645D01*
X201364291Y-45666299D01*
X201366771Y-45673229D01*
X201368559Y-45680368D01*
X201369639Y-45687649D01*
X201370000Y-45695000D01*
X201370000Y-47095000D01*
X201369639Y-47102351D01*
X201368559Y-47109632D01*
X201366771Y-47116771D01*
X201364291Y-47123701D01*
X201361144Y-47130355D01*
X201357360Y-47136668D01*
X201352976Y-47142579D01*
X201348033Y-47148033D01*
X201342579Y-47152976D01*
X201336668Y-47157360D01*
X201330355Y-47161144D01*
X201323701Y-47164291D01*
X201316771Y-47166771D01*
X201309632Y-47168559D01*
X201302351Y-47169639D01*
X201295000Y-47170000D01*
X201145000Y-47170000D01*
X201137649Y-47169639D01*
X201130368Y-47168559D01*
X201123229Y-47166771D01*
X201116299Y-47164291D01*
X201109645Y-47161144D01*
X201103332Y-47157360D01*
X201097421Y-47152976D01*
X201091967Y-47148033D01*
X201087024Y-47142579D01*
X201082640Y-47136668D01*
X201078856Y-47130355D01*
X201075709Y-47123701D01*
X201073229Y-47116771D01*
X201071441Y-47109632D01*
X201070361Y-47102351D01*
X201070000Y-47095000D01*
X201070000Y-45695000D01*
X201070361Y-45687649D01*
X201071441Y-45680368D01*
X201073229Y-45673229D01*
X201075709Y-45666299D01*
X201078856Y-45659645D01*
X201082640Y-45653332D01*
X201087024Y-45647421D01*
X201091967Y-45641967D01*
X201097421Y-45637024D01*
X201103332Y-45632640D01*
X201109645Y-45628856D01*
X201116299Y-45625709D01*
X201123229Y-45623229D01*
X201130368Y-45621441D01*
X201137649Y-45620361D01*
X201145000Y-45620000D01*
X201295000Y-45620000D01*
X201302351Y-45620361D01*
X201302351Y-45620361D01*
G37*
D12*
X201220000Y-46395000D03*
D10*
G36*
X201802351Y-45620361D02*
G01*
X201809632Y-45621441D01*
X201816771Y-45623229D01*
X201823701Y-45625709D01*
X201830355Y-45628856D01*
X201836668Y-45632640D01*
X201842579Y-45637024D01*
X201848033Y-45641967D01*
X201852976Y-45647421D01*
X201857360Y-45653332D01*
X201861144Y-45659645D01*
X201864291Y-45666299D01*
X201866771Y-45673229D01*
X201868559Y-45680368D01*
X201869639Y-45687649D01*
X201870000Y-45695000D01*
X201870000Y-47095000D01*
X201869639Y-47102351D01*
X201868559Y-47109632D01*
X201866771Y-47116771D01*
X201864291Y-47123701D01*
X201861144Y-47130355D01*
X201857360Y-47136668D01*
X201852976Y-47142579D01*
X201848033Y-47148033D01*
X201842579Y-47152976D01*
X201836668Y-47157360D01*
X201830355Y-47161144D01*
X201823701Y-47164291D01*
X201816771Y-47166771D01*
X201809632Y-47168559D01*
X201802351Y-47169639D01*
X201795000Y-47170000D01*
X201645000Y-47170000D01*
X201637649Y-47169639D01*
X201630368Y-47168559D01*
X201623229Y-47166771D01*
X201616299Y-47164291D01*
X201609645Y-47161144D01*
X201603332Y-47157360D01*
X201597421Y-47152976D01*
X201591967Y-47148033D01*
X201587024Y-47142579D01*
X201582640Y-47136668D01*
X201578856Y-47130355D01*
X201575709Y-47123701D01*
X201573229Y-47116771D01*
X201571441Y-47109632D01*
X201570361Y-47102351D01*
X201570000Y-47095000D01*
X201570000Y-45695000D01*
X201570361Y-45687649D01*
X201571441Y-45680368D01*
X201573229Y-45673229D01*
X201575709Y-45666299D01*
X201578856Y-45659645D01*
X201582640Y-45653332D01*
X201587024Y-45647421D01*
X201591967Y-45641967D01*
X201597421Y-45637024D01*
X201603332Y-45632640D01*
X201609645Y-45628856D01*
X201616299Y-45625709D01*
X201623229Y-45623229D01*
X201630368Y-45621441D01*
X201637649Y-45620361D01*
X201645000Y-45620000D01*
X201795000Y-45620000D01*
X201802351Y-45620361D01*
X201802351Y-45620361D01*
G37*
D12*
X201720000Y-46395000D03*
D10*
G36*
X202302351Y-45620361D02*
G01*
X202309632Y-45621441D01*
X202316771Y-45623229D01*
X202323701Y-45625709D01*
X202330355Y-45628856D01*
X202336668Y-45632640D01*
X202342579Y-45637024D01*
X202348033Y-45641967D01*
X202352976Y-45647421D01*
X202357360Y-45653332D01*
X202361144Y-45659645D01*
X202364291Y-45666299D01*
X202366771Y-45673229D01*
X202368559Y-45680368D01*
X202369639Y-45687649D01*
X202370000Y-45695000D01*
X202370000Y-47095000D01*
X202369639Y-47102351D01*
X202368559Y-47109632D01*
X202366771Y-47116771D01*
X202364291Y-47123701D01*
X202361144Y-47130355D01*
X202357360Y-47136668D01*
X202352976Y-47142579D01*
X202348033Y-47148033D01*
X202342579Y-47152976D01*
X202336668Y-47157360D01*
X202330355Y-47161144D01*
X202323701Y-47164291D01*
X202316771Y-47166771D01*
X202309632Y-47168559D01*
X202302351Y-47169639D01*
X202295000Y-47170000D01*
X202145000Y-47170000D01*
X202137649Y-47169639D01*
X202130368Y-47168559D01*
X202123229Y-47166771D01*
X202116299Y-47164291D01*
X202109645Y-47161144D01*
X202103332Y-47157360D01*
X202097421Y-47152976D01*
X202091967Y-47148033D01*
X202087024Y-47142579D01*
X202082640Y-47136668D01*
X202078856Y-47130355D01*
X202075709Y-47123701D01*
X202073229Y-47116771D01*
X202071441Y-47109632D01*
X202070361Y-47102351D01*
X202070000Y-47095000D01*
X202070000Y-45695000D01*
X202070361Y-45687649D01*
X202071441Y-45680368D01*
X202073229Y-45673229D01*
X202075709Y-45666299D01*
X202078856Y-45659645D01*
X202082640Y-45653332D01*
X202087024Y-45647421D01*
X202091967Y-45641967D01*
X202097421Y-45637024D01*
X202103332Y-45632640D01*
X202109645Y-45628856D01*
X202116299Y-45625709D01*
X202123229Y-45623229D01*
X202130368Y-45621441D01*
X202137649Y-45620361D01*
X202145000Y-45620000D01*
X202295000Y-45620000D01*
X202302351Y-45620361D01*
X202302351Y-45620361D01*
G37*
D12*
X202220000Y-46395000D03*
D10*
G36*
X202802351Y-45620361D02*
G01*
X202809632Y-45621441D01*
X202816771Y-45623229D01*
X202823701Y-45625709D01*
X202830355Y-45628856D01*
X202836668Y-45632640D01*
X202842579Y-45637024D01*
X202848033Y-45641967D01*
X202852976Y-45647421D01*
X202857360Y-45653332D01*
X202861144Y-45659645D01*
X202864291Y-45666299D01*
X202866771Y-45673229D01*
X202868559Y-45680368D01*
X202869639Y-45687649D01*
X202870000Y-45695000D01*
X202870000Y-47095000D01*
X202869639Y-47102351D01*
X202868559Y-47109632D01*
X202866771Y-47116771D01*
X202864291Y-47123701D01*
X202861144Y-47130355D01*
X202857360Y-47136668D01*
X202852976Y-47142579D01*
X202848033Y-47148033D01*
X202842579Y-47152976D01*
X202836668Y-47157360D01*
X202830355Y-47161144D01*
X202823701Y-47164291D01*
X202816771Y-47166771D01*
X202809632Y-47168559D01*
X202802351Y-47169639D01*
X202795000Y-47170000D01*
X202645000Y-47170000D01*
X202637649Y-47169639D01*
X202630368Y-47168559D01*
X202623229Y-47166771D01*
X202616299Y-47164291D01*
X202609645Y-47161144D01*
X202603332Y-47157360D01*
X202597421Y-47152976D01*
X202591967Y-47148033D01*
X202587024Y-47142579D01*
X202582640Y-47136668D01*
X202578856Y-47130355D01*
X202575709Y-47123701D01*
X202573229Y-47116771D01*
X202571441Y-47109632D01*
X202570361Y-47102351D01*
X202570000Y-47095000D01*
X202570000Y-45695000D01*
X202570361Y-45687649D01*
X202571441Y-45680368D01*
X202573229Y-45673229D01*
X202575709Y-45666299D01*
X202578856Y-45659645D01*
X202582640Y-45653332D01*
X202587024Y-45647421D01*
X202591967Y-45641967D01*
X202597421Y-45637024D01*
X202603332Y-45632640D01*
X202609645Y-45628856D01*
X202616299Y-45625709D01*
X202623229Y-45623229D01*
X202630368Y-45621441D01*
X202637649Y-45620361D01*
X202645000Y-45620000D01*
X202795000Y-45620000D01*
X202802351Y-45620361D01*
X202802351Y-45620361D01*
G37*
D12*
X202720000Y-46395000D03*
D10*
G36*
X203302351Y-45620361D02*
G01*
X203309632Y-45621441D01*
X203316771Y-45623229D01*
X203323701Y-45625709D01*
X203330355Y-45628856D01*
X203336668Y-45632640D01*
X203342579Y-45637024D01*
X203348033Y-45641967D01*
X203352976Y-45647421D01*
X203357360Y-45653332D01*
X203361144Y-45659645D01*
X203364291Y-45666299D01*
X203366771Y-45673229D01*
X203368559Y-45680368D01*
X203369639Y-45687649D01*
X203370000Y-45695000D01*
X203370000Y-47095000D01*
X203369639Y-47102351D01*
X203368559Y-47109632D01*
X203366771Y-47116771D01*
X203364291Y-47123701D01*
X203361144Y-47130355D01*
X203357360Y-47136668D01*
X203352976Y-47142579D01*
X203348033Y-47148033D01*
X203342579Y-47152976D01*
X203336668Y-47157360D01*
X203330355Y-47161144D01*
X203323701Y-47164291D01*
X203316771Y-47166771D01*
X203309632Y-47168559D01*
X203302351Y-47169639D01*
X203295000Y-47170000D01*
X203145000Y-47170000D01*
X203137649Y-47169639D01*
X203130368Y-47168559D01*
X203123229Y-47166771D01*
X203116299Y-47164291D01*
X203109645Y-47161144D01*
X203103332Y-47157360D01*
X203097421Y-47152976D01*
X203091967Y-47148033D01*
X203087024Y-47142579D01*
X203082640Y-47136668D01*
X203078856Y-47130355D01*
X203075709Y-47123701D01*
X203073229Y-47116771D01*
X203071441Y-47109632D01*
X203070361Y-47102351D01*
X203070000Y-47095000D01*
X203070000Y-45695000D01*
X203070361Y-45687649D01*
X203071441Y-45680368D01*
X203073229Y-45673229D01*
X203075709Y-45666299D01*
X203078856Y-45659645D01*
X203082640Y-45653332D01*
X203087024Y-45647421D01*
X203091967Y-45641967D01*
X203097421Y-45637024D01*
X203103332Y-45632640D01*
X203109645Y-45628856D01*
X203116299Y-45625709D01*
X203123229Y-45623229D01*
X203130368Y-45621441D01*
X203137649Y-45620361D01*
X203145000Y-45620000D01*
X203295000Y-45620000D01*
X203302351Y-45620361D01*
X203302351Y-45620361D01*
G37*
D12*
X203220000Y-46395000D03*
D10*
G36*
X203802351Y-45620361D02*
G01*
X203809632Y-45621441D01*
X203816771Y-45623229D01*
X203823701Y-45625709D01*
X203830355Y-45628856D01*
X203836668Y-45632640D01*
X203842579Y-45637024D01*
X203848033Y-45641967D01*
X203852976Y-45647421D01*
X203857360Y-45653332D01*
X203861144Y-45659645D01*
X203864291Y-45666299D01*
X203866771Y-45673229D01*
X203868559Y-45680368D01*
X203869639Y-45687649D01*
X203870000Y-45695000D01*
X203870000Y-47095000D01*
X203869639Y-47102351D01*
X203868559Y-47109632D01*
X203866771Y-47116771D01*
X203864291Y-47123701D01*
X203861144Y-47130355D01*
X203857360Y-47136668D01*
X203852976Y-47142579D01*
X203848033Y-47148033D01*
X203842579Y-47152976D01*
X203836668Y-47157360D01*
X203830355Y-47161144D01*
X203823701Y-47164291D01*
X203816771Y-47166771D01*
X203809632Y-47168559D01*
X203802351Y-47169639D01*
X203795000Y-47170000D01*
X203645000Y-47170000D01*
X203637649Y-47169639D01*
X203630368Y-47168559D01*
X203623229Y-47166771D01*
X203616299Y-47164291D01*
X203609645Y-47161144D01*
X203603332Y-47157360D01*
X203597421Y-47152976D01*
X203591967Y-47148033D01*
X203587024Y-47142579D01*
X203582640Y-47136668D01*
X203578856Y-47130355D01*
X203575709Y-47123701D01*
X203573229Y-47116771D01*
X203571441Y-47109632D01*
X203570361Y-47102351D01*
X203570000Y-47095000D01*
X203570000Y-45695000D01*
X203570361Y-45687649D01*
X203571441Y-45680368D01*
X203573229Y-45673229D01*
X203575709Y-45666299D01*
X203578856Y-45659645D01*
X203582640Y-45653332D01*
X203587024Y-45647421D01*
X203591967Y-45641967D01*
X203597421Y-45637024D01*
X203603332Y-45632640D01*
X203609645Y-45628856D01*
X203616299Y-45625709D01*
X203623229Y-45623229D01*
X203630368Y-45621441D01*
X203637649Y-45620361D01*
X203645000Y-45620000D01*
X203795000Y-45620000D01*
X203802351Y-45620361D01*
X203802351Y-45620361D01*
G37*
D12*
X203720000Y-46395000D03*
D10*
G36*
X204302351Y-45620361D02*
G01*
X204309632Y-45621441D01*
X204316771Y-45623229D01*
X204323701Y-45625709D01*
X204330355Y-45628856D01*
X204336668Y-45632640D01*
X204342579Y-45637024D01*
X204348033Y-45641967D01*
X204352976Y-45647421D01*
X204357360Y-45653332D01*
X204361144Y-45659645D01*
X204364291Y-45666299D01*
X204366771Y-45673229D01*
X204368559Y-45680368D01*
X204369639Y-45687649D01*
X204370000Y-45695000D01*
X204370000Y-47095000D01*
X204369639Y-47102351D01*
X204368559Y-47109632D01*
X204366771Y-47116771D01*
X204364291Y-47123701D01*
X204361144Y-47130355D01*
X204357360Y-47136668D01*
X204352976Y-47142579D01*
X204348033Y-47148033D01*
X204342579Y-47152976D01*
X204336668Y-47157360D01*
X204330355Y-47161144D01*
X204323701Y-47164291D01*
X204316771Y-47166771D01*
X204309632Y-47168559D01*
X204302351Y-47169639D01*
X204295000Y-47170000D01*
X204145000Y-47170000D01*
X204137649Y-47169639D01*
X204130368Y-47168559D01*
X204123229Y-47166771D01*
X204116299Y-47164291D01*
X204109645Y-47161144D01*
X204103332Y-47157360D01*
X204097421Y-47152976D01*
X204091967Y-47148033D01*
X204087024Y-47142579D01*
X204082640Y-47136668D01*
X204078856Y-47130355D01*
X204075709Y-47123701D01*
X204073229Y-47116771D01*
X204071441Y-47109632D01*
X204070361Y-47102351D01*
X204070000Y-47095000D01*
X204070000Y-45695000D01*
X204070361Y-45687649D01*
X204071441Y-45680368D01*
X204073229Y-45673229D01*
X204075709Y-45666299D01*
X204078856Y-45659645D01*
X204082640Y-45653332D01*
X204087024Y-45647421D01*
X204091967Y-45641967D01*
X204097421Y-45637024D01*
X204103332Y-45632640D01*
X204109645Y-45628856D01*
X204116299Y-45625709D01*
X204123229Y-45623229D01*
X204130368Y-45621441D01*
X204137649Y-45620361D01*
X204145000Y-45620000D01*
X204295000Y-45620000D01*
X204302351Y-45620361D01*
X204302351Y-45620361D01*
G37*
D12*
X204220000Y-46395000D03*
D10*
G36*
X204802351Y-45620361D02*
G01*
X204809632Y-45621441D01*
X204816771Y-45623229D01*
X204823701Y-45625709D01*
X204830355Y-45628856D01*
X204836668Y-45632640D01*
X204842579Y-45637024D01*
X204848033Y-45641967D01*
X204852976Y-45647421D01*
X204857360Y-45653332D01*
X204861144Y-45659645D01*
X204864291Y-45666299D01*
X204866771Y-45673229D01*
X204868559Y-45680368D01*
X204869639Y-45687649D01*
X204870000Y-45695000D01*
X204870000Y-47095000D01*
X204869639Y-47102351D01*
X204868559Y-47109632D01*
X204866771Y-47116771D01*
X204864291Y-47123701D01*
X204861144Y-47130355D01*
X204857360Y-47136668D01*
X204852976Y-47142579D01*
X204848033Y-47148033D01*
X204842579Y-47152976D01*
X204836668Y-47157360D01*
X204830355Y-47161144D01*
X204823701Y-47164291D01*
X204816771Y-47166771D01*
X204809632Y-47168559D01*
X204802351Y-47169639D01*
X204795000Y-47170000D01*
X204645000Y-47170000D01*
X204637649Y-47169639D01*
X204630368Y-47168559D01*
X204623229Y-47166771D01*
X204616299Y-47164291D01*
X204609645Y-47161144D01*
X204603332Y-47157360D01*
X204597421Y-47152976D01*
X204591967Y-47148033D01*
X204587024Y-47142579D01*
X204582640Y-47136668D01*
X204578856Y-47130355D01*
X204575709Y-47123701D01*
X204573229Y-47116771D01*
X204571441Y-47109632D01*
X204570361Y-47102351D01*
X204570000Y-47095000D01*
X204570000Y-45695000D01*
X204570361Y-45687649D01*
X204571441Y-45680368D01*
X204573229Y-45673229D01*
X204575709Y-45666299D01*
X204578856Y-45659645D01*
X204582640Y-45653332D01*
X204587024Y-45647421D01*
X204591967Y-45641967D01*
X204597421Y-45637024D01*
X204603332Y-45632640D01*
X204609645Y-45628856D01*
X204616299Y-45625709D01*
X204623229Y-45623229D01*
X204630368Y-45621441D01*
X204637649Y-45620361D01*
X204645000Y-45620000D01*
X204795000Y-45620000D01*
X204802351Y-45620361D01*
X204802351Y-45620361D01*
G37*
D12*
X204720000Y-46395000D03*
D10*
G36*
X205302351Y-45620361D02*
G01*
X205309632Y-45621441D01*
X205316771Y-45623229D01*
X205323701Y-45625709D01*
X205330355Y-45628856D01*
X205336668Y-45632640D01*
X205342579Y-45637024D01*
X205348033Y-45641967D01*
X205352976Y-45647421D01*
X205357360Y-45653332D01*
X205361144Y-45659645D01*
X205364291Y-45666299D01*
X205366771Y-45673229D01*
X205368559Y-45680368D01*
X205369639Y-45687649D01*
X205370000Y-45695000D01*
X205370000Y-47095000D01*
X205369639Y-47102351D01*
X205368559Y-47109632D01*
X205366771Y-47116771D01*
X205364291Y-47123701D01*
X205361144Y-47130355D01*
X205357360Y-47136668D01*
X205352976Y-47142579D01*
X205348033Y-47148033D01*
X205342579Y-47152976D01*
X205336668Y-47157360D01*
X205330355Y-47161144D01*
X205323701Y-47164291D01*
X205316771Y-47166771D01*
X205309632Y-47168559D01*
X205302351Y-47169639D01*
X205295000Y-47170000D01*
X205145000Y-47170000D01*
X205137649Y-47169639D01*
X205130368Y-47168559D01*
X205123229Y-47166771D01*
X205116299Y-47164291D01*
X205109645Y-47161144D01*
X205103332Y-47157360D01*
X205097421Y-47152976D01*
X205091967Y-47148033D01*
X205087024Y-47142579D01*
X205082640Y-47136668D01*
X205078856Y-47130355D01*
X205075709Y-47123701D01*
X205073229Y-47116771D01*
X205071441Y-47109632D01*
X205070361Y-47102351D01*
X205070000Y-47095000D01*
X205070000Y-45695000D01*
X205070361Y-45687649D01*
X205071441Y-45680368D01*
X205073229Y-45673229D01*
X205075709Y-45666299D01*
X205078856Y-45659645D01*
X205082640Y-45653332D01*
X205087024Y-45647421D01*
X205091967Y-45641967D01*
X205097421Y-45637024D01*
X205103332Y-45632640D01*
X205109645Y-45628856D01*
X205116299Y-45625709D01*
X205123229Y-45623229D01*
X205130368Y-45621441D01*
X205137649Y-45620361D01*
X205145000Y-45620000D01*
X205295000Y-45620000D01*
X205302351Y-45620361D01*
X205302351Y-45620361D01*
G37*
D12*
X205220000Y-46395000D03*
D10*
G36*
X205802351Y-45620361D02*
G01*
X205809632Y-45621441D01*
X205816771Y-45623229D01*
X205823701Y-45625709D01*
X205830355Y-45628856D01*
X205836668Y-45632640D01*
X205842579Y-45637024D01*
X205848033Y-45641967D01*
X205852976Y-45647421D01*
X205857360Y-45653332D01*
X205861144Y-45659645D01*
X205864291Y-45666299D01*
X205866771Y-45673229D01*
X205868559Y-45680368D01*
X205869639Y-45687649D01*
X205870000Y-45695000D01*
X205870000Y-47095000D01*
X205869639Y-47102351D01*
X205868559Y-47109632D01*
X205866771Y-47116771D01*
X205864291Y-47123701D01*
X205861144Y-47130355D01*
X205857360Y-47136668D01*
X205852976Y-47142579D01*
X205848033Y-47148033D01*
X205842579Y-47152976D01*
X205836668Y-47157360D01*
X205830355Y-47161144D01*
X205823701Y-47164291D01*
X205816771Y-47166771D01*
X205809632Y-47168559D01*
X205802351Y-47169639D01*
X205795000Y-47170000D01*
X205645000Y-47170000D01*
X205637649Y-47169639D01*
X205630368Y-47168559D01*
X205623229Y-47166771D01*
X205616299Y-47164291D01*
X205609645Y-47161144D01*
X205603332Y-47157360D01*
X205597421Y-47152976D01*
X205591967Y-47148033D01*
X205587024Y-47142579D01*
X205582640Y-47136668D01*
X205578856Y-47130355D01*
X205575709Y-47123701D01*
X205573229Y-47116771D01*
X205571441Y-47109632D01*
X205570361Y-47102351D01*
X205570000Y-47095000D01*
X205570000Y-45695000D01*
X205570361Y-45687649D01*
X205571441Y-45680368D01*
X205573229Y-45673229D01*
X205575709Y-45666299D01*
X205578856Y-45659645D01*
X205582640Y-45653332D01*
X205587024Y-45647421D01*
X205591967Y-45641967D01*
X205597421Y-45637024D01*
X205603332Y-45632640D01*
X205609645Y-45628856D01*
X205616299Y-45625709D01*
X205623229Y-45623229D01*
X205630368Y-45621441D01*
X205637649Y-45620361D01*
X205645000Y-45620000D01*
X205795000Y-45620000D01*
X205802351Y-45620361D01*
X205802351Y-45620361D01*
G37*
D12*
X205720000Y-46395000D03*
D10*
G36*
X206302351Y-45620361D02*
G01*
X206309632Y-45621441D01*
X206316771Y-45623229D01*
X206323701Y-45625709D01*
X206330355Y-45628856D01*
X206336668Y-45632640D01*
X206342579Y-45637024D01*
X206348033Y-45641967D01*
X206352976Y-45647421D01*
X206357360Y-45653332D01*
X206361144Y-45659645D01*
X206364291Y-45666299D01*
X206366771Y-45673229D01*
X206368559Y-45680368D01*
X206369639Y-45687649D01*
X206370000Y-45695000D01*
X206370000Y-47095000D01*
X206369639Y-47102351D01*
X206368559Y-47109632D01*
X206366771Y-47116771D01*
X206364291Y-47123701D01*
X206361144Y-47130355D01*
X206357360Y-47136668D01*
X206352976Y-47142579D01*
X206348033Y-47148033D01*
X206342579Y-47152976D01*
X206336668Y-47157360D01*
X206330355Y-47161144D01*
X206323701Y-47164291D01*
X206316771Y-47166771D01*
X206309632Y-47168559D01*
X206302351Y-47169639D01*
X206295000Y-47170000D01*
X206145000Y-47170000D01*
X206137649Y-47169639D01*
X206130368Y-47168559D01*
X206123229Y-47166771D01*
X206116299Y-47164291D01*
X206109645Y-47161144D01*
X206103332Y-47157360D01*
X206097421Y-47152976D01*
X206091967Y-47148033D01*
X206087024Y-47142579D01*
X206082640Y-47136668D01*
X206078856Y-47130355D01*
X206075709Y-47123701D01*
X206073229Y-47116771D01*
X206071441Y-47109632D01*
X206070361Y-47102351D01*
X206070000Y-47095000D01*
X206070000Y-45695000D01*
X206070361Y-45687649D01*
X206071441Y-45680368D01*
X206073229Y-45673229D01*
X206075709Y-45666299D01*
X206078856Y-45659645D01*
X206082640Y-45653332D01*
X206087024Y-45647421D01*
X206091967Y-45641967D01*
X206097421Y-45637024D01*
X206103332Y-45632640D01*
X206109645Y-45628856D01*
X206116299Y-45625709D01*
X206123229Y-45623229D01*
X206130368Y-45621441D01*
X206137649Y-45620361D01*
X206145000Y-45620000D01*
X206295000Y-45620000D01*
X206302351Y-45620361D01*
X206302351Y-45620361D01*
G37*
D12*
X206220000Y-46395000D03*
D10*
G36*
X206802351Y-45620361D02*
G01*
X206809632Y-45621441D01*
X206816771Y-45623229D01*
X206823701Y-45625709D01*
X206830355Y-45628856D01*
X206836668Y-45632640D01*
X206842579Y-45637024D01*
X206848033Y-45641967D01*
X206852976Y-45647421D01*
X206857360Y-45653332D01*
X206861144Y-45659645D01*
X206864291Y-45666299D01*
X206866771Y-45673229D01*
X206868559Y-45680368D01*
X206869639Y-45687649D01*
X206870000Y-45695000D01*
X206870000Y-47095000D01*
X206869639Y-47102351D01*
X206868559Y-47109632D01*
X206866771Y-47116771D01*
X206864291Y-47123701D01*
X206861144Y-47130355D01*
X206857360Y-47136668D01*
X206852976Y-47142579D01*
X206848033Y-47148033D01*
X206842579Y-47152976D01*
X206836668Y-47157360D01*
X206830355Y-47161144D01*
X206823701Y-47164291D01*
X206816771Y-47166771D01*
X206809632Y-47168559D01*
X206802351Y-47169639D01*
X206795000Y-47170000D01*
X206645000Y-47170000D01*
X206637649Y-47169639D01*
X206630368Y-47168559D01*
X206623229Y-47166771D01*
X206616299Y-47164291D01*
X206609645Y-47161144D01*
X206603332Y-47157360D01*
X206597421Y-47152976D01*
X206591967Y-47148033D01*
X206587024Y-47142579D01*
X206582640Y-47136668D01*
X206578856Y-47130355D01*
X206575709Y-47123701D01*
X206573229Y-47116771D01*
X206571441Y-47109632D01*
X206570361Y-47102351D01*
X206570000Y-47095000D01*
X206570000Y-45695000D01*
X206570361Y-45687649D01*
X206571441Y-45680368D01*
X206573229Y-45673229D01*
X206575709Y-45666299D01*
X206578856Y-45659645D01*
X206582640Y-45653332D01*
X206587024Y-45647421D01*
X206591967Y-45641967D01*
X206597421Y-45637024D01*
X206603332Y-45632640D01*
X206609645Y-45628856D01*
X206616299Y-45625709D01*
X206623229Y-45623229D01*
X206630368Y-45621441D01*
X206637649Y-45620361D01*
X206645000Y-45620000D01*
X206795000Y-45620000D01*
X206802351Y-45620361D01*
X206802351Y-45620361D01*
G37*
D12*
X206720000Y-46395000D03*
D10*
G36*
X207302351Y-45620361D02*
G01*
X207309632Y-45621441D01*
X207316771Y-45623229D01*
X207323701Y-45625709D01*
X207330355Y-45628856D01*
X207336668Y-45632640D01*
X207342579Y-45637024D01*
X207348033Y-45641967D01*
X207352976Y-45647421D01*
X207357360Y-45653332D01*
X207361144Y-45659645D01*
X207364291Y-45666299D01*
X207366771Y-45673229D01*
X207368559Y-45680368D01*
X207369639Y-45687649D01*
X207370000Y-45695000D01*
X207370000Y-47095000D01*
X207369639Y-47102351D01*
X207368559Y-47109632D01*
X207366771Y-47116771D01*
X207364291Y-47123701D01*
X207361144Y-47130355D01*
X207357360Y-47136668D01*
X207352976Y-47142579D01*
X207348033Y-47148033D01*
X207342579Y-47152976D01*
X207336668Y-47157360D01*
X207330355Y-47161144D01*
X207323701Y-47164291D01*
X207316771Y-47166771D01*
X207309632Y-47168559D01*
X207302351Y-47169639D01*
X207295000Y-47170000D01*
X207145000Y-47170000D01*
X207137649Y-47169639D01*
X207130368Y-47168559D01*
X207123229Y-47166771D01*
X207116299Y-47164291D01*
X207109645Y-47161144D01*
X207103332Y-47157360D01*
X207097421Y-47152976D01*
X207091967Y-47148033D01*
X207087024Y-47142579D01*
X207082640Y-47136668D01*
X207078856Y-47130355D01*
X207075709Y-47123701D01*
X207073229Y-47116771D01*
X207071441Y-47109632D01*
X207070361Y-47102351D01*
X207070000Y-47095000D01*
X207070000Y-45695000D01*
X207070361Y-45687649D01*
X207071441Y-45680368D01*
X207073229Y-45673229D01*
X207075709Y-45666299D01*
X207078856Y-45659645D01*
X207082640Y-45653332D01*
X207087024Y-45647421D01*
X207091967Y-45641967D01*
X207097421Y-45637024D01*
X207103332Y-45632640D01*
X207109645Y-45628856D01*
X207116299Y-45625709D01*
X207123229Y-45623229D01*
X207130368Y-45621441D01*
X207137649Y-45620361D01*
X207145000Y-45620000D01*
X207295000Y-45620000D01*
X207302351Y-45620361D01*
X207302351Y-45620361D01*
G37*
D12*
X207220000Y-46395000D03*
D10*
G36*
X207802351Y-45620361D02*
G01*
X207809632Y-45621441D01*
X207816771Y-45623229D01*
X207823701Y-45625709D01*
X207830355Y-45628856D01*
X207836668Y-45632640D01*
X207842579Y-45637024D01*
X207848033Y-45641967D01*
X207852976Y-45647421D01*
X207857360Y-45653332D01*
X207861144Y-45659645D01*
X207864291Y-45666299D01*
X207866771Y-45673229D01*
X207868559Y-45680368D01*
X207869639Y-45687649D01*
X207870000Y-45695000D01*
X207870000Y-47095000D01*
X207869639Y-47102351D01*
X207868559Y-47109632D01*
X207866771Y-47116771D01*
X207864291Y-47123701D01*
X207861144Y-47130355D01*
X207857360Y-47136668D01*
X207852976Y-47142579D01*
X207848033Y-47148033D01*
X207842579Y-47152976D01*
X207836668Y-47157360D01*
X207830355Y-47161144D01*
X207823701Y-47164291D01*
X207816771Y-47166771D01*
X207809632Y-47168559D01*
X207802351Y-47169639D01*
X207795000Y-47170000D01*
X207645000Y-47170000D01*
X207637649Y-47169639D01*
X207630368Y-47168559D01*
X207623229Y-47166771D01*
X207616299Y-47164291D01*
X207609645Y-47161144D01*
X207603332Y-47157360D01*
X207597421Y-47152976D01*
X207591967Y-47148033D01*
X207587024Y-47142579D01*
X207582640Y-47136668D01*
X207578856Y-47130355D01*
X207575709Y-47123701D01*
X207573229Y-47116771D01*
X207571441Y-47109632D01*
X207570361Y-47102351D01*
X207570000Y-47095000D01*
X207570000Y-45695000D01*
X207570361Y-45687649D01*
X207571441Y-45680368D01*
X207573229Y-45673229D01*
X207575709Y-45666299D01*
X207578856Y-45659645D01*
X207582640Y-45653332D01*
X207587024Y-45647421D01*
X207591967Y-45641967D01*
X207597421Y-45637024D01*
X207603332Y-45632640D01*
X207609645Y-45628856D01*
X207616299Y-45625709D01*
X207623229Y-45623229D01*
X207630368Y-45621441D01*
X207637649Y-45620361D01*
X207645000Y-45620000D01*
X207795000Y-45620000D01*
X207802351Y-45620361D01*
X207802351Y-45620361D01*
G37*
D12*
X207720000Y-46395000D03*
D10*
G36*
X208302351Y-45620361D02*
G01*
X208309632Y-45621441D01*
X208316771Y-45623229D01*
X208323701Y-45625709D01*
X208330355Y-45628856D01*
X208336668Y-45632640D01*
X208342579Y-45637024D01*
X208348033Y-45641967D01*
X208352976Y-45647421D01*
X208357360Y-45653332D01*
X208361144Y-45659645D01*
X208364291Y-45666299D01*
X208366771Y-45673229D01*
X208368559Y-45680368D01*
X208369639Y-45687649D01*
X208370000Y-45695000D01*
X208370000Y-47095000D01*
X208369639Y-47102351D01*
X208368559Y-47109632D01*
X208366771Y-47116771D01*
X208364291Y-47123701D01*
X208361144Y-47130355D01*
X208357360Y-47136668D01*
X208352976Y-47142579D01*
X208348033Y-47148033D01*
X208342579Y-47152976D01*
X208336668Y-47157360D01*
X208330355Y-47161144D01*
X208323701Y-47164291D01*
X208316771Y-47166771D01*
X208309632Y-47168559D01*
X208302351Y-47169639D01*
X208295000Y-47170000D01*
X208145000Y-47170000D01*
X208137649Y-47169639D01*
X208130368Y-47168559D01*
X208123229Y-47166771D01*
X208116299Y-47164291D01*
X208109645Y-47161144D01*
X208103332Y-47157360D01*
X208097421Y-47152976D01*
X208091967Y-47148033D01*
X208087024Y-47142579D01*
X208082640Y-47136668D01*
X208078856Y-47130355D01*
X208075709Y-47123701D01*
X208073229Y-47116771D01*
X208071441Y-47109632D01*
X208070361Y-47102351D01*
X208070000Y-47095000D01*
X208070000Y-45695000D01*
X208070361Y-45687649D01*
X208071441Y-45680368D01*
X208073229Y-45673229D01*
X208075709Y-45666299D01*
X208078856Y-45659645D01*
X208082640Y-45653332D01*
X208087024Y-45647421D01*
X208091967Y-45641967D01*
X208097421Y-45637024D01*
X208103332Y-45632640D01*
X208109645Y-45628856D01*
X208116299Y-45625709D01*
X208123229Y-45623229D01*
X208130368Y-45621441D01*
X208137649Y-45620361D01*
X208145000Y-45620000D01*
X208295000Y-45620000D01*
X208302351Y-45620361D01*
X208302351Y-45620361D01*
G37*
D12*
X208220000Y-46395000D03*
D10*
G36*
X210852351Y-48170361D02*
G01*
X210859632Y-48171441D01*
X210866771Y-48173229D01*
X210873701Y-48175709D01*
X210880355Y-48178856D01*
X210886668Y-48182640D01*
X210892579Y-48187024D01*
X210898033Y-48191967D01*
X210902976Y-48197421D01*
X210907360Y-48203332D01*
X210911144Y-48209645D01*
X210914291Y-48216299D01*
X210916771Y-48223229D01*
X210918559Y-48230368D01*
X210919639Y-48237649D01*
X210920000Y-48245000D01*
X210920000Y-48395000D01*
X210919639Y-48402351D01*
X210918559Y-48409632D01*
X210916771Y-48416771D01*
X210914291Y-48423701D01*
X210911144Y-48430355D01*
X210907360Y-48436668D01*
X210902976Y-48442579D01*
X210898033Y-48448033D01*
X210892579Y-48452976D01*
X210886668Y-48457360D01*
X210880355Y-48461144D01*
X210873701Y-48464291D01*
X210866771Y-48466771D01*
X210859632Y-48468559D01*
X210852351Y-48469639D01*
X210845000Y-48470000D01*
X209445000Y-48470000D01*
X209437649Y-48469639D01*
X209430368Y-48468559D01*
X209423229Y-48466771D01*
X209416299Y-48464291D01*
X209409645Y-48461144D01*
X209403332Y-48457360D01*
X209397421Y-48452976D01*
X209391967Y-48448033D01*
X209387024Y-48442579D01*
X209382640Y-48436668D01*
X209378856Y-48430355D01*
X209375709Y-48423701D01*
X209373229Y-48416771D01*
X209371441Y-48409632D01*
X209370361Y-48402351D01*
X209370000Y-48395000D01*
X209370000Y-48245000D01*
X209370361Y-48237649D01*
X209371441Y-48230368D01*
X209373229Y-48223229D01*
X209375709Y-48216299D01*
X209378856Y-48209645D01*
X209382640Y-48203332D01*
X209387024Y-48197421D01*
X209391967Y-48191967D01*
X209397421Y-48187024D01*
X209403332Y-48182640D01*
X209409645Y-48178856D01*
X209416299Y-48175709D01*
X209423229Y-48173229D01*
X209430368Y-48171441D01*
X209437649Y-48170361D01*
X209445000Y-48170000D01*
X210845000Y-48170000D01*
X210852351Y-48170361D01*
X210852351Y-48170361D01*
G37*
D12*
X210145000Y-48320000D03*
D10*
G36*
X210852351Y-48670361D02*
G01*
X210859632Y-48671441D01*
X210866771Y-48673229D01*
X210873701Y-48675709D01*
X210880355Y-48678856D01*
X210886668Y-48682640D01*
X210892579Y-48687024D01*
X210898033Y-48691967D01*
X210902976Y-48697421D01*
X210907360Y-48703332D01*
X210911144Y-48709645D01*
X210914291Y-48716299D01*
X210916771Y-48723229D01*
X210918559Y-48730368D01*
X210919639Y-48737649D01*
X210920000Y-48745000D01*
X210920000Y-48895000D01*
X210919639Y-48902351D01*
X210918559Y-48909632D01*
X210916771Y-48916771D01*
X210914291Y-48923701D01*
X210911144Y-48930355D01*
X210907360Y-48936668D01*
X210902976Y-48942579D01*
X210898033Y-48948033D01*
X210892579Y-48952976D01*
X210886668Y-48957360D01*
X210880355Y-48961144D01*
X210873701Y-48964291D01*
X210866771Y-48966771D01*
X210859632Y-48968559D01*
X210852351Y-48969639D01*
X210845000Y-48970000D01*
X209445000Y-48970000D01*
X209437649Y-48969639D01*
X209430368Y-48968559D01*
X209423229Y-48966771D01*
X209416299Y-48964291D01*
X209409645Y-48961144D01*
X209403332Y-48957360D01*
X209397421Y-48952976D01*
X209391967Y-48948033D01*
X209387024Y-48942579D01*
X209382640Y-48936668D01*
X209378856Y-48930355D01*
X209375709Y-48923701D01*
X209373229Y-48916771D01*
X209371441Y-48909632D01*
X209370361Y-48902351D01*
X209370000Y-48895000D01*
X209370000Y-48745000D01*
X209370361Y-48737649D01*
X209371441Y-48730368D01*
X209373229Y-48723229D01*
X209375709Y-48716299D01*
X209378856Y-48709645D01*
X209382640Y-48703332D01*
X209387024Y-48697421D01*
X209391967Y-48691967D01*
X209397421Y-48687024D01*
X209403332Y-48682640D01*
X209409645Y-48678856D01*
X209416299Y-48675709D01*
X209423229Y-48673229D01*
X209430368Y-48671441D01*
X209437649Y-48670361D01*
X209445000Y-48670000D01*
X210845000Y-48670000D01*
X210852351Y-48670361D01*
X210852351Y-48670361D01*
G37*
D12*
X210145000Y-48820000D03*
D10*
G36*
X210852351Y-49170361D02*
G01*
X210859632Y-49171441D01*
X210866771Y-49173229D01*
X210873701Y-49175709D01*
X210880355Y-49178856D01*
X210886668Y-49182640D01*
X210892579Y-49187024D01*
X210898033Y-49191967D01*
X210902976Y-49197421D01*
X210907360Y-49203332D01*
X210911144Y-49209645D01*
X210914291Y-49216299D01*
X210916771Y-49223229D01*
X210918559Y-49230368D01*
X210919639Y-49237649D01*
X210920000Y-49245000D01*
X210920000Y-49395000D01*
X210919639Y-49402351D01*
X210918559Y-49409632D01*
X210916771Y-49416771D01*
X210914291Y-49423701D01*
X210911144Y-49430355D01*
X210907360Y-49436668D01*
X210902976Y-49442579D01*
X210898033Y-49448033D01*
X210892579Y-49452976D01*
X210886668Y-49457360D01*
X210880355Y-49461144D01*
X210873701Y-49464291D01*
X210866771Y-49466771D01*
X210859632Y-49468559D01*
X210852351Y-49469639D01*
X210845000Y-49470000D01*
X209445000Y-49470000D01*
X209437649Y-49469639D01*
X209430368Y-49468559D01*
X209423229Y-49466771D01*
X209416299Y-49464291D01*
X209409645Y-49461144D01*
X209403332Y-49457360D01*
X209397421Y-49452976D01*
X209391967Y-49448033D01*
X209387024Y-49442579D01*
X209382640Y-49436668D01*
X209378856Y-49430355D01*
X209375709Y-49423701D01*
X209373229Y-49416771D01*
X209371441Y-49409632D01*
X209370361Y-49402351D01*
X209370000Y-49395000D01*
X209370000Y-49245000D01*
X209370361Y-49237649D01*
X209371441Y-49230368D01*
X209373229Y-49223229D01*
X209375709Y-49216299D01*
X209378856Y-49209645D01*
X209382640Y-49203332D01*
X209387024Y-49197421D01*
X209391967Y-49191967D01*
X209397421Y-49187024D01*
X209403332Y-49182640D01*
X209409645Y-49178856D01*
X209416299Y-49175709D01*
X209423229Y-49173229D01*
X209430368Y-49171441D01*
X209437649Y-49170361D01*
X209445000Y-49170000D01*
X210845000Y-49170000D01*
X210852351Y-49170361D01*
X210852351Y-49170361D01*
G37*
D12*
X210145000Y-49320000D03*
D10*
G36*
X210852351Y-49670361D02*
G01*
X210859632Y-49671441D01*
X210866771Y-49673229D01*
X210873701Y-49675709D01*
X210880355Y-49678856D01*
X210886668Y-49682640D01*
X210892579Y-49687024D01*
X210898033Y-49691967D01*
X210902976Y-49697421D01*
X210907360Y-49703332D01*
X210911144Y-49709645D01*
X210914291Y-49716299D01*
X210916771Y-49723229D01*
X210918559Y-49730368D01*
X210919639Y-49737649D01*
X210920000Y-49745000D01*
X210920000Y-49895000D01*
X210919639Y-49902351D01*
X210918559Y-49909632D01*
X210916771Y-49916771D01*
X210914291Y-49923701D01*
X210911144Y-49930355D01*
X210907360Y-49936668D01*
X210902976Y-49942579D01*
X210898033Y-49948033D01*
X210892579Y-49952976D01*
X210886668Y-49957360D01*
X210880355Y-49961144D01*
X210873701Y-49964291D01*
X210866771Y-49966771D01*
X210859632Y-49968559D01*
X210852351Y-49969639D01*
X210845000Y-49970000D01*
X209445000Y-49970000D01*
X209437649Y-49969639D01*
X209430368Y-49968559D01*
X209423229Y-49966771D01*
X209416299Y-49964291D01*
X209409645Y-49961144D01*
X209403332Y-49957360D01*
X209397421Y-49952976D01*
X209391967Y-49948033D01*
X209387024Y-49942579D01*
X209382640Y-49936668D01*
X209378856Y-49930355D01*
X209375709Y-49923701D01*
X209373229Y-49916771D01*
X209371441Y-49909632D01*
X209370361Y-49902351D01*
X209370000Y-49895000D01*
X209370000Y-49745000D01*
X209370361Y-49737649D01*
X209371441Y-49730368D01*
X209373229Y-49723229D01*
X209375709Y-49716299D01*
X209378856Y-49709645D01*
X209382640Y-49703332D01*
X209387024Y-49697421D01*
X209391967Y-49691967D01*
X209397421Y-49687024D01*
X209403332Y-49682640D01*
X209409645Y-49678856D01*
X209416299Y-49675709D01*
X209423229Y-49673229D01*
X209430368Y-49671441D01*
X209437649Y-49670361D01*
X209445000Y-49670000D01*
X210845000Y-49670000D01*
X210852351Y-49670361D01*
X210852351Y-49670361D01*
G37*
D12*
X210145000Y-49820000D03*
D10*
G36*
X210852351Y-50170361D02*
G01*
X210859632Y-50171441D01*
X210866771Y-50173229D01*
X210873701Y-50175709D01*
X210880355Y-50178856D01*
X210886668Y-50182640D01*
X210892579Y-50187024D01*
X210898033Y-50191967D01*
X210902976Y-50197421D01*
X210907360Y-50203332D01*
X210911144Y-50209645D01*
X210914291Y-50216299D01*
X210916771Y-50223229D01*
X210918559Y-50230368D01*
X210919639Y-50237649D01*
X210920000Y-50245000D01*
X210920000Y-50395000D01*
X210919639Y-50402351D01*
X210918559Y-50409632D01*
X210916771Y-50416771D01*
X210914291Y-50423701D01*
X210911144Y-50430355D01*
X210907360Y-50436668D01*
X210902976Y-50442579D01*
X210898033Y-50448033D01*
X210892579Y-50452976D01*
X210886668Y-50457360D01*
X210880355Y-50461144D01*
X210873701Y-50464291D01*
X210866771Y-50466771D01*
X210859632Y-50468559D01*
X210852351Y-50469639D01*
X210845000Y-50470000D01*
X209445000Y-50470000D01*
X209437649Y-50469639D01*
X209430368Y-50468559D01*
X209423229Y-50466771D01*
X209416299Y-50464291D01*
X209409645Y-50461144D01*
X209403332Y-50457360D01*
X209397421Y-50452976D01*
X209391967Y-50448033D01*
X209387024Y-50442579D01*
X209382640Y-50436668D01*
X209378856Y-50430355D01*
X209375709Y-50423701D01*
X209373229Y-50416771D01*
X209371441Y-50409632D01*
X209370361Y-50402351D01*
X209370000Y-50395000D01*
X209370000Y-50245000D01*
X209370361Y-50237649D01*
X209371441Y-50230368D01*
X209373229Y-50223229D01*
X209375709Y-50216299D01*
X209378856Y-50209645D01*
X209382640Y-50203332D01*
X209387024Y-50197421D01*
X209391967Y-50191967D01*
X209397421Y-50187024D01*
X209403332Y-50182640D01*
X209409645Y-50178856D01*
X209416299Y-50175709D01*
X209423229Y-50173229D01*
X209430368Y-50171441D01*
X209437649Y-50170361D01*
X209445000Y-50170000D01*
X210845000Y-50170000D01*
X210852351Y-50170361D01*
X210852351Y-50170361D01*
G37*
D12*
X210145000Y-50320000D03*
D10*
G36*
X210852351Y-50670361D02*
G01*
X210859632Y-50671441D01*
X210866771Y-50673229D01*
X210873701Y-50675709D01*
X210880355Y-50678856D01*
X210886668Y-50682640D01*
X210892579Y-50687024D01*
X210898033Y-50691967D01*
X210902976Y-50697421D01*
X210907360Y-50703332D01*
X210911144Y-50709645D01*
X210914291Y-50716299D01*
X210916771Y-50723229D01*
X210918559Y-50730368D01*
X210919639Y-50737649D01*
X210920000Y-50745000D01*
X210920000Y-50895000D01*
X210919639Y-50902351D01*
X210918559Y-50909632D01*
X210916771Y-50916771D01*
X210914291Y-50923701D01*
X210911144Y-50930355D01*
X210907360Y-50936668D01*
X210902976Y-50942579D01*
X210898033Y-50948033D01*
X210892579Y-50952976D01*
X210886668Y-50957360D01*
X210880355Y-50961144D01*
X210873701Y-50964291D01*
X210866771Y-50966771D01*
X210859632Y-50968559D01*
X210852351Y-50969639D01*
X210845000Y-50970000D01*
X209445000Y-50970000D01*
X209437649Y-50969639D01*
X209430368Y-50968559D01*
X209423229Y-50966771D01*
X209416299Y-50964291D01*
X209409645Y-50961144D01*
X209403332Y-50957360D01*
X209397421Y-50952976D01*
X209391967Y-50948033D01*
X209387024Y-50942579D01*
X209382640Y-50936668D01*
X209378856Y-50930355D01*
X209375709Y-50923701D01*
X209373229Y-50916771D01*
X209371441Y-50909632D01*
X209370361Y-50902351D01*
X209370000Y-50895000D01*
X209370000Y-50745000D01*
X209370361Y-50737649D01*
X209371441Y-50730368D01*
X209373229Y-50723229D01*
X209375709Y-50716299D01*
X209378856Y-50709645D01*
X209382640Y-50703332D01*
X209387024Y-50697421D01*
X209391967Y-50691967D01*
X209397421Y-50687024D01*
X209403332Y-50682640D01*
X209409645Y-50678856D01*
X209416299Y-50675709D01*
X209423229Y-50673229D01*
X209430368Y-50671441D01*
X209437649Y-50670361D01*
X209445000Y-50670000D01*
X210845000Y-50670000D01*
X210852351Y-50670361D01*
X210852351Y-50670361D01*
G37*
D12*
X210145000Y-50820000D03*
D10*
G36*
X210852351Y-51170361D02*
G01*
X210859632Y-51171441D01*
X210866771Y-51173229D01*
X210873701Y-51175709D01*
X210880355Y-51178856D01*
X210886668Y-51182640D01*
X210892579Y-51187024D01*
X210898033Y-51191967D01*
X210902976Y-51197421D01*
X210907360Y-51203332D01*
X210911144Y-51209645D01*
X210914291Y-51216299D01*
X210916771Y-51223229D01*
X210918559Y-51230368D01*
X210919639Y-51237649D01*
X210920000Y-51245000D01*
X210920000Y-51395000D01*
X210919639Y-51402351D01*
X210918559Y-51409632D01*
X210916771Y-51416771D01*
X210914291Y-51423701D01*
X210911144Y-51430355D01*
X210907360Y-51436668D01*
X210902976Y-51442579D01*
X210898033Y-51448033D01*
X210892579Y-51452976D01*
X210886668Y-51457360D01*
X210880355Y-51461144D01*
X210873701Y-51464291D01*
X210866771Y-51466771D01*
X210859632Y-51468559D01*
X210852351Y-51469639D01*
X210845000Y-51470000D01*
X209445000Y-51470000D01*
X209437649Y-51469639D01*
X209430368Y-51468559D01*
X209423229Y-51466771D01*
X209416299Y-51464291D01*
X209409645Y-51461144D01*
X209403332Y-51457360D01*
X209397421Y-51452976D01*
X209391967Y-51448033D01*
X209387024Y-51442579D01*
X209382640Y-51436668D01*
X209378856Y-51430355D01*
X209375709Y-51423701D01*
X209373229Y-51416771D01*
X209371441Y-51409632D01*
X209370361Y-51402351D01*
X209370000Y-51395000D01*
X209370000Y-51245000D01*
X209370361Y-51237649D01*
X209371441Y-51230368D01*
X209373229Y-51223229D01*
X209375709Y-51216299D01*
X209378856Y-51209645D01*
X209382640Y-51203332D01*
X209387024Y-51197421D01*
X209391967Y-51191967D01*
X209397421Y-51187024D01*
X209403332Y-51182640D01*
X209409645Y-51178856D01*
X209416299Y-51175709D01*
X209423229Y-51173229D01*
X209430368Y-51171441D01*
X209437649Y-51170361D01*
X209445000Y-51170000D01*
X210845000Y-51170000D01*
X210852351Y-51170361D01*
X210852351Y-51170361D01*
G37*
D12*
X210145000Y-51320000D03*
D10*
G36*
X210852351Y-51670361D02*
G01*
X210859632Y-51671441D01*
X210866771Y-51673229D01*
X210873701Y-51675709D01*
X210880355Y-51678856D01*
X210886668Y-51682640D01*
X210892579Y-51687024D01*
X210898033Y-51691967D01*
X210902976Y-51697421D01*
X210907360Y-51703332D01*
X210911144Y-51709645D01*
X210914291Y-51716299D01*
X210916771Y-51723229D01*
X210918559Y-51730368D01*
X210919639Y-51737649D01*
X210920000Y-51745000D01*
X210920000Y-51895000D01*
X210919639Y-51902351D01*
X210918559Y-51909632D01*
X210916771Y-51916771D01*
X210914291Y-51923701D01*
X210911144Y-51930355D01*
X210907360Y-51936668D01*
X210902976Y-51942579D01*
X210898033Y-51948033D01*
X210892579Y-51952976D01*
X210886668Y-51957360D01*
X210880355Y-51961144D01*
X210873701Y-51964291D01*
X210866771Y-51966771D01*
X210859632Y-51968559D01*
X210852351Y-51969639D01*
X210845000Y-51970000D01*
X209445000Y-51970000D01*
X209437649Y-51969639D01*
X209430368Y-51968559D01*
X209423229Y-51966771D01*
X209416299Y-51964291D01*
X209409645Y-51961144D01*
X209403332Y-51957360D01*
X209397421Y-51952976D01*
X209391967Y-51948033D01*
X209387024Y-51942579D01*
X209382640Y-51936668D01*
X209378856Y-51930355D01*
X209375709Y-51923701D01*
X209373229Y-51916771D01*
X209371441Y-51909632D01*
X209370361Y-51902351D01*
X209370000Y-51895000D01*
X209370000Y-51745000D01*
X209370361Y-51737649D01*
X209371441Y-51730368D01*
X209373229Y-51723229D01*
X209375709Y-51716299D01*
X209378856Y-51709645D01*
X209382640Y-51703332D01*
X209387024Y-51697421D01*
X209391967Y-51691967D01*
X209397421Y-51687024D01*
X209403332Y-51682640D01*
X209409645Y-51678856D01*
X209416299Y-51675709D01*
X209423229Y-51673229D01*
X209430368Y-51671441D01*
X209437649Y-51670361D01*
X209445000Y-51670000D01*
X210845000Y-51670000D01*
X210852351Y-51670361D01*
X210852351Y-51670361D01*
G37*
D12*
X210145000Y-51820000D03*
D10*
G36*
X210852351Y-52170361D02*
G01*
X210859632Y-52171441D01*
X210866771Y-52173229D01*
X210873701Y-52175709D01*
X210880355Y-52178856D01*
X210886668Y-52182640D01*
X210892579Y-52187024D01*
X210898033Y-52191967D01*
X210902976Y-52197421D01*
X210907360Y-52203332D01*
X210911144Y-52209645D01*
X210914291Y-52216299D01*
X210916771Y-52223229D01*
X210918559Y-52230368D01*
X210919639Y-52237649D01*
X210920000Y-52245000D01*
X210920000Y-52395000D01*
X210919639Y-52402351D01*
X210918559Y-52409632D01*
X210916771Y-52416771D01*
X210914291Y-52423701D01*
X210911144Y-52430355D01*
X210907360Y-52436668D01*
X210902976Y-52442579D01*
X210898033Y-52448033D01*
X210892579Y-52452976D01*
X210886668Y-52457360D01*
X210880355Y-52461144D01*
X210873701Y-52464291D01*
X210866771Y-52466771D01*
X210859632Y-52468559D01*
X210852351Y-52469639D01*
X210845000Y-52470000D01*
X209445000Y-52470000D01*
X209437649Y-52469639D01*
X209430368Y-52468559D01*
X209423229Y-52466771D01*
X209416299Y-52464291D01*
X209409645Y-52461144D01*
X209403332Y-52457360D01*
X209397421Y-52452976D01*
X209391967Y-52448033D01*
X209387024Y-52442579D01*
X209382640Y-52436668D01*
X209378856Y-52430355D01*
X209375709Y-52423701D01*
X209373229Y-52416771D01*
X209371441Y-52409632D01*
X209370361Y-52402351D01*
X209370000Y-52395000D01*
X209370000Y-52245000D01*
X209370361Y-52237649D01*
X209371441Y-52230368D01*
X209373229Y-52223229D01*
X209375709Y-52216299D01*
X209378856Y-52209645D01*
X209382640Y-52203332D01*
X209387024Y-52197421D01*
X209391967Y-52191967D01*
X209397421Y-52187024D01*
X209403332Y-52182640D01*
X209409645Y-52178856D01*
X209416299Y-52175709D01*
X209423229Y-52173229D01*
X209430368Y-52171441D01*
X209437649Y-52170361D01*
X209445000Y-52170000D01*
X210845000Y-52170000D01*
X210852351Y-52170361D01*
X210852351Y-52170361D01*
G37*
D12*
X210145000Y-52320000D03*
D10*
G36*
X210852351Y-52670361D02*
G01*
X210859632Y-52671441D01*
X210866771Y-52673229D01*
X210873701Y-52675709D01*
X210880355Y-52678856D01*
X210886668Y-52682640D01*
X210892579Y-52687024D01*
X210898033Y-52691967D01*
X210902976Y-52697421D01*
X210907360Y-52703332D01*
X210911144Y-52709645D01*
X210914291Y-52716299D01*
X210916771Y-52723229D01*
X210918559Y-52730368D01*
X210919639Y-52737649D01*
X210920000Y-52745000D01*
X210920000Y-52895000D01*
X210919639Y-52902351D01*
X210918559Y-52909632D01*
X210916771Y-52916771D01*
X210914291Y-52923701D01*
X210911144Y-52930355D01*
X210907360Y-52936668D01*
X210902976Y-52942579D01*
X210898033Y-52948033D01*
X210892579Y-52952976D01*
X210886668Y-52957360D01*
X210880355Y-52961144D01*
X210873701Y-52964291D01*
X210866771Y-52966771D01*
X210859632Y-52968559D01*
X210852351Y-52969639D01*
X210845000Y-52970000D01*
X209445000Y-52970000D01*
X209437649Y-52969639D01*
X209430368Y-52968559D01*
X209423229Y-52966771D01*
X209416299Y-52964291D01*
X209409645Y-52961144D01*
X209403332Y-52957360D01*
X209397421Y-52952976D01*
X209391967Y-52948033D01*
X209387024Y-52942579D01*
X209382640Y-52936668D01*
X209378856Y-52930355D01*
X209375709Y-52923701D01*
X209373229Y-52916771D01*
X209371441Y-52909632D01*
X209370361Y-52902351D01*
X209370000Y-52895000D01*
X209370000Y-52745000D01*
X209370361Y-52737649D01*
X209371441Y-52730368D01*
X209373229Y-52723229D01*
X209375709Y-52716299D01*
X209378856Y-52709645D01*
X209382640Y-52703332D01*
X209387024Y-52697421D01*
X209391967Y-52691967D01*
X209397421Y-52687024D01*
X209403332Y-52682640D01*
X209409645Y-52678856D01*
X209416299Y-52675709D01*
X209423229Y-52673229D01*
X209430368Y-52671441D01*
X209437649Y-52670361D01*
X209445000Y-52670000D01*
X210845000Y-52670000D01*
X210852351Y-52670361D01*
X210852351Y-52670361D01*
G37*
D12*
X210145000Y-52820000D03*
D10*
G36*
X210852351Y-53170361D02*
G01*
X210859632Y-53171441D01*
X210866771Y-53173229D01*
X210873701Y-53175709D01*
X210880355Y-53178856D01*
X210886668Y-53182640D01*
X210892579Y-53187024D01*
X210898033Y-53191967D01*
X210902976Y-53197421D01*
X210907360Y-53203332D01*
X210911144Y-53209645D01*
X210914291Y-53216299D01*
X210916771Y-53223229D01*
X210918559Y-53230368D01*
X210919639Y-53237649D01*
X210920000Y-53245000D01*
X210920000Y-53395000D01*
X210919639Y-53402351D01*
X210918559Y-53409632D01*
X210916771Y-53416771D01*
X210914291Y-53423701D01*
X210911144Y-53430355D01*
X210907360Y-53436668D01*
X210902976Y-53442579D01*
X210898033Y-53448033D01*
X210892579Y-53452976D01*
X210886668Y-53457360D01*
X210880355Y-53461144D01*
X210873701Y-53464291D01*
X210866771Y-53466771D01*
X210859632Y-53468559D01*
X210852351Y-53469639D01*
X210845000Y-53470000D01*
X209445000Y-53470000D01*
X209437649Y-53469639D01*
X209430368Y-53468559D01*
X209423229Y-53466771D01*
X209416299Y-53464291D01*
X209409645Y-53461144D01*
X209403332Y-53457360D01*
X209397421Y-53452976D01*
X209391967Y-53448033D01*
X209387024Y-53442579D01*
X209382640Y-53436668D01*
X209378856Y-53430355D01*
X209375709Y-53423701D01*
X209373229Y-53416771D01*
X209371441Y-53409632D01*
X209370361Y-53402351D01*
X209370000Y-53395000D01*
X209370000Y-53245000D01*
X209370361Y-53237649D01*
X209371441Y-53230368D01*
X209373229Y-53223229D01*
X209375709Y-53216299D01*
X209378856Y-53209645D01*
X209382640Y-53203332D01*
X209387024Y-53197421D01*
X209391967Y-53191967D01*
X209397421Y-53187024D01*
X209403332Y-53182640D01*
X209409645Y-53178856D01*
X209416299Y-53175709D01*
X209423229Y-53173229D01*
X209430368Y-53171441D01*
X209437649Y-53170361D01*
X209445000Y-53170000D01*
X210845000Y-53170000D01*
X210852351Y-53170361D01*
X210852351Y-53170361D01*
G37*
D12*
X210145000Y-53320000D03*
D10*
G36*
X210852351Y-53670361D02*
G01*
X210859632Y-53671441D01*
X210866771Y-53673229D01*
X210873701Y-53675709D01*
X210880355Y-53678856D01*
X210886668Y-53682640D01*
X210892579Y-53687024D01*
X210898033Y-53691967D01*
X210902976Y-53697421D01*
X210907360Y-53703332D01*
X210911144Y-53709645D01*
X210914291Y-53716299D01*
X210916771Y-53723229D01*
X210918559Y-53730368D01*
X210919639Y-53737649D01*
X210920000Y-53745000D01*
X210920000Y-53895000D01*
X210919639Y-53902351D01*
X210918559Y-53909632D01*
X210916771Y-53916771D01*
X210914291Y-53923701D01*
X210911144Y-53930355D01*
X210907360Y-53936668D01*
X210902976Y-53942579D01*
X210898033Y-53948033D01*
X210892579Y-53952976D01*
X210886668Y-53957360D01*
X210880355Y-53961144D01*
X210873701Y-53964291D01*
X210866771Y-53966771D01*
X210859632Y-53968559D01*
X210852351Y-53969639D01*
X210845000Y-53970000D01*
X209445000Y-53970000D01*
X209437649Y-53969639D01*
X209430368Y-53968559D01*
X209423229Y-53966771D01*
X209416299Y-53964291D01*
X209409645Y-53961144D01*
X209403332Y-53957360D01*
X209397421Y-53952976D01*
X209391967Y-53948033D01*
X209387024Y-53942579D01*
X209382640Y-53936668D01*
X209378856Y-53930355D01*
X209375709Y-53923701D01*
X209373229Y-53916771D01*
X209371441Y-53909632D01*
X209370361Y-53902351D01*
X209370000Y-53895000D01*
X209370000Y-53745000D01*
X209370361Y-53737649D01*
X209371441Y-53730368D01*
X209373229Y-53723229D01*
X209375709Y-53716299D01*
X209378856Y-53709645D01*
X209382640Y-53703332D01*
X209387024Y-53697421D01*
X209391967Y-53691967D01*
X209397421Y-53687024D01*
X209403332Y-53682640D01*
X209409645Y-53678856D01*
X209416299Y-53675709D01*
X209423229Y-53673229D01*
X209430368Y-53671441D01*
X209437649Y-53670361D01*
X209445000Y-53670000D01*
X210845000Y-53670000D01*
X210852351Y-53670361D01*
X210852351Y-53670361D01*
G37*
D12*
X210145000Y-53820000D03*
D10*
G36*
X210852351Y-54170361D02*
G01*
X210859632Y-54171441D01*
X210866771Y-54173229D01*
X210873701Y-54175709D01*
X210880355Y-54178856D01*
X210886668Y-54182640D01*
X210892579Y-54187024D01*
X210898033Y-54191967D01*
X210902976Y-54197421D01*
X210907360Y-54203332D01*
X210911144Y-54209645D01*
X210914291Y-54216299D01*
X210916771Y-54223229D01*
X210918559Y-54230368D01*
X210919639Y-54237649D01*
X210920000Y-54245000D01*
X210920000Y-54395000D01*
X210919639Y-54402351D01*
X210918559Y-54409632D01*
X210916771Y-54416771D01*
X210914291Y-54423701D01*
X210911144Y-54430355D01*
X210907360Y-54436668D01*
X210902976Y-54442579D01*
X210898033Y-54448033D01*
X210892579Y-54452976D01*
X210886668Y-54457360D01*
X210880355Y-54461144D01*
X210873701Y-54464291D01*
X210866771Y-54466771D01*
X210859632Y-54468559D01*
X210852351Y-54469639D01*
X210845000Y-54470000D01*
X209445000Y-54470000D01*
X209437649Y-54469639D01*
X209430368Y-54468559D01*
X209423229Y-54466771D01*
X209416299Y-54464291D01*
X209409645Y-54461144D01*
X209403332Y-54457360D01*
X209397421Y-54452976D01*
X209391967Y-54448033D01*
X209387024Y-54442579D01*
X209382640Y-54436668D01*
X209378856Y-54430355D01*
X209375709Y-54423701D01*
X209373229Y-54416771D01*
X209371441Y-54409632D01*
X209370361Y-54402351D01*
X209370000Y-54395000D01*
X209370000Y-54245000D01*
X209370361Y-54237649D01*
X209371441Y-54230368D01*
X209373229Y-54223229D01*
X209375709Y-54216299D01*
X209378856Y-54209645D01*
X209382640Y-54203332D01*
X209387024Y-54197421D01*
X209391967Y-54191967D01*
X209397421Y-54187024D01*
X209403332Y-54182640D01*
X209409645Y-54178856D01*
X209416299Y-54175709D01*
X209423229Y-54173229D01*
X209430368Y-54171441D01*
X209437649Y-54170361D01*
X209445000Y-54170000D01*
X210845000Y-54170000D01*
X210852351Y-54170361D01*
X210852351Y-54170361D01*
G37*
D12*
X210145000Y-54320000D03*
D10*
G36*
X210852351Y-54670361D02*
G01*
X210859632Y-54671441D01*
X210866771Y-54673229D01*
X210873701Y-54675709D01*
X210880355Y-54678856D01*
X210886668Y-54682640D01*
X210892579Y-54687024D01*
X210898033Y-54691967D01*
X210902976Y-54697421D01*
X210907360Y-54703332D01*
X210911144Y-54709645D01*
X210914291Y-54716299D01*
X210916771Y-54723229D01*
X210918559Y-54730368D01*
X210919639Y-54737649D01*
X210920000Y-54745000D01*
X210920000Y-54895000D01*
X210919639Y-54902351D01*
X210918559Y-54909632D01*
X210916771Y-54916771D01*
X210914291Y-54923701D01*
X210911144Y-54930355D01*
X210907360Y-54936668D01*
X210902976Y-54942579D01*
X210898033Y-54948033D01*
X210892579Y-54952976D01*
X210886668Y-54957360D01*
X210880355Y-54961144D01*
X210873701Y-54964291D01*
X210866771Y-54966771D01*
X210859632Y-54968559D01*
X210852351Y-54969639D01*
X210845000Y-54970000D01*
X209445000Y-54970000D01*
X209437649Y-54969639D01*
X209430368Y-54968559D01*
X209423229Y-54966771D01*
X209416299Y-54964291D01*
X209409645Y-54961144D01*
X209403332Y-54957360D01*
X209397421Y-54952976D01*
X209391967Y-54948033D01*
X209387024Y-54942579D01*
X209382640Y-54936668D01*
X209378856Y-54930355D01*
X209375709Y-54923701D01*
X209373229Y-54916771D01*
X209371441Y-54909632D01*
X209370361Y-54902351D01*
X209370000Y-54895000D01*
X209370000Y-54745000D01*
X209370361Y-54737649D01*
X209371441Y-54730368D01*
X209373229Y-54723229D01*
X209375709Y-54716299D01*
X209378856Y-54709645D01*
X209382640Y-54703332D01*
X209387024Y-54697421D01*
X209391967Y-54691967D01*
X209397421Y-54687024D01*
X209403332Y-54682640D01*
X209409645Y-54678856D01*
X209416299Y-54675709D01*
X209423229Y-54673229D01*
X209430368Y-54671441D01*
X209437649Y-54670361D01*
X209445000Y-54670000D01*
X210845000Y-54670000D01*
X210852351Y-54670361D01*
X210852351Y-54670361D01*
G37*
D12*
X210145000Y-54820000D03*
D10*
G36*
X210852351Y-55170361D02*
G01*
X210859632Y-55171441D01*
X210866771Y-55173229D01*
X210873701Y-55175709D01*
X210880355Y-55178856D01*
X210886668Y-55182640D01*
X210892579Y-55187024D01*
X210898033Y-55191967D01*
X210902976Y-55197421D01*
X210907360Y-55203332D01*
X210911144Y-55209645D01*
X210914291Y-55216299D01*
X210916771Y-55223229D01*
X210918559Y-55230368D01*
X210919639Y-55237649D01*
X210920000Y-55245000D01*
X210920000Y-55395000D01*
X210919639Y-55402351D01*
X210918559Y-55409632D01*
X210916771Y-55416771D01*
X210914291Y-55423701D01*
X210911144Y-55430355D01*
X210907360Y-55436668D01*
X210902976Y-55442579D01*
X210898033Y-55448033D01*
X210892579Y-55452976D01*
X210886668Y-55457360D01*
X210880355Y-55461144D01*
X210873701Y-55464291D01*
X210866771Y-55466771D01*
X210859632Y-55468559D01*
X210852351Y-55469639D01*
X210845000Y-55470000D01*
X209445000Y-55470000D01*
X209437649Y-55469639D01*
X209430368Y-55468559D01*
X209423229Y-55466771D01*
X209416299Y-55464291D01*
X209409645Y-55461144D01*
X209403332Y-55457360D01*
X209397421Y-55452976D01*
X209391967Y-55448033D01*
X209387024Y-55442579D01*
X209382640Y-55436668D01*
X209378856Y-55430355D01*
X209375709Y-55423701D01*
X209373229Y-55416771D01*
X209371441Y-55409632D01*
X209370361Y-55402351D01*
X209370000Y-55395000D01*
X209370000Y-55245000D01*
X209370361Y-55237649D01*
X209371441Y-55230368D01*
X209373229Y-55223229D01*
X209375709Y-55216299D01*
X209378856Y-55209645D01*
X209382640Y-55203332D01*
X209387024Y-55197421D01*
X209391967Y-55191967D01*
X209397421Y-55187024D01*
X209403332Y-55182640D01*
X209409645Y-55178856D01*
X209416299Y-55175709D01*
X209423229Y-55173229D01*
X209430368Y-55171441D01*
X209437649Y-55170361D01*
X209445000Y-55170000D01*
X210845000Y-55170000D01*
X210852351Y-55170361D01*
X210852351Y-55170361D01*
G37*
D12*
X210145000Y-55320000D03*
D10*
G36*
X210852351Y-55670361D02*
G01*
X210859632Y-55671441D01*
X210866771Y-55673229D01*
X210873701Y-55675709D01*
X210880355Y-55678856D01*
X210886668Y-55682640D01*
X210892579Y-55687024D01*
X210898033Y-55691967D01*
X210902976Y-55697421D01*
X210907360Y-55703332D01*
X210911144Y-55709645D01*
X210914291Y-55716299D01*
X210916771Y-55723229D01*
X210918559Y-55730368D01*
X210919639Y-55737649D01*
X210920000Y-55745000D01*
X210920000Y-55895000D01*
X210919639Y-55902351D01*
X210918559Y-55909632D01*
X210916771Y-55916771D01*
X210914291Y-55923701D01*
X210911144Y-55930355D01*
X210907360Y-55936668D01*
X210902976Y-55942579D01*
X210898033Y-55948033D01*
X210892579Y-55952976D01*
X210886668Y-55957360D01*
X210880355Y-55961144D01*
X210873701Y-55964291D01*
X210866771Y-55966771D01*
X210859632Y-55968559D01*
X210852351Y-55969639D01*
X210845000Y-55970000D01*
X209445000Y-55970000D01*
X209437649Y-55969639D01*
X209430368Y-55968559D01*
X209423229Y-55966771D01*
X209416299Y-55964291D01*
X209409645Y-55961144D01*
X209403332Y-55957360D01*
X209397421Y-55952976D01*
X209391967Y-55948033D01*
X209387024Y-55942579D01*
X209382640Y-55936668D01*
X209378856Y-55930355D01*
X209375709Y-55923701D01*
X209373229Y-55916771D01*
X209371441Y-55909632D01*
X209370361Y-55902351D01*
X209370000Y-55895000D01*
X209370000Y-55745000D01*
X209370361Y-55737649D01*
X209371441Y-55730368D01*
X209373229Y-55723229D01*
X209375709Y-55716299D01*
X209378856Y-55709645D01*
X209382640Y-55703332D01*
X209387024Y-55697421D01*
X209391967Y-55691967D01*
X209397421Y-55687024D01*
X209403332Y-55682640D01*
X209409645Y-55678856D01*
X209416299Y-55675709D01*
X209423229Y-55673229D01*
X209430368Y-55671441D01*
X209437649Y-55670361D01*
X209445000Y-55670000D01*
X210845000Y-55670000D01*
X210852351Y-55670361D01*
X210852351Y-55670361D01*
G37*
D12*
X210145000Y-55820000D03*
D10*
G36*
X208302351Y-56970361D02*
G01*
X208309632Y-56971441D01*
X208316771Y-56973229D01*
X208323701Y-56975709D01*
X208330355Y-56978856D01*
X208336668Y-56982640D01*
X208342579Y-56987024D01*
X208348033Y-56991967D01*
X208352976Y-56997421D01*
X208357360Y-57003332D01*
X208361144Y-57009645D01*
X208364291Y-57016299D01*
X208366771Y-57023229D01*
X208368559Y-57030368D01*
X208369639Y-57037649D01*
X208370000Y-57045000D01*
X208370000Y-58445000D01*
X208369639Y-58452351D01*
X208368559Y-58459632D01*
X208366771Y-58466771D01*
X208364291Y-58473701D01*
X208361144Y-58480355D01*
X208357360Y-58486668D01*
X208352976Y-58492579D01*
X208348033Y-58498033D01*
X208342579Y-58502976D01*
X208336668Y-58507360D01*
X208330355Y-58511144D01*
X208323701Y-58514291D01*
X208316771Y-58516771D01*
X208309632Y-58518559D01*
X208302351Y-58519639D01*
X208295000Y-58520000D01*
X208145000Y-58520000D01*
X208137649Y-58519639D01*
X208130368Y-58518559D01*
X208123229Y-58516771D01*
X208116299Y-58514291D01*
X208109645Y-58511144D01*
X208103332Y-58507360D01*
X208097421Y-58502976D01*
X208091967Y-58498033D01*
X208087024Y-58492579D01*
X208082640Y-58486668D01*
X208078856Y-58480355D01*
X208075709Y-58473701D01*
X208073229Y-58466771D01*
X208071441Y-58459632D01*
X208070361Y-58452351D01*
X208070000Y-58445000D01*
X208070000Y-57045000D01*
X208070361Y-57037649D01*
X208071441Y-57030368D01*
X208073229Y-57023229D01*
X208075709Y-57016299D01*
X208078856Y-57009645D01*
X208082640Y-57003332D01*
X208087024Y-56997421D01*
X208091967Y-56991967D01*
X208097421Y-56987024D01*
X208103332Y-56982640D01*
X208109645Y-56978856D01*
X208116299Y-56975709D01*
X208123229Y-56973229D01*
X208130368Y-56971441D01*
X208137649Y-56970361D01*
X208145000Y-56970000D01*
X208295000Y-56970000D01*
X208302351Y-56970361D01*
X208302351Y-56970361D01*
G37*
D12*
X208220000Y-57745000D03*
D10*
G36*
X207802351Y-56970361D02*
G01*
X207809632Y-56971441D01*
X207816771Y-56973229D01*
X207823701Y-56975709D01*
X207830355Y-56978856D01*
X207836668Y-56982640D01*
X207842579Y-56987024D01*
X207848033Y-56991967D01*
X207852976Y-56997421D01*
X207857360Y-57003332D01*
X207861144Y-57009645D01*
X207864291Y-57016299D01*
X207866771Y-57023229D01*
X207868559Y-57030368D01*
X207869639Y-57037649D01*
X207870000Y-57045000D01*
X207870000Y-58445000D01*
X207869639Y-58452351D01*
X207868559Y-58459632D01*
X207866771Y-58466771D01*
X207864291Y-58473701D01*
X207861144Y-58480355D01*
X207857360Y-58486668D01*
X207852976Y-58492579D01*
X207848033Y-58498033D01*
X207842579Y-58502976D01*
X207836668Y-58507360D01*
X207830355Y-58511144D01*
X207823701Y-58514291D01*
X207816771Y-58516771D01*
X207809632Y-58518559D01*
X207802351Y-58519639D01*
X207795000Y-58520000D01*
X207645000Y-58520000D01*
X207637649Y-58519639D01*
X207630368Y-58518559D01*
X207623229Y-58516771D01*
X207616299Y-58514291D01*
X207609645Y-58511144D01*
X207603332Y-58507360D01*
X207597421Y-58502976D01*
X207591967Y-58498033D01*
X207587024Y-58492579D01*
X207582640Y-58486668D01*
X207578856Y-58480355D01*
X207575709Y-58473701D01*
X207573229Y-58466771D01*
X207571441Y-58459632D01*
X207570361Y-58452351D01*
X207570000Y-58445000D01*
X207570000Y-57045000D01*
X207570361Y-57037649D01*
X207571441Y-57030368D01*
X207573229Y-57023229D01*
X207575709Y-57016299D01*
X207578856Y-57009645D01*
X207582640Y-57003332D01*
X207587024Y-56997421D01*
X207591967Y-56991967D01*
X207597421Y-56987024D01*
X207603332Y-56982640D01*
X207609645Y-56978856D01*
X207616299Y-56975709D01*
X207623229Y-56973229D01*
X207630368Y-56971441D01*
X207637649Y-56970361D01*
X207645000Y-56970000D01*
X207795000Y-56970000D01*
X207802351Y-56970361D01*
X207802351Y-56970361D01*
G37*
D12*
X207720000Y-57745000D03*
D10*
G36*
X207302351Y-56970361D02*
G01*
X207309632Y-56971441D01*
X207316771Y-56973229D01*
X207323701Y-56975709D01*
X207330355Y-56978856D01*
X207336668Y-56982640D01*
X207342579Y-56987024D01*
X207348033Y-56991967D01*
X207352976Y-56997421D01*
X207357360Y-57003332D01*
X207361144Y-57009645D01*
X207364291Y-57016299D01*
X207366771Y-57023229D01*
X207368559Y-57030368D01*
X207369639Y-57037649D01*
X207370000Y-57045000D01*
X207370000Y-58445000D01*
X207369639Y-58452351D01*
X207368559Y-58459632D01*
X207366771Y-58466771D01*
X207364291Y-58473701D01*
X207361144Y-58480355D01*
X207357360Y-58486668D01*
X207352976Y-58492579D01*
X207348033Y-58498033D01*
X207342579Y-58502976D01*
X207336668Y-58507360D01*
X207330355Y-58511144D01*
X207323701Y-58514291D01*
X207316771Y-58516771D01*
X207309632Y-58518559D01*
X207302351Y-58519639D01*
X207295000Y-58520000D01*
X207145000Y-58520000D01*
X207137649Y-58519639D01*
X207130368Y-58518559D01*
X207123229Y-58516771D01*
X207116299Y-58514291D01*
X207109645Y-58511144D01*
X207103332Y-58507360D01*
X207097421Y-58502976D01*
X207091967Y-58498033D01*
X207087024Y-58492579D01*
X207082640Y-58486668D01*
X207078856Y-58480355D01*
X207075709Y-58473701D01*
X207073229Y-58466771D01*
X207071441Y-58459632D01*
X207070361Y-58452351D01*
X207070000Y-58445000D01*
X207070000Y-57045000D01*
X207070361Y-57037649D01*
X207071441Y-57030368D01*
X207073229Y-57023229D01*
X207075709Y-57016299D01*
X207078856Y-57009645D01*
X207082640Y-57003332D01*
X207087024Y-56997421D01*
X207091967Y-56991967D01*
X207097421Y-56987024D01*
X207103332Y-56982640D01*
X207109645Y-56978856D01*
X207116299Y-56975709D01*
X207123229Y-56973229D01*
X207130368Y-56971441D01*
X207137649Y-56970361D01*
X207145000Y-56970000D01*
X207295000Y-56970000D01*
X207302351Y-56970361D01*
X207302351Y-56970361D01*
G37*
D12*
X207220000Y-57745000D03*
D10*
G36*
X206802351Y-56970361D02*
G01*
X206809632Y-56971441D01*
X206816771Y-56973229D01*
X206823701Y-56975709D01*
X206830355Y-56978856D01*
X206836668Y-56982640D01*
X206842579Y-56987024D01*
X206848033Y-56991967D01*
X206852976Y-56997421D01*
X206857360Y-57003332D01*
X206861144Y-57009645D01*
X206864291Y-57016299D01*
X206866771Y-57023229D01*
X206868559Y-57030368D01*
X206869639Y-57037649D01*
X206870000Y-57045000D01*
X206870000Y-58445000D01*
X206869639Y-58452351D01*
X206868559Y-58459632D01*
X206866771Y-58466771D01*
X206864291Y-58473701D01*
X206861144Y-58480355D01*
X206857360Y-58486668D01*
X206852976Y-58492579D01*
X206848033Y-58498033D01*
X206842579Y-58502976D01*
X206836668Y-58507360D01*
X206830355Y-58511144D01*
X206823701Y-58514291D01*
X206816771Y-58516771D01*
X206809632Y-58518559D01*
X206802351Y-58519639D01*
X206795000Y-58520000D01*
X206645000Y-58520000D01*
X206637649Y-58519639D01*
X206630368Y-58518559D01*
X206623229Y-58516771D01*
X206616299Y-58514291D01*
X206609645Y-58511144D01*
X206603332Y-58507360D01*
X206597421Y-58502976D01*
X206591967Y-58498033D01*
X206587024Y-58492579D01*
X206582640Y-58486668D01*
X206578856Y-58480355D01*
X206575709Y-58473701D01*
X206573229Y-58466771D01*
X206571441Y-58459632D01*
X206570361Y-58452351D01*
X206570000Y-58445000D01*
X206570000Y-57045000D01*
X206570361Y-57037649D01*
X206571441Y-57030368D01*
X206573229Y-57023229D01*
X206575709Y-57016299D01*
X206578856Y-57009645D01*
X206582640Y-57003332D01*
X206587024Y-56997421D01*
X206591967Y-56991967D01*
X206597421Y-56987024D01*
X206603332Y-56982640D01*
X206609645Y-56978856D01*
X206616299Y-56975709D01*
X206623229Y-56973229D01*
X206630368Y-56971441D01*
X206637649Y-56970361D01*
X206645000Y-56970000D01*
X206795000Y-56970000D01*
X206802351Y-56970361D01*
X206802351Y-56970361D01*
G37*
D12*
X206720000Y-57745000D03*
D10*
G36*
X206302351Y-56970361D02*
G01*
X206309632Y-56971441D01*
X206316771Y-56973229D01*
X206323701Y-56975709D01*
X206330355Y-56978856D01*
X206336668Y-56982640D01*
X206342579Y-56987024D01*
X206348033Y-56991967D01*
X206352976Y-56997421D01*
X206357360Y-57003332D01*
X206361144Y-57009645D01*
X206364291Y-57016299D01*
X206366771Y-57023229D01*
X206368559Y-57030368D01*
X206369639Y-57037649D01*
X206370000Y-57045000D01*
X206370000Y-58445000D01*
X206369639Y-58452351D01*
X206368559Y-58459632D01*
X206366771Y-58466771D01*
X206364291Y-58473701D01*
X206361144Y-58480355D01*
X206357360Y-58486668D01*
X206352976Y-58492579D01*
X206348033Y-58498033D01*
X206342579Y-58502976D01*
X206336668Y-58507360D01*
X206330355Y-58511144D01*
X206323701Y-58514291D01*
X206316771Y-58516771D01*
X206309632Y-58518559D01*
X206302351Y-58519639D01*
X206295000Y-58520000D01*
X206145000Y-58520000D01*
X206137649Y-58519639D01*
X206130368Y-58518559D01*
X206123229Y-58516771D01*
X206116299Y-58514291D01*
X206109645Y-58511144D01*
X206103332Y-58507360D01*
X206097421Y-58502976D01*
X206091967Y-58498033D01*
X206087024Y-58492579D01*
X206082640Y-58486668D01*
X206078856Y-58480355D01*
X206075709Y-58473701D01*
X206073229Y-58466771D01*
X206071441Y-58459632D01*
X206070361Y-58452351D01*
X206070000Y-58445000D01*
X206070000Y-57045000D01*
X206070361Y-57037649D01*
X206071441Y-57030368D01*
X206073229Y-57023229D01*
X206075709Y-57016299D01*
X206078856Y-57009645D01*
X206082640Y-57003332D01*
X206087024Y-56997421D01*
X206091967Y-56991967D01*
X206097421Y-56987024D01*
X206103332Y-56982640D01*
X206109645Y-56978856D01*
X206116299Y-56975709D01*
X206123229Y-56973229D01*
X206130368Y-56971441D01*
X206137649Y-56970361D01*
X206145000Y-56970000D01*
X206295000Y-56970000D01*
X206302351Y-56970361D01*
X206302351Y-56970361D01*
G37*
D12*
X206220000Y-57745000D03*
D10*
G36*
X205802351Y-56970361D02*
G01*
X205809632Y-56971441D01*
X205816771Y-56973229D01*
X205823701Y-56975709D01*
X205830355Y-56978856D01*
X205836668Y-56982640D01*
X205842579Y-56987024D01*
X205848033Y-56991967D01*
X205852976Y-56997421D01*
X205857360Y-57003332D01*
X205861144Y-57009645D01*
X205864291Y-57016299D01*
X205866771Y-57023229D01*
X205868559Y-57030368D01*
X205869639Y-57037649D01*
X205870000Y-57045000D01*
X205870000Y-58445000D01*
X205869639Y-58452351D01*
X205868559Y-58459632D01*
X205866771Y-58466771D01*
X205864291Y-58473701D01*
X205861144Y-58480355D01*
X205857360Y-58486668D01*
X205852976Y-58492579D01*
X205848033Y-58498033D01*
X205842579Y-58502976D01*
X205836668Y-58507360D01*
X205830355Y-58511144D01*
X205823701Y-58514291D01*
X205816771Y-58516771D01*
X205809632Y-58518559D01*
X205802351Y-58519639D01*
X205795000Y-58520000D01*
X205645000Y-58520000D01*
X205637649Y-58519639D01*
X205630368Y-58518559D01*
X205623229Y-58516771D01*
X205616299Y-58514291D01*
X205609645Y-58511144D01*
X205603332Y-58507360D01*
X205597421Y-58502976D01*
X205591967Y-58498033D01*
X205587024Y-58492579D01*
X205582640Y-58486668D01*
X205578856Y-58480355D01*
X205575709Y-58473701D01*
X205573229Y-58466771D01*
X205571441Y-58459632D01*
X205570361Y-58452351D01*
X205570000Y-58445000D01*
X205570000Y-57045000D01*
X205570361Y-57037649D01*
X205571441Y-57030368D01*
X205573229Y-57023229D01*
X205575709Y-57016299D01*
X205578856Y-57009645D01*
X205582640Y-57003332D01*
X205587024Y-56997421D01*
X205591967Y-56991967D01*
X205597421Y-56987024D01*
X205603332Y-56982640D01*
X205609645Y-56978856D01*
X205616299Y-56975709D01*
X205623229Y-56973229D01*
X205630368Y-56971441D01*
X205637649Y-56970361D01*
X205645000Y-56970000D01*
X205795000Y-56970000D01*
X205802351Y-56970361D01*
X205802351Y-56970361D01*
G37*
D12*
X205720000Y-57745000D03*
D10*
G36*
X205302351Y-56970361D02*
G01*
X205309632Y-56971441D01*
X205316771Y-56973229D01*
X205323701Y-56975709D01*
X205330355Y-56978856D01*
X205336668Y-56982640D01*
X205342579Y-56987024D01*
X205348033Y-56991967D01*
X205352976Y-56997421D01*
X205357360Y-57003332D01*
X205361144Y-57009645D01*
X205364291Y-57016299D01*
X205366771Y-57023229D01*
X205368559Y-57030368D01*
X205369639Y-57037649D01*
X205370000Y-57045000D01*
X205370000Y-58445000D01*
X205369639Y-58452351D01*
X205368559Y-58459632D01*
X205366771Y-58466771D01*
X205364291Y-58473701D01*
X205361144Y-58480355D01*
X205357360Y-58486668D01*
X205352976Y-58492579D01*
X205348033Y-58498033D01*
X205342579Y-58502976D01*
X205336668Y-58507360D01*
X205330355Y-58511144D01*
X205323701Y-58514291D01*
X205316771Y-58516771D01*
X205309632Y-58518559D01*
X205302351Y-58519639D01*
X205295000Y-58520000D01*
X205145000Y-58520000D01*
X205137649Y-58519639D01*
X205130368Y-58518559D01*
X205123229Y-58516771D01*
X205116299Y-58514291D01*
X205109645Y-58511144D01*
X205103332Y-58507360D01*
X205097421Y-58502976D01*
X205091967Y-58498033D01*
X205087024Y-58492579D01*
X205082640Y-58486668D01*
X205078856Y-58480355D01*
X205075709Y-58473701D01*
X205073229Y-58466771D01*
X205071441Y-58459632D01*
X205070361Y-58452351D01*
X205070000Y-58445000D01*
X205070000Y-57045000D01*
X205070361Y-57037649D01*
X205071441Y-57030368D01*
X205073229Y-57023229D01*
X205075709Y-57016299D01*
X205078856Y-57009645D01*
X205082640Y-57003332D01*
X205087024Y-56997421D01*
X205091967Y-56991967D01*
X205097421Y-56987024D01*
X205103332Y-56982640D01*
X205109645Y-56978856D01*
X205116299Y-56975709D01*
X205123229Y-56973229D01*
X205130368Y-56971441D01*
X205137649Y-56970361D01*
X205145000Y-56970000D01*
X205295000Y-56970000D01*
X205302351Y-56970361D01*
X205302351Y-56970361D01*
G37*
D12*
X205220000Y-57745000D03*
D10*
G36*
X204802351Y-56970361D02*
G01*
X204809632Y-56971441D01*
X204816771Y-56973229D01*
X204823701Y-56975709D01*
X204830355Y-56978856D01*
X204836668Y-56982640D01*
X204842579Y-56987024D01*
X204848033Y-56991967D01*
X204852976Y-56997421D01*
X204857360Y-57003332D01*
X204861144Y-57009645D01*
X204864291Y-57016299D01*
X204866771Y-57023229D01*
X204868559Y-57030368D01*
X204869639Y-57037649D01*
X204870000Y-57045000D01*
X204870000Y-58445000D01*
X204869639Y-58452351D01*
X204868559Y-58459632D01*
X204866771Y-58466771D01*
X204864291Y-58473701D01*
X204861144Y-58480355D01*
X204857360Y-58486668D01*
X204852976Y-58492579D01*
X204848033Y-58498033D01*
X204842579Y-58502976D01*
X204836668Y-58507360D01*
X204830355Y-58511144D01*
X204823701Y-58514291D01*
X204816771Y-58516771D01*
X204809632Y-58518559D01*
X204802351Y-58519639D01*
X204795000Y-58520000D01*
X204645000Y-58520000D01*
X204637649Y-58519639D01*
X204630368Y-58518559D01*
X204623229Y-58516771D01*
X204616299Y-58514291D01*
X204609645Y-58511144D01*
X204603332Y-58507360D01*
X204597421Y-58502976D01*
X204591967Y-58498033D01*
X204587024Y-58492579D01*
X204582640Y-58486668D01*
X204578856Y-58480355D01*
X204575709Y-58473701D01*
X204573229Y-58466771D01*
X204571441Y-58459632D01*
X204570361Y-58452351D01*
X204570000Y-58445000D01*
X204570000Y-57045000D01*
X204570361Y-57037649D01*
X204571441Y-57030368D01*
X204573229Y-57023229D01*
X204575709Y-57016299D01*
X204578856Y-57009645D01*
X204582640Y-57003332D01*
X204587024Y-56997421D01*
X204591967Y-56991967D01*
X204597421Y-56987024D01*
X204603332Y-56982640D01*
X204609645Y-56978856D01*
X204616299Y-56975709D01*
X204623229Y-56973229D01*
X204630368Y-56971441D01*
X204637649Y-56970361D01*
X204645000Y-56970000D01*
X204795000Y-56970000D01*
X204802351Y-56970361D01*
X204802351Y-56970361D01*
G37*
D12*
X204720000Y-57745000D03*
D10*
G36*
X204302351Y-56970361D02*
G01*
X204309632Y-56971441D01*
X204316771Y-56973229D01*
X204323701Y-56975709D01*
X204330355Y-56978856D01*
X204336668Y-56982640D01*
X204342579Y-56987024D01*
X204348033Y-56991967D01*
X204352976Y-56997421D01*
X204357360Y-57003332D01*
X204361144Y-57009645D01*
X204364291Y-57016299D01*
X204366771Y-57023229D01*
X204368559Y-57030368D01*
X204369639Y-57037649D01*
X204370000Y-57045000D01*
X204370000Y-58445000D01*
X204369639Y-58452351D01*
X204368559Y-58459632D01*
X204366771Y-58466771D01*
X204364291Y-58473701D01*
X204361144Y-58480355D01*
X204357360Y-58486668D01*
X204352976Y-58492579D01*
X204348033Y-58498033D01*
X204342579Y-58502976D01*
X204336668Y-58507360D01*
X204330355Y-58511144D01*
X204323701Y-58514291D01*
X204316771Y-58516771D01*
X204309632Y-58518559D01*
X204302351Y-58519639D01*
X204295000Y-58520000D01*
X204145000Y-58520000D01*
X204137649Y-58519639D01*
X204130368Y-58518559D01*
X204123229Y-58516771D01*
X204116299Y-58514291D01*
X204109645Y-58511144D01*
X204103332Y-58507360D01*
X204097421Y-58502976D01*
X204091967Y-58498033D01*
X204087024Y-58492579D01*
X204082640Y-58486668D01*
X204078856Y-58480355D01*
X204075709Y-58473701D01*
X204073229Y-58466771D01*
X204071441Y-58459632D01*
X204070361Y-58452351D01*
X204070000Y-58445000D01*
X204070000Y-57045000D01*
X204070361Y-57037649D01*
X204071441Y-57030368D01*
X204073229Y-57023229D01*
X204075709Y-57016299D01*
X204078856Y-57009645D01*
X204082640Y-57003332D01*
X204087024Y-56997421D01*
X204091967Y-56991967D01*
X204097421Y-56987024D01*
X204103332Y-56982640D01*
X204109645Y-56978856D01*
X204116299Y-56975709D01*
X204123229Y-56973229D01*
X204130368Y-56971441D01*
X204137649Y-56970361D01*
X204145000Y-56970000D01*
X204295000Y-56970000D01*
X204302351Y-56970361D01*
X204302351Y-56970361D01*
G37*
D12*
X204220000Y-57745000D03*
D10*
G36*
X203802351Y-56970361D02*
G01*
X203809632Y-56971441D01*
X203816771Y-56973229D01*
X203823701Y-56975709D01*
X203830355Y-56978856D01*
X203836668Y-56982640D01*
X203842579Y-56987024D01*
X203848033Y-56991967D01*
X203852976Y-56997421D01*
X203857360Y-57003332D01*
X203861144Y-57009645D01*
X203864291Y-57016299D01*
X203866771Y-57023229D01*
X203868559Y-57030368D01*
X203869639Y-57037649D01*
X203870000Y-57045000D01*
X203870000Y-58445000D01*
X203869639Y-58452351D01*
X203868559Y-58459632D01*
X203866771Y-58466771D01*
X203864291Y-58473701D01*
X203861144Y-58480355D01*
X203857360Y-58486668D01*
X203852976Y-58492579D01*
X203848033Y-58498033D01*
X203842579Y-58502976D01*
X203836668Y-58507360D01*
X203830355Y-58511144D01*
X203823701Y-58514291D01*
X203816771Y-58516771D01*
X203809632Y-58518559D01*
X203802351Y-58519639D01*
X203795000Y-58520000D01*
X203645000Y-58520000D01*
X203637649Y-58519639D01*
X203630368Y-58518559D01*
X203623229Y-58516771D01*
X203616299Y-58514291D01*
X203609645Y-58511144D01*
X203603332Y-58507360D01*
X203597421Y-58502976D01*
X203591967Y-58498033D01*
X203587024Y-58492579D01*
X203582640Y-58486668D01*
X203578856Y-58480355D01*
X203575709Y-58473701D01*
X203573229Y-58466771D01*
X203571441Y-58459632D01*
X203570361Y-58452351D01*
X203570000Y-58445000D01*
X203570000Y-57045000D01*
X203570361Y-57037649D01*
X203571441Y-57030368D01*
X203573229Y-57023229D01*
X203575709Y-57016299D01*
X203578856Y-57009645D01*
X203582640Y-57003332D01*
X203587024Y-56997421D01*
X203591967Y-56991967D01*
X203597421Y-56987024D01*
X203603332Y-56982640D01*
X203609645Y-56978856D01*
X203616299Y-56975709D01*
X203623229Y-56973229D01*
X203630368Y-56971441D01*
X203637649Y-56970361D01*
X203645000Y-56970000D01*
X203795000Y-56970000D01*
X203802351Y-56970361D01*
X203802351Y-56970361D01*
G37*
D12*
X203720000Y-57745000D03*
D10*
G36*
X203302351Y-56970361D02*
G01*
X203309632Y-56971441D01*
X203316771Y-56973229D01*
X203323701Y-56975709D01*
X203330355Y-56978856D01*
X203336668Y-56982640D01*
X203342579Y-56987024D01*
X203348033Y-56991967D01*
X203352976Y-56997421D01*
X203357360Y-57003332D01*
X203361144Y-57009645D01*
X203364291Y-57016299D01*
X203366771Y-57023229D01*
X203368559Y-57030368D01*
X203369639Y-57037649D01*
X203370000Y-57045000D01*
X203370000Y-58445000D01*
X203369639Y-58452351D01*
X203368559Y-58459632D01*
X203366771Y-58466771D01*
X203364291Y-58473701D01*
X203361144Y-58480355D01*
X203357360Y-58486668D01*
X203352976Y-58492579D01*
X203348033Y-58498033D01*
X203342579Y-58502976D01*
X203336668Y-58507360D01*
X203330355Y-58511144D01*
X203323701Y-58514291D01*
X203316771Y-58516771D01*
X203309632Y-58518559D01*
X203302351Y-58519639D01*
X203295000Y-58520000D01*
X203145000Y-58520000D01*
X203137649Y-58519639D01*
X203130368Y-58518559D01*
X203123229Y-58516771D01*
X203116299Y-58514291D01*
X203109645Y-58511144D01*
X203103332Y-58507360D01*
X203097421Y-58502976D01*
X203091967Y-58498033D01*
X203087024Y-58492579D01*
X203082640Y-58486668D01*
X203078856Y-58480355D01*
X203075709Y-58473701D01*
X203073229Y-58466771D01*
X203071441Y-58459632D01*
X203070361Y-58452351D01*
X203070000Y-58445000D01*
X203070000Y-57045000D01*
X203070361Y-57037649D01*
X203071441Y-57030368D01*
X203073229Y-57023229D01*
X203075709Y-57016299D01*
X203078856Y-57009645D01*
X203082640Y-57003332D01*
X203087024Y-56997421D01*
X203091967Y-56991967D01*
X203097421Y-56987024D01*
X203103332Y-56982640D01*
X203109645Y-56978856D01*
X203116299Y-56975709D01*
X203123229Y-56973229D01*
X203130368Y-56971441D01*
X203137649Y-56970361D01*
X203145000Y-56970000D01*
X203295000Y-56970000D01*
X203302351Y-56970361D01*
X203302351Y-56970361D01*
G37*
D12*
X203220000Y-57745000D03*
D10*
G36*
X202802351Y-56970361D02*
G01*
X202809632Y-56971441D01*
X202816771Y-56973229D01*
X202823701Y-56975709D01*
X202830355Y-56978856D01*
X202836668Y-56982640D01*
X202842579Y-56987024D01*
X202848033Y-56991967D01*
X202852976Y-56997421D01*
X202857360Y-57003332D01*
X202861144Y-57009645D01*
X202864291Y-57016299D01*
X202866771Y-57023229D01*
X202868559Y-57030368D01*
X202869639Y-57037649D01*
X202870000Y-57045000D01*
X202870000Y-58445000D01*
X202869639Y-58452351D01*
X202868559Y-58459632D01*
X202866771Y-58466771D01*
X202864291Y-58473701D01*
X202861144Y-58480355D01*
X202857360Y-58486668D01*
X202852976Y-58492579D01*
X202848033Y-58498033D01*
X202842579Y-58502976D01*
X202836668Y-58507360D01*
X202830355Y-58511144D01*
X202823701Y-58514291D01*
X202816771Y-58516771D01*
X202809632Y-58518559D01*
X202802351Y-58519639D01*
X202795000Y-58520000D01*
X202645000Y-58520000D01*
X202637649Y-58519639D01*
X202630368Y-58518559D01*
X202623229Y-58516771D01*
X202616299Y-58514291D01*
X202609645Y-58511144D01*
X202603332Y-58507360D01*
X202597421Y-58502976D01*
X202591967Y-58498033D01*
X202587024Y-58492579D01*
X202582640Y-58486668D01*
X202578856Y-58480355D01*
X202575709Y-58473701D01*
X202573229Y-58466771D01*
X202571441Y-58459632D01*
X202570361Y-58452351D01*
X202570000Y-58445000D01*
X202570000Y-57045000D01*
X202570361Y-57037649D01*
X202571441Y-57030368D01*
X202573229Y-57023229D01*
X202575709Y-57016299D01*
X202578856Y-57009645D01*
X202582640Y-57003332D01*
X202587024Y-56997421D01*
X202591967Y-56991967D01*
X202597421Y-56987024D01*
X202603332Y-56982640D01*
X202609645Y-56978856D01*
X202616299Y-56975709D01*
X202623229Y-56973229D01*
X202630368Y-56971441D01*
X202637649Y-56970361D01*
X202645000Y-56970000D01*
X202795000Y-56970000D01*
X202802351Y-56970361D01*
X202802351Y-56970361D01*
G37*
D12*
X202720000Y-57745000D03*
D10*
G36*
X202302351Y-56970361D02*
G01*
X202309632Y-56971441D01*
X202316771Y-56973229D01*
X202323701Y-56975709D01*
X202330355Y-56978856D01*
X202336668Y-56982640D01*
X202342579Y-56987024D01*
X202348033Y-56991967D01*
X202352976Y-56997421D01*
X202357360Y-57003332D01*
X202361144Y-57009645D01*
X202364291Y-57016299D01*
X202366771Y-57023229D01*
X202368559Y-57030368D01*
X202369639Y-57037649D01*
X202370000Y-57045000D01*
X202370000Y-58445000D01*
X202369639Y-58452351D01*
X202368559Y-58459632D01*
X202366771Y-58466771D01*
X202364291Y-58473701D01*
X202361144Y-58480355D01*
X202357360Y-58486668D01*
X202352976Y-58492579D01*
X202348033Y-58498033D01*
X202342579Y-58502976D01*
X202336668Y-58507360D01*
X202330355Y-58511144D01*
X202323701Y-58514291D01*
X202316771Y-58516771D01*
X202309632Y-58518559D01*
X202302351Y-58519639D01*
X202295000Y-58520000D01*
X202145000Y-58520000D01*
X202137649Y-58519639D01*
X202130368Y-58518559D01*
X202123229Y-58516771D01*
X202116299Y-58514291D01*
X202109645Y-58511144D01*
X202103332Y-58507360D01*
X202097421Y-58502976D01*
X202091967Y-58498033D01*
X202087024Y-58492579D01*
X202082640Y-58486668D01*
X202078856Y-58480355D01*
X202075709Y-58473701D01*
X202073229Y-58466771D01*
X202071441Y-58459632D01*
X202070361Y-58452351D01*
X202070000Y-58445000D01*
X202070000Y-57045000D01*
X202070361Y-57037649D01*
X202071441Y-57030368D01*
X202073229Y-57023229D01*
X202075709Y-57016299D01*
X202078856Y-57009645D01*
X202082640Y-57003332D01*
X202087024Y-56997421D01*
X202091967Y-56991967D01*
X202097421Y-56987024D01*
X202103332Y-56982640D01*
X202109645Y-56978856D01*
X202116299Y-56975709D01*
X202123229Y-56973229D01*
X202130368Y-56971441D01*
X202137649Y-56970361D01*
X202145000Y-56970000D01*
X202295000Y-56970000D01*
X202302351Y-56970361D01*
X202302351Y-56970361D01*
G37*
D12*
X202220000Y-57745000D03*
D10*
G36*
X201802351Y-56970361D02*
G01*
X201809632Y-56971441D01*
X201816771Y-56973229D01*
X201823701Y-56975709D01*
X201830355Y-56978856D01*
X201836668Y-56982640D01*
X201842579Y-56987024D01*
X201848033Y-56991967D01*
X201852976Y-56997421D01*
X201857360Y-57003332D01*
X201861144Y-57009645D01*
X201864291Y-57016299D01*
X201866771Y-57023229D01*
X201868559Y-57030368D01*
X201869639Y-57037649D01*
X201870000Y-57045000D01*
X201870000Y-58445000D01*
X201869639Y-58452351D01*
X201868559Y-58459632D01*
X201866771Y-58466771D01*
X201864291Y-58473701D01*
X201861144Y-58480355D01*
X201857360Y-58486668D01*
X201852976Y-58492579D01*
X201848033Y-58498033D01*
X201842579Y-58502976D01*
X201836668Y-58507360D01*
X201830355Y-58511144D01*
X201823701Y-58514291D01*
X201816771Y-58516771D01*
X201809632Y-58518559D01*
X201802351Y-58519639D01*
X201795000Y-58520000D01*
X201645000Y-58520000D01*
X201637649Y-58519639D01*
X201630368Y-58518559D01*
X201623229Y-58516771D01*
X201616299Y-58514291D01*
X201609645Y-58511144D01*
X201603332Y-58507360D01*
X201597421Y-58502976D01*
X201591967Y-58498033D01*
X201587024Y-58492579D01*
X201582640Y-58486668D01*
X201578856Y-58480355D01*
X201575709Y-58473701D01*
X201573229Y-58466771D01*
X201571441Y-58459632D01*
X201570361Y-58452351D01*
X201570000Y-58445000D01*
X201570000Y-57045000D01*
X201570361Y-57037649D01*
X201571441Y-57030368D01*
X201573229Y-57023229D01*
X201575709Y-57016299D01*
X201578856Y-57009645D01*
X201582640Y-57003332D01*
X201587024Y-56997421D01*
X201591967Y-56991967D01*
X201597421Y-56987024D01*
X201603332Y-56982640D01*
X201609645Y-56978856D01*
X201616299Y-56975709D01*
X201623229Y-56973229D01*
X201630368Y-56971441D01*
X201637649Y-56970361D01*
X201645000Y-56970000D01*
X201795000Y-56970000D01*
X201802351Y-56970361D01*
X201802351Y-56970361D01*
G37*
D12*
X201720000Y-57745000D03*
D10*
G36*
X201302351Y-56970361D02*
G01*
X201309632Y-56971441D01*
X201316771Y-56973229D01*
X201323701Y-56975709D01*
X201330355Y-56978856D01*
X201336668Y-56982640D01*
X201342579Y-56987024D01*
X201348033Y-56991967D01*
X201352976Y-56997421D01*
X201357360Y-57003332D01*
X201361144Y-57009645D01*
X201364291Y-57016299D01*
X201366771Y-57023229D01*
X201368559Y-57030368D01*
X201369639Y-57037649D01*
X201370000Y-57045000D01*
X201370000Y-58445000D01*
X201369639Y-58452351D01*
X201368559Y-58459632D01*
X201366771Y-58466771D01*
X201364291Y-58473701D01*
X201361144Y-58480355D01*
X201357360Y-58486668D01*
X201352976Y-58492579D01*
X201348033Y-58498033D01*
X201342579Y-58502976D01*
X201336668Y-58507360D01*
X201330355Y-58511144D01*
X201323701Y-58514291D01*
X201316771Y-58516771D01*
X201309632Y-58518559D01*
X201302351Y-58519639D01*
X201295000Y-58520000D01*
X201145000Y-58520000D01*
X201137649Y-58519639D01*
X201130368Y-58518559D01*
X201123229Y-58516771D01*
X201116299Y-58514291D01*
X201109645Y-58511144D01*
X201103332Y-58507360D01*
X201097421Y-58502976D01*
X201091967Y-58498033D01*
X201087024Y-58492579D01*
X201082640Y-58486668D01*
X201078856Y-58480355D01*
X201075709Y-58473701D01*
X201073229Y-58466771D01*
X201071441Y-58459632D01*
X201070361Y-58452351D01*
X201070000Y-58445000D01*
X201070000Y-57045000D01*
X201070361Y-57037649D01*
X201071441Y-57030368D01*
X201073229Y-57023229D01*
X201075709Y-57016299D01*
X201078856Y-57009645D01*
X201082640Y-57003332D01*
X201087024Y-56997421D01*
X201091967Y-56991967D01*
X201097421Y-56987024D01*
X201103332Y-56982640D01*
X201109645Y-56978856D01*
X201116299Y-56975709D01*
X201123229Y-56973229D01*
X201130368Y-56971441D01*
X201137649Y-56970361D01*
X201145000Y-56970000D01*
X201295000Y-56970000D01*
X201302351Y-56970361D01*
X201302351Y-56970361D01*
G37*
D12*
X201220000Y-57745000D03*
D10*
G36*
X200802351Y-56970361D02*
G01*
X200809632Y-56971441D01*
X200816771Y-56973229D01*
X200823701Y-56975709D01*
X200830355Y-56978856D01*
X200836668Y-56982640D01*
X200842579Y-56987024D01*
X200848033Y-56991967D01*
X200852976Y-56997421D01*
X200857360Y-57003332D01*
X200861144Y-57009645D01*
X200864291Y-57016299D01*
X200866771Y-57023229D01*
X200868559Y-57030368D01*
X200869639Y-57037649D01*
X200870000Y-57045000D01*
X200870000Y-58445000D01*
X200869639Y-58452351D01*
X200868559Y-58459632D01*
X200866771Y-58466771D01*
X200864291Y-58473701D01*
X200861144Y-58480355D01*
X200857360Y-58486668D01*
X200852976Y-58492579D01*
X200848033Y-58498033D01*
X200842579Y-58502976D01*
X200836668Y-58507360D01*
X200830355Y-58511144D01*
X200823701Y-58514291D01*
X200816771Y-58516771D01*
X200809632Y-58518559D01*
X200802351Y-58519639D01*
X200795000Y-58520000D01*
X200645000Y-58520000D01*
X200637649Y-58519639D01*
X200630368Y-58518559D01*
X200623229Y-58516771D01*
X200616299Y-58514291D01*
X200609645Y-58511144D01*
X200603332Y-58507360D01*
X200597421Y-58502976D01*
X200591967Y-58498033D01*
X200587024Y-58492579D01*
X200582640Y-58486668D01*
X200578856Y-58480355D01*
X200575709Y-58473701D01*
X200573229Y-58466771D01*
X200571441Y-58459632D01*
X200570361Y-58452351D01*
X200570000Y-58445000D01*
X200570000Y-57045000D01*
X200570361Y-57037649D01*
X200571441Y-57030368D01*
X200573229Y-57023229D01*
X200575709Y-57016299D01*
X200578856Y-57009645D01*
X200582640Y-57003332D01*
X200587024Y-56997421D01*
X200591967Y-56991967D01*
X200597421Y-56987024D01*
X200603332Y-56982640D01*
X200609645Y-56978856D01*
X200616299Y-56975709D01*
X200623229Y-56973229D01*
X200630368Y-56971441D01*
X200637649Y-56970361D01*
X200645000Y-56970000D01*
X200795000Y-56970000D01*
X200802351Y-56970361D01*
X200802351Y-56970361D01*
G37*
D12*
X200720000Y-57745000D03*
D10*
G36*
X199502351Y-55670361D02*
G01*
X199509632Y-55671441D01*
X199516771Y-55673229D01*
X199523701Y-55675709D01*
X199530355Y-55678856D01*
X199536668Y-55682640D01*
X199542579Y-55687024D01*
X199548033Y-55691967D01*
X199552976Y-55697421D01*
X199557360Y-55703332D01*
X199561144Y-55709645D01*
X199564291Y-55716299D01*
X199566771Y-55723229D01*
X199568559Y-55730368D01*
X199569639Y-55737649D01*
X199570000Y-55745000D01*
X199570000Y-55895000D01*
X199569639Y-55902351D01*
X199568559Y-55909632D01*
X199566771Y-55916771D01*
X199564291Y-55923701D01*
X199561144Y-55930355D01*
X199557360Y-55936668D01*
X199552976Y-55942579D01*
X199548033Y-55948033D01*
X199542579Y-55952976D01*
X199536668Y-55957360D01*
X199530355Y-55961144D01*
X199523701Y-55964291D01*
X199516771Y-55966771D01*
X199509632Y-55968559D01*
X199502351Y-55969639D01*
X199495000Y-55970000D01*
X198095000Y-55970000D01*
X198087649Y-55969639D01*
X198080368Y-55968559D01*
X198073229Y-55966771D01*
X198066299Y-55964291D01*
X198059645Y-55961144D01*
X198053332Y-55957360D01*
X198047421Y-55952976D01*
X198041967Y-55948033D01*
X198037024Y-55942579D01*
X198032640Y-55936668D01*
X198028856Y-55930355D01*
X198025709Y-55923701D01*
X198023229Y-55916771D01*
X198021441Y-55909632D01*
X198020361Y-55902351D01*
X198020000Y-55895000D01*
X198020000Y-55745000D01*
X198020361Y-55737649D01*
X198021441Y-55730368D01*
X198023229Y-55723229D01*
X198025709Y-55716299D01*
X198028856Y-55709645D01*
X198032640Y-55703332D01*
X198037024Y-55697421D01*
X198041967Y-55691967D01*
X198047421Y-55687024D01*
X198053332Y-55682640D01*
X198059645Y-55678856D01*
X198066299Y-55675709D01*
X198073229Y-55673229D01*
X198080368Y-55671441D01*
X198087649Y-55670361D01*
X198095000Y-55670000D01*
X199495000Y-55670000D01*
X199502351Y-55670361D01*
X199502351Y-55670361D01*
G37*
D12*
X198795000Y-55820000D03*
D10*
G36*
X199502351Y-55170361D02*
G01*
X199509632Y-55171441D01*
X199516771Y-55173229D01*
X199523701Y-55175709D01*
X199530355Y-55178856D01*
X199536668Y-55182640D01*
X199542579Y-55187024D01*
X199548033Y-55191967D01*
X199552976Y-55197421D01*
X199557360Y-55203332D01*
X199561144Y-55209645D01*
X199564291Y-55216299D01*
X199566771Y-55223229D01*
X199568559Y-55230368D01*
X199569639Y-55237649D01*
X199570000Y-55245000D01*
X199570000Y-55395000D01*
X199569639Y-55402351D01*
X199568559Y-55409632D01*
X199566771Y-55416771D01*
X199564291Y-55423701D01*
X199561144Y-55430355D01*
X199557360Y-55436668D01*
X199552976Y-55442579D01*
X199548033Y-55448033D01*
X199542579Y-55452976D01*
X199536668Y-55457360D01*
X199530355Y-55461144D01*
X199523701Y-55464291D01*
X199516771Y-55466771D01*
X199509632Y-55468559D01*
X199502351Y-55469639D01*
X199495000Y-55470000D01*
X198095000Y-55470000D01*
X198087649Y-55469639D01*
X198080368Y-55468559D01*
X198073229Y-55466771D01*
X198066299Y-55464291D01*
X198059645Y-55461144D01*
X198053332Y-55457360D01*
X198047421Y-55452976D01*
X198041967Y-55448033D01*
X198037024Y-55442579D01*
X198032640Y-55436668D01*
X198028856Y-55430355D01*
X198025709Y-55423701D01*
X198023229Y-55416771D01*
X198021441Y-55409632D01*
X198020361Y-55402351D01*
X198020000Y-55395000D01*
X198020000Y-55245000D01*
X198020361Y-55237649D01*
X198021441Y-55230368D01*
X198023229Y-55223229D01*
X198025709Y-55216299D01*
X198028856Y-55209645D01*
X198032640Y-55203332D01*
X198037024Y-55197421D01*
X198041967Y-55191967D01*
X198047421Y-55187024D01*
X198053332Y-55182640D01*
X198059645Y-55178856D01*
X198066299Y-55175709D01*
X198073229Y-55173229D01*
X198080368Y-55171441D01*
X198087649Y-55170361D01*
X198095000Y-55170000D01*
X199495000Y-55170000D01*
X199502351Y-55170361D01*
X199502351Y-55170361D01*
G37*
D12*
X198795000Y-55320000D03*
D10*
G36*
X199502351Y-54670361D02*
G01*
X199509632Y-54671441D01*
X199516771Y-54673229D01*
X199523701Y-54675709D01*
X199530355Y-54678856D01*
X199536668Y-54682640D01*
X199542579Y-54687024D01*
X199548033Y-54691967D01*
X199552976Y-54697421D01*
X199557360Y-54703332D01*
X199561144Y-54709645D01*
X199564291Y-54716299D01*
X199566771Y-54723229D01*
X199568559Y-54730368D01*
X199569639Y-54737649D01*
X199570000Y-54745000D01*
X199570000Y-54895000D01*
X199569639Y-54902351D01*
X199568559Y-54909632D01*
X199566771Y-54916771D01*
X199564291Y-54923701D01*
X199561144Y-54930355D01*
X199557360Y-54936668D01*
X199552976Y-54942579D01*
X199548033Y-54948033D01*
X199542579Y-54952976D01*
X199536668Y-54957360D01*
X199530355Y-54961144D01*
X199523701Y-54964291D01*
X199516771Y-54966771D01*
X199509632Y-54968559D01*
X199502351Y-54969639D01*
X199495000Y-54970000D01*
X198095000Y-54970000D01*
X198087649Y-54969639D01*
X198080368Y-54968559D01*
X198073229Y-54966771D01*
X198066299Y-54964291D01*
X198059645Y-54961144D01*
X198053332Y-54957360D01*
X198047421Y-54952976D01*
X198041967Y-54948033D01*
X198037024Y-54942579D01*
X198032640Y-54936668D01*
X198028856Y-54930355D01*
X198025709Y-54923701D01*
X198023229Y-54916771D01*
X198021441Y-54909632D01*
X198020361Y-54902351D01*
X198020000Y-54895000D01*
X198020000Y-54745000D01*
X198020361Y-54737649D01*
X198021441Y-54730368D01*
X198023229Y-54723229D01*
X198025709Y-54716299D01*
X198028856Y-54709645D01*
X198032640Y-54703332D01*
X198037024Y-54697421D01*
X198041967Y-54691967D01*
X198047421Y-54687024D01*
X198053332Y-54682640D01*
X198059645Y-54678856D01*
X198066299Y-54675709D01*
X198073229Y-54673229D01*
X198080368Y-54671441D01*
X198087649Y-54670361D01*
X198095000Y-54670000D01*
X199495000Y-54670000D01*
X199502351Y-54670361D01*
X199502351Y-54670361D01*
G37*
D12*
X198795000Y-54820000D03*
D10*
G36*
X199502351Y-54170361D02*
G01*
X199509632Y-54171441D01*
X199516771Y-54173229D01*
X199523701Y-54175709D01*
X199530355Y-54178856D01*
X199536668Y-54182640D01*
X199542579Y-54187024D01*
X199548033Y-54191967D01*
X199552976Y-54197421D01*
X199557360Y-54203332D01*
X199561144Y-54209645D01*
X199564291Y-54216299D01*
X199566771Y-54223229D01*
X199568559Y-54230368D01*
X199569639Y-54237649D01*
X199570000Y-54245000D01*
X199570000Y-54395000D01*
X199569639Y-54402351D01*
X199568559Y-54409632D01*
X199566771Y-54416771D01*
X199564291Y-54423701D01*
X199561144Y-54430355D01*
X199557360Y-54436668D01*
X199552976Y-54442579D01*
X199548033Y-54448033D01*
X199542579Y-54452976D01*
X199536668Y-54457360D01*
X199530355Y-54461144D01*
X199523701Y-54464291D01*
X199516771Y-54466771D01*
X199509632Y-54468559D01*
X199502351Y-54469639D01*
X199495000Y-54470000D01*
X198095000Y-54470000D01*
X198087649Y-54469639D01*
X198080368Y-54468559D01*
X198073229Y-54466771D01*
X198066299Y-54464291D01*
X198059645Y-54461144D01*
X198053332Y-54457360D01*
X198047421Y-54452976D01*
X198041967Y-54448033D01*
X198037024Y-54442579D01*
X198032640Y-54436668D01*
X198028856Y-54430355D01*
X198025709Y-54423701D01*
X198023229Y-54416771D01*
X198021441Y-54409632D01*
X198020361Y-54402351D01*
X198020000Y-54395000D01*
X198020000Y-54245000D01*
X198020361Y-54237649D01*
X198021441Y-54230368D01*
X198023229Y-54223229D01*
X198025709Y-54216299D01*
X198028856Y-54209645D01*
X198032640Y-54203332D01*
X198037024Y-54197421D01*
X198041967Y-54191967D01*
X198047421Y-54187024D01*
X198053332Y-54182640D01*
X198059645Y-54178856D01*
X198066299Y-54175709D01*
X198073229Y-54173229D01*
X198080368Y-54171441D01*
X198087649Y-54170361D01*
X198095000Y-54170000D01*
X199495000Y-54170000D01*
X199502351Y-54170361D01*
X199502351Y-54170361D01*
G37*
D12*
X198795000Y-54320000D03*
D10*
G36*
X199502351Y-53670361D02*
G01*
X199509632Y-53671441D01*
X199516771Y-53673229D01*
X199523701Y-53675709D01*
X199530355Y-53678856D01*
X199536668Y-53682640D01*
X199542579Y-53687024D01*
X199548033Y-53691967D01*
X199552976Y-53697421D01*
X199557360Y-53703332D01*
X199561144Y-53709645D01*
X199564291Y-53716299D01*
X199566771Y-53723229D01*
X199568559Y-53730368D01*
X199569639Y-53737649D01*
X199570000Y-53745000D01*
X199570000Y-53895000D01*
X199569639Y-53902351D01*
X199568559Y-53909632D01*
X199566771Y-53916771D01*
X199564291Y-53923701D01*
X199561144Y-53930355D01*
X199557360Y-53936668D01*
X199552976Y-53942579D01*
X199548033Y-53948033D01*
X199542579Y-53952976D01*
X199536668Y-53957360D01*
X199530355Y-53961144D01*
X199523701Y-53964291D01*
X199516771Y-53966771D01*
X199509632Y-53968559D01*
X199502351Y-53969639D01*
X199495000Y-53970000D01*
X198095000Y-53970000D01*
X198087649Y-53969639D01*
X198080368Y-53968559D01*
X198073229Y-53966771D01*
X198066299Y-53964291D01*
X198059645Y-53961144D01*
X198053332Y-53957360D01*
X198047421Y-53952976D01*
X198041967Y-53948033D01*
X198037024Y-53942579D01*
X198032640Y-53936668D01*
X198028856Y-53930355D01*
X198025709Y-53923701D01*
X198023229Y-53916771D01*
X198021441Y-53909632D01*
X198020361Y-53902351D01*
X198020000Y-53895000D01*
X198020000Y-53745000D01*
X198020361Y-53737649D01*
X198021441Y-53730368D01*
X198023229Y-53723229D01*
X198025709Y-53716299D01*
X198028856Y-53709645D01*
X198032640Y-53703332D01*
X198037024Y-53697421D01*
X198041967Y-53691967D01*
X198047421Y-53687024D01*
X198053332Y-53682640D01*
X198059645Y-53678856D01*
X198066299Y-53675709D01*
X198073229Y-53673229D01*
X198080368Y-53671441D01*
X198087649Y-53670361D01*
X198095000Y-53670000D01*
X199495000Y-53670000D01*
X199502351Y-53670361D01*
X199502351Y-53670361D01*
G37*
D12*
X198795000Y-53820000D03*
D10*
G36*
X199502351Y-53170361D02*
G01*
X199509632Y-53171441D01*
X199516771Y-53173229D01*
X199523701Y-53175709D01*
X199530355Y-53178856D01*
X199536668Y-53182640D01*
X199542579Y-53187024D01*
X199548033Y-53191967D01*
X199552976Y-53197421D01*
X199557360Y-53203332D01*
X199561144Y-53209645D01*
X199564291Y-53216299D01*
X199566771Y-53223229D01*
X199568559Y-53230368D01*
X199569639Y-53237649D01*
X199570000Y-53245000D01*
X199570000Y-53395000D01*
X199569639Y-53402351D01*
X199568559Y-53409632D01*
X199566771Y-53416771D01*
X199564291Y-53423701D01*
X199561144Y-53430355D01*
X199557360Y-53436668D01*
X199552976Y-53442579D01*
X199548033Y-53448033D01*
X199542579Y-53452976D01*
X199536668Y-53457360D01*
X199530355Y-53461144D01*
X199523701Y-53464291D01*
X199516771Y-53466771D01*
X199509632Y-53468559D01*
X199502351Y-53469639D01*
X199495000Y-53470000D01*
X198095000Y-53470000D01*
X198087649Y-53469639D01*
X198080368Y-53468559D01*
X198073229Y-53466771D01*
X198066299Y-53464291D01*
X198059645Y-53461144D01*
X198053332Y-53457360D01*
X198047421Y-53452976D01*
X198041967Y-53448033D01*
X198037024Y-53442579D01*
X198032640Y-53436668D01*
X198028856Y-53430355D01*
X198025709Y-53423701D01*
X198023229Y-53416771D01*
X198021441Y-53409632D01*
X198020361Y-53402351D01*
X198020000Y-53395000D01*
X198020000Y-53245000D01*
X198020361Y-53237649D01*
X198021441Y-53230368D01*
X198023229Y-53223229D01*
X198025709Y-53216299D01*
X198028856Y-53209645D01*
X198032640Y-53203332D01*
X198037024Y-53197421D01*
X198041967Y-53191967D01*
X198047421Y-53187024D01*
X198053332Y-53182640D01*
X198059645Y-53178856D01*
X198066299Y-53175709D01*
X198073229Y-53173229D01*
X198080368Y-53171441D01*
X198087649Y-53170361D01*
X198095000Y-53170000D01*
X199495000Y-53170000D01*
X199502351Y-53170361D01*
X199502351Y-53170361D01*
G37*
D12*
X198795000Y-53320000D03*
D10*
G36*
X199502351Y-52670361D02*
G01*
X199509632Y-52671441D01*
X199516771Y-52673229D01*
X199523701Y-52675709D01*
X199530355Y-52678856D01*
X199536668Y-52682640D01*
X199542579Y-52687024D01*
X199548033Y-52691967D01*
X199552976Y-52697421D01*
X199557360Y-52703332D01*
X199561144Y-52709645D01*
X199564291Y-52716299D01*
X199566771Y-52723229D01*
X199568559Y-52730368D01*
X199569639Y-52737649D01*
X199570000Y-52745000D01*
X199570000Y-52895000D01*
X199569639Y-52902351D01*
X199568559Y-52909632D01*
X199566771Y-52916771D01*
X199564291Y-52923701D01*
X199561144Y-52930355D01*
X199557360Y-52936668D01*
X199552976Y-52942579D01*
X199548033Y-52948033D01*
X199542579Y-52952976D01*
X199536668Y-52957360D01*
X199530355Y-52961144D01*
X199523701Y-52964291D01*
X199516771Y-52966771D01*
X199509632Y-52968559D01*
X199502351Y-52969639D01*
X199495000Y-52970000D01*
X198095000Y-52970000D01*
X198087649Y-52969639D01*
X198080368Y-52968559D01*
X198073229Y-52966771D01*
X198066299Y-52964291D01*
X198059645Y-52961144D01*
X198053332Y-52957360D01*
X198047421Y-52952976D01*
X198041967Y-52948033D01*
X198037024Y-52942579D01*
X198032640Y-52936668D01*
X198028856Y-52930355D01*
X198025709Y-52923701D01*
X198023229Y-52916771D01*
X198021441Y-52909632D01*
X198020361Y-52902351D01*
X198020000Y-52895000D01*
X198020000Y-52745000D01*
X198020361Y-52737649D01*
X198021441Y-52730368D01*
X198023229Y-52723229D01*
X198025709Y-52716299D01*
X198028856Y-52709645D01*
X198032640Y-52703332D01*
X198037024Y-52697421D01*
X198041967Y-52691967D01*
X198047421Y-52687024D01*
X198053332Y-52682640D01*
X198059645Y-52678856D01*
X198066299Y-52675709D01*
X198073229Y-52673229D01*
X198080368Y-52671441D01*
X198087649Y-52670361D01*
X198095000Y-52670000D01*
X199495000Y-52670000D01*
X199502351Y-52670361D01*
X199502351Y-52670361D01*
G37*
D12*
X198795000Y-52820000D03*
D10*
G36*
X199502351Y-52170361D02*
G01*
X199509632Y-52171441D01*
X199516771Y-52173229D01*
X199523701Y-52175709D01*
X199530355Y-52178856D01*
X199536668Y-52182640D01*
X199542579Y-52187024D01*
X199548033Y-52191967D01*
X199552976Y-52197421D01*
X199557360Y-52203332D01*
X199561144Y-52209645D01*
X199564291Y-52216299D01*
X199566771Y-52223229D01*
X199568559Y-52230368D01*
X199569639Y-52237649D01*
X199570000Y-52245000D01*
X199570000Y-52395000D01*
X199569639Y-52402351D01*
X199568559Y-52409632D01*
X199566771Y-52416771D01*
X199564291Y-52423701D01*
X199561144Y-52430355D01*
X199557360Y-52436668D01*
X199552976Y-52442579D01*
X199548033Y-52448033D01*
X199542579Y-52452976D01*
X199536668Y-52457360D01*
X199530355Y-52461144D01*
X199523701Y-52464291D01*
X199516771Y-52466771D01*
X199509632Y-52468559D01*
X199502351Y-52469639D01*
X199495000Y-52470000D01*
X198095000Y-52470000D01*
X198087649Y-52469639D01*
X198080368Y-52468559D01*
X198073229Y-52466771D01*
X198066299Y-52464291D01*
X198059645Y-52461144D01*
X198053332Y-52457360D01*
X198047421Y-52452976D01*
X198041967Y-52448033D01*
X198037024Y-52442579D01*
X198032640Y-52436668D01*
X198028856Y-52430355D01*
X198025709Y-52423701D01*
X198023229Y-52416771D01*
X198021441Y-52409632D01*
X198020361Y-52402351D01*
X198020000Y-52395000D01*
X198020000Y-52245000D01*
X198020361Y-52237649D01*
X198021441Y-52230368D01*
X198023229Y-52223229D01*
X198025709Y-52216299D01*
X198028856Y-52209645D01*
X198032640Y-52203332D01*
X198037024Y-52197421D01*
X198041967Y-52191967D01*
X198047421Y-52187024D01*
X198053332Y-52182640D01*
X198059645Y-52178856D01*
X198066299Y-52175709D01*
X198073229Y-52173229D01*
X198080368Y-52171441D01*
X198087649Y-52170361D01*
X198095000Y-52170000D01*
X199495000Y-52170000D01*
X199502351Y-52170361D01*
X199502351Y-52170361D01*
G37*
D12*
X198795000Y-52320000D03*
D10*
G36*
X199502351Y-51670361D02*
G01*
X199509632Y-51671441D01*
X199516771Y-51673229D01*
X199523701Y-51675709D01*
X199530355Y-51678856D01*
X199536668Y-51682640D01*
X199542579Y-51687024D01*
X199548033Y-51691967D01*
X199552976Y-51697421D01*
X199557360Y-51703332D01*
X199561144Y-51709645D01*
X199564291Y-51716299D01*
X199566771Y-51723229D01*
X199568559Y-51730368D01*
X199569639Y-51737649D01*
X199570000Y-51745000D01*
X199570000Y-51895000D01*
X199569639Y-51902351D01*
X199568559Y-51909632D01*
X199566771Y-51916771D01*
X199564291Y-51923701D01*
X199561144Y-51930355D01*
X199557360Y-51936668D01*
X199552976Y-51942579D01*
X199548033Y-51948033D01*
X199542579Y-51952976D01*
X199536668Y-51957360D01*
X199530355Y-51961144D01*
X199523701Y-51964291D01*
X199516771Y-51966771D01*
X199509632Y-51968559D01*
X199502351Y-51969639D01*
X199495000Y-51970000D01*
X198095000Y-51970000D01*
X198087649Y-51969639D01*
X198080368Y-51968559D01*
X198073229Y-51966771D01*
X198066299Y-51964291D01*
X198059645Y-51961144D01*
X198053332Y-51957360D01*
X198047421Y-51952976D01*
X198041967Y-51948033D01*
X198037024Y-51942579D01*
X198032640Y-51936668D01*
X198028856Y-51930355D01*
X198025709Y-51923701D01*
X198023229Y-51916771D01*
X198021441Y-51909632D01*
X198020361Y-51902351D01*
X198020000Y-51895000D01*
X198020000Y-51745000D01*
X198020361Y-51737649D01*
X198021441Y-51730368D01*
X198023229Y-51723229D01*
X198025709Y-51716299D01*
X198028856Y-51709645D01*
X198032640Y-51703332D01*
X198037024Y-51697421D01*
X198041967Y-51691967D01*
X198047421Y-51687024D01*
X198053332Y-51682640D01*
X198059645Y-51678856D01*
X198066299Y-51675709D01*
X198073229Y-51673229D01*
X198080368Y-51671441D01*
X198087649Y-51670361D01*
X198095000Y-51670000D01*
X199495000Y-51670000D01*
X199502351Y-51670361D01*
X199502351Y-51670361D01*
G37*
D12*
X198795000Y-51820000D03*
D10*
G36*
X199502351Y-51170361D02*
G01*
X199509632Y-51171441D01*
X199516771Y-51173229D01*
X199523701Y-51175709D01*
X199530355Y-51178856D01*
X199536668Y-51182640D01*
X199542579Y-51187024D01*
X199548033Y-51191967D01*
X199552976Y-51197421D01*
X199557360Y-51203332D01*
X199561144Y-51209645D01*
X199564291Y-51216299D01*
X199566771Y-51223229D01*
X199568559Y-51230368D01*
X199569639Y-51237649D01*
X199570000Y-51245000D01*
X199570000Y-51395000D01*
X199569639Y-51402351D01*
X199568559Y-51409632D01*
X199566771Y-51416771D01*
X199564291Y-51423701D01*
X199561144Y-51430355D01*
X199557360Y-51436668D01*
X199552976Y-51442579D01*
X199548033Y-51448033D01*
X199542579Y-51452976D01*
X199536668Y-51457360D01*
X199530355Y-51461144D01*
X199523701Y-51464291D01*
X199516771Y-51466771D01*
X199509632Y-51468559D01*
X199502351Y-51469639D01*
X199495000Y-51470000D01*
X198095000Y-51470000D01*
X198087649Y-51469639D01*
X198080368Y-51468559D01*
X198073229Y-51466771D01*
X198066299Y-51464291D01*
X198059645Y-51461144D01*
X198053332Y-51457360D01*
X198047421Y-51452976D01*
X198041967Y-51448033D01*
X198037024Y-51442579D01*
X198032640Y-51436668D01*
X198028856Y-51430355D01*
X198025709Y-51423701D01*
X198023229Y-51416771D01*
X198021441Y-51409632D01*
X198020361Y-51402351D01*
X198020000Y-51395000D01*
X198020000Y-51245000D01*
X198020361Y-51237649D01*
X198021441Y-51230368D01*
X198023229Y-51223229D01*
X198025709Y-51216299D01*
X198028856Y-51209645D01*
X198032640Y-51203332D01*
X198037024Y-51197421D01*
X198041967Y-51191967D01*
X198047421Y-51187024D01*
X198053332Y-51182640D01*
X198059645Y-51178856D01*
X198066299Y-51175709D01*
X198073229Y-51173229D01*
X198080368Y-51171441D01*
X198087649Y-51170361D01*
X198095000Y-51170000D01*
X199495000Y-51170000D01*
X199502351Y-51170361D01*
X199502351Y-51170361D01*
G37*
D12*
X198795000Y-51320000D03*
D10*
G36*
X199502351Y-50670361D02*
G01*
X199509632Y-50671441D01*
X199516771Y-50673229D01*
X199523701Y-50675709D01*
X199530355Y-50678856D01*
X199536668Y-50682640D01*
X199542579Y-50687024D01*
X199548033Y-50691967D01*
X199552976Y-50697421D01*
X199557360Y-50703332D01*
X199561144Y-50709645D01*
X199564291Y-50716299D01*
X199566771Y-50723229D01*
X199568559Y-50730368D01*
X199569639Y-50737649D01*
X199570000Y-50745000D01*
X199570000Y-50895000D01*
X199569639Y-50902351D01*
X199568559Y-50909632D01*
X199566771Y-50916771D01*
X199564291Y-50923701D01*
X199561144Y-50930355D01*
X199557360Y-50936668D01*
X199552976Y-50942579D01*
X199548033Y-50948033D01*
X199542579Y-50952976D01*
X199536668Y-50957360D01*
X199530355Y-50961144D01*
X199523701Y-50964291D01*
X199516771Y-50966771D01*
X199509632Y-50968559D01*
X199502351Y-50969639D01*
X199495000Y-50970000D01*
X198095000Y-50970000D01*
X198087649Y-50969639D01*
X198080368Y-50968559D01*
X198073229Y-50966771D01*
X198066299Y-50964291D01*
X198059645Y-50961144D01*
X198053332Y-50957360D01*
X198047421Y-50952976D01*
X198041967Y-50948033D01*
X198037024Y-50942579D01*
X198032640Y-50936668D01*
X198028856Y-50930355D01*
X198025709Y-50923701D01*
X198023229Y-50916771D01*
X198021441Y-50909632D01*
X198020361Y-50902351D01*
X198020000Y-50895000D01*
X198020000Y-50745000D01*
X198020361Y-50737649D01*
X198021441Y-50730368D01*
X198023229Y-50723229D01*
X198025709Y-50716299D01*
X198028856Y-50709645D01*
X198032640Y-50703332D01*
X198037024Y-50697421D01*
X198041967Y-50691967D01*
X198047421Y-50687024D01*
X198053332Y-50682640D01*
X198059645Y-50678856D01*
X198066299Y-50675709D01*
X198073229Y-50673229D01*
X198080368Y-50671441D01*
X198087649Y-50670361D01*
X198095000Y-50670000D01*
X199495000Y-50670000D01*
X199502351Y-50670361D01*
X199502351Y-50670361D01*
G37*
D12*
X198795000Y-50820000D03*
D10*
G36*
X199502351Y-50170361D02*
G01*
X199509632Y-50171441D01*
X199516771Y-50173229D01*
X199523701Y-50175709D01*
X199530355Y-50178856D01*
X199536668Y-50182640D01*
X199542579Y-50187024D01*
X199548033Y-50191967D01*
X199552976Y-50197421D01*
X199557360Y-50203332D01*
X199561144Y-50209645D01*
X199564291Y-50216299D01*
X199566771Y-50223229D01*
X199568559Y-50230368D01*
X199569639Y-50237649D01*
X199570000Y-50245000D01*
X199570000Y-50395000D01*
X199569639Y-50402351D01*
X199568559Y-50409632D01*
X199566771Y-50416771D01*
X199564291Y-50423701D01*
X199561144Y-50430355D01*
X199557360Y-50436668D01*
X199552976Y-50442579D01*
X199548033Y-50448033D01*
X199542579Y-50452976D01*
X199536668Y-50457360D01*
X199530355Y-50461144D01*
X199523701Y-50464291D01*
X199516771Y-50466771D01*
X199509632Y-50468559D01*
X199502351Y-50469639D01*
X199495000Y-50470000D01*
X198095000Y-50470000D01*
X198087649Y-50469639D01*
X198080368Y-50468559D01*
X198073229Y-50466771D01*
X198066299Y-50464291D01*
X198059645Y-50461144D01*
X198053332Y-50457360D01*
X198047421Y-50452976D01*
X198041967Y-50448033D01*
X198037024Y-50442579D01*
X198032640Y-50436668D01*
X198028856Y-50430355D01*
X198025709Y-50423701D01*
X198023229Y-50416771D01*
X198021441Y-50409632D01*
X198020361Y-50402351D01*
X198020000Y-50395000D01*
X198020000Y-50245000D01*
X198020361Y-50237649D01*
X198021441Y-50230368D01*
X198023229Y-50223229D01*
X198025709Y-50216299D01*
X198028856Y-50209645D01*
X198032640Y-50203332D01*
X198037024Y-50197421D01*
X198041967Y-50191967D01*
X198047421Y-50187024D01*
X198053332Y-50182640D01*
X198059645Y-50178856D01*
X198066299Y-50175709D01*
X198073229Y-50173229D01*
X198080368Y-50171441D01*
X198087649Y-50170361D01*
X198095000Y-50170000D01*
X199495000Y-50170000D01*
X199502351Y-50170361D01*
X199502351Y-50170361D01*
G37*
D12*
X198795000Y-50320000D03*
D10*
G36*
X199502351Y-49670361D02*
G01*
X199509632Y-49671441D01*
X199516771Y-49673229D01*
X199523701Y-49675709D01*
X199530355Y-49678856D01*
X199536668Y-49682640D01*
X199542579Y-49687024D01*
X199548033Y-49691967D01*
X199552976Y-49697421D01*
X199557360Y-49703332D01*
X199561144Y-49709645D01*
X199564291Y-49716299D01*
X199566771Y-49723229D01*
X199568559Y-49730368D01*
X199569639Y-49737649D01*
X199570000Y-49745000D01*
X199570000Y-49895000D01*
X199569639Y-49902351D01*
X199568559Y-49909632D01*
X199566771Y-49916771D01*
X199564291Y-49923701D01*
X199561144Y-49930355D01*
X199557360Y-49936668D01*
X199552976Y-49942579D01*
X199548033Y-49948033D01*
X199542579Y-49952976D01*
X199536668Y-49957360D01*
X199530355Y-49961144D01*
X199523701Y-49964291D01*
X199516771Y-49966771D01*
X199509632Y-49968559D01*
X199502351Y-49969639D01*
X199495000Y-49970000D01*
X198095000Y-49970000D01*
X198087649Y-49969639D01*
X198080368Y-49968559D01*
X198073229Y-49966771D01*
X198066299Y-49964291D01*
X198059645Y-49961144D01*
X198053332Y-49957360D01*
X198047421Y-49952976D01*
X198041967Y-49948033D01*
X198037024Y-49942579D01*
X198032640Y-49936668D01*
X198028856Y-49930355D01*
X198025709Y-49923701D01*
X198023229Y-49916771D01*
X198021441Y-49909632D01*
X198020361Y-49902351D01*
X198020000Y-49895000D01*
X198020000Y-49745000D01*
X198020361Y-49737649D01*
X198021441Y-49730368D01*
X198023229Y-49723229D01*
X198025709Y-49716299D01*
X198028856Y-49709645D01*
X198032640Y-49703332D01*
X198037024Y-49697421D01*
X198041967Y-49691967D01*
X198047421Y-49687024D01*
X198053332Y-49682640D01*
X198059645Y-49678856D01*
X198066299Y-49675709D01*
X198073229Y-49673229D01*
X198080368Y-49671441D01*
X198087649Y-49670361D01*
X198095000Y-49670000D01*
X199495000Y-49670000D01*
X199502351Y-49670361D01*
X199502351Y-49670361D01*
G37*
D12*
X198795000Y-49820000D03*
D10*
G36*
X199502351Y-49170361D02*
G01*
X199509632Y-49171441D01*
X199516771Y-49173229D01*
X199523701Y-49175709D01*
X199530355Y-49178856D01*
X199536668Y-49182640D01*
X199542579Y-49187024D01*
X199548033Y-49191967D01*
X199552976Y-49197421D01*
X199557360Y-49203332D01*
X199561144Y-49209645D01*
X199564291Y-49216299D01*
X199566771Y-49223229D01*
X199568559Y-49230368D01*
X199569639Y-49237649D01*
X199570000Y-49245000D01*
X199570000Y-49395000D01*
X199569639Y-49402351D01*
X199568559Y-49409632D01*
X199566771Y-49416771D01*
X199564291Y-49423701D01*
X199561144Y-49430355D01*
X199557360Y-49436668D01*
X199552976Y-49442579D01*
X199548033Y-49448033D01*
X199542579Y-49452976D01*
X199536668Y-49457360D01*
X199530355Y-49461144D01*
X199523701Y-49464291D01*
X199516771Y-49466771D01*
X199509632Y-49468559D01*
X199502351Y-49469639D01*
X199495000Y-49470000D01*
X198095000Y-49470000D01*
X198087649Y-49469639D01*
X198080368Y-49468559D01*
X198073229Y-49466771D01*
X198066299Y-49464291D01*
X198059645Y-49461144D01*
X198053332Y-49457360D01*
X198047421Y-49452976D01*
X198041967Y-49448033D01*
X198037024Y-49442579D01*
X198032640Y-49436668D01*
X198028856Y-49430355D01*
X198025709Y-49423701D01*
X198023229Y-49416771D01*
X198021441Y-49409632D01*
X198020361Y-49402351D01*
X198020000Y-49395000D01*
X198020000Y-49245000D01*
X198020361Y-49237649D01*
X198021441Y-49230368D01*
X198023229Y-49223229D01*
X198025709Y-49216299D01*
X198028856Y-49209645D01*
X198032640Y-49203332D01*
X198037024Y-49197421D01*
X198041967Y-49191967D01*
X198047421Y-49187024D01*
X198053332Y-49182640D01*
X198059645Y-49178856D01*
X198066299Y-49175709D01*
X198073229Y-49173229D01*
X198080368Y-49171441D01*
X198087649Y-49170361D01*
X198095000Y-49170000D01*
X199495000Y-49170000D01*
X199502351Y-49170361D01*
X199502351Y-49170361D01*
G37*
D12*
X198795000Y-49320000D03*
D10*
G36*
X199502351Y-48670361D02*
G01*
X199509632Y-48671441D01*
X199516771Y-48673229D01*
X199523701Y-48675709D01*
X199530355Y-48678856D01*
X199536668Y-48682640D01*
X199542579Y-48687024D01*
X199548033Y-48691967D01*
X199552976Y-48697421D01*
X199557360Y-48703332D01*
X199561144Y-48709645D01*
X199564291Y-48716299D01*
X199566771Y-48723229D01*
X199568559Y-48730368D01*
X199569639Y-48737649D01*
X199570000Y-48745000D01*
X199570000Y-48895000D01*
X199569639Y-48902351D01*
X199568559Y-48909632D01*
X199566771Y-48916771D01*
X199564291Y-48923701D01*
X199561144Y-48930355D01*
X199557360Y-48936668D01*
X199552976Y-48942579D01*
X199548033Y-48948033D01*
X199542579Y-48952976D01*
X199536668Y-48957360D01*
X199530355Y-48961144D01*
X199523701Y-48964291D01*
X199516771Y-48966771D01*
X199509632Y-48968559D01*
X199502351Y-48969639D01*
X199495000Y-48970000D01*
X198095000Y-48970000D01*
X198087649Y-48969639D01*
X198080368Y-48968559D01*
X198073229Y-48966771D01*
X198066299Y-48964291D01*
X198059645Y-48961144D01*
X198053332Y-48957360D01*
X198047421Y-48952976D01*
X198041967Y-48948033D01*
X198037024Y-48942579D01*
X198032640Y-48936668D01*
X198028856Y-48930355D01*
X198025709Y-48923701D01*
X198023229Y-48916771D01*
X198021441Y-48909632D01*
X198020361Y-48902351D01*
X198020000Y-48895000D01*
X198020000Y-48745000D01*
X198020361Y-48737649D01*
X198021441Y-48730368D01*
X198023229Y-48723229D01*
X198025709Y-48716299D01*
X198028856Y-48709645D01*
X198032640Y-48703332D01*
X198037024Y-48697421D01*
X198041967Y-48691967D01*
X198047421Y-48687024D01*
X198053332Y-48682640D01*
X198059645Y-48678856D01*
X198066299Y-48675709D01*
X198073229Y-48673229D01*
X198080368Y-48671441D01*
X198087649Y-48670361D01*
X198095000Y-48670000D01*
X199495000Y-48670000D01*
X199502351Y-48670361D01*
X199502351Y-48670361D01*
G37*
D12*
X198795000Y-48820000D03*
D10*
G36*
X199502351Y-48170361D02*
G01*
X199509632Y-48171441D01*
X199516771Y-48173229D01*
X199523701Y-48175709D01*
X199530355Y-48178856D01*
X199536668Y-48182640D01*
X199542579Y-48187024D01*
X199548033Y-48191967D01*
X199552976Y-48197421D01*
X199557360Y-48203332D01*
X199561144Y-48209645D01*
X199564291Y-48216299D01*
X199566771Y-48223229D01*
X199568559Y-48230368D01*
X199569639Y-48237649D01*
X199570000Y-48245000D01*
X199570000Y-48395000D01*
X199569639Y-48402351D01*
X199568559Y-48409632D01*
X199566771Y-48416771D01*
X199564291Y-48423701D01*
X199561144Y-48430355D01*
X199557360Y-48436668D01*
X199552976Y-48442579D01*
X199548033Y-48448033D01*
X199542579Y-48452976D01*
X199536668Y-48457360D01*
X199530355Y-48461144D01*
X199523701Y-48464291D01*
X199516771Y-48466771D01*
X199509632Y-48468559D01*
X199502351Y-48469639D01*
X199495000Y-48470000D01*
X198095000Y-48470000D01*
X198087649Y-48469639D01*
X198080368Y-48468559D01*
X198073229Y-48466771D01*
X198066299Y-48464291D01*
X198059645Y-48461144D01*
X198053332Y-48457360D01*
X198047421Y-48452976D01*
X198041967Y-48448033D01*
X198037024Y-48442579D01*
X198032640Y-48436668D01*
X198028856Y-48430355D01*
X198025709Y-48423701D01*
X198023229Y-48416771D01*
X198021441Y-48409632D01*
X198020361Y-48402351D01*
X198020000Y-48395000D01*
X198020000Y-48245000D01*
X198020361Y-48237649D01*
X198021441Y-48230368D01*
X198023229Y-48223229D01*
X198025709Y-48216299D01*
X198028856Y-48209645D01*
X198032640Y-48203332D01*
X198037024Y-48197421D01*
X198041967Y-48191967D01*
X198047421Y-48187024D01*
X198053332Y-48182640D01*
X198059645Y-48178856D01*
X198066299Y-48175709D01*
X198073229Y-48173229D01*
X198080368Y-48171441D01*
X198087649Y-48170361D01*
X198095000Y-48170000D01*
X199495000Y-48170000D01*
X199502351Y-48170361D01*
X199502351Y-48170361D01*
G37*
D12*
X198795000Y-48320000D03*
D13*
X234980000Y-54610000D03*
X234980000Y-46990000D03*
X245080000Y-46990000D03*
X245080000Y-52070000D03*
X245080000Y-54610000D03*
D10*
G36*
X231326958Y-49720710D02*
G01*
X231341276Y-49722834D01*
X231355317Y-49726351D01*
X231368946Y-49731228D01*
X231382031Y-49737417D01*
X231394447Y-49744858D01*
X231406073Y-49753481D01*
X231416798Y-49763202D01*
X231426519Y-49773927D01*
X231435142Y-49785553D01*
X231442583Y-49797969D01*
X231448772Y-49811054D01*
X231453649Y-49824683D01*
X231457166Y-49838724D01*
X231459290Y-49853042D01*
X231460000Y-49867500D01*
X231460000Y-50162500D01*
X231459290Y-50176958D01*
X231457166Y-50191276D01*
X231453649Y-50205317D01*
X231448772Y-50218946D01*
X231442583Y-50232031D01*
X231435142Y-50244447D01*
X231426519Y-50256073D01*
X231416798Y-50266798D01*
X231406073Y-50276519D01*
X231394447Y-50285142D01*
X231382031Y-50292583D01*
X231368946Y-50298772D01*
X231355317Y-50303649D01*
X231341276Y-50307166D01*
X231326958Y-50309290D01*
X231312500Y-50310000D01*
X230967500Y-50310000D01*
X230953042Y-50309290D01*
X230938724Y-50307166D01*
X230924683Y-50303649D01*
X230911054Y-50298772D01*
X230897969Y-50292583D01*
X230885553Y-50285142D01*
X230873927Y-50276519D01*
X230863202Y-50266798D01*
X230853481Y-50256073D01*
X230844858Y-50244447D01*
X230837417Y-50232031D01*
X230831228Y-50218946D01*
X230826351Y-50205317D01*
X230822834Y-50191276D01*
X230820710Y-50176958D01*
X230820000Y-50162500D01*
X230820000Y-49867500D01*
X230820710Y-49853042D01*
X230822834Y-49838724D01*
X230826351Y-49824683D01*
X230831228Y-49811054D01*
X230837417Y-49797969D01*
X230844858Y-49785553D01*
X230853481Y-49773927D01*
X230863202Y-49763202D01*
X230873927Y-49753481D01*
X230885553Y-49744858D01*
X230897969Y-49737417D01*
X230911054Y-49731228D01*
X230924683Y-49726351D01*
X230938724Y-49722834D01*
X230953042Y-49720710D01*
X230967500Y-49720000D01*
X231312500Y-49720000D01*
X231326958Y-49720710D01*
X231326958Y-49720710D01*
G37*
D11*
X231140000Y-50015000D03*
D10*
G36*
X231326958Y-48750710D02*
G01*
X231341276Y-48752834D01*
X231355317Y-48756351D01*
X231368946Y-48761228D01*
X231382031Y-48767417D01*
X231394447Y-48774858D01*
X231406073Y-48783481D01*
X231416798Y-48793202D01*
X231426519Y-48803927D01*
X231435142Y-48815553D01*
X231442583Y-48827969D01*
X231448772Y-48841054D01*
X231453649Y-48854683D01*
X231457166Y-48868724D01*
X231459290Y-48883042D01*
X231460000Y-48897500D01*
X231460000Y-49192500D01*
X231459290Y-49206958D01*
X231457166Y-49221276D01*
X231453649Y-49235317D01*
X231448772Y-49248946D01*
X231442583Y-49262031D01*
X231435142Y-49274447D01*
X231426519Y-49286073D01*
X231416798Y-49296798D01*
X231406073Y-49306519D01*
X231394447Y-49315142D01*
X231382031Y-49322583D01*
X231368946Y-49328772D01*
X231355317Y-49333649D01*
X231341276Y-49337166D01*
X231326958Y-49339290D01*
X231312500Y-49340000D01*
X230967500Y-49340000D01*
X230953042Y-49339290D01*
X230938724Y-49337166D01*
X230924683Y-49333649D01*
X230911054Y-49328772D01*
X230897969Y-49322583D01*
X230885553Y-49315142D01*
X230873927Y-49306519D01*
X230863202Y-49296798D01*
X230853481Y-49286073D01*
X230844858Y-49274447D01*
X230837417Y-49262031D01*
X230831228Y-49248946D01*
X230826351Y-49235317D01*
X230822834Y-49221276D01*
X230820710Y-49206958D01*
X230820000Y-49192500D01*
X230820000Y-48897500D01*
X230820710Y-48883042D01*
X230822834Y-48868724D01*
X230826351Y-48854683D01*
X230831228Y-48841054D01*
X230837417Y-48827969D01*
X230844858Y-48815553D01*
X230853481Y-48803927D01*
X230863202Y-48793202D01*
X230873927Y-48783481D01*
X230885553Y-48774858D01*
X230897969Y-48767417D01*
X230911054Y-48761228D01*
X230924683Y-48756351D01*
X230938724Y-48752834D01*
X230953042Y-48750710D01*
X230967500Y-48750000D01*
X231312500Y-48750000D01*
X231326958Y-48750710D01*
X231326958Y-48750710D01*
G37*
D11*
X231140000Y-49045000D03*
D10*
G36*
X155586958Y-50965710D02*
G01*
X155601276Y-50967834D01*
X155615317Y-50971351D01*
X155628946Y-50976228D01*
X155642031Y-50982417D01*
X155654447Y-50989858D01*
X155666073Y-50998481D01*
X155676798Y-51008202D01*
X155686519Y-51018927D01*
X155695142Y-51030553D01*
X155702583Y-51042969D01*
X155708772Y-51056054D01*
X155713649Y-51069683D01*
X155717166Y-51083724D01*
X155719290Y-51098042D01*
X155720000Y-51112500D01*
X155720000Y-51457500D01*
X155719290Y-51471958D01*
X155717166Y-51486276D01*
X155713649Y-51500317D01*
X155708772Y-51513946D01*
X155702583Y-51527031D01*
X155695142Y-51539447D01*
X155686519Y-51551073D01*
X155676798Y-51561798D01*
X155666073Y-51571519D01*
X155654447Y-51580142D01*
X155642031Y-51587583D01*
X155628946Y-51593772D01*
X155615317Y-51598649D01*
X155601276Y-51602166D01*
X155586958Y-51604290D01*
X155572500Y-51605000D01*
X155277500Y-51605000D01*
X155263042Y-51604290D01*
X155248724Y-51602166D01*
X155234683Y-51598649D01*
X155221054Y-51593772D01*
X155207969Y-51587583D01*
X155195553Y-51580142D01*
X155183927Y-51571519D01*
X155173202Y-51561798D01*
X155163481Y-51551073D01*
X155154858Y-51539447D01*
X155147417Y-51527031D01*
X155141228Y-51513946D01*
X155136351Y-51500317D01*
X155132834Y-51486276D01*
X155130710Y-51471958D01*
X155130000Y-51457500D01*
X155130000Y-51112500D01*
X155130710Y-51098042D01*
X155132834Y-51083724D01*
X155136351Y-51069683D01*
X155141228Y-51056054D01*
X155147417Y-51042969D01*
X155154858Y-51030553D01*
X155163481Y-51018927D01*
X155173202Y-51008202D01*
X155183927Y-50998481D01*
X155195553Y-50989858D01*
X155207969Y-50982417D01*
X155221054Y-50976228D01*
X155234683Y-50971351D01*
X155248724Y-50967834D01*
X155263042Y-50965710D01*
X155277500Y-50965000D01*
X155572500Y-50965000D01*
X155586958Y-50965710D01*
X155586958Y-50965710D01*
G37*
D11*
X155425000Y-51285000D03*
D10*
G36*
X154616958Y-50965710D02*
G01*
X154631276Y-50967834D01*
X154645317Y-50971351D01*
X154658946Y-50976228D01*
X154672031Y-50982417D01*
X154684447Y-50989858D01*
X154696073Y-50998481D01*
X154706798Y-51008202D01*
X154716519Y-51018927D01*
X154725142Y-51030553D01*
X154732583Y-51042969D01*
X154738772Y-51056054D01*
X154743649Y-51069683D01*
X154747166Y-51083724D01*
X154749290Y-51098042D01*
X154750000Y-51112500D01*
X154750000Y-51457500D01*
X154749290Y-51471958D01*
X154747166Y-51486276D01*
X154743649Y-51500317D01*
X154738772Y-51513946D01*
X154732583Y-51527031D01*
X154725142Y-51539447D01*
X154716519Y-51551073D01*
X154706798Y-51561798D01*
X154696073Y-51571519D01*
X154684447Y-51580142D01*
X154672031Y-51587583D01*
X154658946Y-51593772D01*
X154645317Y-51598649D01*
X154631276Y-51602166D01*
X154616958Y-51604290D01*
X154602500Y-51605000D01*
X154307500Y-51605000D01*
X154293042Y-51604290D01*
X154278724Y-51602166D01*
X154264683Y-51598649D01*
X154251054Y-51593772D01*
X154237969Y-51587583D01*
X154225553Y-51580142D01*
X154213927Y-51571519D01*
X154203202Y-51561798D01*
X154193481Y-51551073D01*
X154184858Y-51539447D01*
X154177417Y-51527031D01*
X154171228Y-51513946D01*
X154166351Y-51500317D01*
X154162834Y-51486276D01*
X154160710Y-51471958D01*
X154160000Y-51457500D01*
X154160000Y-51112500D01*
X154160710Y-51098042D01*
X154162834Y-51083724D01*
X154166351Y-51069683D01*
X154171228Y-51056054D01*
X154177417Y-51042969D01*
X154184858Y-51030553D01*
X154193481Y-51018927D01*
X154203202Y-51008202D01*
X154213927Y-50998481D01*
X154225553Y-50989858D01*
X154237969Y-50982417D01*
X154251054Y-50976228D01*
X154264683Y-50971351D01*
X154278724Y-50967834D01*
X154293042Y-50965710D01*
X154307500Y-50965000D01*
X154602500Y-50965000D01*
X154616958Y-50965710D01*
X154616958Y-50965710D01*
G37*
D11*
X154455000Y-51285000D03*
D10*
G36*
X163021958Y-91120710D02*
G01*
X163036276Y-91122834D01*
X163050317Y-91126351D01*
X163063946Y-91131228D01*
X163077031Y-91137417D01*
X163089447Y-91144858D01*
X163101073Y-91153481D01*
X163111798Y-91163202D01*
X163121519Y-91173927D01*
X163130142Y-91185553D01*
X163137583Y-91197969D01*
X163143772Y-91211054D01*
X163148649Y-91224683D01*
X163152166Y-91238724D01*
X163154290Y-91253042D01*
X163155000Y-91267500D01*
X163155000Y-91612500D01*
X163154290Y-91626958D01*
X163152166Y-91641276D01*
X163148649Y-91655317D01*
X163143772Y-91668946D01*
X163137583Y-91682031D01*
X163130142Y-91694447D01*
X163121519Y-91706073D01*
X163111798Y-91716798D01*
X163101073Y-91726519D01*
X163089447Y-91735142D01*
X163077031Y-91742583D01*
X163063946Y-91748772D01*
X163050317Y-91753649D01*
X163036276Y-91757166D01*
X163021958Y-91759290D01*
X163007500Y-91760000D01*
X162712500Y-91760000D01*
X162698042Y-91759290D01*
X162683724Y-91757166D01*
X162669683Y-91753649D01*
X162656054Y-91748772D01*
X162642969Y-91742583D01*
X162630553Y-91735142D01*
X162618927Y-91726519D01*
X162608202Y-91716798D01*
X162598481Y-91706073D01*
X162589858Y-91694447D01*
X162582417Y-91682031D01*
X162576228Y-91668946D01*
X162571351Y-91655317D01*
X162567834Y-91641276D01*
X162565710Y-91626958D01*
X162565000Y-91612500D01*
X162565000Y-91267500D01*
X162565710Y-91253042D01*
X162567834Y-91238724D01*
X162571351Y-91224683D01*
X162576228Y-91211054D01*
X162582417Y-91197969D01*
X162589858Y-91185553D01*
X162598481Y-91173927D01*
X162608202Y-91163202D01*
X162618927Y-91153481D01*
X162630553Y-91144858D01*
X162642969Y-91137417D01*
X162656054Y-91131228D01*
X162669683Y-91126351D01*
X162683724Y-91122834D01*
X162698042Y-91120710D01*
X162712500Y-91120000D01*
X163007500Y-91120000D01*
X163021958Y-91120710D01*
X163021958Y-91120710D01*
G37*
D11*
X162860000Y-91440000D03*
D10*
G36*
X163991958Y-91120710D02*
G01*
X164006276Y-91122834D01*
X164020317Y-91126351D01*
X164033946Y-91131228D01*
X164047031Y-91137417D01*
X164059447Y-91144858D01*
X164071073Y-91153481D01*
X164081798Y-91163202D01*
X164091519Y-91173927D01*
X164100142Y-91185553D01*
X164107583Y-91197969D01*
X164113772Y-91211054D01*
X164118649Y-91224683D01*
X164122166Y-91238724D01*
X164124290Y-91253042D01*
X164125000Y-91267500D01*
X164125000Y-91612500D01*
X164124290Y-91626958D01*
X164122166Y-91641276D01*
X164118649Y-91655317D01*
X164113772Y-91668946D01*
X164107583Y-91682031D01*
X164100142Y-91694447D01*
X164091519Y-91706073D01*
X164081798Y-91716798D01*
X164071073Y-91726519D01*
X164059447Y-91735142D01*
X164047031Y-91742583D01*
X164033946Y-91748772D01*
X164020317Y-91753649D01*
X164006276Y-91757166D01*
X163991958Y-91759290D01*
X163977500Y-91760000D01*
X163682500Y-91760000D01*
X163668042Y-91759290D01*
X163653724Y-91757166D01*
X163639683Y-91753649D01*
X163626054Y-91748772D01*
X163612969Y-91742583D01*
X163600553Y-91735142D01*
X163588927Y-91726519D01*
X163578202Y-91716798D01*
X163568481Y-91706073D01*
X163559858Y-91694447D01*
X163552417Y-91682031D01*
X163546228Y-91668946D01*
X163541351Y-91655317D01*
X163537834Y-91641276D01*
X163535710Y-91626958D01*
X163535000Y-91612500D01*
X163535000Y-91267500D01*
X163535710Y-91253042D01*
X163537834Y-91238724D01*
X163541351Y-91224683D01*
X163546228Y-91211054D01*
X163552417Y-91197969D01*
X163559858Y-91185553D01*
X163568481Y-91173927D01*
X163578202Y-91163202D01*
X163588927Y-91153481D01*
X163600553Y-91144858D01*
X163612969Y-91137417D01*
X163626054Y-91131228D01*
X163639683Y-91126351D01*
X163653724Y-91122834D01*
X163668042Y-91120710D01*
X163682500Y-91120000D01*
X163977500Y-91120000D01*
X163991958Y-91120710D01*
X163991958Y-91120710D01*
G37*
D11*
X163830000Y-91440000D03*
D10*
G36*
X161476958Y-86850710D02*
G01*
X161491276Y-86852834D01*
X161505317Y-86856351D01*
X161518946Y-86861228D01*
X161532031Y-86867417D01*
X161544447Y-86874858D01*
X161556073Y-86883481D01*
X161566798Y-86893202D01*
X161576519Y-86903927D01*
X161585142Y-86915553D01*
X161592583Y-86927969D01*
X161598772Y-86941054D01*
X161603649Y-86954683D01*
X161607166Y-86968724D01*
X161609290Y-86983042D01*
X161610000Y-86997500D01*
X161610000Y-87292500D01*
X161609290Y-87306958D01*
X161607166Y-87321276D01*
X161603649Y-87335317D01*
X161598772Y-87348946D01*
X161592583Y-87362031D01*
X161585142Y-87374447D01*
X161576519Y-87386073D01*
X161566798Y-87396798D01*
X161556073Y-87406519D01*
X161544447Y-87415142D01*
X161532031Y-87422583D01*
X161518946Y-87428772D01*
X161505317Y-87433649D01*
X161491276Y-87437166D01*
X161476958Y-87439290D01*
X161462500Y-87440000D01*
X161117500Y-87440000D01*
X161103042Y-87439290D01*
X161088724Y-87437166D01*
X161074683Y-87433649D01*
X161061054Y-87428772D01*
X161047969Y-87422583D01*
X161035553Y-87415142D01*
X161023927Y-87406519D01*
X161013202Y-87396798D01*
X161003481Y-87386073D01*
X160994858Y-87374447D01*
X160987417Y-87362031D01*
X160981228Y-87348946D01*
X160976351Y-87335317D01*
X160972834Y-87321276D01*
X160970710Y-87306958D01*
X160970000Y-87292500D01*
X160970000Y-86997500D01*
X160970710Y-86983042D01*
X160972834Y-86968724D01*
X160976351Y-86954683D01*
X160981228Y-86941054D01*
X160987417Y-86927969D01*
X160994858Y-86915553D01*
X161003481Y-86903927D01*
X161013202Y-86893202D01*
X161023927Y-86883481D01*
X161035553Y-86874858D01*
X161047969Y-86867417D01*
X161061054Y-86861228D01*
X161074683Y-86856351D01*
X161088724Y-86852834D01*
X161103042Y-86850710D01*
X161117500Y-86850000D01*
X161462500Y-86850000D01*
X161476958Y-86850710D01*
X161476958Y-86850710D01*
G37*
D11*
X161290000Y-87145000D03*
D10*
G36*
X161476958Y-87820710D02*
G01*
X161491276Y-87822834D01*
X161505317Y-87826351D01*
X161518946Y-87831228D01*
X161532031Y-87837417D01*
X161544447Y-87844858D01*
X161556073Y-87853481D01*
X161566798Y-87863202D01*
X161576519Y-87873927D01*
X161585142Y-87885553D01*
X161592583Y-87897969D01*
X161598772Y-87911054D01*
X161603649Y-87924683D01*
X161607166Y-87938724D01*
X161609290Y-87953042D01*
X161610000Y-87967500D01*
X161610000Y-88262500D01*
X161609290Y-88276958D01*
X161607166Y-88291276D01*
X161603649Y-88305317D01*
X161598772Y-88318946D01*
X161592583Y-88332031D01*
X161585142Y-88344447D01*
X161576519Y-88356073D01*
X161566798Y-88366798D01*
X161556073Y-88376519D01*
X161544447Y-88385142D01*
X161532031Y-88392583D01*
X161518946Y-88398772D01*
X161505317Y-88403649D01*
X161491276Y-88407166D01*
X161476958Y-88409290D01*
X161462500Y-88410000D01*
X161117500Y-88410000D01*
X161103042Y-88409290D01*
X161088724Y-88407166D01*
X161074683Y-88403649D01*
X161061054Y-88398772D01*
X161047969Y-88392583D01*
X161035553Y-88385142D01*
X161023927Y-88376519D01*
X161013202Y-88366798D01*
X161003481Y-88356073D01*
X160994858Y-88344447D01*
X160987417Y-88332031D01*
X160981228Y-88318946D01*
X160976351Y-88305317D01*
X160972834Y-88291276D01*
X160970710Y-88276958D01*
X160970000Y-88262500D01*
X160970000Y-87967500D01*
X160970710Y-87953042D01*
X160972834Y-87938724D01*
X160976351Y-87924683D01*
X160981228Y-87911054D01*
X160987417Y-87897969D01*
X160994858Y-87885553D01*
X161003481Y-87873927D01*
X161013202Y-87863202D01*
X161023927Y-87853481D01*
X161035553Y-87844858D01*
X161047969Y-87837417D01*
X161061054Y-87831228D01*
X161074683Y-87826351D01*
X161088724Y-87822834D01*
X161103042Y-87820710D01*
X161117500Y-87820000D01*
X161462500Y-87820000D01*
X161476958Y-87820710D01*
X161476958Y-87820710D01*
G37*
D11*
X161290000Y-88115000D03*
D10*
G36*
X104326958Y-92415710D02*
G01*
X104341276Y-92417834D01*
X104355317Y-92421351D01*
X104368946Y-92426228D01*
X104382031Y-92432417D01*
X104394447Y-92439858D01*
X104406073Y-92448481D01*
X104416798Y-92458202D01*
X104426519Y-92468927D01*
X104435142Y-92480553D01*
X104442583Y-92492969D01*
X104448772Y-92506054D01*
X104453649Y-92519683D01*
X104457166Y-92533724D01*
X104459290Y-92548042D01*
X104460000Y-92562500D01*
X104460000Y-92857500D01*
X104459290Y-92871958D01*
X104457166Y-92886276D01*
X104453649Y-92900317D01*
X104448772Y-92913946D01*
X104442583Y-92927031D01*
X104435142Y-92939447D01*
X104426519Y-92951073D01*
X104416798Y-92961798D01*
X104406073Y-92971519D01*
X104394447Y-92980142D01*
X104382031Y-92987583D01*
X104368946Y-92993772D01*
X104355317Y-92998649D01*
X104341276Y-93002166D01*
X104326958Y-93004290D01*
X104312500Y-93005000D01*
X103967500Y-93005000D01*
X103953042Y-93004290D01*
X103938724Y-93002166D01*
X103924683Y-92998649D01*
X103911054Y-92993772D01*
X103897969Y-92987583D01*
X103885553Y-92980142D01*
X103873927Y-92971519D01*
X103863202Y-92961798D01*
X103853481Y-92951073D01*
X103844858Y-92939447D01*
X103837417Y-92927031D01*
X103831228Y-92913946D01*
X103826351Y-92900317D01*
X103822834Y-92886276D01*
X103820710Y-92871958D01*
X103820000Y-92857500D01*
X103820000Y-92562500D01*
X103820710Y-92548042D01*
X103822834Y-92533724D01*
X103826351Y-92519683D01*
X103831228Y-92506054D01*
X103837417Y-92492969D01*
X103844858Y-92480553D01*
X103853481Y-92468927D01*
X103863202Y-92458202D01*
X103873927Y-92448481D01*
X103885553Y-92439858D01*
X103897969Y-92432417D01*
X103911054Y-92426228D01*
X103924683Y-92421351D01*
X103938724Y-92417834D01*
X103953042Y-92415710D01*
X103967500Y-92415000D01*
X104312500Y-92415000D01*
X104326958Y-92415710D01*
X104326958Y-92415710D01*
G37*
D11*
X104140000Y-92710000D03*
D10*
G36*
X104326958Y-91445710D02*
G01*
X104341276Y-91447834D01*
X104355317Y-91451351D01*
X104368946Y-91456228D01*
X104382031Y-91462417D01*
X104394447Y-91469858D01*
X104406073Y-91478481D01*
X104416798Y-91488202D01*
X104426519Y-91498927D01*
X104435142Y-91510553D01*
X104442583Y-91522969D01*
X104448772Y-91536054D01*
X104453649Y-91549683D01*
X104457166Y-91563724D01*
X104459290Y-91578042D01*
X104460000Y-91592500D01*
X104460000Y-91887500D01*
X104459290Y-91901958D01*
X104457166Y-91916276D01*
X104453649Y-91930317D01*
X104448772Y-91943946D01*
X104442583Y-91957031D01*
X104435142Y-91969447D01*
X104426519Y-91981073D01*
X104416798Y-91991798D01*
X104406073Y-92001519D01*
X104394447Y-92010142D01*
X104382031Y-92017583D01*
X104368946Y-92023772D01*
X104355317Y-92028649D01*
X104341276Y-92032166D01*
X104326958Y-92034290D01*
X104312500Y-92035000D01*
X103967500Y-92035000D01*
X103953042Y-92034290D01*
X103938724Y-92032166D01*
X103924683Y-92028649D01*
X103911054Y-92023772D01*
X103897969Y-92017583D01*
X103885553Y-92010142D01*
X103873927Y-92001519D01*
X103863202Y-91991798D01*
X103853481Y-91981073D01*
X103844858Y-91969447D01*
X103837417Y-91957031D01*
X103831228Y-91943946D01*
X103826351Y-91930317D01*
X103822834Y-91916276D01*
X103820710Y-91901958D01*
X103820000Y-91887500D01*
X103820000Y-91592500D01*
X103820710Y-91578042D01*
X103822834Y-91563724D01*
X103826351Y-91549683D01*
X103831228Y-91536054D01*
X103837417Y-91522969D01*
X103844858Y-91510553D01*
X103853481Y-91498927D01*
X103863202Y-91488202D01*
X103873927Y-91478481D01*
X103885553Y-91469858D01*
X103897969Y-91462417D01*
X103911054Y-91456228D01*
X103924683Y-91451351D01*
X103938724Y-91447834D01*
X103953042Y-91445710D01*
X103967500Y-91445000D01*
X104312500Y-91445000D01*
X104326958Y-91445710D01*
X104326958Y-91445710D01*
G37*
D11*
X104140000Y-91740000D03*
D10*
G36*
X99246958Y-89390710D02*
G01*
X99261276Y-89392834D01*
X99275317Y-89396351D01*
X99288946Y-89401228D01*
X99302031Y-89407417D01*
X99314447Y-89414858D01*
X99326073Y-89423481D01*
X99336798Y-89433202D01*
X99346519Y-89443927D01*
X99355142Y-89455553D01*
X99362583Y-89467969D01*
X99368772Y-89481054D01*
X99373649Y-89494683D01*
X99377166Y-89508724D01*
X99379290Y-89523042D01*
X99380000Y-89537500D01*
X99380000Y-89832500D01*
X99379290Y-89846958D01*
X99377166Y-89861276D01*
X99373649Y-89875317D01*
X99368772Y-89888946D01*
X99362583Y-89902031D01*
X99355142Y-89914447D01*
X99346519Y-89926073D01*
X99336798Y-89936798D01*
X99326073Y-89946519D01*
X99314447Y-89955142D01*
X99302031Y-89962583D01*
X99288946Y-89968772D01*
X99275317Y-89973649D01*
X99261276Y-89977166D01*
X99246958Y-89979290D01*
X99232500Y-89980000D01*
X98887500Y-89980000D01*
X98873042Y-89979290D01*
X98858724Y-89977166D01*
X98844683Y-89973649D01*
X98831054Y-89968772D01*
X98817969Y-89962583D01*
X98805553Y-89955142D01*
X98793927Y-89946519D01*
X98783202Y-89936798D01*
X98773481Y-89926073D01*
X98764858Y-89914447D01*
X98757417Y-89902031D01*
X98751228Y-89888946D01*
X98746351Y-89875317D01*
X98742834Y-89861276D01*
X98740710Y-89846958D01*
X98740000Y-89832500D01*
X98740000Y-89537500D01*
X98740710Y-89523042D01*
X98742834Y-89508724D01*
X98746351Y-89494683D01*
X98751228Y-89481054D01*
X98757417Y-89467969D01*
X98764858Y-89455553D01*
X98773481Y-89443927D01*
X98783202Y-89433202D01*
X98793927Y-89423481D01*
X98805553Y-89414858D01*
X98817969Y-89407417D01*
X98831054Y-89401228D01*
X98844683Y-89396351D01*
X98858724Y-89392834D01*
X98873042Y-89390710D01*
X98887500Y-89390000D01*
X99232500Y-89390000D01*
X99246958Y-89390710D01*
X99246958Y-89390710D01*
G37*
D11*
X99060000Y-89685000D03*
D10*
G36*
X99246958Y-90360710D02*
G01*
X99261276Y-90362834D01*
X99275317Y-90366351D01*
X99288946Y-90371228D01*
X99302031Y-90377417D01*
X99314447Y-90384858D01*
X99326073Y-90393481D01*
X99336798Y-90403202D01*
X99346519Y-90413927D01*
X99355142Y-90425553D01*
X99362583Y-90437969D01*
X99368772Y-90451054D01*
X99373649Y-90464683D01*
X99377166Y-90478724D01*
X99379290Y-90493042D01*
X99380000Y-90507500D01*
X99380000Y-90802500D01*
X99379290Y-90816958D01*
X99377166Y-90831276D01*
X99373649Y-90845317D01*
X99368772Y-90858946D01*
X99362583Y-90872031D01*
X99355142Y-90884447D01*
X99346519Y-90896073D01*
X99336798Y-90906798D01*
X99326073Y-90916519D01*
X99314447Y-90925142D01*
X99302031Y-90932583D01*
X99288946Y-90938772D01*
X99275317Y-90943649D01*
X99261276Y-90947166D01*
X99246958Y-90949290D01*
X99232500Y-90950000D01*
X98887500Y-90950000D01*
X98873042Y-90949290D01*
X98858724Y-90947166D01*
X98844683Y-90943649D01*
X98831054Y-90938772D01*
X98817969Y-90932583D01*
X98805553Y-90925142D01*
X98793927Y-90916519D01*
X98783202Y-90906798D01*
X98773481Y-90896073D01*
X98764858Y-90884447D01*
X98757417Y-90872031D01*
X98751228Y-90858946D01*
X98746351Y-90845317D01*
X98742834Y-90831276D01*
X98740710Y-90816958D01*
X98740000Y-90802500D01*
X98740000Y-90507500D01*
X98740710Y-90493042D01*
X98742834Y-90478724D01*
X98746351Y-90464683D01*
X98751228Y-90451054D01*
X98757417Y-90437969D01*
X98764858Y-90425553D01*
X98773481Y-90413927D01*
X98783202Y-90403202D01*
X98793927Y-90393481D01*
X98805553Y-90384858D01*
X98817969Y-90377417D01*
X98831054Y-90371228D01*
X98844683Y-90366351D01*
X98858724Y-90362834D01*
X98873042Y-90360710D01*
X98887500Y-90360000D01*
X99232500Y-90360000D01*
X99246958Y-90360710D01*
X99246958Y-90360710D01*
G37*
D11*
X99060000Y-90655000D03*
D10*
G36*
X141616958Y-94930710D02*
G01*
X141631276Y-94932834D01*
X141645317Y-94936351D01*
X141658946Y-94941228D01*
X141672031Y-94947417D01*
X141684447Y-94954858D01*
X141696073Y-94963481D01*
X141706798Y-94973202D01*
X141716519Y-94983927D01*
X141725142Y-94995553D01*
X141732583Y-95007969D01*
X141738772Y-95021054D01*
X141743649Y-95034683D01*
X141747166Y-95048724D01*
X141749290Y-95063042D01*
X141750000Y-95077500D01*
X141750000Y-95422500D01*
X141749290Y-95436958D01*
X141747166Y-95451276D01*
X141743649Y-95465317D01*
X141738772Y-95478946D01*
X141732583Y-95492031D01*
X141725142Y-95504447D01*
X141716519Y-95516073D01*
X141706798Y-95526798D01*
X141696073Y-95536519D01*
X141684447Y-95545142D01*
X141672031Y-95552583D01*
X141658946Y-95558772D01*
X141645317Y-95563649D01*
X141631276Y-95567166D01*
X141616958Y-95569290D01*
X141602500Y-95570000D01*
X141307500Y-95570000D01*
X141293042Y-95569290D01*
X141278724Y-95567166D01*
X141264683Y-95563649D01*
X141251054Y-95558772D01*
X141237969Y-95552583D01*
X141225553Y-95545142D01*
X141213927Y-95536519D01*
X141203202Y-95526798D01*
X141193481Y-95516073D01*
X141184858Y-95504447D01*
X141177417Y-95492031D01*
X141171228Y-95478946D01*
X141166351Y-95465317D01*
X141162834Y-95451276D01*
X141160710Y-95436958D01*
X141160000Y-95422500D01*
X141160000Y-95077500D01*
X141160710Y-95063042D01*
X141162834Y-95048724D01*
X141166351Y-95034683D01*
X141171228Y-95021054D01*
X141177417Y-95007969D01*
X141184858Y-94995553D01*
X141193481Y-94983927D01*
X141203202Y-94973202D01*
X141213927Y-94963481D01*
X141225553Y-94954858D01*
X141237969Y-94947417D01*
X141251054Y-94941228D01*
X141264683Y-94936351D01*
X141278724Y-94932834D01*
X141293042Y-94930710D01*
X141307500Y-94930000D01*
X141602500Y-94930000D01*
X141616958Y-94930710D01*
X141616958Y-94930710D01*
G37*
D11*
X141455000Y-95250000D03*
D10*
G36*
X140646958Y-94930710D02*
G01*
X140661276Y-94932834D01*
X140675317Y-94936351D01*
X140688946Y-94941228D01*
X140702031Y-94947417D01*
X140714447Y-94954858D01*
X140726073Y-94963481D01*
X140736798Y-94973202D01*
X140746519Y-94983927D01*
X140755142Y-94995553D01*
X140762583Y-95007969D01*
X140768772Y-95021054D01*
X140773649Y-95034683D01*
X140777166Y-95048724D01*
X140779290Y-95063042D01*
X140780000Y-95077500D01*
X140780000Y-95422500D01*
X140779290Y-95436958D01*
X140777166Y-95451276D01*
X140773649Y-95465317D01*
X140768772Y-95478946D01*
X140762583Y-95492031D01*
X140755142Y-95504447D01*
X140746519Y-95516073D01*
X140736798Y-95526798D01*
X140726073Y-95536519D01*
X140714447Y-95545142D01*
X140702031Y-95552583D01*
X140688946Y-95558772D01*
X140675317Y-95563649D01*
X140661276Y-95567166D01*
X140646958Y-95569290D01*
X140632500Y-95570000D01*
X140337500Y-95570000D01*
X140323042Y-95569290D01*
X140308724Y-95567166D01*
X140294683Y-95563649D01*
X140281054Y-95558772D01*
X140267969Y-95552583D01*
X140255553Y-95545142D01*
X140243927Y-95536519D01*
X140233202Y-95526798D01*
X140223481Y-95516073D01*
X140214858Y-95504447D01*
X140207417Y-95492031D01*
X140201228Y-95478946D01*
X140196351Y-95465317D01*
X140192834Y-95451276D01*
X140190710Y-95436958D01*
X140190000Y-95422500D01*
X140190000Y-95077500D01*
X140190710Y-95063042D01*
X140192834Y-95048724D01*
X140196351Y-95034683D01*
X140201228Y-95021054D01*
X140207417Y-95007969D01*
X140214858Y-94995553D01*
X140223481Y-94983927D01*
X140233202Y-94973202D01*
X140243927Y-94963481D01*
X140255553Y-94954858D01*
X140267969Y-94947417D01*
X140281054Y-94941228D01*
X140294683Y-94936351D01*
X140308724Y-94932834D01*
X140323042Y-94930710D01*
X140337500Y-94930000D01*
X140632500Y-94930000D01*
X140646958Y-94930710D01*
X140646958Y-94930710D01*
G37*
D11*
X140485000Y-95250000D03*
D10*
G36*
X139756958Y-98700710D02*
G01*
X139771276Y-98702834D01*
X139785317Y-98706351D01*
X139798946Y-98711228D01*
X139812031Y-98717417D01*
X139824447Y-98724858D01*
X139836073Y-98733481D01*
X139846798Y-98743202D01*
X139856519Y-98753927D01*
X139865142Y-98765553D01*
X139872583Y-98777969D01*
X139878772Y-98791054D01*
X139883649Y-98804683D01*
X139887166Y-98818724D01*
X139889290Y-98833042D01*
X139890000Y-98847500D01*
X139890000Y-99142500D01*
X139889290Y-99156958D01*
X139887166Y-99171276D01*
X139883649Y-99185317D01*
X139878772Y-99198946D01*
X139872583Y-99212031D01*
X139865142Y-99224447D01*
X139856519Y-99236073D01*
X139846798Y-99246798D01*
X139836073Y-99256519D01*
X139824447Y-99265142D01*
X139812031Y-99272583D01*
X139798946Y-99278772D01*
X139785317Y-99283649D01*
X139771276Y-99287166D01*
X139756958Y-99289290D01*
X139742500Y-99290000D01*
X139397500Y-99290000D01*
X139383042Y-99289290D01*
X139368724Y-99287166D01*
X139354683Y-99283649D01*
X139341054Y-99278772D01*
X139327969Y-99272583D01*
X139315553Y-99265142D01*
X139303927Y-99256519D01*
X139293202Y-99246798D01*
X139283481Y-99236073D01*
X139274858Y-99224447D01*
X139267417Y-99212031D01*
X139261228Y-99198946D01*
X139256351Y-99185317D01*
X139252834Y-99171276D01*
X139250710Y-99156958D01*
X139250000Y-99142500D01*
X139250000Y-98847500D01*
X139250710Y-98833042D01*
X139252834Y-98818724D01*
X139256351Y-98804683D01*
X139261228Y-98791054D01*
X139267417Y-98777969D01*
X139274858Y-98765553D01*
X139283481Y-98753927D01*
X139293202Y-98743202D01*
X139303927Y-98733481D01*
X139315553Y-98724858D01*
X139327969Y-98717417D01*
X139341054Y-98711228D01*
X139354683Y-98706351D01*
X139368724Y-98702834D01*
X139383042Y-98700710D01*
X139397500Y-98700000D01*
X139742500Y-98700000D01*
X139756958Y-98700710D01*
X139756958Y-98700710D01*
G37*
D11*
X139570000Y-98995000D03*
D10*
G36*
X139756958Y-99670710D02*
G01*
X139771276Y-99672834D01*
X139785317Y-99676351D01*
X139798946Y-99681228D01*
X139812031Y-99687417D01*
X139824447Y-99694858D01*
X139836073Y-99703481D01*
X139846798Y-99713202D01*
X139856519Y-99723927D01*
X139865142Y-99735553D01*
X139872583Y-99747969D01*
X139878772Y-99761054D01*
X139883649Y-99774683D01*
X139887166Y-99788724D01*
X139889290Y-99803042D01*
X139890000Y-99817500D01*
X139890000Y-100112500D01*
X139889290Y-100126958D01*
X139887166Y-100141276D01*
X139883649Y-100155317D01*
X139878772Y-100168946D01*
X139872583Y-100182031D01*
X139865142Y-100194447D01*
X139856519Y-100206073D01*
X139846798Y-100216798D01*
X139836073Y-100226519D01*
X139824447Y-100235142D01*
X139812031Y-100242583D01*
X139798946Y-100248772D01*
X139785317Y-100253649D01*
X139771276Y-100257166D01*
X139756958Y-100259290D01*
X139742500Y-100260000D01*
X139397500Y-100260000D01*
X139383042Y-100259290D01*
X139368724Y-100257166D01*
X139354683Y-100253649D01*
X139341054Y-100248772D01*
X139327969Y-100242583D01*
X139315553Y-100235142D01*
X139303927Y-100226519D01*
X139293202Y-100216798D01*
X139283481Y-100206073D01*
X139274858Y-100194447D01*
X139267417Y-100182031D01*
X139261228Y-100168946D01*
X139256351Y-100155317D01*
X139252834Y-100141276D01*
X139250710Y-100126958D01*
X139250000Y-100112500D01*
X139250000Y-99817500D01*
X139250710Y-99803042D01*
X139252834Y-99788724D01*
X139256351Y-99774683D01*
X139261228Y-99761054D01*
X139267417Y-99747969D01*
X139274858Y-99735553D01*
X139283481Y-99723927D01*
X139293202Y-99713202D01*
X139303927Y-99703481D01*
X139315553Y-99694858D01*
X139327969Y-99687417D01*
X139341054Y-99681228D01*
X139354683Y-99676351D01*
X139368724Y-99672834D01*
X139383042Y-99670710D01*
X139397500Y-99670000D01*
X139742500Y-99670000D01*
X139756958Y-99670710D01*
X139756958Y-99670710D01*
G37*
D11*
X139570000Y-99965000D03*
D10*
G36*
X140646958Y-70800710D02*
G01*
X140661276Y-70802834D01*
X140675317Y-70806351D01*
X140688946Y-70811228D01*
X140702031Y-70817417D01*
X140714447Y-70824858D01*
X140726073Y-70833481D01*
X140736798Y-70843202D01*
X140746519Y-70853927D01*
X140755142Y-70865553D01*
X140762583Y-70877969D01*
X140768772Y-70891054D01*
X140773649Y-70904683D01*
X140777166Y-70918724D01*
X140779290Y-70933042D01*
X140780000Y-70947500D01*
X140780000Y-71292500D01*
X140779290Y-71306958D01*
X140777166Y-71321276D01*
X140773649Y-71335317D01*
X140768772Y-71348946D01*
X140762583Y-71362031D01*
X140755142Y-71374447D01*
X140746519Y-71386073D01*
X140736798Y-71396798D01*
X140726073Y-71406519D01*
X140714447Y-71415142D01*
X140702031Y-71422583D01*
X140688946Y-71428772D01*
X140675317Y-71433649D01*
X140661276Y-71437166D01*
X140646958Y-71439290D01*
X140632500Y-71440000D01*
X140337500Y-71440000D01*
X140323042Y-71439290D01*
X140308724Y-71437166D01*
X140294683Y-71433649D01*
X140281054Y-71428772D01*
X140267969Y-71422583D01*
X140255553Y-71415142D01*
X140243927Y-71406519D01*
X140233202Y-71396798D01*
X140223481Y-71386073D01*
X140214858Y-71374447D01*
X140207417Y-71362031D01*
X140201228Y-71348946D01*
X140196351Y-71335317D01*
X140192834Y-71321276D01*
X140190710Y-71306958D01*
X140190000Y-71292500D01*
X140190000Y-70947500D01*
X140190710Y-70933042D01*
X140192834Y-70918724D01*
X140196351Y-70904683D01*
X140201228Y-70891054D01*
X140207417Y-70877969D01*
X140214858Y-70865553D01*
X140223481Y-70853927D01*
X140233202Y-70843202D01*
X140243927Y-70833481D01*
X140255553Y-70824858D01*
X140267969Y-70817417D01*
X140281054Y-70811228D01*
X140294683Y-70806351D01*
X140308724Y-70802834D01*
X140323042Y-70800710D01*
X140337500Y-70800000D01*
X140632500Y-70800000D01*
X140646958Y-70800710D01*
X140646958Y-70800710D01*
G37*
D11*
X140485000Y-71120000D03*
D10*
G36*
X141616958Y-70800710D02*
G01*
X141631276Y-70802834D01*
X141645317Y-70806351D01*
X141658946Y-70811228D01*
X141672031Y-70817417D01*
X141684447Y-70824858D01*
X141696073Y-70833481D01*
X141706798Y-70843202D01*
X141716519Y-70853927D01*
X141725142Y-70865553D01*
X141732583Y-70877969D01*
X141738772Y-70891054D01*
X141743649Y-70904683D01*
X141747166Y-70918724D01*
X141749290Y-70933042D01*
X141750000Y-70947500D01*
X141750000Y-71292500D01*
X141749290Y-71306958D01*
X141747166Y-71321276D01*
X141743649Y-71335317D01*
X141738772Y-71348946D01*
X141732583Y-71362031D01*
X141725142Y-71374447D01*
X141716519Y-71386073D01*
X141706798Y-71396798D01*
X141696073Y-71406519D01*
X141684447Y-71415142D01*
X141672031Y-71422583D01*
X141658946Y-71428772D01*
X141645317Y-71433649D01*
X141631276Y-71437166D01*
X141616958Y-71439290D01*
X141602500Y-71440000D01*
X141307500Y-71440000D01*
X141293042Y-71439290D01*
X141278724Y-71437166D01*
X141264683Y-71433649D01*
X141251054Y-71428772D01*
X141237969Y-71422583D01*
X141225553Y-71415142D01*
X141213927Y-71406519D01*
X141203202Y-71396798D01*
X141193481Y-71386073D01*
X141184858Y-71374447D01*
X141177417Y-71362031D01*
X141171228Y-71348946D01*
X141166351Y-71335317D01*
X141162834Y-71321276D01*
X141160710Y-71306958D01*
X141160000Y-71292500D01*
X141160000Y-70947500D01*
X141160710Y-70933042D01*
X141162834Y-70918724D01*
X141166351Y-70904683D01*
X141171228Y-70891054D01*
X141177417Y-70877969D01*
X141184858Y-70865553D01*
X141193481Y-70853927D01*
X141203202Y-70843202D01*
X141213927Y-70833481D01*
X141225553Y-70824858D01*
X141237969Y-70817417D01*
X141251054Y-70811228D01*
X141264683Y-70806351D01*
X141278724Y-70802834D01*
X141293042Y-70800710D01*
X141307500Y-70800000D01*
X141602500Y-70800000D01*
X141616958Y-70800710D01*
X141616958Y-70800710D01*
G37*
D11*
X141455000Y-71120000D03*
D10*
G36*
X136076958Y-68585710D02*
G01*
X136091276Y-68587834D01*
X136105317Y-68591351D01*
X136118946Y-68596228D01*
X136132031Y-68602417D01*
X136144447Y-68609858D01*
X136156073Y-68618481D01*
X136166798Y-68628202D01*
X136176519Y-68638927D01*
X136185142Y-68650553D01*
X136192583Y-68662969D01*
X136198772Y-68676054D01*
X136203649Y-68689683D01*
X136207166Y-68703724D01*
X136209290Y-68718042D01*
X136210000Y-68732500D01*
X136210000Y-69027500D01*
X136209290Y-69041958D01*
X136207166Y-69056276D01*
X136203649Y-69070317D01*
X136198772Y-69083946D01*
X136192583Y-69097031D01*
X136185142Y-69109447D01*
X136176519Y-69121073D01*
X136166798Y-69131798D01*
X136156073Y-69141519D01*
X136144447Y-69150142D01*
X136132031Y-69157583D01*
X136118946Y-69163772D01*
X136105317Y-69168649D01*
X136091276Y-69172166D01*
X136076958Y-69174290D01*
X136062500Y-69175000D01*
X135717500Y-69175000D01*
X135703042Y-69174290D01*
X135688724Y-69172166D01*
X135674683Y-69168649D01*
X135661054Y-69163772D01*
X135647969Y-69157583D01*
X135635553Y-69150142D01*
X135623927Y-69141519D01*
X135613202Y-69131798D01*
X135603481Y-69121073D01*
X135594858Y-69109447D01*
X135587417Y-69097031D01*
X135581228Y-69083946D01*
X135576351Y-69070317D01*
X135572834Y-69056276D01*
X135570710Y-69041958D01*
X135570000Y-69027500D01*
X135570000Y-68732500D01*
X135570710Y-68718042D01*
X135572834Y-68703724D01*
X135576351Y-68689683D01*
X135581228Y-68676054D01*
X135587417Y-68662969D01*
X135594858Y-68650553D01*
X135603481Y-68638927D01*
X135613202Y-68628202D01*
X135623927Y-68618481D01*
X135635553Y-68609858D01*
X135647969Y-68602417D01*
X135661054Y-68596228D01*
X135674683Y-68591351D01*
X135688724Y-68587834D01*
X135703042Y-68585710D01*
X135717500Y-68585000D01*
X136062500Y-68585000D01*
X136076958Y-68585710D01*
X136076958Y-68585710D01*
G37*
D11*
X135890000Y-68880000D03*
D10*
G36*
X136076958Y-69555710D02*
G01*
X136091276Y-69557834D01*
X136105317Y-69561351D01*
X136118946Y-69566228D01*
X136132031Y-69572417D01*
X136144447Y-69579858D01*
X136156073Y-69588481D01*
X136166798Y-69598202D01*
X136176519Y-69608927D01*
X136185142Y-69620553D01*
X136192583Y-69632969D01*
X136198772Y-69646054D01*
X136203649Y-69659683D01*
X136207166Y-69673724D01*
X136209290Y-69688042D01*
X136210000Y-69702500D01*
X136210000Y-69997500D01*
X136209290Y-70011958D01*
X136207166Y-70026276D01*
X136203649Y-70040317D01*
X136198772Y-70053946D01*
X136192583Y-70067031D01*
X136185142Y-70079447D01*
X136176519Y-70091073D01*
X136166798Y-70101798D01*
X136156073Y-70111519D01*
X136144447Y-70120142D01*
X136132031Y-70127583D01*
X136118946Y-70133772D01*
X136105317Y-70138649D01*
X136091276Y-70142166D01*
X136076958Y-70144290D01*
X136062500Y-70145000D01*
X135717500Y-70145000D01*
X135703042Y-70144290D01*
X135688724Y-70142166D01*
X135674683Y-70138649D01*
X135661054Y-70133772D01*
X135647969Y-70127583D01*
X135635553Y-70120142D01*
X135623927Y-70111519D01*
X135613202Y-70101798D01*
X135603481Y-70091073D01*
X135594858Y-70079447D01*
X135587417Y-70067031D01*
X135581228Y-70053946D01*
X135576351Y-70040317D01*
X135572834Y-70026276D01*
X135570710Y-70011958D01*
X135570000Y-69997500D01*
X135570000Y-69702500D01*
X135570710Y-69688042D01*
X135572834Y-69673724D01*
X135576351Y-69659683D01*
X135581228Y-69646054D01*
X135587417Y-69632969D01*
X135594858Y-69620553D01*
X135603481Y-69608927D01*
X135613202Y-69598202D01*
X135623927Y-69588481D01*
X135635553Y-69579858D01*
X135647969Y-69572417D01*
X135661054Y-69566228D01*
X135674683Y-69561351D01*
X135688724Y-69557834D01*
X135703042Y-69555710D01*
X135717500Y-69555000D01*
X136062500Y-69555000D01*
X136076958Y-69555710D01*
X136076958Y-69555710D01*
G37*
D11*
X135890000Y-69850000D03*
M02*
