G04 #@! TF.GenerationSoftware,KiCad,Pcbnew,(5.1.4)-1*
G04 #@! TF.CreationDate,2019-11-19T15:05:47-05:00*
G04 #@! TF.ProjectId,MiniProj,4d696e69-5072-46f6-9a2e-6b696361645f,rev?*
G04 #@! TF.SameCoordinates,Original*
G04 #@! TF.FileFunction,Soldermask,Bot*
G04 #@! TF.FilePolarity,Negative*
%FSLAX46Y46*%
G04 Gerber Fmt 4.6, Leading zero omitted, Abs format (unit mm)*
G04 Created by KiCad (PCBNEW (5.1.4)-1) date 2019-11-19 15:05:47*
%MOMM*%
%LPD*%
G04 APERTURE LIST*
%ADD10C,0.100000*%
G04 APERTURE END LIST*
D10*
G36*
X242680442Y-101975518D02*
G01*
X242746627Y-101982037D01*
X242916466Y-102033557D01*
X243072991Y-102117222D01*
X243108729Y-102146552D01*
X243210186Y-102229814D01*
X243293448Y-102331271D01*
X243322778Y-102367009D01*
X243406443Y-102523534D01*
X243457963Y-102693373D01*
X243475359Y-102870000D01*
X243457963Y-103046627D01*
X243406443Y-103216466D01*
X243322778Y-103372991D01*
X243293448Y-103408729D01*
X243210186Y-103510186D01*
X243108729Y-103593448D01*
X243072991Y-103622778D01*
X242916466Y-103706443D01*
X242746627Y-103757963D01*
X242680443Y-103764481D01*
X242614260Y-103771000D01*
X242525740Y-103771000D01*
X242459557Y-103764481D01*
X242393373Y-103757963D01*
X242223534Y-103706443D01*
X242067009Y-103622778D01*
X242031271Y-103593448D01*
X241929814Y-103510186D01*
X241846552Y-103408729D01*
X241817222Y-103372991D01*
X241733557Y-103216466D01*
X241682037Y-103046627D01*
X241664641Y-102870000D01*
X241682037Y-102693373D01*
X241733557Y-102523534D01*
X241817222Y-102367009D01*
X241846552Y-102331271D01*
X241929814Y-102229814D01*
X242031271Y-102146552D01*
X242067009Y-102117222D01*
X242223534Y-102033557D01*
X242393373Y-101982037D01*
X242459558Y-101975518D01*
X242525740Y-101969000D01*
X242614260Y-101969000D01*
X242680442Y-101975518D01*
X242680442Y-101975518D01*
G37*
G36*
X242680443Y-99435519D02*
G01*
X242746627Y-99442037D01*
X242916466Y-99493557D01*
X243072991Y-99577222D01*
X243108729Y-99606552D01*
X243210186Y-99689814D01*
X243293448Y-99791271D01*
X243322778Y-99827009D01*
X243406443Y-99983534D01*
X243457963Y-100153373D01*
X243475359Y-100330000D01*
X243457963Y-100506627D01*
X243406443Y-100676466D01*
X243322778Y-100832991D01*
X243293448Y-100868729D01*
X243210186Y-100970186D01*
X243108729Y-101053448D01*
X243072991Y-101082778D01*
X242916466Y-101166443D01*
X242746627Y-101217963D01*
X242680443Y-101224481D01*
X242614260Y-101231000D01*
X242525740Y-101231000D01*
X242459558Y-101224482D01*
X242393373Y-101217963D01*
X242223534Y-101166443D01*
X242067009Y-101082778D01*
X242031271Y-101053448D01*
X241929814Y-100970186D01*
X241846552Y-100868729D01*
X241817222Y-100832991D01*
X241733557Y-100676466D01*
X241682037Y-100506627D01*
X241664641Y-100330000D01*
X241682037Y-100153373D01*
X241733557Y-99983534D01*
X241817222Y-99827009D01*
X241846552Y-99791271D01*
X241929814Y-99689814D01*
X242031271Y-99606552D01*
X242067009Y-99577222D01*
X242223534Y-99493557D01*
X242393373Y-99442037D01*
X242459558Y-99435518D01*
X242525740Y-99429000D01*
X242614260Y-99429000D01*
X242680443Y-99435519D01*
X242680443Y-99435519D01*
G37*
G36*
X242680442Y-96895518D02*
G01*
X242746627Y-96902037D01*
X242916466Y-96953557D01*
X243072991Y-97037222D01*
X243108729Y-97066552D01*
X243210186Y-97149814D01*
X243293448Y-97251271D01*
X243322778Y-97287009D01*
X243406443Y-97443534D01*
X243457963Y-97613373D01*
X243475359Y-97790000D01*
X243457963Y-97966627D01*
X243406443Y-98136466D01*
X243322778Y-98292991D01*
X243293448Y-98328729D01*
X243210186Y-98430186D01*
X243108729Y-98513448D01*
X243072991Y-98542778D01*
X242916466Y-98626443D01*
X242746627Y-98677963D01*
X242680442Y-98684482D01*
X242614260Y-98691000D01*
X242525740Y-98691000D01*
X242459558Y-98684482D01*
X242393373Y-98677963D01*
X242223534Y-98626443D01*
X242067009Y-98542778D01*
X242031271Y-98513448D01*
X241929814Y-98430186D01*
X241846552Y-98328729D01*
X241817222Y-98292991D01*
X241733557Y-98136466D01*
X241682037Y-97966627D01*
X241664641Y-97790000D01*
X241682037Y-97613373D01*
X241733557Y-97443534D01*
X241817222Y-97287009D01*
X241846552Y-97251271D01*
X241929814Y-97149814D01*
X242031271Y-97066552D01*
X242067009Y-97037222D01*
X242223534Y-96953557D01*
X242393373Y-96902037D01*
X242459558Y-96895518D01*
X242525740Y-96889000D01*
X242614260Y-96889000D01*
X242680442Y-96895518D01*
X242680442Y-96895518D01*
G37*
G36*
X134883512Y-96313927D02*
G01*
X135032812Y-96343624D01*
X135196784Y-96411544D01*
X135344354Y-96510147D01*
X135469853Y-96635646D01*
X135568456Y-96783216D01*
X135636376Y-96947188D01*
X135671000Y-97121259D01*
X135671000Y-97298741D01*
X135636376Y-97472812D01*
X135568456Y-97636784D01*
X135469853Y-97784354D01*
X135344354Y-97909853D01*
X135196784Y-98008456D01*
X135032812Y-98076376D01*
X134883512Y-98106073D01*
X134858742Y-98111000D01*
X134681258Y-98111000D01*
X134656488Y-98106073D01*
X134507188Y-98076376D01*
X134343216Y-98008456D01*
X134195646Y-97909853D01*
X134070147Y-97784354D01*
X133971544Y-97636784D01*
X133903624Y-97472812D01*
X133869000Y-97298741D01*
X133869000Y-97121259D01*
X133903624Y-96947188D01*
X133971544Y-96783216D01*
X134070147Y-96635646D01*
X134195646Y-96510147D01*
X134343216Y-96411544D01*
X134507188Y-96343624D01*
X134656488Y-96313927D01*
X134681258Y-96309000D01*
X134858742Y-96309000D01*
X134883512Y-96313927D01*
X134883512Y-96313927D01*
G37*
G36*
X153933512Y-96313927D02*
G01*
X154082812Y-96343624D01*
X154246784Y-96411544D01*
X154394354Y-96510147D01*
X154519853Y-96635646D01*
X154618456Y-96783216D01*
X154686376Y-96947188D01*
X154721000Y-97121259D01*
X154721000Y-97298741D01*
X154686376Y-97472812D01*
X154618456Y-97636784D01*
X154519853Y-97784354D01*
X154394354Y-97909853D01*
X154246784Y-98008456D01*
X154082812Y-98076376D01*
X153933512Y-98106073D01*
X153908742Y-98111000D01*
X153731258Y-98111000D01*
X153706488Y-98106073D01*
X153557188Y-98076376D01*
X153393216Y-98008456D01*
X153245646Y-97909853D01*
X153120147Y-97784354D01*
X153021544Y-97636784D01*
X152953624Y-97472812D01*
X152919000Y-97298741D01*
X152919000Y-97121259D01*
X152953624Y-96947188D01*
X153021544Y-96783216D01*
X153120147Y-96635646D01*
X153245646Y-96510147D01*
X153393216Y-96411544D01*
X153557188Y-96343624D01*
X153706488Y-96313927D01*
X153731258Y-96309000D01*
X153908742Y-96309000D01*
X153933512Y-96313927D01*
X153933512Y-96313927D01*
G37*
G36*
X128383512Y-96313927D02*
G01*
X128532812Y-96343624D01*
X128696784Y-96411544D01*
X128844354Y-96510147D01*
X128969853Y-96635646D01*
X129068456Y-96783216D01*
X129136376Y-96947188D01*
X129171000Y-97121259D01*
X129171000Y-97298741D01*
X129136376Y-97472812D01*
X129068456Y-97636784D01*
X128969853Y-97784354D01*
X128844354Y-97909853D01*
X128696784Y-98008456D01*
X128532812Y-98076376D01*
X128383512Y-98106073D01*
X128358742Y-98111000D01*
X128181258Y-98111000D01*
X128156488Y-98106073D01*
X128007188Y-98076376D01*
X127843216Y-98008456D01*
X127695646Y-97909853D01*
X127570147Y-97784354D01*
X127471544Y-97636784D01*
X127403624Y-97472812D01*
X127369000Y-97298741D01*
X127369000Y-97121259D01*
X127403624Y-96947188D01*
X127471544Y-96783216D01*
X127570147Y-96635646D01*
X127695646Y-96510147D01*
X127843216Y-96411544D01*
X128007188Y-96343624D01*
X128156488Y-96313927D01*
X128181258Y-96309000D01*
X128358742Y-96309000D01*
X128383512Y-96313927D01*
X128383512Y-96313927D01*
G37*
G36*
X115833512Y-96313927D02*
G01*
X115982812Y-96343624D01*
X116146784Y-96411544D01*
X116294354Y-96510147D01*
X116419853Y-96635646D01*
X116518456Y-96783216D01*
X116586376Y-96947188D01*
X116621000Y-97121259D01*
X116621000Y-97298741D01*
X116586376Y-97472812D01*
X116518456Y-97636784D01*
X116419853Y-97784354D01*
X116294354Y-97909853D01*
X116146784Y-98008456D01*
X115982812Y-98076376D01*
X115833512Y-98106073D01*
X115808742Y-98111000D01*
X115631258Y-98111000D01*
X115606488Y-98106073D01*
X115457188Y-98076376D01*
X115293216Y-98008456D01*
X115145646Y-97909853D01*
X115020147Y-97784354D01*
X114921544Y-97636784D01*
X114853624Y-97472812D01*
X114819000Y-97298741D01*
X114819000Y-97121259D01*
X114853624Y-96947188D01*
X114921544Y-96783216D01*
X115020147Y-96635646D01*
X115145646Y-96510147D01*
X115293216Y-96411544D01*
X115457188Y-96343624D01*
X115606488Y-96313927D01*
X115631258Y-96309000D01*
X115808742Y-96309000D01*
X115833512Y-96313927D01*
X115833512Y-96313927D01*
G37*
G36*
X109333512Y-96313927D02*
G01*
X109482812Y-96343624D01*
X109646784Y-96411544D01*
X109794354Y-96510147D01*
X109919853Y-96635646D01*
X110018456Y-96783216D01*
X110086376Y-96947188D01*
X110121000Y-97121259D01*
X110121000Y-97298741D01*
X110086376Y-97472812D01*
X110018456Y-97636784D01*
X109919853Y-97784354D01*
X109794354Y-97909853D01*
X109646784Y-98008456D01*
X109482812Y-98076376D01*
X109333512Y-98106073D01*
X109308742Y-98111000D01*
X109131258Y-98111000D01*
X109106488Y-98106073D01*
X108957188Y-98076376D01*
X108793216Y-98008456D01*
X108645646Y-97909853D01*
X108520147Y-97784354D01*
X108421544Y-97636784D01*
X108353624Y-97472812D01*
X108319000Y-97298741D01*
X108319000Y-97121259D01*
X108353624Y-96947188D01*
X108421544Y-96783216D01*
X108520147Y-96635646D01*
X108645646Y-96510147D01*
X108793216Y-96411544D01*
X108957188Y-96343624D01*
X109106488Y-96313927D01*
X109131258Y-96309000D01*
X109308742Y-96309000D01*
X109333512Y-96313927D01*
X109333512Y-96313927D01*
G37*
G36*
X147433512Y-96313927D02*
G01*
X147582812Y-96343624D01*
X147746784Y-96411544D01*
X147894354Y-96510147D01*
X148019853Y-96635646D01*
X148118456Y-96783216D01*
X148186376Y-96947188D01*
X148221000Y-97121259D01*
X148221000Y-97298741D01*
X148186376Y-97472812D01*
X148118456Y-97636784D01*
X148019853Y-97784354D01*
X147894354Y-97909853D01*
X147746784Y-98008456D01*
X147582812Y-98076376D01*
X147433512Y-98106073D01*
X147408742Y-98111000D01*
X147231258Y-98111000D01*
X147206488Y-98106073D01*
X147057188Y-98076376D01*
X146893216Y-98008456D01*
X146745646Y-97909853D01*
X146620147Y-97784354D01*
X146521544Y-97636784D01*
X146453624Y-97472812D01*
X146419000Y-97298741D01*
X146419000Y-97121259D01*
X146453624Y-96947188D01*
X146521544Y-96783216D01*
X146620147Y-96635646D01*
X146745646Y-96510147D01*
X146893216Y-96411544D01*
X147057188Y-96343624D01*
X147206488Y-96313927D01*
X147231258Y-96309000D01*
X147408742Y-96309000D01*
X147433512Y-96313927D01*
X147433512Y-96313927D01*
G37*
G36*
X242680442Y-94355518D02*
G01*
X242746627Y-94362037D01*
X242916466Y-94413557D01*
X243072991Y-94497222D01*
X243108729Y-94526552D01*
X243210186Y-94609814D01*
X243293448Y-94711271D01*
X243322778Y-94747009D01*
X243406443Y-94903534D01*
X243457963Y-95073373D01*
X243475359Y-95250000D01*
X243457963Y-95426627D01*
X243406443Y-95596466D01*
X243322778Y-95752991D01*
X243293448Y-95788729D01*
X243210186Y-95890186D01*
X243108729Y-95973448D01*
X243072991Y-96002778D01*
X242916466Y-96086443D01*
X242746627Y-96137963D01*
X242680443Y-96144481D01*
X242614260Y-96151000D01*
X242525740Y-96151000D01*
X242459558Y-96144482D01*
X242393373Y-96137963D01*
X242223534Y-96086443D01*
X242067009Y-96002778D01*
X242031271Y-95973448D01*
X241929814Y-95890186D01*
X241846552Y-95788729D01*
X241817222Y-95752991D01*
X241733557Y-95596466D01*
X241682037Y-95426627D01*
X241664641Y-95250000D01*
X241682037Y-95073373D01*
X241733557Y-94903534D01*
X241817222Y-94747009D01*
X241846552Y-94711271D01*
X241929814Y-94609814D01*
X242031271Y-94526552D01*
X242067009Y-94497222D01*
X242223534Y-94413557D01*
X242393373Y-94362037D01*
X242459557Y-94355519D01*
X242525740Y-94349000D01*
X242614260Y-94349000D01*
X242680442Y-94355518D01*
X242680442Y-94355518D01*
G37*
G36*
X153933512Y-91813927D02*
G01*
X154082812Y-91843624D01*
X154246784Y-91911544D01*
X154394354Y-92010147D01*
X154519853Y-92135646D01*
X154618456Y-92283216D01*
X154686376Y-92447188D01*
X154721000Y-92621259D01*
X154721000Y-92798741D01*
X154686376Y-92972812D01*
X154618456Y-93136784D01*
X154519853Y-93284354D01*
X154394354Y-93409853D01*
X154246784Y-93508456D01*
X154082812Y-93576376D01*
X153933512Y-93606073D01*
X153908742Y-93611000D01*
X153731258Y-93611000D01*
X153706488Y-93606073D01*
X153557188Y-93576376D01*
X153393216Y-93508456D01*
X153245646Y-93409853D01*
X153120147Y-93284354D01*
X153021544Y-93136784D01*
X152953624Y-92972812D01*
X152919000Y-92798741D01*
X152919000Y-92621259D01*
X152953624Y-92447188D01*
X153021544Y-92283216D01*
X153120147Y-92135646D01*
X153245646Y-92010147D01*
X153393216Y-91911544D01*
X153557188Y-91843624D01*
X153706488Y-91813927D01*
X153731258Y-91809000D01*
X153908742Y-91809000D01*
X153933512Y-91813927D01*
X153933512Y-91813927D01*
G37*
G36*
X147433512Y-91813927D02*
G01*
X147582812Y-91843624D01*
X147746784Y-91911544D01*
X147894354Y-92010147D01*
X148019853Y-92135646D01*
X148118456Y-92283216D01*
X148186376Y-92447188D01*
X148221000Y-92621259D01*
X148221000Y-92798741D01*
X148186376Y-92972812D01*
X148118456Y-93136784D01*
X148019853Y-93284354D01*
X147894354Y-93409853D01*
X147746784Y-93508456D01*
X147582812Y-93576376D01*
X147433512Y-93606073D01*
X147408742Y-93611000D01*
X147231258Y-93611000D01*
X147206488Y-93606073D01*
X147057188Y-93576376D01*
X146893216Y-93508456D01*
X146745646Y-93409853D01*
X146620147Y-93284354D01*
X146521544Y-93136784D01*
X146453624Y-92972812D01*
X146419000Y-92798741D01*
X146419000Y-92621259D01*
X146453624Y-92447188D01*
X146521544Y-92283216D01*
X146620147Y-92135646D01*
X146745646Y-92010147D01*
X146893216Y-91911544D01*
X147057188Y-91843624D01*
X147206488Y-91813927D01*
X147231258Y-91809000D01*
X147408742Y-91809000D01*
X147433512Y-91813927D01*
X147433512Y-91813927D01*
G37*
G36*
X109333512Y-91813927D02*
G01*
X109482812Y-91843624D01*
X109646784Y-91911544D01*
X109794354Y-92010147D01*
X109919853Y-92135646D01*
X110018456Y-92283216D01*
X110086376Y-92447188D01*
X110121000Y-92621259D01*
X110121000Y-92798741D01*
X110086376Y-92972812D01*
X110018456Y-93136784D01*
X109919853Y-93284354D01*
X109794354Y-93409853D01*
X109646784Y-93508456D01*
X109482812Y-93576376D01*
X109333512Y-93606073D01*
X109308742Y-93611000D01*
X109131258Y-93611000D01*
X109106488Y-93606073D01*
X108957188Y-93576376D01*
X108793216Y-93508456D01*
X108645646Y-93409853D01*
X108520147Y-93284354D01*
X108421544Y-93136784D01*
X108353624Y-92972812D01*
X108319000Y-92798741D01*
X108319000Y-92621259D01*
X108353624Y-92447188D01*
X108421544Y-92283216D01*
X108520147Y-92135646D01*
X108645646Y-92010147D01*
X108793216Y-91911544D01*
X108957188Y-91843624D01*
X109106488Y-91813927D01*
X109131258Y-91809000D01*
X109308742Y-91809000D01*
X109333512Y-91813927D01*
X109333512Y-91813927D01*
G37*
G36*
X128383512Y-91813927D02*
G01*
X128532812Y-91843624D01*
X128696784Y-91911544D01*
X128844354Y-92010147D01*
X128969853Y-92135646D01*
X129068456Y-92283216D01*
X129136376Y-92447188D01*
X129171000Y-92621259D01*
X129171000Y-92798741D01*
X129136376Y-92972812D01*
X129068456Y-93136784D01*
X128969853Y-93284354D01*
X128844354Y-93409853D01*
X128696784Y-93508456D01*
X128532812Y-93576376D01*
X128383512Y-93606073D01*
X128358742Y-93611000D01*
X128181258Y-93611000D01*
X128156488Y-93606073D01*
X128007188Y-93576376D01*
X127843216Y-93508456D01*
X127695646Y-93409853D01*
X127570147Y-93284354D01*
X127471544Y-93136784D01*
X127403624Y-92972812D01*
X127369000Y-92798741D01*
X127369000Y-92621259D01*
X127403624Y-92447188D01*
X127471544Y-92283216D01*
X127570147Y-92135646D01*
X127695646Y-92010147D01*
X127843216Y-91911544D01*
X128007188Y-91843624D01*
X128156488Y-91813927D01*
X128181258Y-91809000D01*
X128358742Y-91809000D01*
X128383512Y-91813927D01*
X128383512Y-91813927D01*
G37*
G36*
X134883512Y-91813927D02*
G01*
X135032812Y-91843624D01*
X135196784Y-91911544D01*
X135344354Y-92010147D01*
X135469853Y-92135646D01*
X135568456Y-92283216D01*
X135636376Y-92447188D01*
X135671000Y-92621259D01*
X135671000Y-92798741D01*
X135636376Y-92972812D01*
X135568456Y-93136784D01*
X135469853Y-93284354D01*
X135344354Y-93409853D01*
X135196784Y-93508456D01*
X135032812Y-93576376D01*
X134883512Y-93606073D01*
X134858742Y-93611000D01*
X134681258Y-93611000D01*
X134656488Y-93606073D01*
X134507188Y-93576376D01*
X134343216Y-93508456D01*
X134195646Y-93409853D01*
X134070147Y-93284354D01*
X133971544Y-93136784D01*
X133903624Y-92972812D01*
X133869000Y-92798741D01*
X133869000Y-92621259D01*
X133903624Y-92447188D01*
X133971544Y-92283216D01*
X134070147Y-92135646D01*
X134195646Y-92010147D01*
X134343216Y-91911544D01*
X134507188Y-91843624D01*
X134656488Y-91813927D01*
X134681258Y-91809000D01*
X134858742Y-91809000D01*
X134883512Y-91813927D01*
X134883512Y-91813927D01*
G37*
G36*
X242680442Y-91815518D02*
G01*
X242746627Y-91822037D01*
X242916466Y-91873557D01*
X243072991Y-91957222D01*
X243108729Y-91986552D01*
X243210186Y-92069814D01*
X243293448Y-92171271D01*
X243322778Y-92207009D01*
X243406443Y-92363534D01*
X243457963Y-92533373D01*
X243475359Y-92710000D01*
X243457963Y-92886627D01*
X243406443Y-93056466D01*
X243322778Y-93212991D01*
X243293448Y-93248729D01*
X243210186Y-93350186D01*
X243137480Y-93409853D01*
X243072991Y-93462778D01*
X242916466Y-93546443D01*
X242746627Y-93597963D01*
X242680442Y-93604482D01*
X242614260Y-93611000D01*
X242525740Y-93611000D01*
X242459557Y-93604481D01*
X242393373Y-93597963D01*
X242223534Y-93546443D01*
X242067009Y-93462778D01*
X242002520Y-93409853D01*
X241929814Y-93350186D01*
X241846552Y-93248729D01*
X241817222Y-93212991D01*
X241733557Y-93056466D01*
X241682037Y-92886627D01*
X241664641Y-92710000D01*
X241682037Y-92533373D01*
X241733557Y-92363534D01*
X241817222Y-92207009D01*
X241846552Y-92171271D01*
X241929814Y-92069814D01*
X242031271Y-91986552D01*
X242067009Y-91957222D01*
X242223534Y-91873557D01*
X242393373Y-91822037D01*
X242459558Y-91815518D01*
X242525740Y-91809000D01*
X242614260Y-91809000D01*
X242680442Y-91815518D01*
X242680442Y-91815518D01*
G37*
G36*
X115833512Y-91813927D02*
G01*
X115982812Y-91843624D01*
X116146784Y-91911544D01*
X116294354Y-92010147D01*
X116419853Y-92135646D01*
X116518456Y-92283216D01*
X116586376Y-92447188D01*
X116621000Y-92621259D01*
X116621000Y-92798741D01*
X116586376Y-92972812D01*
X116518456Y-93136784D01*
X116419853Y-93284354D01*
X116294354Y-93409853D01*
X116146784Y-93508456D01*
X115982812Y-93576376D01*
X115833512Y-93606073D01*
X115808742Y-93611000D01*
X115631258Y-93611000D01*
X115606488Y-93606073D01*
X115457188Y-93576376D01*
X115293216Y-93508456D01*
X115145646Y-93409853D01*
X115020147Y-93284354D01*
X114921544Y-93136784D01*
X114853624Y-92972812D01*
X114819000Y-92798741D01*
X114819000Y-92621259D01*
X114853624Y-92447188D01*
X114921544Y-92283216D01*
X115020147Y-92135646D01*
X115145646Y-92010147D01*
X115293216Y-91911544D01*
X115457188Y-91843624D01*
X115606488Y-91813927D01*
X115631258Y-91809000D01*
X115808742Y-91809000D01*
X115833512Y-91813927D01*
X115833512Y-91813927D01*
G37*
G36*
X242680443Y-89275519D02*
G01*
X242746627Y-89282037D01*
X242916466Y-89333557D01*
X243072991Y-89417222D01*
X243108729Y-89446552D01*
X243210186Y-89529814D01*
X243293448Y-89631271D01*
X243322778Y-89667009D01*
X243406443Y-89823534D01*
X243457963Y-89993373D01*
X243475359Y-90170000D01*
X243457963Y-90346627D01*
X243406443Y-90516466D01*
X243322778Y-90672991D01*
X243293448Y-90708729D01*
X243210186Y-90810186D01*
X243108729Y-90893448D01*
X243072991Y-90922778D01*
X242916466Y-91006443D01*
X242746627Y-91057963D01*
X242680442Y-91064482D01*
X242614260Y-91071000D01*
X242525740Y-91071000D01*
X242459558Y-91064482D01*
X242393373Y-91057963D01*
X242223534Y-91006443D01*
X242067009Y-90922778D01*
X242031271Y-90893448D01*
X241929814Y-90810186D01*
X241846552Y-90708729D01*
X241817222Y-90672991D01*
X241733557Y-90516466D01*
X241682037Y-90346627D01*
X241664641Y-90170000D01*
X241682037Y-89993373D01*
X241733557Y-89823534D01*
X241817222Y-89667009D01*
X241846552Y-89631271D01*
X241929814Y-89529814D01*
X242031271Y-89446552D01*
X242067009Y-89417222D01*
X242223534Y-89333557D01*
X242393373Y-89282037D01*
X242459557Y-89275519D01*
X242525740Y-89269000D01*
X242614260Y-89269000D01*
X242680443Y-89275519D01*
X242680443Y-89275519D01*
G37*
G36*
X212200443Y-88005519D02*
G01*
X212266627Y-88012037D01*
X212436466Y-88063557D01*
X212592991Y-88147222D01*
X212628729Y-88176552D01*
X212730186Y-88259814D01*
X212813448Y-88361271D01*
X212842778Y-88397009D01*
X212926443Y-88553534D01*
X212977963Y-88723373D01*
X212995359Y-88900000D01*
X212977963Y-89076627D01*
X212926443Y-89246466D01*
X212842778Y-89402991D01*
X212813448Y-89438729D01*
X212730186Y-89540186D01*
X212628729Y-89623448D01*
X212592991Y-89652778D01*
X212436466Y-89736443D01*
X212266627Y-89787963D01*
X212200443Y-89794481D01*
X212134260Y-89801000D01*
X212045740Y-89801000D01*
X211979557Y-89794481D01*
X211913373Y-89787963D01*
X211743534Y-89736443D01*
X211587009Y-89652778D01*
X211551271Y-89623448D01*
X211449814Y-89540186D01*
X211366552Y-89438729D01*
X211337222Y-89402991D01*
X211253557Y-89246466D01*
X211202037Y-89076627D01*
X211184641Y-88900000D01*
X211202037Y-88723373D01*
X211253557Y-88553534D01*
X211337222Y-88397009D01*
X211366552Y-88361271D01*
X211449814Y-88259814D01*
X211551271Y-88176552D01*
X211587009Y-88147222D01*
X211743534Y-88063557D01*
X211913373Y-88012037D01*
X211979558Y-88005518D01*
X212045740Y-87999000D01*
X212134260Y-87999000D01*
X212200443Y-88005519D01*
X212200443Y-88005519D01*
G37*
G36*
X186800443Y-88005519D02*
G01*
X186866627Y-88012037D01*
X187036466Y-88063557D01*
X187192991Y-88147222D01*
X187228729Y-88176552D01*
X187330186Y-88259814D01*
X187413448Y-88361271D01*
X187442778Y-88397009D01*
X187526443Y-88553534D01*
X187577963Y-88723373D01*
X187595359Y-88900000D01*
X187577963Y-89076627D01*
X187526443Y-89246466D01*
X187442778Y-89402991D01*
X187413448Y-89438729D01*
X187330186Y-89540186D01*
X187228729Y-89623448D01*
X187192991Y-89652778D01*
X187036466Y-89736443D01*
X186866627Y-89787963D01*
X186800443Y-89794481D01*
X186734260Y-89801000D01*
X186645740Y-89801000D01*
X186579557Y-89794481D01*
X186513373Y-89787963D01*
X186343534Y-89736443D01*
X186187009Y-89652778D01*
X186151271Y-89623448D01*
X186049814Y-89540186D01*
X185966552Y-89438729D01*
X185937222Y-89402991D01*
X185853557Y-89246466D01*
X185802037Y-89076627D01*
X185784641Y-88900000D01*
X185802037Y-88723373D01*
X185853557Y-88553534D01*
X185937222Y-88397009D01*
X185966552Y-88361271D01*
X186049814Y-88259814D01*
X186151271Y-88176552D01*
X186187009Y-88147222D01*
X186343534Y-88063557D01*
X186513373Y-88012037D01*
X186579558Y-88005518D01*
X186645740Y-87999000D01*
X186734260Y-87999000D01*
X186800443Y-88005519D01*
X186800443Y-88005519D01*
G37*
G36*
X189340443Y-88005519D02*
G01*
X189406627Y-88012037D01*
X189576466Y-88063557D01*
X189732991Y-88147222D01*
X189768729Y-88176552D01*
X189870186Y-88259814D01*
X189953448Y-88361271D01*
X189982778Y-88397009D01*
X190066443Y-88553534D01*
X190117963Y-88723373D01*
X190135359Y-88900000D01*
X190117963Y-89076627D01*
X190066443Y-89246466D01*
X189982778Y-89402991D01*
X189953448Y-89438729D01*
X189870186Y-89540186D01*
X189768729Y-89623448D01*
X189732991Y-89652778D01*
X189576466Y-89736443D01*
X189406627Y-89787963D01*
X189340443Y-89794481D01*
X189274260Y-89801000D01*
X189185740Y-89801000D01*
X189119557Y-89794481D01*
X189053373Y-89787963D01*
X188883534Y-89736443D01*
X188727009Y-89652778D01*
X188691271Y-89623448D01*
X188589814Y-89540186D01*
X188506552Y-89438729D01*
X188477222Y-89402991D01*
X188393557Y-89246466D01*
X188342037Y-89076627D01*
X188324641Y-88900000D01*
X188342037Y-88723373D01*
X188393557Y-88553534D01*
X188477222Y-88397009D01*
X188506552Y-88361271D01*
X188589814Y-88259814D01*
X188691271Y-88176552D01*
X188727009Y-88147222D01*
X188883534Y-88063557D01*
X189053373Y-88012037D01*
X189119558Y-88005518D01*
X189185740Y-87999000D01*
X189274260Y-87999000D01*
X189340443Y-88005519D01*
X189340443Y-88005519D01*
G37*
G36*
X191880443Y-88005519D02*
G01*
X191946627Y-88012037D01*
X192116466Y-88063557D01*
X192272991Y-88147222D01*
X192308729Y-88176552D01*
X192410186Y-88259814D01*
X192493448Y-88361271D01*
X192522778Y-88397009D01*
X192606443Y-88553534D01*
X192657963Y-88723373D01*
X192675359Y-88900000D01*
X192657963Y-89076627D01*
X192606443Y-89246466D01*
X192522778Y-89402991D01*
X192493448Y-89438729D01*
X192410186Y-89540186D01*
X192308729Y-89623448D01*
X192272991Y-89652778D01*
X192116466Y-89736443D01*
X191946627Y-89787963D01*
X191880443Y-89794481D01*
X191814260Y-89801000D01*
X191725740Y-89801000D01*
X191659557Y-89794481D01*
X191593373Y-89787963D01*
X191423534Y-89736443D01*
X191267009Y-89652778D01*
X191231271Y-89623448D01*
X191129814Y-89540186D01*
X191046552Y-89438729D01*
X191017222Y-89402991D01*
X190933557Y-89246466D01*
X190882037Y-89076627D01*
X190864641Y-88900000D01*
X190882037Y-88723373D01*
X190933557Y-88553534D01*
X191017222Y-88397009D01*
X191046552Y-88361271D01*
X191129814Y-88259814D01*
X191231271Y-88176552D01*
X191267009Y-88147222D01*
X191423534Y-88063557D01*
X191593373Y-88012037D01*
X191659558Y-88005518D01*
X191725740Y-87999000D01*
X191814260Y-87999000D01*
X191880443Y-88005519D01*
X191880443Y-88005519D01*
G37*
G36*
X194420443Y-88005519D02*
G01*
X194486627Y-88012037D01*
X194656466Y-88063557D01*
X194812991Y-88147222D01*
X194848729Y-88176552D01*
X194950186Y-88259814D01*
X195033448Y-88361271D01*
X195062778Y-88397009D01*
X195146443Y-88553534D01*
X195197963Y-88723373D01*
X195215359Y-88900000D01*
X195197963Y-89076627D01*
X195146443Y-89246466D01*
X195062778Y-89402991D01*
X195033448Y-89438729D01*
X194950186Y-89540186D01*
X194848729Y-89623448D01*
X194812991Y-89652778D01*
X194656466Y-89736443D01*
X194486627Y-89787963D01*
X194420443Y-89794481D01*
X194354260Y-89801000D01*
X194265740Y-89801000D01*
X194199557Y-89794481D01*
X194133373Y-89787963D01*
X193963534Y-89736443D01*
X193807009Y-89652778D01*
X193771271Y-89623448D01*
X193669814Y-89540186D01*
X193586552Y-89438729D01*
X193557222Y-89402991D01*
X193473557Y-89246466D01*
X193422037Y-89076627D01*
X193404641Y-88900000D01*
X193422037Y-88723373D01*
X193473557Y-88553534D01*
X193557222Y-88397009D01*
X193586552Y-88361271D01*
X193669814Y-88259814D01*
X193771271Y-88176552D01*
X193807009Y-88147222D01*
X193963534Y-88063557D01*
X194133373Y-88012037D01*
X194199558Y-88005518D01*
X194265740Y-87999000D01*
X194354260Y-87999000D01*
X194420443Y-88005519D01*
X194420443Y-88005519D01*
G37*
G36*
X196960443Y-88005519D02*
G01*
X197026627Y-88012037D01*
X197196466Y-88063557D01*
X197352991Y-88147222D01*
X197388729Y-88176552D01*
X197490186Y-88259814D01*
X197573448Y-88361271D01*
X197602778Y-88397009D01*
X197686443Y-88553534D01*
X197737963Y-88723373D01*
X197755359Y-88900000D01*
X197737963Y-89076627D01*
X197686443Y-89246466D01*
X197602778Y-89402991D01*
X197573448Y-89438729D01*
X197490186Y-89540186D01*
X197388729Y-89623448D01*
X197352991Y-89652778D01*
X197196466Y-89736443D01*
X197026627Y-89787963D01*
X196960443Y-89794481D01*
X196894260Y-89801000D01*
X196805740Y-89801000D01*
X196739557Y-89794481D01*
X196673373Y-89787963D01*
X196503534Y-89736443D01*
X196347009Y-89652778D01*
X196311271Y-89623448D01*
X196209814Y-89540186D01*
X196126552Y-89438729D01*
X196097222Y-89402991D01*
X196013557Y-89246466D01*
X195962037Y-89076627D01*
X195944641Y-88900000D01*
X195962037Y-88723373D01*
X196013557Y-88553534D01*
X196097222Y-88397009D01*
X196126552Y-88361271D01*
X196209814Y-88259814D01*
X196311271Y-88176552D01*
X196347009Y-88147222D01*
X196503534Y-88063557D01*
X196673373Y-88012037D01*
X196739558Y-88005518D01*
X196805740Y-87999000D01*
X196894260Y-87999000D01*
X196960443Y-88005519D01*
X196960443Y-88005519D01*
G37*
G36*
X199500443Y-88005519D02*
G01*
X199566627Y-88012037D01*
X199736466Y-88063557D01*
X199892991Y-88147222D01*
X199928729Y-88176552D01*
X200030186Y-88259814D01*
X200113448Y-88361271D01*
X200142778Y-88397009D01*
X200226443Y-88553534D01*
X200277963Y-88723373D01*
X200295359Y-88900000D01*
X200277963Y-89076627D01*
X200226443Y-89246466D01*
X200142778Y-89402991D01*
X200113448Y-89438729D01*
X200030186Y-89540186D01*
X199928729Y-89623448D01*
X199892991Y-89652778D01*
X199736466Y-89736443D01*
X199566627Y-89787963D01*
X199500443Y-89794481D01*
X199434260Y-89801000D01*
X199345740Y-89801000D01*
X199279557Y-89794481D01*
X199213373Y-89787963D01*
X199043534Y-89736443D01*
X198887009Y-89652778D01*
X198851271Y-89623448D01*
X198749814Y-89540186D01*
X198666552Y-89438729D01*
X198637222Y-89402991D01*
X198553557Y-89246466D01*
X198502037Y-89076627D01*
X198484641Y-88900000D01*
X198502037Y-88723373D01*
X198553557Y-88553534D01*
X198637222Y-88397009D01*
X198666552Y-88361271D01*
X198749814Y-88259814D01*
X198851271Y-88176552D01*
X198887009Y-88147222D01*
X199043534Y-88063557D01*
X199213373Y-88012037D01*
X199279558Y-88005518D01*
X199345740Y-87999000D01*
X199434260Y-87999000D01*
X199500443Y-88005519D01*
X199500443Y-88005519D01*
G37*
G36*
X202040443Y-88005519D02*
G01*
X202106627Y-88012037D01*
X202276466Y-88063557D01*
X202432991Y-88147222D01*
X202468729Y-88176552D01*
X202570186Y-88259814D01*
X202653448Y-88361271D01*
X202682778Y-88397009D01*
X202766443Y-88553534D01*
X202817963Y-88723373D01*
X202835359Y-88900000D01*
X202817963Y-89076627D01*
X202766443Y-89246466D01*
X202682778Y-89402991D01*
X202653448Y-89438729D01*
X202570186Y-89540186D01*
X202468729Y-89623448D01*
X202432991Y-89652778D01*
X202276466Y-89736443D01*
X202106627Y-89787963D01*
X202040443Y-89794481D01*
X201974260Y-89801000D01*
X201885740Y-89801000D01*
X201819557Y-89794481D01*
X201753373Y-89787963D01*
X201583534Y-89736443D01*
X201427009Y-89652778D01*
X201391271Y-89623448D01*
X201289814Y-89540186D01*
X201206552Y-89438729D01*
X201177222Y-89402991D01*
X201093557Y-89246466D01*
X201042037Y-89076627D01*
X201024641Y-88900000D01*
X201042037Y-88723373D01*
X201093557Y-88553534D01*
X201177222Y-88397009D01*
X201206552Y-88361271D01*
X201289814Y-88259814D01*
X201391271Y-88176552D01*
X201427009Y-88147222D01*
X201583534Y-88063557D01*
X201753373Y-88012037D01*
X201819558Y-88005518D01*
X201885740Y-87999000D01*
X201974260Y-87999000D01*
X202040443Y-88005519D01*
X202040443Y-88005519D01*
G37*
G36*
X207120443Y-88005519D02*
G01*
X207186627Y-88012037D01*
X207356466Y-88063557D01*
X207512991Y-88147222D01*
X207548729Y-88176552D01*
X207650186Y-88259814D01*
X207733448Y-88361271D01*
X207762778Y-88397009D01*
X207846443Y-88553534D01*
X207897963Y-88723373D01*
X207915359Y-88900000D01*
X207897963Y-89076627D01*
X207846443Y-89246466D01*
X207762778Y-89402991D01*
X207733448Y-89438729D01*
X207650186Y-89540186D01*
X207548729Y-89623448D01*
X207512991Y-89652778D01*
X207356466Y-89736443D01*
X207186627Y-89787963D01*
X207120443Y-89794481D01*
X207054260Y-89801000D01*
X206965740Y-89801000D01*
X206899557Y-89794481D01*
X206833373Y-89787963D01*
X206663534Y-89736443D01*
X206507009Y-89652778D01*
X206471271Y-89623448D01*
X206369814Y-89540186D01*
X206286552Y-89438729D01*
X206257222Y-89402991D01*
X206173557Y-89246466D01*
X206122037Y-89076627D01*
X206104641Y-88900000D01*
X206122037Y-88723373D01*
X206173557Y-88553534D01*
X206257222Y-88397009D01*
X206286552Y-88361271D01*
X206369814Y-88259814D01*
X206471271Y-88176552D01*
X206507009Y-88147222D01*
X206663534Y-88063557D01*
X206833373Y-88012037D01*
X206899558Y-88005518D01*
X206965740Y-87999000D01*
X207054260Y-87999000D01*
X207120443Y-88005519D01*
X207120443Y-88005519D01*
G37*
G36*
X209660443Y-88005519D02*
G01*
X209726627Y-88012037D01*
X209896466Y-88063557D01*
X210052991Y-88147222D01*
X210088729Y-88176552D01*
X210190186Y-88259814D01*
X210273448Y-88361271D01*
X210302778Y-88397009D01*
X210386443Y-88553534D01*
X210437963Y-88723373D01*
X210455359Y-88900000D01*
X210437963Y-89076627D01*
X210386443Y-89246466D01*
X210302778Y-89402991D01*
X210273448Y-89438729D01*
X210190186Y-89540186D01*
X210088729Y-89623448D01*
X210052991Y-89652778D01*
X209896466Y-89736443D01*
X209726627Y-89787963D01*
X209660443Y-89794481D01*
X209594260Y-89801000D01*
X209505740Y-89801000D01*
X209439557Y-89794481D01*
X209373373Y-89787963D01*
X209203534Y-89736443D01*
X209047009Y-89652778D01*
X209011271Y-89623448D01*
X208909814Y-89540186D01*
X208826552Y-89438729D01*
X208797222Y-89402991D01*
X208713557Y-89246466D01*
X208662037Y-89076627D01*
X208644641Y-88900000D01*
X208662037Y-88723373D01*
X208713557Y-88553534D01*
X208797222Y-88397009D01*
X208826552Y-88361271D01*
X208909814Y-88259814D01*
X209011271Y-88176552D01*
X209047009Y-88147222D01*
X209203534Y-88063557D01*
X209373373Y-88012037D01*
X209439558Y-88005518D01*
X209505740Y-87999000D01*
X209594260Y-87999000D01*
X209660443Y-88005519D01*
X209660443Y-88005519D01*
G37*
G36*
X214740443Y-88005519D02*
G01*
X214806627Y-88012037D01*
X214976466Y-88063557D01*
X215132991Y-88147222D01*
X215168729Y-88176552D01*
X215270186Y-88259814D01*
X215353448Y-88361271D01*
X215382778Y-88397009D01*
X215466443Y-88553534D01*
X215517963Y-88723373D01*
X215535359Y-88900000D01*
X215517963Y-89076627D01*
X215466443Y-89246466D01*
X215382778Y-89402991D01*
X215353448Y-89438729D01*
X215270186Y-89540186D01*
X215168729Y-89623448D01*
X215132991Y-89652778D01*
X214976466Y-89736443D01*
X214806627Y-89787963D01*
X214740443Y-89794481D01*
X214674260Y-89801000D01*
X214585740Y-89801000D01*
X214519557Y-89794481D01*
X214453373Y-89787963D01*
X214283534Y-89736443D01*
X214127009Y-89652778D01*
X214091271Y-89623448D01*
X213989814Y-89540186D01*
X213906552Y-89438729D01*
X213877222Y-89402991D01*
X213793557Y-89246466D01*
X213742037Y-89076627D01*
X213724641Y-88900000D01*
X213742037Y-88723373D01*
X213793557Y-88553534D01*
X213877222Y-88397009D01*
X213906552Y-88361271D01*
X213989814Y-88259814D01*
X214091271Y-88176552D01*
X214127009Y-88147222D01*
X214283534Y-88063557D01*
X214453373Y-88012037D01*
X214519558Y-88005518D01*
X214585740Y-87999000D01*
X214674260Y-87999000D01*
X214740443Y-88005519D01*
X214740443Y-88005519D01*
G37*
G36*
X217280443Y-88005519D02*
G01*
X217346627Y-88012037D01*
X217516466Y-88063557D01*
X217672991Y-88147222D01*
X217708729Y-88176552D01*
X217810186Y-88259814D01*
X217893448Y-88361271D01*
X217922778Y-88397009D01*
X218006443Y-88553534D01*
X218057963Y-88723373D01*
X218075359Y-88900000D01*
X218057963Y-89076627D01*
X218006443Y-89246466D01*
X217922778Y-89402991D01*
X217893448Y-89438729D01*
X217810186Y-89540186D01*
X217708729Y-89623448D01*
X217672991Y-89652778D01*
X217516466Y-89736443D01*
X217346627Y-89787963D01*
X217280443Y-89794481D01*
X217214260Y-89801000D01*
X217125740Y-89801000D01*
X217059557Y-89794481D01*
X216993373Y-89787963D01*
X216823534Y-89736443D01*
X216667009Y-89652778D01*
X216631271Y-89623448D01*
X216529814Y-89540186D01*
X216446552Y-89438729D01*
X216417222Y-89402991D01*
X216333557Y-89246466D01*
X216282037Y-89076627D01*
X216264641Y-88900000D01*
X216282037Y-88723373D01*
X216333557Y-88553534D01*
X216417222Y-88397009D01*
X216446552Y-88361271D01*
X216529814Y-88259814D01*
X216631271Y-88176552D01*
X216667009Y-88147222D01*
X216823534Y-88063557D01*
X216993373Y-88012037D01*
X217059558Y-88005518D01*
X217125740Y-87999000D01*
X217214260Y-87999000D01*
X217280443Y-88005519D01*
X217280443Y-88005519D01*
G37*
G36*
X219820443Y-88005519D02*
G01*
X219886627Y-88012037D01*
X220056466Y-88063557D01*
X220212991Y-88147222D01*
X220248729Y-88176552D01*
X220350186Y-88259814D01*
X220433448Y-88361271D01*
X220462778Y-88397009D01*
X220546443Y-88553534D01*
X220597963Y-88723373D01*
X220615359Y-88900000D01*
X220597963Y-89076627D01*
X220546443Y-89246466D01*
X220462778Y-89402991D01*
X220433448Y-89438729D01*
X220350186Y-89540186D01*
X220248729Y-89623448D01*
X220212991Y-89652778D01*
X220056466Y-89736443D01*
X219886627Y-89787963D01*
X219820443Y-89794481D01*
X219754260Y-89801000D01*
X219665740Y-89801000D01*
X219599557Y-89794481D01*
X219533373Y-89787963D01*
X219363534Y-89736443D01*
X219207009Y-89652778D01*
X219171271Y-89623448D01*
X219069814Y-89540186D01*
X218986552Y-89438729D01*
X218957222Y-89402991D01*
X218873557Y-89246466D01*
X218822037Y-89076627D01*
X218804641Y-88900000D01*
X218822037Y-88723373D01*
X218873557Y-88553534D01*
X218957222Y-88397009D01*
X218986552Y-88361271D01*
X219069814Y-88259814D01*
X219171271Y-88176552D01*
X219207009Y-88147222D01*
X219363534Y-88063557D01*
X219533373Y-88012037D01*
X219599558Y-88005518D01*
X219665740Y-87999000D01*
X219754260Y-87999000D01*
X219820443Y-88005519D01*
X219820443Y-88005519D01*
G37*
G36*
X222360443Y-88005519D02*
G01*
X222426627Y-88012037D01*
X222596466Y-88063557D01*
X222752991Y-88147222D01*
X222788729Y-88176552D01*
X222890186Y-88259814D01*
X222973448Y-88361271D01*
X223002778Y-88397009D01*
X223086443Y-88553534D01*
X223137963Y-88723373D01*
X223155359Y-88900000D01*
X223137963Y-89076627D01*
X223086443Y-89246466D01*
X223002778Y-89402991D01*
X222973448Y-89438729D01*
X222890186Y-89540186D01*
X222788729Y-89623448D01*
X222752991Y-89652778D01*
X222596466Y-89736443D01*
X222426627Y-89787963D01*
X222360443Y-89794481D01*
X222294260Y-89801000D01*
X222205740Y-89801000D01*
X222139557Y-89794481D01*
X222073373Y-89787963D01*
X221903534Y-89736443D01*
X221747009Y-89652778D01*
X221711271Y-89623448D01*
X221609814Y-89540186D01*
X221526552Y-89438729D01*
X221497222Y-89402991D01*
X221413557Y-89246466D01*
X221362037Y-89076627D01*
X221344641Y-88900000D01*
X221362037Y-88723373D01*
X221413557Y-88553534D01*
X221497222Y-88397009D01*
X221526552Y-88361271D01*
X221609814Y-88259814D01*
X221711271Y-88176552D01*
X221747009Y-88147222D01*
X221903534Y-88063557D01*
X222073373Y-88012037D01*
X222139558Y-88005518D01*
X222205740Y-87999000D01*
X222294260Y-87999000D01*
X222360443Y-88005519D01*
X222360443Y-88005519D01*
G37*
G36*
X204580443Y-88005519D02*
G01*
X204646627Y-88012037D01*
X204816466Y-88063557D01*
X204972991Y-88147222D01*
X205008729Y-88176552D01*
X205110186Y-88259814D01*
X205193448Y-88361271D01*
X205222778Y-88397009D01*
X205306443Y-88553534D01*
X205357963Y-88723373D01*
X205375359Y-88900000D01*
X205357963Y-89076627D01*
X205306443Y-89246466D01*
X205222778Y-89402991D01*
X205193448Y-89438729D01*
X205110186Y-89540186D01*
X205008729Y-89623448D01*
X204972991Y-89652778D01*
X204816466Y-89736443D01*
X204646627Y-89787963D01*
X204580443Y-89794481D01*
X204514260Y-89801000D01*
X204425740Y-89801000D01*
X204359557Y-89794481D01*
X204293373Y-89787963D01*
X204123534Y-89736443D01*
X203967009Y-89652778D01*
X203931271Y-89623448D01*
X203829814Y-89540186D01*
X203746552Y-89438729D01*
X203717222Y-89402991D01*
X203633557Y-89246466D01*
X203582037Y-89076627D01*
X203564641Y-88900000D01*
X203582037Y-88723373D01*
X203633557Y-88553534D01*
X203717222Y-88397009D01*
X203746552Y-88361271D01*
X203829814Y-88259814D01*
X203931271Y-88176552D01*
X203967009Y-88147222D01*
X204123534Y-88063557D01*
X204293373Y-88012037D01*
X204359558Y-88005518D01*
X204425740Y-87999000D01*
X204514260Y-87999000D01*
X204580443Y-88005519D01*
X204580443Y-88005519D01*
G37*
G36*
X185051000Y-89801000D02*
G01*
X183249000Y-89801000D01*
X183249000Y-87999000D01*
X185051000Y-87999000D01*
X185051000Y-89801000D01*
X185051000Y-89801000D01*
G37*
G36*
X242680442Y-86735518D02*
G01*
X242746627Y-86742037D01*
X242916466Y-86793557D01*
X243072991Y-86877222D01*
X243108729Y-86906552D01*
X243210186Y-86989814D01*
X243293448Y-87091271D01*
X243322778Y-87127009D01*
X243406443Y-87283534D01*
X243457963Y-87453373D01*
X243475359Y-87630000D01*
X243457963Y-87806627D01*
X243406443Y-87976466D01*
X243322778Y-88132991D01*
X243293448Y-88168729D01*
X243210186Y-88270186D01*
X243108729Y-88353448D01*
X243072991Y-88382778D01*
X242916466Y-88466443D01*
X242746627Y-88517963D01*
X242680442Y-88524482D01*
X242614260Y-88531000D01*
X242525740Y-88531000D01*
X242459558Y-88524482D01*
X242393373Y-88517963D01*
X242223534Y-88466443D01*
X242067009Y-88382778D01*
X242031271Y-88353448D01*
X241929814Y-88270186D01*
X241846552Y-88168729D01*
X241817222Y-88132991D01*
X241733557Y-87976466D01*
X241682037Y-87806627D01*
X241664641Y-87630000D01*
X241682037Y-87453373D01*
X241733557Y-87283534D01*
X241817222Y-87127009D01*
X241846552Y-87091271D01*
X241929814Y-86989814D01*
X242031271Y-86906552D01*
X242067009Y-86877222D01*
X242223534Y-86793557D01*
X242393373Y-86742037D01*
X242459558Y-86735518D01*
X242525740Y-86729000D01*
X242614260Y-86729000D01*
X242680442Y-86735518D01*
X242680442Y-86735518D01*
G37*
G36*
X242680442Y-84195518D02*
G01*
X242746627Y-84202037D01*
X242916466Y-84253557D01*
X243072991Y-84337222D01*
X243108729Y-84366552D01*
X243210186Y-84449814D01*
X243293448Y-84551271D01*
X243322778Y-84587009D01*
X243406443Y-84743534D01*
X243457963Y-84913373D01*
X243475359Y-85090000D01*
X243457963Y-85266627D01*
X243406443Y-85436466D01*
X243322778Y-85592991D01*
X243293448Y-85628729D01*
X243210186Y-85730186D01*
X243108729Y-85813448D01*
X243072991Y-85842778D01*
X242916466Y-85926443D01*
X242746627Y-85977963D01*
X242680442Y-85984482D01*
X242614260Y-85991000D01*
X242525740Y-85991000D01*
X242459558Y-85984482D01*
X242393373Y-85977963D01*
X242223534Y-85926443D01*
X242067009Y-85842778D01*
X242031271Y-85813448D01*
X241929814Y-85730186D01*
X241846552Y-85628729D01*
X241817222Y-85592991D01*
X241733557Y-85436466D01*
X241682037Y-85266627D01*
X241664641Y-85090000D01*
X241682037Y-84913373D01*
X241733557Y-84743534D01*
X241817222Y-84587009D01*
X241846552Y-84551271D01*
X241929814Y-84449814D01*
X242031271Y-84366552D01*
X242067009Y-84337222D01*
X242223534Y-84253557D01*
X242393373Y-84202037D01*
X242459558Y-84195518D01*
X242525740Y-84189000D01*
X242614260Y-84189000D01*
X242680442Y-84195518D01*
X242680442Y-84195518D01*
G37*
G36*
X242680443Y-81655519D02*
G01*
X242746627Y-81662037D01*
X242916466Y-81713557D01*
X243072991Y-81797222D01*
X243108729Y-81826552D01*
X243210186Y-81909814D01*
X243293448Y-82011271D01*
X243322778Y-82047009D01*
X243406443Y-82203534D01*
X243457963Y-82373373D01*
X243475359Y-82550000D01*
X243457963Y-82726627D01*
X243406443Y-82896466D01*
X243322778Y-83052991D01*
X243293448Y-83088729D01*
X243210186Y-83190186D01*
X243108729Y-83273448D01*
X243072991Y-83302778D01*
X242916466Y-83386443D01*
X242746627Y-83437963D01*
X242680443Y-83444481D01*
X242614260Y-83451000D01*
X242525740Y-83451000D01*
X242459557Y-83444481D01*
X242393373Y-83437963D01*
X242223534Y-83386443D01*
X242067009Y-83302778D01*
X242031271Y-83273448D01*
X241929814Y-83190186D01*
X241846552Y-83088729D01*
X241817222Y-83052991D01*
X241733557Y-82896466D01*
X241682037Y-82726627D01*
X241664641Y-82550000D01*
X241682037Y-82373373D01*
X241733557Y-82203534D01*
X241817222Y-82047009D01*
X241846552Y-82011271D01*
X241929814Y-81909814D01*
X242031271Y-81826552D01*
X242067009Y-81797222D01*
X242223534Y-81713557D01*
X242393373Y-81662037D01*
X242459557Y-81655519D01*
X242525740Y-81649000D01*
X242614260Y-81649000D01*
X242680443Y-81655519D01*
X242680443Y-81655519D01*
G37*
G36*
X128383512Y-79803927D02*
G01*
X128532812Y-79833624D01*
X128696784Y-79901544D01*
X128844354Y-80000147D01*
X128969853Y-80125646D01*
X129068456Y-80273216D01*
X129136376Y-80437188D01*
X129171000Y-80611259D01*
X129171000Y-80788741D01*
X129136376Y-80962812D01*
X129068456Y-81126784D01*
X128969853Y-81274354D01*
X128844354Y-81399853D01*
X128696784Y-81498456D01*
X128532812Y-81566376D01*
X128383512Y-81596073D01*
X128358742Y-81601000D01*
X128181258Y-81601000D01*
X128156488Y-81596073D01*
X128007188Y-81566376D01*
X127843216Y-81498456D01*
X127695646Y-81399853D01*
X127570147Y-81274354D01*
X127471544Y-81126784D01*
X127403624Y-80962812D01*
X127369000Y-80788741D01*
X127369000Y-80611259D01*
X127403624Y-80437188D01*
X127471544Y-80273216D01*
X127570147Y-80125646D01*
X127695646Y-80000147D01*
X127843216Y-79901544D01*
X128007188Y-79833624D01*
X128156488Y-79803927D01*
X128181258Y-79799000D01*
X128358742Y-79799000D01*
X128383512Y-79803927D01*
X128383512Y-79803927D01*
G37*
G36*
X134883512Y-79803927D02*
G01*
X135032812Y-79833624D01*
X135196784Y-79901544D01*
X135344354Y-80000147D01*
X135469853Y-80125646D01*
X135568456Y-80273216D01*
X135636376Y-80437188D01*
X135671000Y-80611259D01*
X135671000Y-80788741D01*
X135636376Y-80962812D01*
X135568456Y-81126784D01*
X135469853Y-81274354D01*
X135344354Y-81399853D01*
X135196784Y-81498456D01*
X135032812Y-81566376D01*
X134883512Y-81596073D01*
X134858742Y-81601000D01*
X134681258Y-81601000D01*
X134656488Y-81596073D01*
X134507188Y-81566376D01*
X134343216Y-81498456D01*
X134195646Y-81399853D01*
X134070147Y-81274354D01*
X133971544Y-81126784D01*
X133903624Y-80962812D01*
X133869000Y-80788741D01*
X133869000Y-80611259D01*
X133903624Y-80437188D01*
X133971544Y-80273216D01*
X134070147Y-80125646D01*
X134195646Y-80000147D01*
X134343216Y-79901544D01*
X134507188Y-79833624D01*
X134656488Y-79803927D01*
X134681258Y-79799000D01*
X134858742Y-79799000D01*
X134883512Y-79803927D01*
X134883512Y-79803927D01*
G37*
G36*
X242680443Y-79115519D02*
G01*
X242746627Y-79122037D01*
X242916466Y-79173557D01*
X243072991Y-79257222D01*
X243108729Y-79286552D01*
X243210186Y-79369814D01*
X243293448Y-79471271D01*
X243322778Y-79507009D01*
X243406443Y-79663534D01*
X243457963Y-79833373D01*
X243475359Y-80010000D01*
X243457963Y-80186627D01*
X243406443Y-80356466D01*
X243322778Y-80512991D01*
X243293448Y-80548729D01*
X243210186Y-80650186D01*
X243108729Y-80733448D01*
X243072991Y-80762778D01*
X242916466Y-80846443D01*
X242746627Y-80897963D01*
X242680442Y-80904482D01*
X242614260Y-80911000D01*
X242525740Y-80911000D01*
X242459558Y-80904482D01*
X242393373Y-80897963D01*
X242223534Y-80846443D01*
X242067009Y-80762778D01*
X242031271Y-80733448D01*
X241929814Y-80650186D01*
X241846552Y-80548729D01*
X241817222Y-80512991D01*
X241733557Y-80356466D01*
X241682037Y-80186627D01*
X241664641Y-80010000D01*
X241682037Y-79833373D01*
X241733557Y-79663534D01*
X241817222Y-79507009D01*
X241846552Y-79471271D01*
X241929814Y-79369814D01*
X242031271Y-79286552D01*
X242067009Y-79257222D01*
X242223534Y-79173557D01*
X242393373Y-79122037D01*
X242459557Y-79115519D01*
X242525740Y-79109000D01*
X242614260Y-79109000D01*
X242680443Y-79115519D01*
X242680443Y-79115519D01*
G37*
G36*
X242680443Y-76575519D02*
G01*
X242746627Y-76582037D01*
X242916466Y-76633557D01*
X243072991Y-76717222D01*
X243108729Y-76746552D01*
X243210186Y-76829814D01*
X243293448Y-76931271D01*
X243322778Y-76967009D01*
X243406443Y-77123534D01*
X243457963Y-77293373D01*
X243475359Y-77470000D01*
X243457963Y-77646627D01*
X243406443Y-77816466D01*
X243322778Y-77972991D01*
X243293448Y-78008729D01*
X243210186Y-78110186D01*
X243108729Y-78193448D01*
X243072991Y-78222778D01*
X242916466Y-78306443D01*
X242746627Y-78357963D01*
X242680443Y-78364481D01*
X242614260Y-78371000D01*
X242525740Y-78371000D01*
X242459557Y-78364481D01*
X242393373Y-78357963D01*
X242223534Y-78306443D01*
X242067009Y-78222778D01*
X242031271Y-78193448D01*
X241929814Y-78110186D01*
X241846552Y-78008729D01*
X241817222Y-77972991D01*
X241733557Y-77816466D01*
X241682037Y-77646627D01*
X241664641Y-77470000D01*
X241682037Y-77293373D01*
X241733557Y-77123534D01*
X241817222Y-76967009D01*
X241846552Y-76931271D01*
X241929814Y-76829814D01*
X242031271Y-76746552D01*
X242067009Y-76717222D01*
X242223534Y-76633557D01*
X242393373Y-76582037D01*
X242459557Y-76575519D01*
X242525740Y-76569000D01*
X242614260Y-76569000D01*
X242680443Y-76575519D01*
X242680443Y-76575519D01*
G37*
G36*
X134883512Y-75303927D02*
G01*
X135032812Y-75333624D01*
X135196784Y-75401544D01*
X135344354Y-75500147D01*
X135469853Y-75625646D01*
X135568456Y-75773216D01*
X135636376Y-75937188D01*
X135671000Y-76111259D01*
X135671000Y-76288741D01*
X135636376Y-76462812D01*
X135568456Y-76626784D01*
X135469853Y-76774354D01*
X135344354Y-76899853D01*
X135196784Y-76998456D01*
X135032812Y-77066376D01*
X134883512Y-77096073D01*
X134858742Y-77101000D01*
X134681258Y-77101000D01*
X134656488Y-77096073D01*
X134507188Y-77066376D01*
X134343216Y-76998456D01*
X134195646Y-76899853D01*
X134070147Y-76774354D01*
X133971544Y-76626784D01*
X133903624Y-76462812D01*
X133869000Y-76288741D01*
X133869000Y-76111259D01*
X133903624Y-75937188D01*
X133971544Y-75773216D01*
X134070147Y-75625646D01*
X134195646Y-75500147D01*
X134343216Y-75401544D01*
X134507188Y-75333624D01*
X134656488Y-75303927D01*
X134681258Y-75299000D01*
X134858742Y-75299000D01*
X134883512Y-75303927D01*
X134883512Y-75303927D01*
G37*
G36*
X128383512Y-75303927D02*
G01*
X128532812Y-75333624D01*
X128696784Y-75401544D01*
X128844354Y-75500147D01*
X128969853Y-75625646D01*
X129068456Y-75773216D01*
X129136376Y-75937188D01*
X129171000Y-76111259D01*
X129171000Y-76288741D01*
X129136376Y-76462812D01*
X129068456Y-76626784D01*
X128969853Y-76774354D01*
X128844354Y-76899853D01*
X128696784Y-76998456D01*
X128532812Y-77066376D01*
X128383512Y-77096073D01*
X128358742Y-77101000D01*
X128181258Y-77101000D01*
X128156488Y-77096073D01*
X128007188Y-77066376D01*
X127843216Y-76998456D01*
X127695646Y-76899853D01*
X127570147Y-76774354D01*
X127471544Y-76626784D01*
X127403624Y-76462812D01*
X127369000Y-76288741D01*
X127369000Y-76111259D01*
X127403624Y-75937188D01*
X127471544Y-75773216D01*
X127570147Y-75625646D01*
X127695646Y-75500147D01*
X127843216Y-75401544D01*
X128007188Y-75333624D01*
X128156488Y-75303927D01*
X128181258Y-75299000D01*
X128358742Y-75299000D01*
X128383512Y-75303927D01*
X128383512Y-75303927D01*
G37*
G36*
X242680442Y-74035518D02*
G01*
X242746627Y-74042037D01*
X242916466Y-74093557D01*
X243072991Y-74177222D01*
X243108729Y-74206552D01*
X243210186Y-74289814D01*
X243293448Y-74391271D01*
X243322778Y-74427009D01*
X243406443Y-74583534D01*
X243457963Y-74753373D01*
X243475359Y-74930000D01*
X243457963Y-75106627D01*
X243406443Y-75276466D01*
X243322778Y-75432991D01*
X243293448Y-75468729D01*
X243210186Y-75570186D01*
X243108729Y-75653448D01*
X243072991Y-75682778D01*
X242916466Y-75766443D01*
X242746627Y-75817963D01*
X242680442Y-75824482D01*
X242614260Y-75831000D01*
X242525740Y-75831000D01*
X242459558Y-75824482D01*
X242393373Y-75817963D01*
X242223534Y-75766443D01*
X242067009Y-75682778D01*
X242031271Y-75653448D01*
X241929814Y-75570186D01*
X241846552Y-75468729D01*
X241817222Y-75432991D01*
X241733557Y-75276466D01*
X241682037Y-75106627D01*
X241664641Y-74930000D01*
X241682037Y-74753373D01*
X241733557Y-74583534D01*
X241817222Y-74427009D01*
X241846552Y-74391271D01*
X241929814Y-74289814D01*
X242031271Y-74206552D01*
X242067009Y-74177222D01*
X242223534Y-74093557D01*
X242393373Y-74042037D01*
X242459558Y-74035518D01*
X242525740Y-74029000D01*
X242614260Y-74029000D01*
X242680442Y-74035518D01*
X242680442Y-74035518D01*
G37*
G36*
X176640442Y-72765518D02*
G01*
X176706627Y-72772037D01*
X176876466Y-72823557D01*
X177032991Y-72907222D01*
X177068729Y-72936552D01*
X177170186Y-73019814D01*
X177253448Y-73121271D01*
X177282778Y-73157009D01*
X177366443Y-73313534D01*
X177417963Y-73483373D01*
X177435359Y-73660000D01*
X177417963Y-73836627D01*
X177366443Y-74006466D01*
X177282778Y-74162991D01*
X177253448Y-74198729D01*
X177170186Y-74300186D01*
X177068729Y-74383448D01*
X177032991Y-74412778D01*
X176876466Y-74496443D01*
X176706627Y-74547963D01*
X176640442Y-74554482D01*
X176574260Y-74561000D01*
X176485740Y-74561000D01*
X176419558Y-74554482D01*
X176353373Y-74547963D01*
X176183534Y-74496443D01*
X176027009Y-74412778D01*
X175991271Y-74383448D01*
X175889814Y-74300186D01*
X175806552Y-74198729D01*
X175777222Y-74162991D01*
X175693557Y-74006466D01*
X175642037Y-73836627D01*
X175624641Y-73660000D01*
X175642037Y-73483373D01*
X175693557Y-73313534D01*
X175777222Y-73157009D01*
X175806552Y-73121271D01*
X175889814Y-73019814D01*
X175991271Y-72936552D01*
X176027009Y-72907222D01*
X176183534Y-72823557D01*
X176353373Y-72772037D01*
X176419558Y-72765518D01*
X176485740Y-72759000D01*
X176574260Y-72759000D01*
X176640442Y-72765518D01*
X176640442Y-72765518D01*
G37*
G36*
X242680443Y-71495519D02*
G01*
X242746627Y-71502037D01*
X242916466Y-71553557D01*
X243072991Y-71637222D01*
X243108729Y-71666552D01*
X243210186Y-71749814D01*
X243293448Y-71851271D01*
X243322778Y-71887009D01*
X243406443Y-72043534D01*
X243457963Y-72213373D01*
X243475359Y-72390000D01*
X243457963Y-72566627D01*
X243406443Y-72736466D01*
X243322778Y-72892991D01*
X243293448Y-72928729D01*
X243210186Y-73030186D01*
X243108729Y-73113448D01*
X243072991Y-73142778D01*
X242916466Y-73226443D01*
X242746627Y-73277963D01*
X242680443Y-73284481D01*
X242614260Y-73291000D01*
X242525740Y-73291000D01*
X242459557Y-73284481D01*
X242393373Y-73277963D01*
X242223534Y-73226443D01*
X242067009Y-73142778D01*
X242031271Y-73113448D01*
X241929814Y-73030186D01*
X241846552Y-72928729D01*
X241817222Y-72892991D01*
X241733557Y-72736466D01*
X241682037Y-72566627D01*
X241664641Y-72390000D01*
X241682037Y-72213373D01*
X241733557Y-72043534D01*
X241817222Y-71887009D01*
X241846552Y-71851271D01*
X241929814Y-71749814D01*
X242031271Y-71666552D01*
X242067009Y-71637222D01*
X242223534Y-71553557D01*
X242393373Y-71502037D01*
X242459557Y-71495519D01*
X242525740Y-71489000D01*
X242614260Y-71489000D01*
X242680443Y-71495519D01*
X242680443Y-71495519D01*
G37*
G36*
X176640442Y-70225518D02*
G01*
X176706627Y-70232037D01*
X176876466Y-70283557D01*
X177032991Y-70367222D01*
X177068729Y-70396552D01*
X177170186Y-70479814D01*
X177253448Y-70581271D01*
X177282778Y-70617009D01*
X177366443Y-70773534D01*
X177417963Y-70943373D01*
X177435359Y-71120000D01*
X177417963Y-71296627D01*
X177366443Y-71466466D01*
X177282778Y-71622991D01*
X177253448Y-71658729D01*
X177170186Y-71760186D01*
X177068729Y-71843448D01*
X177032991Y-71872778D01*
X176876466Y-71956443D01*
X176706627Y-72007963D01*
X176640443Y-72014481D01*
X176574260Y-72021000D01*
X176485740Y-72021000D01*
X176419557Y-72014481D01*
X176353373Y-72007963D01*
X176183534Y-71956443D01*
X176027009Y-71872778D01*
X175991271Y-71843448D01*
X175889814Y-71760186D01*
X175806552Y-71658729D01*
X175777222Y-71622991D01*
X175693557Y-71466466D01*
X175642037Y-71296627D01*
X175624641Y-71120000D01*
X175642037Y-70943373D01*
X175693557Y-70773534D01*
X175777222Y-70617009D01*
X175806552Y-70581271D01*
X175889814Y-70479814D01*
X175991271Y-70396552D01*
X176027009Y-70367222D01*
X176183534Y-70283557D01*
X176353373Y-70232037D01*
X176419558Y-70225518D01*
X176485740Y-70219000D01*
X176574260Y-70219000D01*
X176640442Y-70225518D01*
X176640442Y-70225518D01*
G37*
G36*
X242680443Y-68955519D02*
G01*
X242746627Y-68962037D01*
X242916466Y-69013557D01*
X243072991Y-69097222D01*
X243108729Y-69126552D01*
X243210186Y-69209814D01*
X243293448Y-69311271D01*
X243322778Y-69347009D01*
X243406443Y-69503534D01*
X243457963Y-69673373D01*
X243475359Y-69850000D01*
X243457963Y-70026627D01*
X243406443Y-70196466D01*
X243322778Y-70352991D01*
X243293448Y-70388729D01*
X243210186Y-70490186D01*
X243108729Y-70573448D01*
X243072991Y-70602778D01*
X242916466Y-70686443D01*
X242746627Y-70737963D01*
X242680443Y-70744481D01*
X242614260Y-70751000D01*
X242525740Y-70751000D01*
X242459557Y-70744481D01*
X242393373Y-70737963D01*
X242223534Y-70686443D01*
X242067009Y-70602778D01*
X242031271Y-70573448D01*
X241929814Y-70490186D01*
X241846552Y-70388729D01*
X241817222Y-70352991D01*
X241733557Y-70196466D01*
X241682037Y-70026627D01*
X241664641Y-69850000D01*
X241682037Y-69673373D01*
X241733557Y-69503534D01*
X241817222Y-69347009D01*
X241846552Y-69311271D01*
X241929814Y-69209814D01*
X242031271Y-69126552D01*
X242067009Y-69097222D01*
X242223534Y-69013557D01*
X242393373Y-68962037D01*
X242459557Y-68955519D01*
X242525740Y-68949000D01*
X242614260Y-68949000D01*
X242680443Y-68955519D01*
X242680443Y-68955519D01*
G37*
G36*
X176640443Y-67685519D02*
G01*
X176706627Y-67692037D01*
X176876466Y-67743557D01*
X177032991Y-67827222D01*
X177068729Y-67856552D01*
X177170186Y-67939814D01*
X177253448Y-68041271D01*
X177282778Y-68077009D01*
X177366443Y-68233534D01*
X177417963Y-68403373D01*
X177435359Y-68580000D01*
X177417963Y-68756627D01*
X177366443Y-68926466D01*
X177282778Y-69082991D01*
X177253448Y-69118729D01*
X177170186Y-69220186D01*
X177068729Y-69303448D01*
X177032991Y-69332778D01*
X176876466Y-69416443D01*
X176706627Y-69467963D01*
X176640442Y-69474482D01*
X176574260Y-69481000D01*
X176485740Y-69481000D01*
X176419558Y-69474482D01*
X176353373Y-69467963D01*
X176183534Y-69416443D01*
X176027009Y-69332778D01*
X175991271Y-69303448D01*
X175889814Y-69220186D01*
X175806552Y-69118729D01*
X175777222Y-69082991D01*
X175693557Y-68926466D01*
X175642037Y-68756627D01*
X175624641Y-68580000D01*
X175642037Y-68403373D01*
X175693557Y-68233534D01*
X175777222Y-68077009D01*
X175806552Y-68041271D01*
X175889814Y-67939814D01*
X175991271Y-67856552D01*
X176027009Y-67827222D01*
X176183534Y-67743557D01*
X176353373Y-67692037D01*
X176419557Y-67685519D01*
X176485740Y-67679000D01*
X176574260Y-67679000D01*
X176640443Y-67685519D01*
X176640443Y-67685519D01*
G37*
G36*
X242680443Y-66415519D02*
G01*
X242746627Y-66422037D01*
X242916466Y-66473557D01*
X243072991Y-66557222D01*
X243108729Y-66586552D01*
X243210186Y-66669814D01*
X243293448Y-66771271D01*
X243322778Y-66807009D01*
X243406443Y-66963534D01*
X243457963Y-67133373D01*
X243475359Y-67310000D01*
X243457963Y-67486627D01*
X243406443Y-67656466D01*
X243322778Y-67812991D01*
X243293448Y-67848729D01*
X243210186Y-67950186D01*
X243108729Y-68033448D01*
X243072991Y-68062778D01*
X242916466Y-68146443D01*
X242746627Y-68197963D01*
X242680443Y-68204481D01*
X242614260Y-68211000D01*
X242525740Y-68211000D01*
X242459557Y-68204481D01*
X242393373Y-68197963D01*
X242223534Y-68146443D01*
X242067009Y-68062778D01*
X242031271Y-68033448D01*
X241929814Y-67950186D01*
X241846552Y-67848729D01*
X241817222Y-67812991D01*
X241733557Y-67656466D01*
X241682037Y-67486627D01*
X241664641Y-67310000D01*
X241682037Y-67133373D01*
X241733557Y-66963534D01*
X241817222Y-66807009D01*
X241846552Y-66771271D01*
X241929814Y-66669814D01*
X242031271Y-66586552D01*
X242067009Y-66557222D01*
X242223534Y-66473557D01*
X242393373Y-66422037D01*
X242459557Y-66415519D01*
X242525740Y-66409000D01*
X242614260Y-66409000D01*
X242680443Y-66415519D01*
X242680443Y-66415519D01*
G37*
G36*
X176640442Y-65145518D02*
G01*
X176706627Y-65152037D01*
X176876466Y-65203557D01*
X177032991Y-65287222D01*
X177068729Y-65316552D01*
X177170186Y-65399814D01*
X177253448Y-65501271D01*
X177282778Y-65537009D01*
X177366443Y-65693534D01*
X177417963Y-65863373D01*
X177435359Y-66040000D01*
X177417963Y-66216627D01*
X177366443Y-66386466D01*
X177282778Y-66542991D01*
X177253448Y-66578729D01*
X177170186Y-66680186D01*
X177068729Y-66763448D01*
X177032991Y-66792778D01*
X176876466Y-66876443D01*
X176706627Y-66927963D01*
X176640442Y-66934482D01*
X176574260Y-66941000D01*
X176485740Y-66941000D01*
X176419558Y-66934482D01*
X176353373Y-66927963D01*
X176183534Y-66876443D01*
X176027009Y-66792778D01*
X175991271Y-66763448D01*
X175889814Y-66680186D01*
X175806552Y-66578729D01*
X175777222Y-66542991D01*
X175693557Y-66386466D01*
X175642037Y-66216627D01*
X175624641Y-66040000D01*
X175642037Y-65863373D01*
X175693557Y-65693534D01*
X175777222Y-65537009D01*
X175806552Y-65501271D01*
X175889814Y-65399814D01*
X175991271Y-65316552D01*
X176027009Y-65287222D01*
X176183534Y-65203557D01*
X176353373Y-65152037D01*
X176419558Y-65145518D01*
X176485740Y-65139000D01*
X176574260Y-65139000D01*
X176640442Y-65145518D01*
X176640442Y-65145518D01*
G37*
G36*
X243471000Y-65671000D02*
G01*
X241669000Y-65671000D01*
X241669000Y-63869000D01*
X243471000Y-63869000D01*
X243471000Y-65671000D01*
X243471000Y-65671000D01*
G37*
G36*
X176640442Y-62605518D02*
G01*
X176706627Y-62612037D01*
X176876466Y-62663557D01*
X177032991Y-62747222D01*
X177068729Y-62776552D01*
X177170186Y-62859814D01*
X177253448Y-62961271D01*
X177282778Y-62997009D01*
X177366443Y-63153534D01*
X177417963Y-63323373D01*
X177435359Y-63500000D01*
X177417963Y-63676627D01*
X177366443Y-63846466D01*
X177282778Y-64002991D01*
X177253448Y-64038729D01*
X177170186Y-64140186D01*
X177068729Y-64223448D01*
X177032991Y-64252778D01*
X176876466Y-64336443D01*
X176706627Y-64387963D01*
X176640442Y-64394482D01*
X176574260Y-64401000D01*
X176485740Y-64401000D01*
X176419558Y-64394482D01*
X176353373Y-64387963D01*
X176183534Y-64336443D01*
X176027009Y-64252778D01*
X175991271Y-64223448D01*
X175889814Y-64140186D01*
X175806552Y-64038729D01*
X175777222Y-64002991D01*
X175693557Y-63846466D01*
X175642037Y-63676627D01*
X175624641Y-63500000D01*
X175642037Y-63323373D01*
X175693557Y-63153534D01*
X175777222Y-62997009D01*
X175806552Y-62961271D01*
X175889814Y-62859814D01*
X175991271Y-62776552D01*
X176027009Y-62747222D01*
X176183534Y-62663557D01*
X176353373Y-62612037D01*
X176419558Y-62605518D01*
X176485740Y-62599000D01*
X176574260Y-62599000D01*
X176640442Y-62605518D01*
X176640442Y-62605518D01*
G37*
G36*
X176640442Y-60065518D02*
G01*
X176706627Y-60072037D01*
X176876466Y-60123557D01*
X177032991Y-60207222D01*
X177068729Y-60236552D01*
X177170186Y-60319814D01*
X177253448Y-60421271D01*
X177282778Y-60457009D01*
X177366443Y-60613534D01*
X177417963Y-60783373D01*
X177435359Y-60960000D01*
X177417963Y-61136627D01*
X177366443Y-61306466D01*
X177282778Y-61462991D01*
X177253448Y-61498729D01*
X177170186Y-61600186D01*
X177068729Y-61683448D01*
X177032991Y-61712778D01*
X176876466Y-61796443D01*
X176706627Y-61847963D01*
X176640443Y-61854481D01*
X176574260Y-61861000D01*
X176485740Y-61861000D01*
X176419557Y-61854481D01*
X176353373Y-61847963D01*
X176183534Y-61796443D01*
X176027009Y-61712778D01*
X175991271Y-61683448D01*
X175889814Y-61600186D01*
X175806552Y-61498729D01*
X175777222Y-61462991D01*
X175693557Y-61306466D01*
X175642037Y-61136627D01*
X175624641Y-60960000D01*
X175642037Y-60783373D01*
X175693557Y-60613534D01*
X175777222Y-60457009D01*
X175806552Y-60421271D01*
X175889814Y-60319814D01*
X175991271Y-60236552D01*
X176027009Y-60207222D01*
X176183534Y-60123557D01*
X176353373Y-60072037D01*
X176419558Y-60065518D01*
X176485740Y-60059000D01*
X176574260Y-60059000D01*
X176640442Y-60065518D01*
X176640442Y-60065518D01*
G37*
G36*
X176640443Y-57525519D02*
G01*
X176706627Y-57532037D01*
X176876466Y-57583557D01*
X177032991Y-57667222D01*
X177068729Y-57696552D01*
X177170186Y-57779814D01*
X177253448Y-57881271D01*
X177282778Y-57917009D01*
X177366443Y-58073534D01*
X177417963Y-58243373D01*
X177435359Y-58420000D01*
X177417963Y-58596627D01*
X177366443Y-58766466D01*
X177282778Y-58922991D01*
X177253448Y-58958729D01*
X177170186Y-59060186D01*
X177068729Y-59143448D01*
X177032991Y-59172778D01*
X176876466Y-59256443D01*
X176706627Y-59307963D01*
X176640442Y-59314482D01*
X176574260Y-59321000D01*
X176485740Y-59321000D01*
X176419558Y-59314482D01*
X176353373Y-59307963D01*
X176183534Y-59256443D01*
X176027009Y-59172778D01*
X175991271Y-59143448D01*
X175889814Y-59060186D01*
X175806552Y-58958729D01*
X175777222Y-58922991D01*
X175693557Y-58766466D01*
X175642037Y-58596627D01*
X175624641Y-58420000D01*
X175642037Y-58243373D01*
X175693557Y-58073534D01*
X175777222Y-57917009D01*
X175806552Y-57881271D01*
X175889814Y-57779814D01*
X175991271Y-57696552D01*
X176027009Y-57667222D01*
X176183534Y-57583557D01*
X176353373Y-57532037D01*
X176419557Y-57525519D01*
X176485740Y-57519000D01*
X176574260Y-57519000D01*
X176640443Y-57525519D01*
X176640443Y-57525519D01*
G37*
G36*
X143623512Y-56943927D02*
G01*
X143772812Y-56973624D01*
X143936784Y-57041544D01*
X144084354Y-57140147D01*
X144209853Y-57265646D01*
X144308456Y-57413216D01*
X144376376Y-57577188D01*
X144411000Y-57751259D01*
X144411000Y-57928741D01*
X144376376Y-58102812D01*
X144308456Y-58266784D01*
X144209853Y-58414354D01*
X144084354Y-58539853D01*
X143936784Y-58638456D01*
X143772812Y-58706376D01*
X143623512Y-58736073D01*
X143598742Y-58741000D01*
X143421258Y-58741000D01*
X143396488Y-58736073D01*
X143247188Y-58706376D01*
X143083216Y-58638456D01*
X142935646Y-58539853D01*
X142810147Y-58414354D01*
X142711544Y-58266784D01*
X142643624Y-58102812D01*
X142609000Y-57928741D01*
X142609000Y-57751259D01*
X142643624Y-57577188D01*
X142711544Y-57413216D01*
X142810147Y-57265646D01*
X142935646Y-57140147D01*
X143083216Y-57041544D01*
X143247188Y-56973624D01*
X143396488Y-56943927D01*
X143421258Y-56939000D01*
X143598742Y-56939000D01*
X143623512Y-56943927D01*
X143623512Y-56943927D01*
G37*
G36*
X150123512Y-56943927D02*
G01*
X150272812Y-56973624D01*
X150436784Y-57041544D01*
X150584354Y-57140147D01*
X150709853Y-57265646D01*
X150808456Y-57413216D01*
X150876376Y-57577188D01*
X150911000Y-57751259D01*
X150911000Y-57928741D01*
X150876376Y-58102812D01*
X150808456Y-58266784D01*
X150709853Y-58414354D01*
X150584354Y-58539853D01*
X150436784Y-58638456D01*
X150272812Y-58706376D01*
X150123512Y-58736073D01*
X150098742Y-58741000D01*
X149921258Y-58741000D01*
X149896488Y-58736073D01*
X149747188Y-58706376D01*
X149583216Y-58638456D01*
X149435646Y-58539853D01*
X149310147Y-58414354D01*
X149211544Y-58266784D01*
X149143624Y-58102812D01*
X149109000Y-57928741D01*
X149109000Y-57751259D01*
X149143624Y-57577188D01*
X149211544Y-57413216D01*
X149310147Y-57265646D01*
X149435646Y-57140147D01*
X149583216Y-57041544D01*
X149747188Y-56973624D01*
X149896488Y-56943927D01*
X149921258Y-56939000D01*
X150098742Y-56939000D01*
X150123512Y-56943927D01*
X150123512Y-56943927D01*
G37*
G36*
X176640443Y-54985519D02*
G01*
X176706627Y-54992037D01*
X176876466Y-55043557D01*
X177032991Y-55127222D01*
X177068729Y-55156552D01*
X177170186Y-55239814D01*
X177253448Y-55341271D01*
X177282778Y-55377009D01*
X177366443Y-55533534D01*
X177417963Y-55703373D01*
X177435359Y-55880000D01*
X177417963Y-56056627D01*
X177366443Y-56226466D01*
X177282778Y-56382991D01*
X177253448Y-56418729D01*
X177170186Y-56520186D01*
X177068729Y-56603448D01*
X177032991Y-56632778D01*
X176876466Y-56716443D01*
X176706627Y-56767963D01*
X176640443Y-56774481D01*
X176574260Y-56781000D01*
X176485740Y-56781000D01*
X176419557Y-56774481D01*
X176353373Y-56767963D01*
X176183534Y-56716443D01*
X176027009Y-56632778D01*
X175991271Y-56603448D01*
X175889814Y-56520186D01*
X175806552Y-56418729D01*
X175777222Y-56382991D01*
X175693557Y-56226466D01*
X175642037Y-56056627D01*
X175624641Y-55880000D01*
X175642037Y-55703373D01*
X175693557Y-55533534D01*
X175777222Y-55377009D01*
X175806552Y-55341271D01*
X175889814Y-55239814D01*
X175991271Y-55156552D01*
X176027009Y-55127222D01*
X176183534Y-55043557D01*
X176353373Y-54992037D01*
X176419557Y-54985519D01*
X176485740Y-54979000D01*
X176574260Y-54979000D01*
X176640443Y-54985519D01*
X176640443Y-54985519D01*
G37*
G36*
X254350318Y-52105153D02*
G01*
X254568885Y-52195687D01*
X254568887Y-52195688D01*
X254765593Y-52327122D01*
X254932878Y-52494407D01*
X255030258Y-52640148D01*
X255064313Y-52691115D01*
X255154847Y-52909682D01*
X255201000Y-53141710D01*
X255201000Y-53378290D01*
X255154847Y-53610318D01*
X255123305Y-53686466D01*
X255064312Y-53828887D01*
X254932878Y-54025593D01*
X254765593Y-54192878D01*
X254568887Y-54324312D01*
X254568886Y-54324313D01*
X254568885Y-54324313D01*
X254350318Y-54414847D01*
X254118290Y-54461000D01*
X253881710Y-54461000D01*
X253649682Y-54414847D01*
X253431115Y-54324313D01*
X253431114Y-54324313D01*
X253431113Y-54324312D01*
X253234407Y-54192878D01*
X253067122Y-54025593D01*
X252935688Y-53828887D01*
X252876695Y-53686466D01*
X252845153Y-53610318D01*
X252799000Y-53378290D01*
X252799000Y-53141710D01*
X252845153Y-52909682D01*
X252935687Y-52691115D01*
X252969742Y-52640148D01*
X253067122Y-52494407D01*
X253234407Y-52327122D01*
X253431113Y-52195688D01*
X253431115Y-52195687D01*
X253649682Y-52105153D01*
X253881710Y-52059000D01*
X254118290Y-52059000D01*
X254350318Y-52105153D01*
X254350318Y-52105153D01*
G37*
G36*
X176640443Y-52445519D02*
G01*
X176706627Y-52452037D01*
X176876466Y-52503557D01*
X177032991Y-52587222D01*
X177068729Y-52616552D01*
X177170186Y-52699814D01*
X177253448Y-52801271D01*
X177282778Y-52837009D01*
X177366443Y-52993534D01*
X177417963Y-53163373D01*
X177435359Y-53340000D01*
X177417963Y-53516627D01*
X177366443Y-53686466D01*
X177282778Y-53842991D01*
X177253448Y-53878729D01*
X177170186Y-53980186D01*
X177097480Y-54039853D01*
X177032991Y-54092778D01*
X176876466Y-54176443D01*
X176706627Y-54227963D01*
X176640442Y-54234482D01*
X176574260Y-54241000D01*
X176485740Y-54241000D01*
X176419558Y-54234482D01*
X176353373Y-54227963D01*
X176183534Y-54176443D01*
X176027009Y-54092778D01*
X175962520Y-54039853D01*
X175889814Y-53980186D01*
X175806552Y-53878729D01*
X175777222Y-53842991D01*
X175693557Y-53686466D01*
X175642037Y-53516627D01*
X175624641Y-53340000D01*
X175642037Y-53163373D01*
X175693557Y-52993534D01*
X175777222Y-52837009D01*
X175806552Y-52801271D01*
X175889814Y-52699814D01*
X175991271Y-52616552D01*
X176027009Y-52587222D01*
X176183534Y-52503557D01*
X176353373Y-52452037D01*
X176419558Y-52445518D01*
X176485740Y-52439000D01*
X176574260Y-52439000D01*
X176640443Y-52445519D01*
X176640443Y-52445519D01*
G37*
G36*
X150123512Y-52443927D02*
G01*
X150272812Y-52473624D01*
X150436784Y-52541544D01*
X150584354Y-52640147D01*
X150709853Y-52765646D01*
X150808456Y-52913216D01*
X150876376Y-53077188D01*
X150911000Y-53251259D01*
X150911000Y-53428741D01*
X150876376Y-53602812D01*
X150808456Y-53766784D01*
X150709853Y-53914354D01*
X150584354Y-54039853D01*
X150436784Y-54138456D01*
X150272812Y-54206376D01*
X150123512Y-54236073D01*
X150098742Y-54241000D01*
X149921258Y-54241000D01*
X149896488Y-54236073D01*
X149747188Y-54206376D01*
X149583216Y-54138456D01*
X149435646Y-54039853D01*
X149310147Y-53914354D01*
X149211544Y-53766784D01*
X149143624Y-53602812D01*
X149109000Y-53428741D01*
X149109000Y-53251259D01*
X149143624Y-53077188D01*
X149211544Y-52913216D01*
X149310147Y-52765646D01*
X149435646Y-52640147D01*
X149583216Y-52541544D01*
X149747188Y-52473624D01*
X149896488Y-52443927D01*
X149921258Y-52439000D01*
X150098742Y-52439000D01*
X150123512Y-52443927D01*
X150123512Y-52443927D01*
G37*
G36*
X143623512Y-52443927D02*
G01*
X143772812Y-52473624D01*
X143936784Y-52541544D01*
X144084354Y-52640147D01*
X144209853Y-52765646D01*
X144308456Y-52913216D01*
X144376376Y-53077188D01*
X144411000Y-53251259D01*
X144411000Y-53428741D01*
X144376376Y-53602812D01*
X144308456Y-53766784D01*
X144209853Y-53914354D01*
X144084354Y-54039853D01*
X143936784Y-54138456D01*
X143772812Y-54206376D01*
X143623512Y-54236073D01*
X143598742Y-54241000D01*
X143421258Y-54241000D01*
X143396488Y-54236073D01*
X143247188Y-54206376D01*
X143083216Y-54138456D01*
X142935646Y-54039853D01*
X142810147Y-53914354D01*
X142711544Y-53766784D01*
X142643624Y-53602812D01*
X142609000Y-53428741D01*
X142609000Y-53251259D01*
X142643624Y-53077188D01*
X142711544Y-52913216D01*
X142810147Y-52765646D01*
X142935646Y-52640147D01*
X143083216Y-52541544D01*
X143247188Y-52473624D01*
X143396488Y-52443927D01*
X143421258Y-52439000D01*
X143598742Y-52439000D01*
X143623512Y-52443927D01*
X143623512Y-52443927D01*
G37*
G36*
X176640442Y-49905518D02*
G01*
X176706627Y-49912037D01*
X176876466Y-49963557D01*
X177032991Y-50047222D01*
X177068729Y-50076552D01*
X177170186Y-50159814D01*
X177253448Y-50261271D01*
X177282778Y-50297009D01*
X177366443Y-50453534D01*
X177417963Y-50623373D01*
X177435359Y-50800000D01*
X177417963Y-50976627D01*
X177366443Y-51146466D01*
X177282778Y-51302991D01*
X177253448Y-51338729D01*
X177170186Y-51440186D01*
X177068729Y-51523448D01*
X177032991Y-51552778D01*
X176876466Y-51636443D01*
X176706627Y-51687963D01*
X176640442Y-51694482D01*
X176574260Y-51701000D01*
X176485740Y-51701000D01*
X176419558Y-51694482D01*
X176353373Y-51687963D01*
X176183534Y-51636443D01*
X176027009Y-51552778D01*
X175991271Y-51523448D01*
X175889814Y-51440186D01*
X175806552Y-51338729D01*
X175777222Y-51302991D01*
X175693557Y-51146466D01*
X175642037Y-50976627D01*
X175624641Y-50800000D01*
X175642037Y-50623373D01*
X175693557Y-50453534D01*
X175777222Y-50297009D01*
X175806552Y-50261271D01*
X175889814Y-50159814D01*
X175991271Y-50076552D01*
X176027009Y-50047222D01*
X176183534Y-49963557D01*
X176353373Y-49912037D01*
X176419557Y-49905519D01*
X176485740Y-49899000D01*
X176574260Y-49899000D01*
X176640442Y-49905518D01*
X176640442Y-49905518D01*
G37*
G36*
X255201000Y-49461000D02*
G01*
X252799000Y-49461000D01*
X252799000Y-47059000D01*
X255201000Y-47059000D01*
X255201000Y-49461000D01*
X255201000Y-49461000D01*
G37*
G36*
X176640443Y-47365519D02*
G01*
X176706627Y-47372037D01*
X176876466Y-47423557D01*
X177032991Y-47507222D01*
X177068729Y-47536552D01*
X177170186Y-47619814D01*
X177253448Y-47721271D01*
X177282778Y-47757009D01*
X177366443Y-47913534D01*
X177417963Y-48083373D01*
X177435359Y-48260000D01*
X177417963Y-48436627D01*
X177366443Y-48606466D01*
X177282778Y-48762991D01*
X177253448Y-48798729D01*
X177170186Y-48900186D01*
X177068729Y-48983448D01*
X177032991Y-49012778D01*
X176876466Y-49096443D01*
X176706627Y-49147963D01*
X176640443Y-49154481D01*
X176574260Y-49161000D01*
X176485740Y-49161000D01*
X176419557Y-49154481D01*
X176353373Y-49147963D01*
X176183534Y-49096443D01*
X176027009Y-49012778D01*
X175991271Y-48983448D01*
X175889814Y-48900186D01*
X175806552Y-48798729D01*
X175777222Y-48762991D01*
X175693557Y-48606466D01*
X175642037Y-48436627D01*
X175624641Y-48260000D01*
X175642037Y-48083373D01*
X175693557Y-47913534D01*
X175777222Y-47757009D01*
X175806552Y-47721271D01*
X175889814Y-47619814D01*
X175991271Y-47536552D01*
X176027009Y-47507222D01*
X176183534Y-47423557D01*
X176353373Y-47372037D01*
X176419557Y-47365519D01*
X176485740Y-47359000D01*
X176574260Y-47359000D01*
X176640443Y-47365519D01*
X176640443Y-47365519D01*
G37*
G36*
X176640442Y-44825518D02*
G01*
X176706627Y-44832037D01*
X176876466Y-44883557D01*
X177032991Y-44967222D01*
X177068729Y-44996552D01*
X177170186Y-45079814D01*
X177253448Y-45181271D01*
X177282778Y-45217009D01*
X177366443Y-45373534D01*
X177417963Y-45543373D01*
X177435359Y-45720000D01*
X177417963Y-45896627D01*
X177366443Y-46066466D01*
X177282778Y-46222991D01*
X177253448Y-46258729D01*
X177170186Y-46360186D01*
X177068729Y-46443448D01*
X177032991Y-46472778D01*
X176876466Y-46556443D01*
X176706627Y-46607963D01*
X176640443Y-46614481D01*
X176574260Y-46621000D01*
X176485740Y-46621000D01*
X176419558Y-46614482D01*
X176353373Y-46607963D01*
X176183534Y-46556443D01*
X176027009Y-46472778D01*
X175991271Y-46443448D01*
X175889814Y-46360186D01*
X175806552Y-46258729D01*
X175777222Y-46222991D01*
X175693557Y-46066466D01*
X175642037Y-45896627D01*
X175624641Y-45720000D01*
X175642037Y-45543373D01*
X175693557Y-45373534D01*
X175777222Y-45217009D01*
X175806552Y-45181271D01*
X175889814Y-45079814D01*
X175991271Y-44996552D01*
X176027009Y-44967222D01*
X176183534Y-44883557D01*
X176353373Y-44832037D01*
X176419558Y-44825518D01*
X176485740Y-44819000D01*
X176574260Y-44819000D01*
X176640442Y-44825518D01*
X176640442Y-44825518D01*
G37*
G36*
X176640442Y-42285518D02*
G01*
X176706627Y-42292037D01*
X176876466Y-42343557D01*
X177032991Y-42427222D01*
X177068729Y-42456552D01*
X177170186Y-42539814D01*
X177253448Y-42641271D01*
X177282778Y-42677009D01*
X177366443Y-42833534D01*
X177417963Y-43003373D01*
X177435359Y-43180000D01*
X177417963Y-43356627D01*
X177366443Y-43526466D01*
X177282778Y-43682991D01*
X177253448Y-43718729D01*
X177170186Y-43820186D01*
X177068729Y-43903448D01*
X177032991Y-43932778D01*
X176876466Y-44016443D01*
X176706627Y-44067963D01*
X176640443Y-44074481D01*
X176574260Y-44081000D01*
X176485740Y-44081000D01*
X176419557Y-44074481D01*
X176353373Y-44067963D01*
X176183534Y-44016443D01*
X176027009Y-43932778D01*
X175991271Y-43903448D01*
X175889814Y-43820186D01*
X175806552Y-43718729D01*
X175777222Y-43682991D01*
X175693557Y-43526466D01*
X175642037Y-43356627D01*
X175624641Y-43180000D01*
X175642037Y-43003373D01*
X175693557Y-42833534D01*
X175777222Y-42677009D01*
X175806552Y-42641271D01*
X175889814Y-42539814D01*
X175991271Y-42456552D01*
X176027009Y-42427222D01*
X176183534Y-42343557D01*
X176353373Y-42292037D01*
X176419557Y-42285519D01*
X176485740Y-42279000D01*
X176574260Y-42279000D01*
X176640442Y-42285518D01*
X176640442Y-42285518D01*
G37*
G36*
X176640442Y-39745518D02*
G01*
X176706627Y-39752037D01*
X176876466Y-39803557D01*
X177032991Y-39887222D01*
X177068729Y-39916552D01*
X177170186Y-39999814D01*
X177253448Y-40101271D01*
X177282778Y-40137009D01*
X177366443Y-40293534D01*
X177417963Y-40463373D01*
X177435359Y-40640000D01*
X177417963Y-40816627D01*
X177366443Y-40986466D01*
X177282778Y-41142991D01*
X177253448Y-41178729D01*
X177170186Y-41280186D01*
X177068729Y-41363448D01*
X177032991Y-41392778D01*
X176876466Y-41476443D01*
X176706627Y-41527963D01*
X176640442Y-41534482D01*
X176574260Y-41541000D01*
X176485740Y-41541000D01*
X176419558Y-41534482D01*
X176353373Y-41527963D01*
X176183534Y-41476443D01*
X176027009Y-41392778D01*
X175991271Y-41363448D01*
X175889814Y-41280186D01*
X175806552Y-41178729D01*
X175777222Y-41142991D01*
X175693557Y-40986466D01*
X175642037Y-40816627D01*
X175624641Y-40640000D01*
X175642037Y-40463373D01*
X175693557Y-40293534D01*
X175777222Y-40137009D01*
X175806552Y-40101271D01*
X175889814Y-39999814D01*
X175991271Y-39916552D01*
X176027009Y-39887222D01*
X176183534Y-39803557D01*
X176353373Y-39752037D01*
X176419557Y-39745519D01*
X176485740Y-39739000D01*
X176574260Y-39739000D01*
X176640442Y-39745518D01*
X176640442Y-39745518D01*
G37*
G36*
X176640442Y-37205518D02*
G01*
X176706627Y-37212037D01*
X176876466Y-37263557D01*
X177032991Y-37347222D01*
X177068729Y-37376552D01*
X177170186Y-37459814D01*
X177253448Y-37561271D01*
X177282778Y-37597009D01*
X177366443Y-37753534D01*
X177417963Y-37923373D01*
X177435359Y-38100000D01*
X177417963Y-38276627D01*
X177366443Y-38446466D01*
X177282778Y-38602991D01*
X177253448Y-38638729D01*
X177170186Y-38740186D01*
X177068729Y-38823448D01*
X177032991Y-38852778D01*
X176876466Y-38936443D01*
X176706627Y-38987963D01*
X176640443Y-38994481D01*
X176574260Y-39001000D01*
X176485740Y-39001000D01*
X176419557Y-38994481D01*
X176353373Y-38987963D01*
X176183534Y-38936443D01*
X176027009Y-38852778D01*
X175991271Y-38823448D01*
X175889814Y-38740186D01*
X175806552Y-38638729D01*
X175777222Y-38602991D01*
X175693557Y-38446466D01*
X175642037Y-38276627D01*
X175624641Y-38100000D01*
X175642037Y-37923373D01*
X175693557Y-37753534D01*
X175777222Y-37597009D01*
X175806552Y-37561271D01*
X175889814Y-37459814D01*
X175991271Y-37376552D01*
X176027009Y-37347222D01*
X176183534Y-37263557D01*
X176353373Y-37212037D01*
X176419558Y-37205518D01*
X176485740Y-37199000D01*
X176574260Y-37199000D01*
X176640442Y-37205518D01*
X176640442Y-37205518D01*
G37*
G36*
X177431000Y-36461000D02*
G01*
X175629000Y-36461000D01*
X175629000Y-34659000D01*
X177431000Y-34659000D01*
X177431000Y-36461000D01*
X177431000Y-36461000D01*
G37*
G36*
X214740442Y-33395518D02*
G01*
X214806627Y-33402037D01*
X214976466Y-33453557D01*
X215132991Y-33537222D01*
X215168729Y-33566552D01*
X215270186Y-33649814D01*
X215353448Y-33751271D01*
X215382778Y-33787009D01*
X215466443Y-33943534D01*
X215517963Y-34113373D01*
X215535359Y-34290000D01*
X215517963Y-34466627D01*
X215466443Y-34636466D01*
X215382778Y-34792991D01*
X215353448Y-34828729D01*
X215270186Y-34930186D01*
X215168729Y-35013448D01*
X215132991Y-35042778D01*
X214976466Y-35126443D01*
X214806627Y-35177963D01*
X214740443Y-35184481D01*
X214674260Y-35191000D01*
X214585740Y-35191000D01*
X214519558Y-35184482D01*
X214453373Y-35177963D01*
X214283534Y-35126443D01*
X214127009Y-35042778D01*
X214091271Y-35013448D01*
X213989814Y-34930186D01*
X213906552Y-34828729D01*
X213877222Y-34792991D01*
X213793557Y-34636466D01*
X213742037Y-34466627D01*
X213724641Y-34290000D01*
X213742037Y-34113373D01*
X213793557Y-33943534D01*
X213877222Y-33787009D01*
X213906552Y-33751271D01*
X213989814Y-33649814D01*
X214091271Y-33566552D01*
X214127009Y-33537222D01*
X214283534Y-33453557D01*
X214453373Y-33402037D01*
X214519558Y-33395518D01*
X214585740Y-33389000D01*
X214674260Y-33389000D01*
X214740442Y-33395518D01*
X214740442Y-33395518D01*
G37*
G36*
X209660442Y-33395518D02*
G01*
X209726627Y-33402037D01*
X209896466Y-33453557D01*
X210052991Y-33537222D01*
X210088729Y-33566552D01*
X210190186Y-33649814D01*
X210273448Y-33751271D01*
X210302778Y-33787009D01*
X210386443Y-33943534D01*
X210437963Y-34113373D01*
X210455359Y-34290000D01*
X210437963Y-34466627D01*
X210386443Y-34636466D01*
X210302778Y-34792991D01*
X210273448Y-34828729D01*
X210190186Y-34930186D01*
X210088729Y-35013448D01*
X210052991Y-35042778D01*
X209896466Y-35126443D01*
X209726627Y-35177963D01*
X209660443Y-35184481D01*
X209594260Y-35191000D01*
X209505740Y-35191000D01*
X209439558Y-35184482D01*
X209373373Y-35177963D01*
X209203534Y-35126443D01*
X209047009Y-35042778D01*
X209011271Y-35013448D01*
X208909814Y-34930186D01*
X208826552Y-34828729D01*
X208797222Y-34792991D01*
X208713557Y-34636466D01*
X208662037Y-34466627D01*
X208644641Y-34290000D01*
X208662037Y-34113373D01*
X208713557Y-33943534D01*
X208797222Y-33787009D01*
X208826552Y-33751271D01*
X208909814Y-33649814D01*
X209011271Y-33566552D01*
X209047009Y-33537222D01*
X209203534Y-33453557D01*
X209373373Y-33402037D01*
X209439558Y-33395518D01*
X209505740Y-33389000D01*
X209594260Y-33389000D01*
X209660442Y-33395518D01*
X209660442Y-33395518D01*
G37*
G36*
X207120442Y-33395518D02*
G01*
X207186627Y-33402037D01*
X207356466Y-33453557D01*
X207512991Y-33537222D01*
X207548729Y-33566552D01*
X207650186Y-33649814D01*
X207733448Y-33751271D01*
X207762778Y-33787009D01*
X207846443Y-33943534D01*
X207897963Y-34113373D01*
X207915359Y-34290000D01*
X207897963Y-34466627D01*
X207846443Y-34636466D01*
X207762778Y-34792991D01*
X207733448Y-34828729D01*
X207650186Y-34930186D01*
X207548729Y-35013448D01*
X207512991Y-35042778D01*
X207356466Y-35126443D01*
X207186627Y-35177963D01*
X207120443Y-35184481D01*
X207054260Y-35191000D01*
X206965740Y-35191000D01*
X206899558Y-35184482D01*
X206833373Y-35177963D01*
X206663534Y-35126443D01*
X206507009Y-35042778D01*
X206471271Y-35013448D01*
X206369814Y-34930186D01*
X206286552Y-34828729D01*
X206257222Y-34792991D01*
X206173557Y-34636466D01*
X206122037Y-34466627D01*
X206104641Y-34290000D01*
X206122037Y-34113373D01*
X206173557Y-33943534D01*
X206257222Y-33787009D01*
X206286552Y-33751271D01*
X206369814Y-33649814D01*
X206471271Y-33566552D01*
X206507009Y-33537222D01*
X206663534Y-33453557D01*
X206833373Y-33402037D01*
X206899558Y-33395518D01*
X206965740Y-33389000D01*
X207054260Y-33389000D01*
X207120442Y-33395518D01*
X207120442Y-33395518D01*
G37*
G36*
X204580442Y-33395518D02*
G01*
X204646627Y-33402037D01*
X204816466Y-33453557D01*
X204972991Y-33537222D01*
X205008729Y-33566552D01*
X205110186Y-33649814D01*
X205193448Y-33751271D01*
X205222778Y-33787009D01*
X205306443Y-33943534D01*
X205357963Y-34113373D01*
X205375359Y-34290000D01*
X205357963Y-34466627D01*
X205306443Y-34636466D01*
X205222778Y-34792991D01*
X205193448Y-34828729D01*
X205110186Y-34930186D01*
X205008729Y-35013448D01*
X204972991Y-35042778D01*
X204816466Y-35126443D01*
X204646627Y-35177963D01*
X204580443Y-35184481D01*
X204514260Y-35191000D01*
X204425740Y-35191000D01*
X204359558Y-35184482D01*
X204293373Y-35177963D01*
X204123534Y-35126443D01*
X203967009Y-35042778D01*
X203931271Y-35013448D01*
X203829814Y-34930186D01*
X203746552Y-34828729D01*
X203717222Y-34792991D01*
X203633557Y-34636466D01*
X203582037Y-34466627D01*
X203564641Y-34290000D01*
X203582037Y-34113373D01*
X203633557Y-33943534D01*
X203717222Y-33787009D01*
X203746552Y-33751271D01*
X203829814Y-33649814D01*
X203931271Y-33566552D01*
X203967009Y-33537222D01*
X204123534Y-33453557D01*
X204293373Y-33402037D01*
X204359558Y-33395518D01*
X204425740Y-33389000D01*
X204514260Y-33389000D01*
X204580442Y-33395518D01*
X204580442Y-33395518D01*
G37*
G36*
X202040442Y-33395518D02*
G01*
X202106627Y-33402037D01*
X202276466Y-33453557D01*
X202432991Y-33537222D01*
X202468729Y-33566552D01*
X202570186Y-33649814D01*
X202653448Y-33751271D01*
X202682778Y-33787009D01*
X202766443Y-33943534D01*
X202817963Y-34113373D01*
X202835359Y-34290000D01*
X202817963Y-34466627D01*
X202766443Y-34636466D01*
X202682778Y-34792991D01*
X202653448Y-34828729D01*
X202570186Y-34930186D01*
X202468729Y-35013448D01*
X202432991Y-35042778D01*
X202276466Y-35126443D01*
X202106627Y-35177963D01*
X202040443Y-35184481D01*
X201974260Y-35191000D01*
X201885740Y-35191000D01*
X201819558Y-35184482D01*
X201753373Y-35177963D01*
X201583534Y-35126443D01*
X201427009Y-35042778D01*
X201391271Y-35013448D01*
X201289814Y-34930186D01*
X201206552Y-34828729D01*
X201177222Y-34792991D01*
X201093557Y-34636466D01*
X201042037Y-34466627D01*
X201024641Y-34290000D01*
X201042037Y-34113373D01*
X201093557Y-33943534D01*
X201177222Y-33787009D01*
X201206552Y-33751271D01*
X201289814Y-33649814D01*
X201391271Y-33566552D01*
X201427009Y-33537222D01*
X201583534Y-33453557D01*
X201753373Y-33402037D01*
X201819558Y-33395518D01*
X201885740Y-33389000D01*
X201974260Y-33389000D01*
X202040442Y-33395518D01*
X202040442Y-33395518D01*
G37*
G36*
X199500442Y-33395518D02*
G01*
X199566627Y-33402037D01*
X199736466Y-33453557D01*
X199892991Y-33537222D01*
X199928729Y-33566552D01*
X200030186Y-33649814D01*
X200113448Y-33751271D01*
X200142778Y-33787009D01*
X200226443Y-33943534D01*
X200277963Y-34113373D01*
X200295359Y-34290000D01*
X200277963Y-34466627D01*
X200226443Y-34636466D01*
X200142778Y-34792991D01*
X200113448Y-34828729D01*
X200030186Y-34930186D01*
X199928729Y-35013448D01*
X199892991Y-35042778D01*
X199736466Y-35126443D01*
X199566627Y-35177963D01*
X199500443Y-35184481D01*
X199434260Y-35191000D01*
X199345740Y-35191000D01*
X199279558Y-35184482D01*
X199213373Y-35177963D01*
X199043534Y-35126443D01*
X198887009Y-35042778D01*
X198851271Y-35013448D01*
X198749814Y-34930186D01*
X198666552Y-34828729D01*
X198637222Y-34792991D01*
X198553557Y-34636466D01*
X198502037Y-34466627D01*
X198484641Y-34290000D01*
X198502037Y-34113373D01*
X198553557Y-33943534D01*
X198637222Y-33787009D01*
X198666552Y-33751271D01*
X198749814Y-33649814D01*
X198851271Y-33566552D01*
X198887009Y-33537222D01*
X199043534Y-33453557D01*
X199213373Y-33402037D01*
X199279558Y-33395518D01*
X199345740Y-33389000D01*
X199434260Y-33389000D01*
X199500442Y-33395518D01*
X199500442Y-33395518D01*
G37*
G36*
X212200442Y-33395518D02*
G01*
X212266627Y-33402037D01*
X212436466Y-33453557D01*
X212592991Y-33537222D01*
X212628729Y-33566552D01*
X212730186Y-33649814D01*
X212813448Y-33751271D01*
X212842778Y-33787009D01*
X212926443Y-33943534D01*
X212977963Y-34113373D01*
X212995359Y-34290000D01*
X212977963Y-34466627D01*
X212926443Y-34636466D01*
X212842778Y-34792991D01*
X212813448Y-34828729D01*
X212730186Y-34930186D01*
X212628729Y-35013448D01*
X212592991Y-35042778D01*
X212436466Y-35126443D01*
X212266627Y-35177963D01*
X212200443Y-35184481D01*
X212134260Y-35191000D01*
X212045740Y-35191000D01*
X211979558Y-35184482D01*
X211913373Y-35177963D01*
X211743534Y-35126443D01*
X211587009Y-35042778D01*
X211551271Y-35013448D01*
X211449814Y-34930186D01*
X211366552Y-34828729D01*
X211337222Y-34792991D01*
X211253557Y-34636466D01*
X211202037Y-34466627D01*
X211184641Y-34290000D01*
X211202037Y-34113373D01*
X211253557Y-33943534D01*
X211337222Y-33787009D01*
X211366552Y-33751271D01*
X211449814Y-33649814D01*
X211551271Y-33566552D01*
X211587009Y-33537222D01*
X211743534Y-33453557D01*
X211913373Y-33402037D01*
X211979558Y-33395518D01*
X212045740Y-33389000D01*
X212134260Y-33389000D01*
X212200442Y-33395518D01*
X212200442Y-33395518D01*
G37*
G36*
X194420442Y-33395518D02*
G01*
X194486627Y-33402037D01*
X194656466Y-33453557D01*
X194812991Y-33537222D01*
X194848729Y-33566552D01*
X194950186Y-33649814D01*
X195033448Y-33751271D01*
X195062778Y-33787009D01*
X195146443Y-33943534D01*
X195197963Y-34113373D01*
X195215359Y-34290000D01*
X195197963Y-34466627D01*
X195146443Y-34636466D01*
X195062778Y-34792991D01*
X195033448Y-34828729D01*
X194950186Y-34930186D01*
X194848729Y-35013448D01*
X194812991Y-35042778D01*
X194656466Y-35126443D01*
X194486627Y-35177963D01*
X194420443Y-35184481D01*
X194354260Y-35191000D01*
X194265740Y-35191000D01*
X194199558Y-35184482D01*
X194133373Y-35177963D01*
X193963534Y-35126443D01*
X193807009Y-35042778D01*
X193771271Y-35013448D01*
X193669814Y-34930186D01*
X193586552Y-34828729D01*
X193557222Y-34792991D01*
X193473557Y-34636466D01*
X193422037Y-34466627D01*
X193404641Y-34290000D01*
X193422037Y-34113373D01*
X193473557Y-33943534D01*
X193557222Y-33787009D01*
X193586552Y-33751271D01*
X193669814Y-33649814D01*
X193771271Y-33566552D01*
X193807009Y-33537222D01*
X193963534Y-33453557D01*
X194133373Y-33402037D01*
X194199558Y-33395518D01*
X194265740Y-33389000D01*
X194354260Y-33389000D01*
X194420442Y-33395518D01*
X194420442Y-33395518D01*
G37*
G36*
X192671000Y-35191000D02*
G01*
X190869000Y-35191000D01*
X190869000Y-33389000D01*
X192671000Y-33389000D01*
X192671000Y-35191000D01*
X192671000Y-35191000D01*
G37*
G36*
X229980442Y-33395518D02*
G01*
X230046627Y-33402037D01*
X230216466Y-33453557D01*
X230372991Y-33537222D01*
X230408729Y-33566552D01*
X230510186Y-33649814D01*
X230593448Y-33751271D01*
X230622778Y-33787009D01*
X230706443Y-33943534D01*
X230757963Y-34113373D01*
X230775359Y-34290000D01*
X230757963Y-34466627D01*
X230706443Y-34636466D01*
X230622778Y-34792991D01*
X230593448Y-34828729D01*
X230510186Y-34930186D01*
X230408729Y-35013448D01*
X230372991Y-35042778D01*
X230216466Y-35126443D01*
X230046627Y-35177963D01*
X229980443Y-35184481D01*
X229914260Y-35191000D01*
X229825740Y-35191000D01*
X229759558Y-35184482D01*
X229693373Y-35177963D01*
X229523534Y-35126443D01*
X229367009Y-35042778D01*
X229331271Y-35013448D01*
X229229814Y-34930186D01*
X229146552Y-34828729D01*
X229117222Y-34792991D01*
X229033557Y-34636466D01*
X228982037Y-34466627D01*
X228964641Y-34290000D01*
X228982037Y-34113373D01*
X229033557Y-33943534D01*
X229117222Y-33787009D01*
X229146552Y-33751271D01*
X229229814Y-33649814D01*
X229331271Y-33566552D01*
X229367009Y-33537222D01*
X229523534Y-33453557D01*
X229693373Y-33402037D01*
X229759558Y-33395518D01*
X229825740Y-33389000D01*
X229914260Y-33389000D01*
X229980442Y-33395518D01*
X229980442Y-33395518D01*
G37*
G36*
X227440442Y-33395518D02*
G01*
X227506627Y-33402037D01*
X227676466Y-33453557D01*
X227832991Y-33537222D01*
X227868729Y-33566552D01*
X227970186Y-33649814D01*
X228053448Y-33751271D01*
X228082778Y-33787009D01*
X228166443Y-33943534D01*
X228217963Y-34113373D01*
X228235359Y-34290000D01*
X228217963Y-34466627D01*
X228166443Y-34636466D01*
X228082778Y-34792991D01*
X228053448Y-34828729D01*
X227970186Y-34930186D01*
X227868729Y-35013448D01*
X227832991Y-35042778D01*
X227676466Y-35126443D01*
X227506627Y-35177963D01*
X227440443Y-35184481D01*
X227374260Y-35191000D01*
X227285740Y-35191000D01*
X227219558Y-35184482D01*
X227153373Y-35177963D01*
X226983534Y-35126443D01*
X226827009Y-35042778D01*
X226791271Y-35013448D01*
X226689814Y-34930186D01*
X226606552Y-34828729D01*
X226577222Y-34792991D01*
X226493557Y-34636466D01*
X226442037Y-34466627D01*
X226424641Y-34290000D01*
X226442037Y-34113373D01*
X226493557Y-33943534D01*
X226577222Y-33787009D01*
X226606552Y-33751271D01*
X226689814Y-33649814D01*
X226791271Y-33566552D01*
X226827009Y-33537222D01*
X226983534Y-33453557D01*
X227153373Y-33402037D01*
X227219558Y-33395518D01*
X227285740Y-33389000D01*
X227374260Y-33389000D01*
X227440442Y-33395518D01*
X227440442Y-33395518D01*
G37*
G36*
X224900442Y-33395518D02*
G01*
X224966627Y-33402037D01*
X225136466Y-33453557D01*
X225292991Y-33537222D01*
X225328729Y-33566552D01*
X225430186Y-33649814D01*
X225513448Y-33751271D01*
X225542778Y-33787009D01*
X225626443Y-33943534D01*
X225677963Y-34113373D01*
X225695359Y-34290000D01*
X225677963Y-34466627D01*
X225626443Y-34636466D01*
X225542778Y-34792991D01*
X225513448Y-34828729D01*
X225430186Y-34930186D01*
X225328729Y-35013448D01*
X225292991Y-35042778D01*
X225136466Y-35126443D01*
X224966627Y-35177963D01*
X224900443Y-35184481D01*
X224834260Y-35191000D01*
X224745740Y-35191000D01*
X224679558Y-35184482D01*
X224613373Y-35177963D01*
X224443534Y-35126443D01*
X224287009Y-35042778D01*
X224251271Y-35013448D01*
X224149814Y-34930186D01*
X224066552Y-34828729D01*
X224037222Y-34792991D01*
X223953557Y-34636466D01*
X223902037Y-34466627D01*
X223884641Y-34290000D01*
X223902037Y-34113373D01*
X223953557Y-33943534D01*
X224037222Y-33787009D01*
X224066552Y-33751271D01*
X224149814Y-33649814D01*
X224251271Y-33566552D01*
X224287009Y-33537222D01*
X224443534Y-33453557D01*
X224613373Y-33402037D01*
X224679558Y-33395518D01*
X224745740Y-33389000D01*
X224834260Y-33389000D01*
X224900442Y-33395518D01*
X224900442Y-33395518D01*
G37*
G36*
X222360442Y-33395518D02*
G01*
X222426627Y-33402037D01*
X222596466Y-33453557D01*
X222752991Y-33537222D01*
X222788729Y-33566552D01*
X222890186Y-33649814D01*
X222973448Y-33751271D01*
X223002778Y-33787009D01*
X223086443Y-33943534D01*
X223137963Y-34113373D01*
X223155359Y-34290000D01*
X223137963Y-34466627D01*
X223086443Y-34636466D01*
X223002778Y-34792991D01*
X222973448Y-34828729D01*
X222890186Y-34930186D01*
X222788729Y-35013448D01*
X222752991Y-35042778D01*
X222596466Y-35126443D01*
X222426627Y-35177963D01*
X222360443Y-35184481D01*
X222294260Y-35191000D01*
X222205740Y-35191000D01*
X222139558Y-35184482D01*
X222073373Y-35177963D01*
X221903534Y-35126443D01*
X221747009Y-35042778D01*
X221711271Y-35013448D01*
X221609814Y-34930186D01*
X221526552Y-34828729D01*
X221497222Y-34792991D01*
X221413557Y-34636466D01*
X221362037Y-34466627D01*
X221344641Y-34290000D01*
X221362037Y-34113373D01*
X221413557Y-33943534D01*
X221497222Y-33787009D01*
X221526552Y-33751271D01*
X221609814Y-33649814D01*
X221711271Y-33566552D01*
X221747009Y-33537222D01*
X221903534Y-33453557D01*
X222073373Y-33402037D01*
X222139558Y-33395518D01*
X222205740Y-33389000D01*
X222294260Y-33389000D01*
X222360442Y-33395518D01*
X222360442Y-33395518D01*
G37*
G36*
X219820442Y-33395518D02*
G01*
X219886627Y-33402037D01*
X220056466Y-33453557D01*
X220212991Y-33537222D01*
X220248729Y-33566552D01*
X220350186Y-33649814D01*
X220433448Y-33751271D01*
X220462778Y-33787009D01*
X220546443Y-33943534D01*
X220597963Y-34113373D01*
X220615359Y-34290000D01*
X220597963Y-34466627D01*
X220546443Y-34636466D01*
X220462778Y-34792991D01*
X220433448Y-34828729D01*
X220350186Y-34930186D01*
X220248729Y-35013448D01*
X220212991Y-35042778D01*
X220056466Y-35126443D01*
X219886627Y-35177963D01*
X219820443Y-35184481D01*
X219754260Y-35191000D01*
X219665740Y-35191000D01*
X219599558Y-35184482D01*
X219533373Y-35177963D01*
X219363534Y-35126443D01*
X219207009Y-35042778D01*
X219171271Y-35013448D01*
X219069814Y-34930186D01*
X218986552Y-34828729D01*
X218957222Y-34792991D01*
X218873557Y-34636466D01*
X218822037Y-34466627D01*
X218804641Y-34290000D01*
X218822037Y-34113373D01*
X218873557Y-33943534D01*
X218957222Y-33787009D01*
X218986552Y-33751271D01*
X219069814Y-33649814D01*
X219171271Y-33566552D01*
X219207009Y-33537222D01*
X219363534Y-33453557D01*
X219533373Y-33402037D01*
X219599558Y-33395518D01*
X219665740Y-33389000D01*
X219754260Y-33389000D01*
X219820442Y-33395518D01*
X219820442Y-33395518D01*
G37*
G36*
X217280442Y-33395518D02*
G01*
X217346627Y-33402037D01*
X217516466Y-33453557D01*
X217672991Y-33537222D01*
X217708729Y-33566552D01*
X217810186Y-33649814D01*
X217893448Y-33751271D01*
X217922778Y-33787009D01*
X218006443Y-33943534D01*
X218057963Y-34113373D01*
X218075359Y-34290000D01*
X218057963Y-34466627D01*
X218006443Y-34636466D01*
X217922778Y-34792991D01*
X217893448Y-34828729D01*
X217810186Y-34930186D01*
X217708729Y-35013448D01*
X217672991Y-35042778D01*
X217516466Y-35126443D01*
X217346627Y-35177963D01*
X217280443Y-35184481D01*
X217214260Y-35191000D01*
X217125740Y-35191000D01*
X217059558Y-35184482D01*
X216993373Y-35177963D01*
X216823534Y-35126443D01*
X216667009Y-35042778D01*
X216631271Y-35013448D01*
X216529814Y-34930186D01*
X216446552Y-34828729D01*
X216417222Y-34792991D01*
X216333557Y-34636466D01*
X216282037Y-34466627D01*
X216264641Y-34290000D01*
X216282037Y-34113373D01*
X216333557Y-33943534D01*
X216417222Y-33787009D01*
X216446552Y-33751271D01*
X216529814Y-33649814D01*
X216631271Y-33566552D01*
X216667009Y-33537222D01*
X216823534Y-33453557D01*
X216993373Y-33402037D01*
X217059558Y-33395518D01*
X217125740Y-33389000D01*
X217214260Y-33389000D01*
X217280442Y-33395518D01*
X217280442Y-33395518D01*
G37*
G36*
X196960442Y-33395518D02*
G01*
X197026627Y-33402037D01*
X197196466Y-33453557D01*
X197352991Y-33537222D01*
X197388729Y-33566552D01*
X197490186Y-33649814D01*
X197573448Y-33751271D01*
X197602778Y-33787009D01*
X197686443Y-33943534D01*
X197737963Y-34113373D01*
X197755359Y-34290000D01*
X197737963Y-34466627D01*
X197686443Y-34636466D01*
X197602778Y-34792991D01*
X197573448Y-34828729D01*
X197490186Y-34930186D01*
X197388729Y-35013448D01*
X197352991Y-35042778D01*
X197196466Y-35126443D01*
X197026627Y-35177963D01*
X196960443Y-35184481D01*
X196894260Y-35191000D01*
X196805740Y-35191000D01*
X196739558Y-35184482D01*
X196673373Y-35177963D01*
X196503534Y-35126443D01*
X196347009Y-35042778D01*
X196311271Y-35013448D01*
X196209814Y-34930186D01*
X196126552Y-34828729D01*
X196097222Y-34792991D01*
X196013557Y-34636466D01*
X195962037Y-34466627D01*
X195944641Y-34290000D01*
X195962037Y-34113373D01*
X196013557Y-33943534D01*
X196097222Y-33787009D01*
X196126552Y-33751271D01*
X196209814Y-33649814D01*
X196311271Y-33566552D01*
X196347009Y-33537222D01*
X196503534Y-33453557D01*
X196673373Y-33402037D01*
X196739558Y-33395518D01*
X196805740Y-33389000D01*
X196894260Y-33389000D01*
X196960442Y-33395518D01*
X196960442Y-33395518D01*
G37*
M02*
