M48
; DRILL file {KiCad (5.1.4)-1} date 11/19/2019 3:10:13 PM
; FORMAT={-:-/ absolute / inch / decimal}
; #@! TF.CreationDate,2019-11-19T15:10:13-05:00
; #@! TF.GenerationSoftware,Kicad,Pcbnew,(5.1.4)-1
; #@! TF.FileFunction,Plated,1,2,PTH
FMAT,2
INCH
T1C0.0157
T2C0.0394
T3C0.0512
%
G90
G05
T1
X3.9Y-3.45
X3.9Y-3.65
X5.35Y-2.65
X5.4949Y-4.0449
X5.55Y-3.9
X5.6Y-3.0
X6.0941Y-1.9559
X6.1Y-2.4
X6.1626Y-2.1626
X6.1626Y-2.1626
X6.2Y-2.0
X6.35Y-3.35
X6.4Y-2.3
X7.65Y-1.65
X7.7Y-2.15
X7.75Y-2.15
X7.85Y-1.7
X7.85Y-1.75
X7.9Y-1.65
X7.95Y-1.65
X8.2Y-2.4
X8.25Y-2.35
X8.9Y-1.85
X8.9Y-2.0
T2
X4.3Y-3.65
X4.3Y-3.8272
X4.5559Y-3.65
X4.5559Y-3.8272
X7.25Y-3.5
X7.35Y-3.5
X7.45Y-3.5
X7.55Y-3.5
X7.65Y-3.5
X7.75Y-3.5
X7.85Y-3.5
X7.95Y-3.5
X8.05Y-3.5
X8.15Y-3.5
X8.25Y-3.5
X8.35Y-3.5
X8.45Y-3.5
X8.55Y-3.5
X8.65Y-3.5
X8.75Y-3.5
X5.8Y-3.65
X5.8Y-3.8272
X6.0559Y-3.65
X6.0559Y-3.8272
X5.65Y-2.1
X5.65Y-2.2772
X5.9059Y-2.1
X5.9059Y-2.2772
X7.55Y-1.35
X7.65Y-1.35
X7.75Y-1.35
X7.85Y-1.35
X7.95Y-1.35
X8.05Y-1.35
X8.15Y-1.35
X8.25Y-1.35
X8.35Y-1.35
X8.45Y-1.35
X8.55Y-1.35
X8.65Y-1.35
X8.75Y-1.35
X8.85Y-1.35
X8.95Y-1.35
X9.05Y-1.35
X6.95Y-1.4
X6.95Y-1.5
X6.95Y-1.6
X6.95Y-1.7
X6.95Y-1.8
X6.95Y-1.9
X6.95Y-2.0
X6.95Y-2.1
X6.95Y-2.2
X6.95Y-2.3
X6.95Y-2.4
X6.95Y-2.5
X6.95Y-2.6
X6.95Y-2.7
X6.95Y-2.8
X6.95Y-2.9
X9.55Y-2.55
X9.55Y-2.65
X9.55Y-2.75
X9.55Y-2.85
X9.55Y-2.95
X9.55Y-3.05
X9.55Y-3.15
X9.55Y-3.25
X9.55Y-3.35
X9.55Y-3.45
X9.55Y-3.55
X9.55Y-3.65
X9.55Y-3.75
X9.55Y-3.85
X9.55Y-3.95
X9.55Y-4.05
X5.05Y-3.0
X5.05Y-3.1772
X5.3059Y-3.0
X5.3059Y-3.1772
X5.05Y-3.65
X5.05Y-3.8272
X5.3059Y-3.65
X5.3059Y-3.8272
T3
X10.0Y-1.9
X10.0Y-2.0969
T0
M30
