G04 #@! TF.GenerationSoftware,KiCad,Pcbnew,(5.1.4)-1*
G04 #@! TF.CreationDate,2019-11-19T15:09:50-05:00*
G04 #@! TF.ProjectId,MiniProj,4d696e69-5072-46f6-9a2e-6b696361645f,rev?*
G04 #@! TF.SameCoordinates,Original*
G04 #@! TF.FileFunction,Soldermask,Top*
G04 #@! TF.FilePolarity,Negative*
%FSLAX46Y46*%
G04 Gerber Fmt 4.6, Leading zero omitted, Abs format (unit mm)*
G04 Created by KiCad (PCBNEW (5.1.4)-1) date 2019-11-19 15:09:50*
%MOMM*%
%LPD*%
G04 APERTURE LIST*
%ADD10C,0.100000*%
G04 APERTURE END LIST*
D10*
G36*
X135361938Y-103771716D02*
G01*
X135382557Y-103777971D01*
X135401553Y-103788124D01*
X135418208Y-103801792D01*
X135431876Y-103818447D01*
X135442029Y-103837443D01*
X135448284Y-103858062D01*
X135451000Y-103885640D01*
X135451000Y-104394360D01*
X135448284Y-104421938D01*
X135442029Y-104442557D01*
X135431876Y-104461553D01*
X135418208Y-104478208D01*
X135401553Y-104491876D01*
X135382557Y-104502029D01*
X135361938Y-104508284D01*
X135334360Y-104511000D01*
X134875640Y-104511000D01*
X134848062Y-104508284D01*
X134827443Y-104502029D01*
X134808447Y-104491876D01*
X134791792Y-104478208D01*
X134778124Y-104461553D01*
X134767971Y-104442557D01*
X134761716Y-104421938D01*
X134759000Y-104394360D01*
X134759000Y-103885640D01*
X134761716Y-103858062D01*
X134767971Y-103837443D01*
X134778124Y-103818447D01*
X134791792Y-103801792D01*
X134808447Y-103788124D01*
X134827443Y-103777971D01*
X134848062Y-103771716D01*
X134875640Y-103769000D01*
X135334360Y-103769000D01*
X135361938Y-103771716D01*
X135361938Y-103771716D01*
G37*
G36*
X134391938Y-103771716D02*
G01*
X134412557Y-103777971D01*
X134431553Y-103788124D01*
X134448208Y-103801792D01*
X134461876Y-103818447D01*
X134472029Y-103837443D01*
X134478284Y-103858062D01*
X134481000Y-103885640D01*
X134481000Y-104394360D01*
X134478284Y-104421938D01*
X134472029Y-104442557D01*
X134461876Y-104461553D01*
X134448208Y-104478208D01*
X134431553Y-104491876D01*
X134412557Y-104502029D01*
X134391938Y-104508284D01*
X134364360Y-104511000D01*
X133905640Y-104511000D01*
X133878062Y-104508284D01*
X133857443Y-104502029D01*
X133838447Y-104491876D01*
X133821792Y-104478208D01*
X133808124Y-104461553D01*
X133797971Y-104442557D01*
X133791716Y-104421938D01*
X133789000Y-104394360D01*
X133789000Y-103885640D01*
X133791716Y-103858062D01*
X133797971Y-103837443D01*
X133808124Y-103818447D01*
X133821792Y-103801792D01*
X133838447Y-103788124D01*
X133857443Y-103777971D01*
X133878062Y-103771716D01*
X133905640Y-103769000D01*
X134364360Y-103769000D01*
X134391938Y-103771716D01*
X134391938Y-103771716D01*
G37*
G36*
X242680442Y-101975518D02*
G01*
X242746627Y-101982037D01*
X242916466Y-102033557D01*
X243072991Y-102117222D01*
X243108729Y-102146552D01*
X243210186Y-102229814D01*
X243293448Y-102331271D01*
X243322778Y-102367009D01*
X243406443Y-102523534D01*
X243457963Y-102693373D01*
X243475359Y-102870000D01*
X243457963Y-103046627D01*
X243406443Y-103216466D01*
X243322778Y-103372991D01*
X243293448Y-103408729D01*
X243210186Y-103510186D01*
X243108729Y-103593448D01*
X243072991Y-103622778D01*
X242916466Y-103706443D01*
X242746627Y-103757963D01*
X242680443Y-103764481D01*
X242614260Y-103771000D01*
X242525740Y-103771000D01*
X242459557Y-103764481D01*
X242393373Y-103757963D01*
X242223534Y-103706443D01*
X242067009Y-103622778D01*
X242031271Y-103593448D01*
X241929814Y-103510186D01*
X241846552Y-103408729D01*
X241817222Y-103372991D01*
X241733557Y-103216466D01*
X241682037Y-103046627D01*
X241664641Y-102870000D01*
X241682037Y-102693373D01*
X241733557Y-102523534D01*
X241817222Y-102367009D01*
X241846552Y-102331271D01*
X241929814Y-102229814D01*
X242031271Y-102146552D01*
X242067009Y-102117222D01*
X242223534Y-102033557D01*
X242393373Y-101982037D01*
X242459558Y-101975518D01*
X242525740Y-101969000D01*
X242614260Y-101969000D01*
X242680442Y-101975518D01*
X242680442Y-101975518D01*
G37*
G36*
X242680443Y-99435519D02*
G01*
X242746627Y-99442037D01*
X242916466Y-99493557D01*
X243072991Y-99577222D01*
X243108729Y-99606552D01*
X243210186Y-99689814D01*
X243266348Y-99758249D01*
X243322778Y-99827009D01*
X243406443Y-99983534D01*
X243457963Y-100153373D01*
X243475359Y-100330000D01*
X243457963Y-100506627D01*
X243406443Y-100676466D01*
X243322778Y-100832991D01*
X243293448Y-100868729D01*
X243210186Y-100970186D01*
X243108729Y-101053448D01*
X243072991Y-101082778D01*
X242916466Y-101166443D01*
X242746627Y-101217963D01*
X242680443Y-101224481D01*
X242614260Y-101231000D01*
X242525740Y-101231000D01*
X242459558Y-101224482D01*
X242393373Y-101217963D01*
X242223534Y-101166443D01*
X242067009Y-101082778D01*
X242031271Y-101053448D01*
X241929814Y-100970186D01*
X241846552Y-100868729D01*
X241817222Y-100832991D01*
X241733557Y-100676466D01*
X241682037Y-100506627D01*
X241664641Y-100330000D01*
X241682037Y-100153373D01*
X241733557Y-99983534D01*
X241817222Y-99827009D01*
X241873652Y-99758249D01*
X241929814Y-99689814D01*
X242031271Y-99606552D01*
X242067009Y-99577222D01*
X242223534Y-99493557D01*
X242393373Y-99442037D01*
X242459558Y-99435518D01*
X242525740Y-99429000D01*
X242614260Y-99429000D01*
X242680443Y-99435519D01*
X242680443Y-99435519D01*
G37*
G36*
X139851938Y-99621716D02*
G01*
X139872557Y-99627971D01*
X139891553Y-99638124D01*
X139908208Y-99651792D01*
X139921876Y-99668447D01*
X139932029Y-99687443D01*
X139938284Y-99708062D01*
X139941000Y-99735640D01*
X139941000Y-100194360D01*
X139938284Y-100221938D01*
X139932029Y-100242557D01*
X139921876Y-100261553D01*
X139908208Y-100278208D01*
X139891553Y-100291876D01*
X139872557Y-100302029D01*
X139851938Y-100308284D01*
X139824360Y-100311000D01*
X139315640Y-100311000D01*
X139288062Y-100308284D01*
X139267443Y-100302029D01*
X139248447Y-100291876D01*
X139231792Y-100278208D01*
X139218124Y-100261553D01*
X139207971Y-100242557D01*
X139201716Y-100221938D01*
X139199000Y-100194360D01*
X139199000Y-99735640D01*
X139201716Y-99708062D01*
X139207971Y-99687443D01*
X139218124Y-99668447D01*
X139231792Y-99651792D01*
X139248447Y-99638124D01*
X139267443Y-99627971D01*
X139288062Y-99621716D01*
X139315640Y-99619000D01*
X139824360Y-99619000D01*
X139851938Y-99621716D01*
X139851938Y-99621716D01*
G37*
G36*
X139851938Y-98651716D02*
G01*
X139872557Y-98657971D01*
X139891553Y-98668124D01*
X139908208Y-98681792D01*
X139921876Y-98698447D01*
X139932029Y-98717443D01*
X139938284Y-98738062D01*
X139941000Y-98765640D01*
X139941000Y-99224360D01*
X139938284Y-99251938D01*
X139932029Y-99272557D01*
X139921876Y-99291553D01*
X139908208Y-99308208D01*
X139891553Y-99321876D01*
X139872557Y-99332029D01*
X139851938Y-99338284D01*
X139824360Y-99341000D01*
X139315640Y-99341000D01*
X139288062Y-99338284D01*
X139267443Y-99332029D01*
X139248447Y-99321876D01*
X139231792Y-99308208D01*
X139218124Y-99291553D01*
X139207971Y-99272557D01*
X139201716Y-99251938D01*
X139199000Y-99224360D01*
X139199000Y-98765640D01*
X139201716Y-98738062D01*
X139207971Y-98717443D01*
X139218124Y-98698447D01*
X139231792Y-98681792D01*
X139248447Y-98668124D01*
X139267443Y-98657971D01*
X139288062Y-98651716D01*
X139315640Y-98649000D01*
X139824360Y-98649000D01*
X139851938Y-98651716D01*
X139851938Y-98651716D01*
G37*
G36*
X242680442Y-96895518D02*
G01*
X242746627Y-96902037D01*
X242916466Y-96953557D01*
X242916468Y-96953558D01*
X242951286Y-96972169D01*
X243072991Y-97037222D01*
X243086199Y-97048062D01*
X243210186Y-97149814D01*
X243293448Y-97251271D01*
X243322778Y-97287009D01*
X243406443Y-97443534D01*
X243457963Y-97613373D01*
X243475359Y-97790000D01*
X243457963Y-97966627D01*
X243406443Y-98136466D01*
X243322778Y-98292991D01*
X243293448Y-98328729D01*
X243210186Y-98430186D01*
X243119803Y-98504360D01*
X243072991Y-98542778D01*
X243054696Y-98552557D01*
X242943433Y-98612029D01*
X242916466Y-98626443D01*
X242746627Y-98677963D01*
X242680442Y-98684482D01*
X242614260Y-98691000D01*
X242525740Y-98691000D01*
X242459558Y-98684482D01*
X242393373Y-98677963D01*
X242223534Y-98626443D01*
X242196568Y-98612029D01*
X242085304Y-98552557D01*
X242067009Y-98542778D01*
X242020197Y-98504360D01*
X241929814Y-98430186D01*
X241846552Y-98328729D01*
X241817222Y-98292991D01*
X241733557Y-98136466D01*
X241682037Y-97966627D01*
X241664641Y-97790000D01*
X241682037Y-97613373D01*
X241733557Y-97443534D01*
X241817222Y-97287009D01*
X241846552Y-97251271D01*
X241929814Y-97149814D01*
X242053801Y-97048062D01*
X242067009Y-97037222D01*
X242188714Y-96972169D01*
X242223532Y-96953558D01*
X242223534Y-96953557D01*
X242393373Y-96902037D01*
X242459558Y-96895518D01*
X242525740Y-96889000D01*
X242614260Y-96889000D01*
X242680442Y-96895518D01*
X242680442Y-96895518D01*
G37*
G36*
X101881938Y-97931716D02*
G01*
X101902557Y-97937971D01*
X101921553Y-97948124D01*
X101938208Y-97961792D01*
X101951876Y-97978447D01*
X101962029Y-97997443D01*
X101968284Y-98018062D01*
X101971000Y-98045640D01*
X101971000Y-98504360D01*
X101968284Y-98531938D01*
X101962029Y-98552557D01*
X101951876Y-98571553D01*
X101938208Y-98588208D01*
X101921553Y-98601876D01*
X101902557Y-98612029D01*
X101881938Y-98618284D01*
X101854360Y-98621000D01*
X101345640Y-98621000D01*
X101318062Y-98618284D01*
X101297443Y-98612029D01*
X101278447Y-98601876D01*
X101261792Y-98588208D01*
X101248124Y-98571553D01*
X101237971Y-98552557D01*
X101231716Y-98531938D01*
X101229000Y-98504360D01*
X101229000Y-98045640D01*
X101231716Y-98018062D01*
X101237971Y-97997443D01*
X101248124Y-97978447D01*
X101261792Y-97961792D01*
X101278447Y-97948124D01*
X101297443Y-97937971D01*
X101318062Y-97931716D01*
X101345640Y-97929000D01*
X101854360Y-97929000D01*
X101881938Y-97931716D01*
X101881938Y-97931716D01*
G37*
G36*
X109333512Y-96313927D02*
G01*
X109482812Y-96343624D01*
X109646784Y-96411544D01*
X109794354Y-96510147D01*
X109919853Y-96635646D01*
X110018456Y-96783216D01*
X110086376Y-96947188D01*
X110121000Y-97121259D01*
X110121000Y-97298741D01*
X110086376Y-97472812D01*
X110018456Y-97636784D01*
X109919853Y-97784354D01*
X109794354Y-97909853D01*
X109646784Y-98008456D01*
X109482812Y-98076376D01*
X109333512Y-98106073D01*
X109308742Y-98111000D01*
X109131258Y-98111000D01*
X109106488Y-98106073D01*
X108957188Y-98076376D01*
X108793216Y-98008456D01*
X108645646Y-97909853D01*
X108520147Y-97784354D01*
X108421544Y-97636784D01*
X108353624Y-97472812D01*
X108319000Y-97298741D01*
X108319000Y-97121259D01*
X108353624Y-96947188D01*
X108421544Y-96783216D01*
X108520147Y-96635646D01*
X108645646Y-96510147D01*
X108793216Y-96411544D01*
X108957188Y-96343624D01*
X109106488Y-96313927D01*
X109131258Y-96309000D01*
X109308742Y-96309000D01*
X109333512Y-96313927D01*
X109333512Y-96313927D01*
G37*
G36*
X134883512Y-96313927D02*
G01*
X135032812Y-96343624D01*
X135196784Y-96411544D01*
X135344354Y-96510147D01*
X135469853Y-96635646D01*
X135568456Y-96783216D01*
X135636376Y-96947188D01*
X135671000Y-97121259D01*
X135671000Y-97298741D01*
X135636376Y-97472812D01*
X135568456Y-97636784D01*
X135469853Y-97784354D01*
X135344354Y-97909853D01*
X135196784Y-98008456D01*
X135032812Y-98076376D01*
X134883512Y-98106073D01*
X134858742Y-98111000D01*
X134681258Y-98111000D01*
X134656488Y-98106073D01*
X134507188Y-98076376D01*
X134343216Y-98008456D01*
X134195646Y-97909853D01*
X134070147Y-97784354D01*
X133971544Y-97636784D01*
X133903624Y-97472812D01*
X133869000Y-97298741D01*
X133869000Y-97121259D01*
X133903624Y-96947188D01*
X133971544Y-96783216D01*
X134070147Y-96635646D01*
X134195646Y-96510147D01*
X134343216Y-96411544D01*
X134507188Y-96343624D01*
X134656488Y-96313927D01*
X134681258Y-96309000D01*
X134858742Y-96309000D01*
X134883512Y-96313927D01*
X134883512Y-96313927D01*
G37*
G36*
X128383512Y-96313927D02*
G01*
X128532812Y-96343624D01*
X128696784Y-96411544D01*
X128844354Y-96510147D01*
X128969853Y-96635646D01*
X129068456Y-96783216D01*
X129136376Y-96947188D01*
X129171000Y-97121259D01*
X129171000Y-97298741D01*
X129136376Y-97472812D01*
X129068456Y-97636784D01*
X128969853Y-97784354D01*
X128844354Y-97909853D01*
X128696784Y-98008456D01*
X128532812Y-98076376D01*
X128383512Y-98106073D01*
X128358742Y-98111000D01*
X128181258Y-98111000D01*
X128156488Y-98106073D01*
X128007188Y-98076376D01*
X127843216Y-98008456D01*
X127695646Y-97909853D01*
X127570147Y-97784354D01*
X127471544Y-97636784D01*
X127403624Y-97472812D01*
X127369000Y-97298741D01*
X127369000Y-97121259D01*
X127403624Y-96947188D01*
X127471544Y-96783216D01*
X127570147Y-96635646D01*
X127695646Y-96510147D01*
X127843216Y-96411544D01*
X128007188Y-96343624D01*
X128156488Y-96313927D01*
X128181258Y-96309000D01*
X128358742Y-96309000D01*
X128383512Y-96313927D01*
X128383512Y-96313927D01*
G37*
G36*
X115833512Y-96313927D02*
G01*
X115982812Y-96343624D01*
X116146784Y-96411544D01*
X116294354Y-96510147D01*
X116419853Y-96635646D01*
X116518456Y-96783216D01*
X116586376Y-96947188D01*
X116621000Y-97121259D01*
X116621000Y-97298741D01*
X116586376Y-97472812D01*
X116518456Y-97636784D01*
X116419853Y-97784354D01*
X116294354Y-97909853D01*
X116146784Y-98008456D01*
X115982812Y-98076376D01*
X115833512Y-98106073D01*
X115808742Y-98111000D01*
X115631258Y-98111000D01*
X115606488Y-98106073D01*
X115457188Y-98076376D01*
X115293216Y-98008456D01*
X115145646Y-97909853D01*
X115020147Y-97784354D01*
X114921544Y-97636784D01*
X114853624Y-97472812D01*
X114819000Y-97298741D01*
X114819000Y-97121259D01*
X114853624Y-96947188D01*
X114921544Y-96783216D01*
X115020147Y-96635646D01*
X115145646Y-96510147D01*
X115293216Y-96411544D01*
X115457188Y-96343624D01*
X115606488Y-96313927D01*
X115631258Y-96309000D01*
X115808742Y-96309000D01*
X115833512Y-96313927D01*
X115833512Y-96313927D01*
G37*
G36*
X153933512Y-96313927D02*
G01*
X154082812Y-96343624D01*
X154246784Y-96411544D01*
X154394354Y-96510147D01*
X154519853Y-96635646D01*
X154618456Y-96783216D01*
X154686376Y-96947188D01*
X154721000Y-97121259D01*
X154721000Y-97298741D01*
X154686376Y-97472812D01*
X154618456Y-97636784D01*
X154519853Y-97784354D01*
X154394354Y-97909853D01*
X154246784Y-98008456D01*
X154082812Y-98076376D01*
X153933512Y-98106073D01*
X153908742Y-98111000D01*
X153731258Y-98111000D01*
X153706488Y-98106073D01*
X153557188Y-98076376D01*
X153393216Y-98008456D01*
X153245646Y-97909853D01*
X153120147Y-97784354D01*
X153021544Y-97636784D01*
X152953624Y-97472812D01*
X152919000Y-97298741D01*
X152919000Y-97121259D01*
X152953624Y-96947188D01*
X153021544Y-96783216D01*
X153120147Y-96635646D01*
X153245646Y-96510147D01*
X153393216Y-96411544D01*
X153557188Y-96343624D01*
X153706488Y-96313927D01*
X153731258Y-96309000D01*
X153908742Y-96309000D01*
X153933512Y-96313927D01*
X153933512Y-96313927D01*
G37*
G36*
X147433512Y-96313927D02*
G01*
X147582812Y-96343624D01*
X147746784Y-96411544D01*
X147894354Y-96510147D01*
X148019853Y-96635646D01*
X148118456Y-96783216D01*
X148186376Y-96947188D01*
X148221000Y-97121259D01*
X148221000Y-97298741D01*
X148186376Y-97472812D01*
X148118456Y-97636784D01*
X148019853Y-97784354D01*
X147894354Y-97909853D01*
X147746784Y-98008456D01*
X147582812Y-98076376D01*
X147433512Y-98106073D01*
X147408742Y-98111000D01*
X147231258Y-98111000D01*
X147206488Y-98106073D01*
X147057188Y-98076376D01*
X146893216Y-98008456D01*
X146745646Y-97909853D01*
X146620147Y-97784354D01*
X146521544Y-97636784D01*
X146453624Y-97472812D01*
X146419000Y-97298741D01*
X146419000Y-97121259D01*
X146453624Y-96947188D01*
X146521544Y-96783216D01*
X146620147Y-96635646D01*
X146745646Y-96510147D01*
X146893216Y-96411544D01*
X147057188Y-96343624D01*
X147206488Y-96313927D01*
X147231258Y-96309000D01*
X147408742Y-96309000D01*
X147433512Y-96313927D01*
X147433512Y-96313927D01*
G37*
G36*
X101881938Y-96961716D02*
G01*
X101902557Y-96967971D01*
X101921553Y-96978124D01*
X101938208Y-96991792D01*
X101951876Y-97008447D01*
X101962029Y-97027443D01*
X101968284Y-97048062D01*
X101971000Y-97075640D01*
X101971000Y-97534360D01*
X101968284Y-97561938D01*
X101962029Y-97582557D01*
X101951876Y-97601553D01*
X101938208Y-97618208D01*
X101921553Y-97631876D01*
X101902557Y-97642029D01*
X101881938Y-97648284D01*
X101854360Y-97651000D01*
X101345640Y-97651000D01*
X101318062Y-97648284D01*
X101297443Y-97642029D01*
X101278447Y-97631876D01*
X101261792Y-97618208D01*
X101248124Y-97601553D01*
X101237971Y-97582557D01*
X101231716Y-97561938D01*
X101229000Y-97534360D01*
X101229000Y-97075640D01*
X101231716Y-97048062D01*
X101237971Y-97027443D01*
X101248124Y-97008447D01*
X101261792Y-96991792D01*
X101278447Y-96978124D01*
X101297443Y-96967971D01*
X101318062Y-96961716D01*
X101345640Y-96959000D01*
X101854360Y-96959000D01*
X101881938Y-96961716D01*
X101881938Y-96961716D01*
G37*
G36*
X242680442Y-94355518D02*
G01*
X242746627Y-94362037D01*
X242916466Y-94413557D01*
X242916468Y-94413558D01*
X242951286Y-94432169D01*
X243072991Y-94497222D01*
X243086199Y-94508062D01*
X243210186Y-94609814D01*
X243293448Y-94711271D01*
X243322778Y-94747009D01*
X243406443Y-94903534D01*
X243457963Y-95073373D01*
X243475359Y-95250000D01*
X243457963Y-95426627D01*
X243406443Y-95596466D01*
X243322778Y-95752991D01*
X243293448Y-95788729D01*
X243210186Y-95890186D01*
X243119803Y-95964360D01*
X243072991Y-96002778D01*
X243054696Y-96012557D01*
X242943433Y-96072029D01*
X242916466Y-96086443D01*
X242746627Y-96137963D01*
X242680443Y-96144481D01*
X242614260Y-96151000D01*
X242525740Y-96151000D01*
X242459558Y-96144482D01*
X242393373Y-96137963D01*
X242223534Y-96086443D01*
X242196568Y-96072029D01*
X242085304Y-96012557D01*
X242067009Y-96002778D01*
X242020197Y-95964360D01*
X241929814Y-95890186D01*
X241846552Y-95788729D01*
X241817222Y-95752991D01*
X241733557Y-95596466D01*
X241682037Y-95426627D01*
X241664641Y-95250000D01*
X241682037Y-95073373D01*
X241733557Y-94903534D01*
X241817222Y-94747009D01*
X241846552Y-94711271D01*
X241929814Y-94609814D01*
X242053801Y-94508062D01*
X242067009Y-94497222D01*
X242188714Y-94432169D01*
X242223532Y-94413558D01*
X242223534Y-94413557D01*
X242393373Y-94362037D01*
X242459557Y-94355519D01*
X242525740Y-94349000D01*
X242614260Y-94349000D01*
X242680442Y-94355518D01*
X242680442Y-94355518D01*
G37*
G36*
X164111938Y-95391716D02*
G01*
X164132557Y-95397971D01*
X164151553Y-95408124D01*
X164168208Y-95421792D01*
X164181876Y-95438447D01*
X164192029Y-95457443D01*
X164198284Y-95478062D01*
X164201000Y-95505640D01*
X164201000Y-95964360D01*
X164198284Y-95991938D01*
X164192029Y-96012557D01*
X164181876Y-96031553D01*
X164168208Y-96048208D01*
X164151553Y-96061876D01*
X164132557Y-96072029D01*
X164111938Y-96078284D01*
X164084360Y-96081000D01*
X163575640Y-96081000D01*
X163548062Y-96078284D01*
X163527443Y-96072029D01*
X163508447Y-96061876D01*
X163491792Y-96048208D01*
X163478124Y-96031553D01*
X163467971Y-96012557D01*
X163461716Y-95991938D01*
X163459000Y-95964360D01*
X163459000Y-95505640D01*
X163461716Y-95478062D01*
X163467971Y-95457443D01*
X163478124Y-95438447D01*
X163491792Y-95421792D01*
X163508447Y-95408124D01*
X163527443Y-95397971D01*
X163548062Y-95391716D01*
X163575640Y-95389000D01*
X164084360Y-95389000D01*
X164111938Y-95391716D01*
X164111938Y-95391716D01*
G37*
G36*
X141711938Y-94881716D02*
G01*
X141732557Y-94887971D01*
X141751553Y-94898124D01*
X141768208Y-94911792D01*
X141781876Y-94928447D01*
X141792029Y-94947443D01*
X141798284Y-94968062D01*
X141801000Y-94995640D01*
X141801000Y-95504360D01*
X141798284Y-95531938D01*
X141792029Y-95552557D01*
X141781876Y-95571553D01*
X141768208Y-95588208D01*
X141751553Y-95601876D01*
X141732557Y-95612029D01*
X141711938Y-95618284D01*
X141684360Y-95621000D01*
X141225640Y-95621000D01*
X141198062Y-95618284D01*
X141177443Y-95612029D01*
X141158447Y-95601876D01*
X141141792Y-95588208D01*
X141128124Y-95571553D01*
X141117971Y-95552557D01*
X141111716Y-95531938D01*
X141109000Y-95504360D01*
X141109000Y-94995640D01*
X141111716Y-94968062D01*
X141117971Y-94947443D01*
X141128124Y-94928447D01*
X141141792Y-94911792D01*
X141158447Y-94898124D01*
X141177443Y-94887971D01*
X141198062Y-94881716D01*
X141225640Y-94879000D01*
X141684360Y-94879000D01*
X141711938Y-94881716D01*
X141711938Y-94881716D01*
G37*
G36*
X140741938Y-94881716D02*
G01*
X140762557Y-94887971D01*
X140781553Y-94898124D01*
X140798208Y-94911792D01*
X140811876Y-94928447D01*
X140822029Y-94947443D01*
X140828284Y-94968062D01*
X140831000Y-94995640D01*
X140831000Y-95504360D01*
X140828284Y-95531938D01*
X140822029Y-95552557D01*
X140811876Y-95571553D01*
X140798208Y-95588208D01*
X140781553Y-95601876D01*
X140762557Y-95612029D01*
X140741938Y-95618284D01*
X140714360Y-95621000D01*
X140255640Y-95621000D01*
X140228062Y-95618284D01*
X140207443Y-95612029D01*
X140188447Y-95601876D01*
X140171792Y-95588208D01*
X140158124Y-95571553D01*
X140147971Y-95552557D01*
X140141716Y-95531938D01*
X140139000Y-95504360D01*
X140139000Y-94995640D01*
X140141716Y-94968062D01*
X140147971Y-94947443D01*
X140158124Y-94928447D01*
X140171792Y-94911792D01*
X140188447Y-94898124D01*
X140207443Y-94887971D01*
X140228062Y-94881716D01*
X140255640Y-94879000D01*
X140714360Y-94879000D01*
X140741938Y-94881716D01*
X140741938Y-94881716D01*
G37*
G36*
X164111938Y-94421716D02*
G01*
X164132557Y-94427971D01*
X164151553Y-94438124D01*
X164168208Y-94451792D01*
X164181876Y-94468447D01*
X164192029Y-94487443D01*
X164198284Y-94508062D01*
X164201000Y-94535640D01*
X164201000Y-94994360D01*
X164198284Y-95021938D01*
X164192029Y-95042557D01*
X164181876Y-95061553D01*
X164168208Y-95078208D01*
X164151553Y-95091876D01*
X164132557Y-95102029D01*
X164111938Y-95108284D01*
X164084360Y-95111000D01*
X163575640Y-95111000D01*
X163548062Y-95108284D01*
X163527443Y-95102029D01*
X163508447Y-95091876D01*
X163491792Y-95078208D01*
X163478124Y-95061553D01*
X163467971Y-95042557D01*
X163461716Y-95021938D01*
X163459000Y-94994360D01*
X163459000Y-94535640D01*
X163461716Y-94508062D01*
X163467971Y-94487443D01*
X163478124Y-94468447D01*
X163491792Y-94451792D01*
X163508447Y-94438124D01*
X163527443Y-94427971D01*
X163548062Y-94421716D01*
X163575640Y-94419000D01*
X164084360Y-94419000D01*
X164111938Y-94421716D01*
X164111938Y-94421716D01*
G37*
G36*
X147433512Y-91813927D02*
G01*
X147582812Y-91843624D01*
X147746784Y-91911544D01*
X147894354Y-92010147D01*
X148019853Y-92135646D01*
X148118456Y-92283216D01*
X148186376Y-92447188D01*
X148221000Y-92621259D01*
X148221000Y-92798741D01*
X148186376Y-92972812D01*
X148118456Y-93136784D01*
X148019853Y-93284354D01*
X147894354Y-93409853D01*
X147746784Y-93508456D01*
X147582812Y-93576376D01*
X147433512Y-93606073D01*
X147408742Y-93611000D01*
X147231258Y-93611000D01*
X147206488Y-93606073D01*
X147057188Y-93576376D01*
X146893216Y-93508456D01*
X146745646Y-93409853D01*
X146620147Y-93284354D01*
X146521544Y-93136784D01*
X146453624Y-92972812D01*
X146419000Y-92798741D01*
X146419000Y-92621259D01*
X146453624Y-92447188D01*
X146521544Y-92283216D01*
X146620147Y-92135646D01*
X146745646Y-92010147D01*
X146893216Y-91911544D01*
X147057188Y-91843624D01*
X147206488Y-91813927D01*
X147231258Y-91809000D01*
X147408742Y-91809000D01*
X147433512Y-91813927D01*
X147433512Y-91813927D01*
G37*
G36*
X109333512Y-91813927D02*
G01*
X109482812Y-91843624D01*
X109646784Y-91911544D01*
X109794354Y-92010147D01*
X109919853Y-92135646D01*
X110018456Y-92283216D01*
X110086376Y-92447188D01*
X110121000Y-92621259D01*
X110121000Y-92798741D01*
X110086376Y-92972812D01*
X110018456Y-93136784D01*
X109919853Y-93284354D01*
X109794354Y-93409853D01*
X109646784Y-93508456D01*
X109482812Y-93576376D01*
X109333512Y-93606073D01*
X109308742Y-93611000D01*
X109131258Y-93611000D01*
X109106488Y-93606073D01*
X108957188Y-93576376D01*
X108793216Y-93508456D01*
X108645646Y-93409853D01*
X108520147Y-93284354D01*
X108421544Y-93136784D01*
X108353624Y-92972812D01*
X108319000Y-92798741D01*
X108319000Y-92621259D01*
X108353624Y-92447188D01*
X108421544Y-92283216D01*
X108520147Y-92135646D01*
X108645646Y-92010147D01*
X108793216Y-91911544D01*
X108957188Y-91843624D01*
X109106488Y-91813927D01*
X109131258Y-91809000D01*
X109308742Y-91809000D01*
X109333512Y-91813927D01*
X109333512Y-91813927D01*
G37*
G36*
X115833512Y-91813927D02*
G01*
X115982812Y-91843624D01*
X116146784Y-91911544D01*
X116294354Y-92010147D01*
X116419853Y-92135646D01*
X116518456Y-92283216D01*
X116586376Y-92447188D01*
X116621000Y-92621259D01*
X116621000Y-92798741D01*
X116586376Y-92972812D01*
X116518456Y-93136784D01*
X116419853Y-93284354D01*
X116294354Y-93409853D01*
X116146784Y-93508456D01*
X115982812Y-93576376D01*
X115833512Y-93606073D01*
X115808742Y-93611000D01*
X115631258Y-93611000D01*
X115606488Y-93606073D01*
X115457188Y-93576376D01*
X115293216Y-93508456D01*
X115145646Y-93409853D01*
X115020147Y-93284354D01*
X114921544Y-93136784D01*
X114853624Y-92972812D01*
X114819000Y-92798741D01*
X114819000Y-92621259D01*
X114853624Y-92447188D01*
X114921544Y-92283216D01*
X115020147Y-92135646D01*
X115145646Y-92010147D01*
X115293216Y-91911544D01*
X115457188Y-91843624D01*
X115606488Y-91813927D01*
X115631258Y-91809000D01*
X115808742Y-91809000D01*
X115833512Y-91813927D01*
X115833512Y-91813927D01*
G37*
G36*
X128383512Y-91813927D02*
G01*
X128532812Y-91843624D01*
X128696784Y-91911544D01*
X128844354Y-92010147D01*
X128969853Y-92135646D01*
X129068456Y-92283216D01*
X129136376Y-92447188D01*
X129171000Y-92621259D01*
X129171000Y-92798741D01*
X129136376Y-92972812D01*
X129068456Y-93136784D01*
X128969853Y-93284354D01*
X128844354Y-93409853D01*
X128696784Y-93508456D01*
X128532812Y-93576376D01*
X128383512Y-93606073D01*
X128358742Y-93611000D01*
X128181258Y-93611000D01*
X128156488Y-93606073D01*
X128007188Y-93576376D01*
X127843216Y-93508456D01*
X127695646Y-93409853D01*
X127570147Y-93284354D01*
X127471544Y-93136784D01*
X127403624Y-92972812D01*
X127369000Y-92798741D01*
X127369000Y-92621259D01*
X127403624Y-92447188D01*
X127471544Y-92283216D01*
X127570147Y-92135646D01*
X127695646Y-92010147D01*
X127843216Y-91911544D01*
X128007188Y-91843624D01*
X128156488Y-91813927D01*
X128181258Y-91809000D01*
X128358742Y-91809000D01*
X128383512Y-91813927D01*
X128383512Y-91813927D01*
G37*
G36*
X153933512Y-91813927D02*
G01*
X154082812Y-91843624D01*
X154246784Y-91911544D01*
X154394354Y-92010147D01*
X154519853Y-92135646D01*
X154618456Y-92283216D01*
X154686376Y-92447188D01*
X154721000Y-92621259D01*
X154721000Y-92798741D01*
X154686376Y-92972812D01*
X154618456Y-93136784D01*
X154519853Y-93284354D01*
X154394354Y-93409853D01*
X154246784Y-93508456D01*
X154082812Y-93576376D01*
X153933512Y-93606073D01*
X153908742Y-93611000D01*
X153731258Y-93611000D01*
X153706488Y-93606073D01*
X153557188Y-93576376D01*
X153393216Y-93508456D01*
X153245646Y-93409853D01*
X153120147Y-93284354D01*
X153021544Y-93136784D01*
X152953624Y-92972812D01*
X152919000Y-92798741D01*
X152919000Y-92621259D01*
X152953624Y-92447188D01*
X153021544Y-92283216D01*
X153120147Y-92135646D01*
X153245646Y-92010147D01*
X153393216Y-91911544D01*
X153557188Y-91843624D01*
X153706488Y-91813927D01*
X153731258Y-91809000D01*
X153908742Y-91809000D01*
X153933512Y-91813927D01*
X153933512Y-91813927D01*
G37*
G36*
X242680442Y-91815518D02*
G01*
X242746627Y-91822037D01*
X242916466Y-91873557D01*
X243072991Y-91957222D01*
X243087781Y-91969360D01*
X243210186Y-92069814D01*
X243293448Y-92171271D01*
X243322778Y-92207009D01*
X243406443Y-92363534D01*
X243457963Y-92533373D01*
X243475359Y-92710000D01*
X243457963Y-92886627D01*
X243406443Y-93056466D01*
X243322778Y-93212991D01*
X243293448Y-93248729D01*
X243210186Y-93350186D01*
X243137480Y-93409853D01*
X243072991Y-93462778D01*
X242916466Y-93546443D01*
X242746627Y-93597963D01*
X242680442Y-93604482D01*
X242614260Y-93611000D01*
X242525740Y-93611000D01*
X242459557Y-93604481D01*
X242393373Y-93597963D01*
X242223534Y-93546443D01*
X242067009Y-93462778D01*
X242002520Y-93409853D01*
X241929814Y-93350186D01*
X241846552Y-93248729D01*
X241817222Y-93212991D01*
X241733557Y-93056466D01*
X241682037Y-92886627D01*
X241664641Y-92710000D01*
X241682037Y-92533373D01*
X241733557Y-92363534D01*
X241817222Y-92207009D01*
X241846552Y-92171271D01*
X241929814Y-92069814D01*
X242052219Y-91969360D01*
X242067009Y-91957222D01*
X242223534Y-91873557D01*
X242393373Y-91822037D01*
X242459558Y-91815518D01*
X242525740Y-91809000D01*
X242614260Y-91809000D01*
X242680442Y-91815518D01*
X242680442Y-91815518D01*
G37*
G36*
X134883512Y-91813927D02*
G01*
X135032812Y-91843624D01*
X135196784Y-91911544D01*
X135344354Y-92010147D01*
X135469853Y-92135646D01*
X135568456Y-92283216D01*
X135636376Y-92447188D01*
X135671000Y-92621259D01*
X135671000Y-92798741D01*
X135636376Y-92972812D01*
X135568456Y-93136784D01*
X135469853Y-93284354D01*
X135344354Y-93409853D01*
X135196784Y-93508456D01*
X135032812Y-93576376D01*
X134883512Y-93606073D01*
X134858742Y-93611000D01*
X134681258Y-93611000D01*
X134656488Y-93606073D01*
X134507188Y-93576376D01*
X134343216Y-93508456D01*
X134195646Y-93409853D01*
X134070147Y-93284354D01*
X133971544Y-93136784D01*
X133903624Y-92972812D01*
X133869000Y-92798741D01*
X133869000Y-92621259D01*
X133903624Y-92447188D01*
X133971544Y-92283216D01*
X134070147Y-92135646D01*
X134195646Y-92010147D01*
X134343216Y-91911544D01*
X134507188Y-91843624D01*
X134656488Y-91813927D01*
X134681258Y-91809000D01*
X134858742Y-91809000D01*
X134883512Y-91813927D01*
X134883512Y-91813927D01*
G37*
G36*
X104421938Y-92366716D02*
G01*
X104442557Y-92372971D01*
X104461553Y-92383124D01*
X104478208Y-92396792D01*
X104491876Y-92413447D01*
X104502029Y-92432443D01*
X104508284Y-92453062D01*
X104511000Y-92480640D01*
X104511000Y-92939360D01*
X104508284Y-92966938D01*
X104502029Y-92987557D01*
X104491876Y-93006553D01*
X104478208Y-93023208D01*
X104461553Y-93036876D01*
X104442557Y-93047029D01*
X104421938Y-93053284D01*
X104394360Y-93056000D01*
X103885640Y-93056000D01*
X103858062Y-93053284D01*
X103837443Y-93047029D01*
X103818447Y-93036876D01*
X103801792Y-93023208D01*
X103788124Y-93006553D01*
X103777971Y-92987557D01*
X103771716Y-92966938D01*
X103769000Y-92939360D01*
X103769000Y-92480640D01*
X103771716Y-92453062D01*
X103777971Y-92432443D01*
X103788124Y-92413447D01*
X103801792Y-92396792D01*
X103818447Y-92383124D01*
X103837443Y-92372971D01*
X103858062Y-92366716D01*
X103885640Y-92364000D01*
X104394360Y-92364000D01*
X104421938Y-92366716D01*
X104421938Y-92366716D01*
G37*
G36*
X104421938Y-91396716D02*
G01*
X104442557Y-91402971D01*
X104461553Y-91413124D01*
X104478208Y-91426792D01*
X104491876Y-91443447D01*
X104502029Y-91462443D01*
X104508284Y-91483062D01*
X104511000Y-91510640D01*
X104511000Y-91969360D01*
X104508284Y-91996938D01*
X104502029Y-92017557D01*
X104491876Y-92036553D01*
X104478208Y-92053208D01*
X104461553Y-92066876D01*
X104442557Y-92077029D01*
X104421938Y-92083284D01*
X104394360Y-92086000D01*
X103885640Y-92086000D01*
X103858062Y-92083284D01*
X103837443Y-92077029D01*
X103818447Y-92066876D01*
X103801792Y-92053208D01*
X103788124Y-92036553D01*
X103777971Y-92017557D01*
X103771716Y-91996938D01*
X103769000Y-91969360D01*
X103769000Y-91510640D01*
X103771716Y-91483062D01*
X103777971Y-91462443D01*
X103788124Y-91443447D01*
X103801792Y-91426792D01*
X103818447Y-91413124D01*
X103837443Y-91402971D01*
X103858062Y-91396716D01*
X103885640Y-91394000D01*
X104394360Y-91394000D01*
X104421938Y-91396716D01*
X104421938Y-91396716D01*
G37*
G36*
X163116938Y-91071716D02*
G01*
X163137557Y-91077971D01*
X163156553Y-91088124D01*
X163173208Y-91101792D01*
X163186876Y-91118447D01*
X163197029Y-91137443D01*
X163203284Y-91158062D01*
X163206000Y-91185640D01*
X163206000Y-91694360D01*
X163203284Y-91721938D01*
X163197029Y-91742557D01*
X163186876Y-91761553D01*
X163173208Y-91778208D01*
X163156553Y-91791876D01*
X163137557Y-91802029D01*
X163116938Y-91808284D01*
X163089360Y-91811000D01*
X162630640Y-91811000D01*
X162603062Y-91808284D01*
X162582443Y-91802029D01*
X162563447Y-91791876D01*
X162546792Y-91778208D01*
X162533124Y-91761553D01*
X162522971Y-91742557D01*
X162516716Y-91721938D01*
X162514000Y-91694360D01*
X162514000Y-91185640D01*
X162516716Y-91158062D01*
X162522971Y-91137443D01*
X162533124Y-91118447D01*
X162546792Y-91101792D01*
X162563447Y-91088124D01*
X162582443Y-91077971D01*
X162603062Y-91071716D01*
X162630640Y-91069000D01*
X163089360Y-91069000D01*
X163116938Y-91071716D01*
X163116938Y-91071716D01*
G37*
G36*
X164086938Y-91071716D02*
G01*
X164107557Y-91077971D01*
X164126553Y-91088124D01*
X164143208Y-91101792D01*
X164156876Y-91118447D01*
X164167029Y-91137443D01*
X164173284Y-91158062D01*
X164176000Y-91185640D01*
X164176000Y-91694360D01*
X164173284Y-91721938D01*
X164167029Y-91742557D01*
X164156876Y-91761553D01*
X164143208Y-91778208D01*
X164126553Y-91791876D01*
X164107557Y-91802029D01*
X164086938Y-91808284D01*
X164059360Y-91811000D01*
X163600640Y-91811000D01*
X163573062Y-91808284D01*
X163552443Y-91802029D01*
X163533447Y-91791876D01*
X163516792Y-91778208D01*
X163503124Y-91761553D01*
X163492971Y-91742557D01*
X163486716Y-91721938D01*
X163484000Y-91694360D01*
X163484000Y-91185640D01*
X163486716Y-91158062D01*
X163492971Y-91137443D01*
X163503124Y-91118447D01*
X163516792Y-91101792D01*
X163533447Y-91088124D01*
X163552443Y-91077971D01*
X163573062Y-91071716D01*
X163600640Y-91069000D01*
X164059360Y-91069000D01*
X164086938Y-91071716D01*
X164086938Y-91071716D01*
G37*
G36*
X242680443Y-89275519D02*
G01*
X242746627Y-89282037D01*
X242916466Y-89333557D01*
X242916468Y-89333558D01*
X242951286Y-89352169D01*
X243072991Y-89417222D01*
X243086199Y-89428062D01*
X243210186Y-89529814D01*
X243293448Y-89631271D01*
X243322778Y-89667009D01*
X243406443Y-89823534D01*
X243457963Y-89993373D01*
X243475359Y-90170000D01*
X243457963Y-90346627D01*
X243406443Y-90516466D01*
X243322778Y-90672991D01*
X243293448Y-90708729D01*
X243210186Y-90810186D01*
X243119803Y-90884360D01*
X243072991Y-90922778D01*
X243054696Y-90932557D01*
X242943433Y-90992029D01*
X242916466Y-91006443D01*
X242746627Y-91057963D01*
X242680442Y-91064482D01*
X242614260Y-91071000D01*
X242525740Y-91071000D01*
X242459558Y-91064482D01*
X242393373Y-91057963D01*
X242223534Y-91006443D01*
X242196568Y-90992029D01*
X242085304Y-90932557D01*
X242067009Y-90922778D01*
X242020197Y-90884360D01*
X241929814Y-90810186D01*
X241846552Y-90708729D01*
X241817222Y-90672991D01*
X241733557Y-90516466D01*
X241682037Y-90346627D01*
X241664641Y-90170000D01*
X241682037Y-89993373D01*
X241733557Y-89823534D01*
X241817222Y-89667009D01*
X241846552Y-89631271D01*
X241929814Y-89529814D01*
X242053801Y-89428062D01*
X242067009Y-89417222D01*
X242188714Y-89352169D01*
X242223532Y-89333558D01*
X242223534Y-89333557D01*
X242393373Y-89282037D01*
X242459557Y-89275519D01*
X242525740Y-89269000D01*
X242614260Y-89269000D01*
X242680443Y-89275519D01*
X242680443Y-89275519D01*
G37*
G36*
X99341938Y-90311716D02*
G01*
X99362557Y-90317971D01*
X99381553Y-90328124D01*
X99398208Y-90341792D01*
X99411876Y-90358447D01*
X99422029Y-90377443D01*
X99428284Y-90398062D01*
X99431000Y-90425640D01*
X99431000Y-90884360D01*
X99428284Y-90911938D01*
X99422029Y-90932557D01*
X99411876Y-90951553D01*
X99398208Y-90968208D01*
X99381553Y-90981876D01*
X99362557Y-90992029D01*
X99341938Y-90998284D01*
X99314360Y-91001000D01*
X98805640Y-91001000D01*
X98778062Y-90998284D01*
X98757443Y-90992029D01*
X98738447Y-90981876D01*
X98721792Y-90968208D01*
X98708124Y-90951553D01*
X98697971Y-90932557D01*
X98691716Y-90911938D01*
X98689000Y-90884360D01*
X98689000Y-90425640D01*
X98691716Y-90398062D01*
X98697971Y-90377443D01*
X98708124Y-90358447D01*
X98721792Y-90341792D01*
X98738447Y-90328124D01*
X98757443Y-90317971D01*
X98778062Y-90311716D01*
X98805640Y-90309000D01*
X99314360Y-90309000D01*
X99341938Y-90311716D01*
X99341938Y-90311716D01*
G37*
G36*
X99341938Y-89341716D02*
G01*
X99362557Y-89347971D01*
X99381553Y-89358124D01*
X99398208Y-89371792D01*
X99411876Y-89388447D01*
X99422029Y-89407443D01*
X99428284Y-89428062D01*
X99431000Y-89455640D01*
X99431000Y-89914360D01*
X99428284Y-89941938D01*
X99422029Y-89962557D01*
X99411876Y-89981553D01*
X99398208Y-89998208D01*
X99381553Y-90011876D01*
X99362557Y-90022029D01*
X99341938Y-90028284D01*
X99314360Y-90031000D01*
X98805640Y-90031000D01*
X98778062Y-90028284D01*
X98757443Y-90022029D01*
X98738447Y-90011876D01*
X98721792Y-89998208D01*
X98708124Y-89981553D01*
X98697971Y-89962557D01*
X98691716Y-89941938D01*
X98689000Y-89914360D01*
X98689000Y-89455640D01*
X98691716Y-89428062D01*
X98697971Y-89407443D01*
X98708124Y-89388447D01*
X98721792Y-89371792D01*
X98738447Y-89358124D01*
X98757443Y-89347971D01*
X98778062Y-89341716D01*
X98805640Y-89339000D01*
X99314360Y-89339000D01*
X99341938Y-89341716D01*
X99341938Y-89341716D01*
G37*
G36*
X207120443Y-88005519D02*
G01*
X207186627Y-88012037D01*
X207356466Y-88063557D01*
X207512991Y-88147222D01*
X207548729Y-88176552D01*
X207650186Y-88259814D01*
X207719570Y-88344360D01*
X207762778Y-88397009D01*
X207846443Y-88553534D01*
X207897963Y-88723373D01*
X207915359Y-88900000D01*
X207897963Y-89076627D01*
X207846443Y-89246466D01*
X207762778Y-89402991D01*
X207733448Y-89438729D01*
X207650186Y-89540186D01*
X207548729Y-89623448D01*
X207512991Y-89652778D01*
X207356466Y-89736443D01*
X207186627Y-89787963D01*
X207120443Y-89794481D01*
X207054260Y-89801000D01*
X206965740Y-89801000D01*
X206899557Y-89794481D01*
X206833373Y-89787963D01*
X206663534Y-89736443D01*
X206507009Y-89652778D01*
X206471271Y-89623448D01*
X206369814Y-89540186D01*
X206286552Y-89438729D01*
X206257222Y-89402991D01*
X206173557Y-89246466D01*
X206122037Y-89076627D01*
X206104641Y-88900000D01*
X206122037Y-88723373D01*
X206173557Y-88553534D01*
X206257222Y-88397009D01*
X206300430Y-88344360D01*
X206369814Y-88259814D01*
X206471271Y-88176552D01*
X206507009Y-88147222D01*
X206663534Y-88063557D01*
X206833373Y-88012037D01*
X206899558Y-88005518D01*
X206965740Y-87999000D01*
X207054260Y-87999000D01*
X207120443Y-88005519D01*
X207120443Y-88005519D01*
G37*
G36*
X185051000Y-89801000D02*
G01*
X183249000Y-89801000D01*
X183249000Y-87999000D01*
X185051000Y-87999000D01*
X185051000Y-89801000D01*
X185051000Y-89801000D01*
G37*
G36*
X186800443Y-88005519D02*
G01*
X186866627Y-88012037D01*
X187036466Y-88063557D01*
X187192991Y-88147222D01*
X187228729Y-88176552D01*
X187330186Y-88259814D01*
X187399570Y-88344360D01*
X187442778Y-88397009D01*
X187526443Y-88553534D01*
X187577963Y-88723373D01*
X187595359Y-88900000D01*
X187577963Y-89076627D01*
X187526443Y-89246466D01*
X187442778Y-89402991D01*
X187413448Y-89438729D01*
X187330186Y-89540186D01*
X187228729Y-89623448D01*
X187192991Y-89652778D01*
X187036466Y-89736443D01*
X186866627Y-89787963D01*
X186800443Y-89794481D01*
X186734260Y-89801000D01*
X186645740Y-89801000D01*
X186579557Y-89794481D01*
X186513373Y-89787963D01*
X186343534Y-89736443D01*
X186187009Y-89652778D01*
X186151271Y-89623448D01*
X186049814Y-89540186D01*
X185966552Y-89438729D01*
X185937222Y-89402991D01*
X185853557Y-89246466D01*
X185802037Y-89076627D01*
X185784641Y-88900000D01*
X185802037Y-88723373D01*
X185853557Y-88553534D01*
X185937222Y-88397009D01*
X185980430Y-88344360D01*
X186049814Y-88259814D01*
X186151271Y-88176552D01*
X186187009Y-88147222D01*
X186343534Y-88063557D01*
X186513373Y-88012037D01*
X186579558Y-88005518D01*
X186645740Y-87999000D01*
X186734260Y-87999000D01*
X186800443Y-88005519D01*
X186800443Y-88005519D01*
G37*
G36*
X189340443Y-88005519D02*
G01*
X189406627Y-88012037D01*
X189576466Y-88063557D01*
X189732991Y-88147222D01*
X189768729Y-88176552D01*
X189870186Y-88259814D01*
X189939570Y-88344360D01*
X189982778Y-88397009D01*
X190066443Y-88553534D01*
X190117963Y-88723373D01*
X190135359Y-88900000D01*
X190117963Y-89076627D01*
X190066443Y-89246466D01*
X189982778Y-89402991D01*
X189953448Y-89438729D01*
X189870186Y-89540186D01*
X189768729Y-89623448D01*
X189732991Y-89652778D01*
X189576466Y-89736443D01*
X189406627Y-89787963D01*
X189340443Y-89794481D01*
X189274260Y-89801000D01*
X189185740Y-89801000D01*
X189119557Y-89794481D01*
X189053373Y-89787963D01*
X188883534Y-89736443D01*
X188727009Y-89652778D01*
X188691271Y-89623448D01*
X188589814Y-89540186D01*
X188506552Y-89438729D01*
X188477222Y-89402991D01*
X188393557Y-89246466D01*
X188342037Y-89076627D01*
X188324641Y-88900000D01*
X188342037Y-88723373D01*
X188393557Y-88553534D01*
X188477222Y-88397009D01*
X188520430Y-88344360D01*
X188589814Y-88259814D01*
X188691271Y-88176552D01*
X188727009Y-88147222D01*
X188883534Y-88063557D01*
X189053373Y-88012037D01*
X189119558Y-88005518D01*
X189185740Y-87999000D01*
X189274260Y-87999000D01*
X189340443Y-88005519D01*
X189340443Y-88005519D01*
G37*
G36*
X191880443Y-88005519D02*
G01*
X191946627Y-88012037D01*
X192116466Y-88063557D01*
X192272991Y-88147222D01*
X192308729Y-88176552D01*
X192410186Y-88259814D01*
X192479570Y-88344360D01*
X192522778Y-88397009D01*
X192606443Y-88553534D01*
X192657963Y-88723373D01*
X192675359Y-88900000D01*
X192657963Y-89076627D01*
X192606443Y-89246466D01*
X192522778Y-89402991D01*
X192493448Y-89438729D01*
X192410186Y-89540186D01*
X192308729Y-89623448D01*
X192272991Y-89652778D01*
X192116466Y-89736443D01*
X191946627Y-89787963D01*
X191880443Y-89794481D01*
X191814260Y-89801000D01*
X191725740Y-89801000D01*
X191659557Y-89794481D01*
X191593373Y-89787963D01*
X191423534Y-89736443D01*
X191267009Y-89652778D01*
X191231271Y-89623448D01*
X191129814Y-89540186D01*
X191046552Y-89438729D01*
X191017222Y-89402991D01*
X190933557Y-89246466D01*
X190882037Y-89076627D01*
X190864641Y-88900000D01*
X190882037Y-88723373D01*
X190933557Y-88553534D01*
X191017222Y-88397009D01*
X191060430Y-88344360D01*
X191129814Y-88259814D01*
X191231271Y-88176552D01*
X191267009Y-88147222D01*
X191423534Y-88063557D01*
X191593373Y-88012037D01*
X191659558Y-88005518D01*
X191725740Y-87999000D01*
X191814260Y-87999000D01*
X191880443Y-88005519D01*
X191880443Y-88005519D01*
G37*
G36*
X194420443Y-88005519D02*
G01*
X194486627Y-88012037D01*
X194656466Y-88063557D01*
X194812991Y-88147222D01*
X194848729Y-88176552D01*
X194950186Y-88259814D01*
X195019570Y-88344360D01*
X195062778Y-88397009D01*
X195146443Y-88553534D01*
X195197963Y-88723373D01*
X195215359Y-88900000D01*
X195197963Y-89076627D01*
X195146443Y-89246466D01*
X195062778Y-89402991D01*
X195033448Y-89438729D01*
X194950186Y-89540186D01*
X194848729Y-89623448D01*
X194812991Y-89652778D01*
X194656466Y-89736443D01*
X194486627Y-89787963D01*
X194420443Y-89794481D01*
X194354260Y-89801000D01*
X194265740Y-89801000D01*
X194199557Y-89794481D01*
X194133373Y-89787963D01*
X193963534Y-89736443D01*
X193807009Y-89652778D01*
X193771271Y-89623448D01*
X193669814Y-89540186D01*
X193586552Y-89438729D01*
X193557222Y-89402991D01*
X193473557Y-89246466D01*
X193422037Y-89076627D01*
X193404641Y-88900000D01*
X193422037Y-88723373D01*
X193473557Y-88553534D01*
X193557222Y-88397009D01*
X193600430Y-88344360D01*
X193669814Y-88259814D01*
X193771271Y-88176552D01*
X193807009Y-88147222D01*
X193963534Y-88063557D01*
X194133373Y-88012037D01*
X194199558Y-88005518D01*
X194265740Y-87999000D01*
X194354260Y-87999000D01*
X194420443Y-88005519D01*
X194420443Y-88005519D01*
G37*
G36*
X196960443Y-88005519D02*
G01*
X197026627Y-88012037D01*
X197196466Y-88063557D01*
X197352991Y-88147222D01*
X197388729Y-88176552D01*
X197490186Y-88259814D01*
X197559570Y-88344360D01*
X197602778Y-88397009D01*
X197686443Y-88553534D01*
X197737963Y-88723373D01*
X197755359Y-88900000D01*
X197737963Y-89076627D01*
X197686443Y-89246466D01*
X197602778Y-89402991D01*
X197573448Y-89438729D01*
X197490186Y-89540186D01*
X197388729Y-89623448D01*
X197352991Y-89652778D01*
X197196466Y-89736443D01*
X197026627Y-89787963D01*
X196960443Y-89794481D01*
X196894260Y-89801000D01*
X196805740Y-89801000D01*
X196739557Y-89794481D01*
X196673373Y-89787963D01*
X196503534Y-89736443D01*
X196347009Y-89652778D01*
X196311271Y-89623448D01*
X196209814Y-89540186D01*
X196126552Y-89438729D01*
X196097222Y-89402991D01*
X196013557Y-89246466D01*
X195962037Y-89076627D01*
X195944641Y-88900000D01*
X195962037Y-88723373D01*
X196013557Y-88553534D01*
X196097222Y-88397009D01*
X196140430Y-88344360D01*
X196209814Y-88259814D01*
X196311271Y-88176552D01*
X196347009Y-88147222D01*
X196503534Y-88063557D01*
X196673373Y-88012037D01*
X196739558Y-88005518D01*
X196805740Y-87999000D01*
X196894260Y-87999000D01*
X196960443Y-88005519D01*
X196960443Y-88005519D01*
G37*
G36*
X199500443Y-88005519D02*
G01*
X199566627Y-88012037D01*
X199736466Y-88063557D01*
X199892991Y-88147222D01*
X199928729Y-88176552D01*
X200030186Y-88259814D01*
X200099570Y-88344360D01*
X200142778Y-88397009D01*
X200226443Y-88553534D01*
X200277963Y-88723373D01*
X200295359Y-88900000D01*
X200277963Y-89076627D01*
X200226443Y-89246466D01*
X200142778Y-89402991D01*
X200113448Y-89438729D01*
X200030186Y-89540186D01*
X199928729Y-89623448D01*
X199892991Y-89652778D01*
X199736466Y-89736443D01*
X199566627Y-89787963D01*
X199500443Y-89794481D01*
X199434260Y-89801000D01*
X199345740Y-89801000D01*
X199279557Y-89794481D01*
X199213373Y-89787963D01*
X199043534Y-89736443D01*
X198887009Y-89652778D01*
X198851271Y-89623448D01*
X198749814Y-89540186D01*
X198666552Y-89438729D01*
X198637222Y-89402991D01*
X198553557Y-89246466D01*
X198502037Y-89076627D01*
X198484641Y-88900000D01*
X198502037Y-88723373D01*
X198553557Y-88553534D01*
X198637222Y-88397009D01*
X198680430Y-88344360D01*
X198749814Y-88259814D01*
X198851271Y-88176552D01*
X198887009Y-88147222D01*
X199043534Y-88063557D01*
X199213373Y-88012037D01*
X199279558Y-88005518D01*
X199345740Y-87999000D01*
X199434260Y-87999000D01*
X199500443Y-88005519D01*
X199500443Y-88005519D01*
G37*
G36*
X202040443Y-88005519D02*
G01*
X202106627Y-88012037D01*
X202276466Y-88063557D01*
X202432991Y-88147222D01*
X202468729Y-88176552D01*
X202570186Y-88259814D01*
X202639570Y-88344360D01*
X202682778Y-88397009D01*
X202766443Y-88553534D01*
X202817963Y-88723373D01*
X202835359Y-88900000D01*
X202817963Y-89076627D01*
X202766443Y-89246466D01*
X202682778Y-89402991D01*
X202653448Y-89438729D01*
X202570186Y-89540186D01*
X202468729Y-89623448D01*
X202432991Y-89652778D01*
X202276466Y-89736443D01*
X202106627Y-89787963D01*
X202040443Y-89794481D01*
X201974260Y-89801000D01*
X201885740Y-89801000D01*
X201819557Y-89794481D01*
X201753373Y-89787963D01*
X201583534Y-89736443D01*
X201427009Y-89652778D01*
X201391271Y-89623448D01*
X201289814Y-89540186D01*
X201206552Y-89438729D01*
X201177222Y-89402991D01*
X201093557Y-89246466D01*
X201042037Y-89076627D01*
X201024641Y-88900000D01*
X201042037Y-88723373D01*
X201093557Y-88553534D01*
X201177222Y-88397009D01*
X201220430Y-88344360D01*
X201289814Y-88259814D01*
X201391271Y-88176552D01*
X201427009Y-88147222D01*
X201583534Y-88063557D01*
X201753373Y-88012037D01*
X201819558Y-88005518D01*
X201885740Y-87999000D01*
X201974260Y-87999000D01*
X202040443Y-88005519D01*
X202040443Y-88005519D01*
G37*
G36*
X204580443Y-88005519D02*
G01*
X204646627Y-88012037D01*
X204816466Y-88063557D01*
X204972991Y-88147222D01*
X205008729Y-88176552D01*
X205110186Y-88259814D01*
X205179570Y-88344360D01*
X205222778Y-88397009D01*
X205306443Y-88553534D01*
X205357963Y-88723373D01*
X205375359Y-88900000D01*
X205357963Y-89076627D01*
X205306443Y-89246466D01*
X205222778Y-89402991D01*
X205193448Y-89438729D01*
X205110186Y-89540186D01*
X205008729Y-89623448D01*
X204972991Y-89652778D01*
X204816466Y-89736443D01*
X204646627Y-89787963D01*
X204580443Y-89794481D01*
X204514260Y-89801000D01*
X204425740Y-89801000D01*
X204359557Y-89794481D01*
X204293373Y-89787963D01*
X204123534Y-89736443D01*
X203967009Y-89652778D01*
X203931271Y-89623448D01*
X203829814Y-89540186D01*
X203746552Y-89438729D01*
X203717222Y-89402991D01*
X203633557Y-89246466D01*
X203582037Y-89076627D01*
X203564641Y-88900000D01*
X203582037Y-88723373D01*
X203633557Y-88553534D01*
X203717222Y-88397009D01*
X203760430Y-88344360D01*
X203829814Y-88259814D01*
X203931271Y-88176552D01*
X203967009Y-88147222D01*
X204123534Y-88063557D01*
X204293373Y-88012037D01*
X204359558Y-88005518D01*
X204425740Y-87999000D01*
X204514260Y-87999000D01*
X204580443Y-88005519D01*
X204580443Y-88005519D01*
G37*
G36*
X209660443Y-88005519D02*
G01*
X209726627Y-88012037D01*
X209896466Y-88063557D01*
X210052991Y-88147222D01*
X210088729Y-88176552D01*
X210190186Y-88259814D01*
X210259570Y-88344360D01*
X210302778Y-88397009D01*
X210386443Y-88553534D01*
X210437963Y-88723373D01*
X210455359Y-88900000D01*
X210437963Y-89076627D01*
X210386443Y-89246466D01*
X210302778Y-89402991D01*
X210273448Y-89438729D01*
X210190186Y-89540186D01*
X210088729Y-89623448D01*
X210052991Y-89652778D01*
X209896466Y-89736443D01*
X209726627Y-89787963D01*
X209660443Y-89794481D01*
X209594260Y-89801000D01*
X209505740Y-89801000D01*
X209439557Y-89794481D01*
X209373373Y-89787963D01*
X209203534Y-89736443D01*
X209047009Y-89652778D01*
X209011271Y-89623448D01*
X208909814Y-89540186D01*
X208826552Y-89438729D01*
X208797222Y-89402991D01*
X208713557Y-89246466D01*
X208662037Y-89076627D01*
X208644641Y-88900000D01*
X208662037Y-88723373D01*
X208713557Y-88553534D01*
X208797222Y-88397009D01*
X208840430Y-88344360D01*
X208909814Y-88259814D01*
X209011271Y-88176552D01*
X209047009Y-88147222D01*
X209203534Y-88063557D01*
X209373373Y-88012037D01*
X209439558Y-88005518D01*
X209505740Y-87999000D01*
X209594260Y-87999000D01*
X209660443Y-88005519D01*
X209660443Y-88005519D01*
G37*
G36*
X212200443Y-88005519D02*
G01*
X212266627Y-88012037D01*
X212436466Y-88063557D01*
X212592991Y-88147222D01*
X212628729Y-88176552D01*
X212730186Y-88259814D01*
X212799570Y-88344360D01*
X212842778Y-88397009D01*
X212926443Y-88553534D01*
X212977963Y-88723373D01*
X212995359Y-88900000D01*
X212977963Y-89076627D01*
X212926443Y-89246466D01*
X212842778Y-89402991D01*
X212813448Y-89438729D01*
X212730186Y-89540186D01*
X212628729Y-89623448D01*
X212592991Y-89652778D01*
X212436466Y-89736443D01*
X212266627Y-89787963D01*
X212200443Y-89794481D01*
X212134260Y-89801000D01*
X212045740Y-89801000D01*
X211979557Y-89794481D01*
X211913373Y-89787963D01*
X211743534Y-89736443D01*
X211587009Y-89652778D01*
X211551271Y-89623448D01*
X211449814Y-89540186D01*
X211366552Y-89438729D01*
X211337222Y-89402991D01*
X211253557Y-89246466D01*
X211202037Y-89076627D01*
X211184641Y-88900000D01*
X211202037Y-88723373D01*
X211253557Y-88553534D01*
X211337222Y-88397009D01*
X211380430Y-88344360D01*
X211449814Y-88259814D01*
X211551271Y-88176552D01*
X211587009Y-88147222D01*
X211743534Y-88063557D01*
X211913373Y-88012037D01*
X211979558Y-88005518D01*
X212045740Y-87999000D01*
X212134260Y-87999000D01*
X212200443Y-88005519D01*
X212200443Y-88005519D01*
G37*
G36*
X214740443Y-88005519D02*
G01*
X214806627Y-88012037D01*
X214976466Y-88063557D01*
X215132991Y-88147222D01*
X215168729Y-88176552D01*
X215270186Y-88259814D01*
X215339570Y-88344360D01*
X215382778Y-88397009D01*
X215466443Y-88553534D01*
X215517963Y-88723373D01*
X215535359Y-88900000D01*
X215517963Y-89076627D01*
X215466443Y-89246466D01*
X215382778Y-89402991D01*
X215353448Y-89438729D01*
X215270186Y-89540186D01*
X215168729Y-89623448D01*
X215132991Y-89652778D01*
X214976466Y-89736443D01*
X214806627Y-89787963D01*
X214740443Y-89794481D01*
X214674260Y-89801000D01*
X214585740Y-89801000D01*
X214519557Y-89794481D01*
X214453373Y-89787963D01*
X214283534Y-89736443D01*
X214127009Y-89652778D01*
X214091271Y-89623448D01*
X213989814Y-89540186D01*
X213906552Y-89438729D01*
X213877222Y-89402991D01*
X213793557Y-89246466D01*
X213742037Y-89076627D01*
X213724641Y-88900000D01*
X213742037Y-88723373D01*
X213793557Y-88553534D01*
X213877222Y-88397009D01*
X213920430Y-88344360D01*
X213989814Y-88259814D01*
X214091271Y-88176552D01*
X214127009Y-88147222D01*
X214283534Y-88063557D01*
X214453373Y-88012037D01*
X214519558Y-88005518D01*
X214585740Y-87999000D01*
X214674260Y-87999000D01*
X214740443Y-88005519D01*
X214740443Y-88005519D01*
G37*
G36*
X217280443Y-88005519D02*
G01*
X217346627Y-88012037D01*
X217516466Y-88063557D01*
X217672991Y-88147222D01*
X217708729Y-88176552D01*
X217810186Y-88259814D01*
X217879570Y-88344360D01*
X217922778Y-88397009D01*
X218006443Y-88553534D01*
X218057963Y-88723373D01*
X218075359Y-88900000D01*
X218057963Y-89076627D01*
X218006443Y-89246466D01*
X217922778Y-89402991D01*
X217893448Y-89438729D01*
X217810186Y-89540186D01*
X217708729Y-89623448D01*
X217672991Y-89652778D01*
X217516466Y-89736443D01*
X217346627Y-89787963D01*
X217280443Y-89794481D01*
X217214260Y-89801000D01*
X217125740Y-89801000D01*
X217059557Y-89794481D01*
X216993373Y-89787963D01*
X216823534Y-89736443D01*
X216667009Y-89652778D01*
X216631271Y-89623448D01*
X216529814Y-89540186D01*
X216446552Y-89438729D01*
X216417222Y-89402991D01*
X216333557Y-89246466D01*
X216282037Y-89076627D01*
X216264641Y-88900000D01*
X216282037Y-88723373D01*
X216333557Y-88553534D01*
X216417222Y-88397009D01*
X216460430Y-88344360D01*
X216529814Y-88259814D01*
X216631271Y-88176552D01*
X216667009Y-88147222D01*
X216823534Y-88063557D01*
X216993373Y-88012037D01*
X217059558Y-88005518D01*
X217125740Y-87999000D01*
X217214260Y-87999000D01*
X217280443Y-88005519D01*
X217280443Y-88005519D01*
G37*
G36*
X219820443Y-88005519D02*
G01*
X219886627Y-88012037D01*
X220056466Y-88063557D01*
X220212991Y-88147222D01*
X220248729Y-88176552D01*
X220350186Y-88259814D01*
X220419570Y-88344360D01*
X220462778Y-88397009D01*
X220546443Y-88553534D01*
X220597963Y-88723373D01*
X220615359Y-88900000D01*
X220597963Y-89076627D01*
X220546443Y-89246466D01*
X220462778Y-89402991D01*
X220433448Y-89438729D01*
X220350186Y-89540186D01*
X220248729Y-89623448D01*
X220212991Y-89652778D01*
X220056466Y-89736443D01*
X219886627Y-89787963D01*
X219820443Y-89794481D01*
X219754260Y-89801000D01*
X219665740Y-89801000D01*
X219599557Y-89794481D01*
X219533373Y-89787963D01*
X219363534Y-89736443D01*
X219207009Y-89652778D01*
X219171271Y-89623448D01*
X219069814Y-89540186D01*
X218986552Y-89438729D01*
X218957222Y-89402991D01*
X218873557Y-89246466D01*
X218822037Y-89076627D01*
X218804641Y-88900000D01*
X218822037Y-88723373D01*
X218873557Y-88553534D01*
X218957222Y-88397009D01*
X219000430Y-88344360D01*
X219069814Y-88259814D01*
X219171271Y-88176552D01*
X219207009Y-88147222D01*
X219363534Y-88063557D01*
X219533373Y-88012037D01*
X219599558Y-88005518D01*
X219665740Y-87999000D01*
X219754260Y-87999000D01*
X219820443Y-88005519D01*
X219820443Y-88005519D01*
G37*
G36*
X222360443Y-88005519D02*
G01*
X222426627Y-88012037D01*
X222596466Y-88063557D01*
X222752991Y-88147222D01*
X222788729Y-88176552D01*
X222890186Y-88259814D01*
X222959570Y-88344360D01*
X223002778Y-88397009D01*
X223086443Y-88553534D01*
X223137963Y-88723373D01*
X223155359Y-88900000D01*
X223137963Y-89076627D01*
X223086443Y-89246466D01*
X223002778Y-89402991D01*
X222973448Y-89438729D01*
X222890186Y-89540186D01*
X222788729Y-89623448D01*
X222752991Y-89652778D01*
X222596466Y-89736443D01*
X222426627Y-89787963D01*
X222360443Y-89794481D01*
X222294260Y-89801000D01*
X222205740Y-89801000D01*
X222139557Y-89794481D01*
X222073373Y-89787963D01*
X221903534Y-89736443D01*
X221747009Y-89652778D01*
X221711271Y-89623448D01*
X221609814Y-89540186D01*
X221526552Y-89438729D01*
X221497222Y-89402991D01*
X221413557Y-89246466D01*
X221362037Y-89076627D01*
X221344641Y-88900000D01*
X221362037Y-88723373D01*
X221413557Y-88553534D01*
X221497222Y-88397009D01*
X221540430Y-88344360D01*
X221609814Y-88259814D01*
X221711271Y-88176552D01*
X221747009Y-88147222D01*
X221903534Y-88063557D01*
X222073373Y-88012037D01*
X222139558Y-88005518D01*
X222205740Y-87999000D01*
X222294260Y-87999000D01*
X222360443Y-88005519D01*
X222360443Y-88005519D01*
G37*
G36*
X242680442Y-86735518D02*
G01*
X242746627Y-86742037D01*
X242916466Y-86793557D01*
X242916468Y-86793558D01*
X242951286Y-86812169D01*
X243072991Y-86877222D01*
X243086199Y-86888062D01*
X243210186Y-86989814D01*
X243293448Y-87091271D01*
X243322778Y-87127009D01*
X243406443Y-87283534D01*
X243457963Y-87453373D01*
X243475359Y-87630000D01*
X243457963Y-87806627D01*
X243406443Y-87976466D01*
X243322778Y-88132991D01*
X243293448Y-88168729D01*
X243210186Y-88270186D01*
X243119803Y-88344360D01*
X243072991Y-88382778D01*
X243054696Y-88392557D01*
X242943433Y-88452029D01*
X242916466Y-88466443D01*
X242746627Y-88517963D01*
X242680442Y-88524482D01*
X242614260Y-88531000D01*
X242525740Y-88531000D01*
X242459558Y-88524482D01*
X242393373Y-88517963D01*
X242223534Y-88466443D01*
X242196568Y-88452029D01*
X242085304Y-88392557D01*
X242067009Y-88382778D01*
X242020197Y-88344360D01*
X241929814Y-88270186D01*
X241846552Y-88168729D01*
X241817222Y-88132991D01*
X241733557Y-87976466D01*
X241682037Y-87806627D01*
X241664641Y-87630000D01*
X241682037Y-87453373D01*
X241733557Y-87283534D01*
X241817222Y-87127009D01*
X241846552Y-87091271D01*
X241929814Y-86989814D01*
X242053801Y-86888062D01*
X242067009Y-86877222D01*
X242188714Y-86812169D01*
X242223532Y-86793558D01*
X242223534Y-86793557D01*
X242393373Y-86742037D01*
X242459558Y-86735518D01*
X242525740Y-86729000D01*
X242614260Y-86729000D01*
X242680442Y-86735518D01*
X242680442Y-86735518D01*
G37*
G36*
X161571938Y-87771716D02*
G01*
X161592557Y-87777971D01*
X161611553Y-87788124D01*
X161628208Y-87801792D01*
X161641876Y-87818447D01*
X161652029Y-87837443D01*
X161658284Y-87858062D01*
X161661000Y-87885640D01*
X161661000Y-88344360D01*
X161658284Y-88371938D01*
X161652029Y-88392557D01*
X161641876Y-88411553D01*
X161628208Y-88428208D01*
X161611553Y-88441876D01*
X161592557Y-88452029D01*
X161571938Y-88458284D01*
X161544360Y-88461000D01*
X161035640Y-88461000D01*
X161008062Y-88458284D01*
X160987443Y-88452029D01*
X160968447Y-88441876D01*
X160951792Y-88428208D01*
X160938124Y-88411553D01*
X160927971Y-88392557D01*
X160921716Y-88371938D01*
X160919000Y-88344360D01*
X160919000Y-87885640D01*
X160921716Y-87858062D01*
X160927971Y-87837443D01*
X160938124Y-87818447D01*
X160951792Y-87801792D01*
X160968447Y-87788124D01*
X160987443Y-87777971D01*
X161008062Y-87771716D01*
X161035640Y-87769000D01*
X161544360Y-87769000D01*
X161571938Y-87771716D01*
X161571938Y-87771716D01*
G37*
G36*
X161571938Y-86801716D02*
G01*
X161592557Y-86807971D01*
X161611553Y-86818124D01*
X161628208Y-86831792D01*
X161641876Y-86848447D01*
X161652029Y-86867443D01*
X161658284Y-86888062D01*
X161661000Y-86915640D01*
X161661000Y-87374360D01*
X161658284Y-87401938D01*
X161652029Y-87422557D01*
X161641876Y-87441553D01*
X161628208Y-87458208D01*
X161611553Y-87471876D01*
X161592557Y-87482029D01*
X161571938Y-87488284D01*
X161544360Y-87491000D01*
X161035640Y-87491000D01*
X161008062Y-87488284D01*
X160987443Y-87482029D01*
X160968447Y-87471876D01*
X160951792Y-87458208D01*
X160938124Y-87441553D01*
X160927971Y-87422557D01*
X160921716Y-87401938D01*
X160919000Y-87374360D01*
X160919000Y-86915640D01*
X160921716Y-86888062D01*
X160927971Y-86867443D01*
X160938124Y-86848447D01*
X160951792Y-86831792D01*
X160968447Y-86818124D01*
X160987443Y-86807971D01*
X161008062Y-86801716D01*
X161035640Y-86799000D01*
X161544360Y-86799000D01*
X161571938Y-86801716D01*
X161571938Y-86801716D01*
G37*
G36*
X242680442Y-84195518D02*
G01*
X242746627Y-84202037D01*
X242916466Y-84253557D01*
X243072991Y-84337222D01*
X243108729Y-84366552D01*
X243210186Y-84449814D01*
X243293448Y-84551271D01*
X243322778Y-84587009D01*
X243406443Y-84743534D01*
X243457963Y-84913373D01*
X243475359Y-85090000D01*
X243457963Y-85266627D01*
X243406443Y-85436466D01*
X243322778Y-85592991D01*
X243293448Y-85628729D01*
X243210186Y-85730186D01*
X243108729Y-85813448D01*
X243072991Y-85842778D01*
X242916466Y-85926443D01*
X242746627Y-85977963D01*
X242680442Y-85984482D01*
X242614260Y-85991000D01*
X242525740Y-85991000D01*
X242459558Y-85984482D01*
X242393373Y-85977963D01*
X242223534Y-85926443D01*
X242067009Y-85842778D01*
X242031271Y-85813448D01*
X241929814Y-85730186D01*
X241846552Y-85628729D01*
X241817222Y-85592991D01*
X241733557Y-85436466D01*
X241682037Y-85266627D01*
X241664641Y-85090000D01*
X241682037Y-84913373D01*
X241733557Y-84743534D01*
X241817222Y-84587009D01*
X241846552Y-84551271D01*
X241929814Y-84449814D01*
X242031271Y-84366552D01*
X242067009Y-84337222D01*
X242223534Y-84253557D01*
X242393373Y-84202037D01*
X242459558Y-84195518D01*
X242525740Y-84189000D01*
X242614260Y-84189000D01*
X242680442Y-84195518D01*
X242680442Y-84195518D01*
G37*
G36*
X242680443Y-81655519D02*
G01*
X242746627Y-81662037D01*
X242916466Y-81713557D01*
X243072991Y-81797222D01*
X243108729Y-81826552D01*
X243210186Y-81909814D01*
X243293448Y-82011271D01*
X243322778Y-82047009D01*
X243406443Y-82203534D01*
X243457963Y-82373373D01*
X243475359Y-82550000D01*
X243457963Y-82726627D01*
X243406443Y-82896466D01*
X243322778Y-83052991D01*
X243293448Y-83088729D01*
X243210186Y-83190186D01*
X243108729Y-83273448D01*
X243072991Y-83302778D01*
X242916466Y-83386443D01*
X242746627Y-83437963D01*
X242680443Y-83444481D01*
X242614260Y-83451000D01*
X242525740Y-83451000D01*
X242459557Y-83444481D01*
X242393373Y-83437963D01*
X242223534Y-83386443D01*
X242067009Y-83302778D01*
X242031271Y-83273448D01*
X241929814Y-83190186D01*
X241846552Y-83088729D01*
X241817222Y-83052991D01*
X241733557Y-82896466D01*
X241682037Y-82726627D01*
X241664641Y-82550000D01*
X241682037Y-82373373D01*
X241733557Y-82203534D01*
X241817222Y-82047009D01*
X241846552Y-82011271D01*
X241929814Y-81909814D01*
X242031271Y-81826552D01*
X242067009Y-81797222D01*
X242223534Y-81713557D01*
X242393373Y-81662037D01*
X242459557Y-81655519D01*
X242525740Y-81649000D01*
X242614260Y-81649000D01*
X242680443Y-81655519D01*
X242680443Y-81655519D01*
G37*
G36*
X134883512Y-79803927D02*
G01*
X135032812Y-79833624D01*
X135196784Y-79901544D01*
X135344354Y-80000147D01*
X135469853Y-80125646D01*
X135568456Y-80273216D01*
X135636376Y-80437188D01*
X135671000Y-80611259D01*
X135671000Y-80788741D01*
X135636376Y-80962812D01*
X135568456Y-81126784D01*
X135469853Y-81274354D01*
X135344354Y-81399853D01*
X135196784Y-81498456D01*
X135032812Y-81566376D01*
X134883512Y-81596073D01*
X134858742Y-81601000D01*
X134681258Y-81601000D01*
X134656488Y-81596073D01*
X134507188Y-81566376D01*
X134343216Y-81498456D01*
X134195646Y-81399853D01*
X134070147Y-81274354D01*
X133971544Y-81126784D01*
X133903624Y-80962812D01*
X133869000Y-80788741D01*
X133869000Y-80611259D01*
X133903624Y-80437188D01*
X133971544Y-80273216D01*
X134070147Y-80125646D01*
X134195646Y-80000147D01*
X134343216Y-79901544D01*
X134507188Y-79833624D01*
X134656488Y-79803927D01*
X134681258Y-79799000D01*
X134858742Y-79799000D01*
X134883512Y-79803927D01*
X134883512Y-79803927D01*
G37*
G36*
X128383512Y-79803927D02*
G01*
X128532812Y-79833624D01*
X128696784Y-79901544D01*
X128844354Y-80000147D01*
X128969853Y-80125646D01*
X129068456Y-80273216D01*
X129136376Y-80437188D01*
X129171000Y-80611259D01*
X129171000Y-80788741D01*
X129136376Y-80962812D01*
X129068456Y-81126784D01*
X128969853Y-81274354D01*
X128844354Y-81399853D01*
X128696784Y-81498456D01*
X128532812Y-81566376D01*
X128383512Y-81596073D01*
X128358742Y-81601000D01*
X128181258Y-81601000D01*
X128156488Y-81596073D01*
X128007188Y-81566376D01*
X127843216Y-81498456D01*
X127695646Y-81399853D01*
X127570147Y-81274354D01*
X127471544Y-81126784D01*
X127403624Y-80962812D01*
X127369000Y-80788741D01*
X127369000Y-80611259D01*
X127403624Y-80437188D01*
X127471544Y-80273216D01*
X127570147Y-80125646D01*
X127695646Y-80000147D01*
X127843216Y-79901544D01*
X128007188Y-79833624D01*
X128156488Y-79803927D01*
X128181258Y-79799000D01*
X128358742Y-79799000D01*
X128383512Y-79803927D01*
X128383512Y-79803927D01*
G37*
G36*
X242680443Y-79115519D02*
G01*
X242746627Y-79122037D01*
X242916466Y-79173557D01*
X243072991Y-79257222D01*
X243108729Y-79286552D01*
X243210186Y-79369814D01*
X243293448Y-79471271D01*
X243322778Y-79507009D01*
X243406443Y-79663534D01*
X243457963Y-79833373D01*
X243475359Y-80010000D01*
X243457963Y-80186627D01*
X243406443Y-80356466D01*
X243322778Y-80512991D01*
X243293448Y-80548729D01*
X243210186Y-80650186D01*
X243108729Y-80733448D01*
X243072991Y-80762778D01*
X242916466Y-80846443D01*
X242746627Y-80897963D01*
X242680442Y-80904482D01*
X242614260Y-80911000D01*
X242525740Y-80911000D01*
X242459558Y-80904482D01*
X242393373Y-80897963D01*
X242223534Y-80846443D01*
X242067009Y-80762778D01*
X242031271Y-80733448D01*
X241929814Y-80650186D01*
X241846552Y-80548729D01*
X241817222Y-80512991D01*
X241733557Y-80356466D01*
X241682037Y-80186627D01*
X241664641Y-80010000D01*
X241682037Y-79833373D01*
X241733557Y-79663534D01*
X241817222Y-79507009D01*
X241846552Y-79471271D01*
X241929814Y-79369814D01*
X242031271Y-79286552D01*
X242067009Y-79257222D01*
X242223534Y-79173557D01*
X242393373Y-79122037D01*
X242459557Y-79115519D01*
X242525740Y-79109000D01*
X242614260Y-79109000D01*
X242680443Y-79115519D01*
X242680443Y-79115519D01*
G37*
G36*
X242680443Y-76575519D02*
G01*
X242746627Y-76582037D01*
X242916466Y-76633557D01*
X243072991Y-76717222D01*
X243108729Y-76746552D01*
X243210186Y-76829814D01*
X243293448Y-76931271D01*
X243322778Y-76967009D01*
X243406443Y-77123534D01*
X243457963Y-77293373D01*
X243475359Y-77470000D01*
X243457963Y-77646627D01*
X243406443Y-77816466D01*
X243322778Y-77972991D01*
X243293448Y-78008729D01*
X243210186Y-78110186D01*
X243108729Y-78193448D01*
X243072991Y-78222778D01*
X242916466Y-78306443D01*
X242746627Y-78357963D01*
X242680443Y-78364481D01*
X242614260Y-78371000D01*
X242525740Y-78371000D01*
X242459557Y-78364481D01*
X242393373Y-78357963D01*
X242223534Y-78306443D01*
X242067009Y-78222778D01*
X242031271Y-78193448D01*
X241929814Y-78110186D01*
X241846552Y-78008729D01*
X241817222Y-77972991D01*
X241733557Y-77816466D01*
X241682037Y-77646627D01*
X241664641Y-77470000D01*
X241682037Y-77293373D01*
X241733557Y-77123534D01*
X241817222Y-76967009D01*
X241846552Y-76931271D01*
X241929814Y-76829814D01*
X242031271Y-76746552D01*
X242067009Y-76717222D01*
X242223534Y-76633557D01*
X242393373Y-76582037D01*
X242459557Y-76575519D01*
X242525740Y-76569000D01*
X242614260Y-76569000D01*
X242680443Y-76575519D01*
X242680443Y-76575519D01*
G37*
G36*
X128383512Y-75303927D02*
G01*
X128532812Y-75333624D01*
X128696784Y-75401544D01*
X128844354Y-75500147D01*
X128969853Y-75625646D01*
X129068456Y-75773216D01*
X129136376Y-75937188D01*
X129171000Y-76111259D01*
X129171000Y-76288741D01*
X129136376Y-76462812D01*
X129068456Y-76626784D01*
X128969853Y-76774354D01*
X128844354Y-76899853D01*
X128696784Y-76998456D01*
X128532812Y-77066376D01*
X128383512Y-77096073D01*
X128358742Y-77101000D01*
X128181258Y-77101000D01*
X128156488Y-77096073D01*
X128007188Y-77066376D01*
X127843216Y-76998456D01*
X127695646Y-76899853D01*
X127570147Y-76774354D01*
X127471544Y-76626784D01*
X127403624Y-76462812D01*
X127369000Y-76288741D01*
X127369000Y-76111259D01*
X127403624Y-75937188D01*
X127471544Y-75773216D01*
X127570147Y-75625646D01*
X127695646Y-75500147D01*
X127843216Y-75401544D01*
X128007188Y-75333624D01*
X128156488Y-75303927D01*
X128181258Y-75299000D01*
X128358742Y-75299000D01*
X128383512Y-75303927D01*
X128383512Y-75303927D01*
G37*
G36*
X134883512Y-75303927D02*
G01*
X135032812Y-75333624D01*
X135196784Y-75401544D01*
X135344354Y-75500147D01*
X135469853Y-75625646D01*
X135568456Y-75773216D01*
X135636376Y-75937188D01*
X135671000Y-76111259D01*
X135671000Y-76288741D01*
X135636376Y-76462812D01*
X135568456Y-76626784D01*
X135469853Y-76774354D01*
X135344354Y-76899853D01*
X135196784Y-76998456D01*
X135032812Y-77066376D01*
X134883512Y-77096073D01*
X134858742Y-77101000D01*
X134681258Y-77101000D01*
X134656488Y-77096073D01*
X134507188Y-77066376D01*
X134343216Y-76998456D01*
X134195646Y-76899853D01*
X134070147Y-76774354D01*
X133971544Y-76626784D01*
X133903624Y-76462812D01*
X133869000Y-76288741D01*
X133869000Y-76111259D01*
X133903624Y-75937188D01*
X133971544Y-75773216D01*
X134070147Y-75625646D01*
X134195646Y-75500147D01*
X134343216Y-75401544D01*
X134507188Y-75333624D01*
X134656488Y-75303927D01*
X134681258Y-75299000D01*
X134858742Y-75299000D01*
X134883512Y-75303927D01*
X134883512Y-75303927D01*
G37*
G36*
X242680442Y-74035518D02*
G01*
X242746627Y-74042037D01*
X242916466Y-74093557D01*
X242916468Y-74093558D01*
X242951286Y-74112169D01*
X243072991Y-74177222D01*
X243086199Y-74188062D01*
X243210186Y-74289814D01*
X243293448Y-74391271D01*
X243322778Y-74427009D01*
X243406443Y-74583534D01*
X243457963Y-74753373D01*
X243475359Y-74930000D01*
X243457963Y-75106627D01*
X243406443Y-75276466D01*
X243322778Y-75432991D01*
X243293448Y-75468729D01*
X243210186Y-75570186D01*
X243119803Y-75644360D01*
X243072991Y-75682778D01*
X243054696Y-75692557D01*
X242943433Y-75752029D01*
X242916466Y-75766443D01*
X242746627Y-75817963D01*
X242680442Y-75824482D01*
X242614260Y-75831000D01*
X242525740Y-75831000D01*
X242459558Y-75824482D01*
X242393373Y-75817963D01*
X242223534Y-75766443D01*
X242196568Y-75752029D01*
X242085304Y-75692557D01*
X242067009Y-75682778D01*
X242020197Y-75644360D01*
X241929814Y-75570186D01*
X241846552Y-75468729D01*
X241817222Y-75432991D01*
X241733557Y-75276466D01*
X241682037Y-75106627D01*
X241664641Y-74930000D01*
X241682037Y-74753373D01*
X241733557Y-74583534D01*
X241817222Y-74427009D01*
X241846552Y-74391271D01*
X241929814Y-74289814D01*
X242053801Y-74188062D01*
X242067009Y-74177222D01*
X242188714Y-74112169D01*
X242223532Y-74093558D01*
X242223534Y-74093557D01*
X242393373Y-74042037D01*
X242459558Y-74035518D01*
X242525740Y-74029000D01*
X242614260Y-74029000D01*
X242680442Y-74035518D01*
X242680442Y-74035518D01*
G37*
G36*
X141251938Y-75071716D02*
G01*
X141272557Y-75077971D01*
X141291553Y-75088124D01*
X141308208Y-75101792D01*
X141321876Y-75118447D01*
X141332029Y-75137443D01*
X141338284Y-75158062D01*
X141341000Y-75185640D01*
X141341000Y-75644360D01*
X141338284Y-75671938D01*
X141332029Y-75692557D01*
X141321876Y-75711553D01*
X141308208Y-75728208D01*
X141291553Y-75741876D01*
X141272557Y-75752029D01*
X141251938Y-75758284D01*
X141224360Y-75761000D01*
X140715640Y-75761000D01*
X140688062Y-75758284D01*
X140667443Y-75752029D01*
X140648447Y-75741876D01*
X140631792Y-75728208D01*
X140618124Y-75711553D01*
X140607971Y-75692557D01*
X140601716Y-75671938D01*
X140599000Y-75644360D01*
X140599000Y-75185640D01*
X140601716Y-75158062D01*
X140607971Y-75137443D01*
X140618124Y-75118447D01*
X140631792Y-75101792D01*
X140648447Y-75088124D01*
X140667443Y-75077971D01*
X140688062Y-75071716D01*
X140715640Y-75069000D01*
X141224360Y-75069000D01*
X141251938Y-75071716D01*
X141251938Y-75071716D01*
G37*
G36*
X141251938Y-74101716D02*
G01*
X141272557Y-74107971D01*
X141291553Y-74118124D01*
X141308208Y-74131792D01*
X141321876Y-74148447D01*
X141332029Y-74167443D01*
X141338284Y-74188062D01*
X141341000Y-74215640D01*
X141341000Y-74674360D01*
X141338284Y-74701938D01*
X141332029Y-74722557D01*
X141321876Y-74741553D01*
X141308208Y-74758208D01*
X141291553Y-74771876D01*
X141272557Y-74782029D01*
X141251938Y-74788284D01*
X141224360Y-74791000D01*
X140715640Y-74791000D01*
X140688062Y-74788284D01*
X140667443Y-74782029D01*
X140648447Y-74771876D01*
X140631792Y-74758208D01*
X140618124Y-74741553D01*
X140607971Y-74722557D01*
X140601716Y-74701938D01*
X140599000Y-74674360D01*
X140599000Y-74215640D01*
X140601716Y-74188062D01*
X140607971Y-74167443D01*
X140618124Y-74148447D01*
X140631792Y-74131792D01*
X140648447Y-74118124D01*
X140667443Y-74107971D01*
X140688062Y-74101716D01*
X140715640Y-74099000D01*
X141224360Y-74099000D01*
X141251938Y-74101716D01*
X141251938Y-74101716D01*
G37*
G36*
X176640442Y-72765518D02*
G01*
X176706627Y-72772037D01*
X176876466Y-72823557D01*
X177032991Y-72907222D01*
X177068729Y-72936552D01*
X177170186Y-73019814D01*
X177253448Y-73121271D01*
X177282778Y-73157009D01*
X177366443Y-73313534D01*
X177417963Y-73483373D01*
X177435359Y-73660000D01*
X177417963Y-73836627D01*
X177366443Y-74006466D01*
X177282778Y-74162991D01*
X177253448Y-74198729D01*
X177170186Y-74300186D01*
X177068729Y-74383448D01*
X177032991Y-74412778D01*
X176876466Y-74496443D01*
X176706627Y-74547963D01*
X176640442Y-74554482D01*
X176574260Y-74561000D01*
X176485740Y-74561000D01*
X176419558Y-74554482D01*
X176353373Y-74547963D01*
X176183534Y-74496443D01*
X176027009Y-74412778D01*
X175991271Y-74383448D01*
X175889814Y-74300186D01*
X175806552Y-74198729D01*
X175777222Y-74162991D01*
X175693557Y-74006466D01*
X175642037Y-73836627D01*
X175624641Y-73660000D01*
X175642037Y-73483373D01*
X175693557Y-73313534D01*
X175777222Y-73157009D01*
X175806552Y-73121271D01*
X175889814Y-73019814D01*
X175991271Y-72936552D01*
X176027009Y-72907222D01*
X176183534Y-72823557D01*
X176353373Y-72772037D01*
X176419558Y-72765518D01*
X176485740Y-72759000D01*
X176574260Y-72759000D01*
X176640442Y-72765518D01*
X176640442Y-72765518D01*
G37*
G36*
X242680443Y-71495519D02*
G01*
X242746627Y-71502037D01*
X242916466Y-71553557D01*
X243072991Y-71637222D01*
X243108729Y-71666552D01*
X243210186Y-71749814D01*
X243293448Y-71851271D01*
X243322778Y-71887009D01*
X243406443Y-72043534D01*
X243457963Y-72213373D01*
X243475359Y-72390000D01*
X243457963Y-72566627D01*
X243406443Y-72736466D01*
X243322778Y-72892991D01*
X243293448Y-72928729D01*
X243210186Y-73030186D01*
X243108729Y-73113448D01*
X243072991Y-73142778D01*
X242916466Y-73226443D01*
X242746627Y-73277963D01*
X242680443Y-73284481D01*
X242614260Y-73291000D01*
X242525740Y-73291000D01*
X242459557Y-73284481D01*
X242393373Y-73277963D01*
X242223534Y-73226443D01*
X242067009Y-73142778D01*
X242031271Y-73113448D01*
X241929814Y-73030186D01*
X241846552Y-72928729D01*
X241817222Y-72892991D01*
X241733557Y-72736466D01*
X241682037Y-72566627D01*
X241664641Y-72390000D01*
X241682037Y-72213373D01*
X241733557Y-72043534D01*
X241817222Y-71887009D01*
X241846552Y-71851271D01*
X241929814Y-71749814D01*
X242031271Y-71666552D01*
X242067009Y-71637222D01*
X242223534Y-71553557D01*
X242393373Y-71502037D01*
X242459557Y-71495519D01*
X242525740Y-71489000D01*
X242614260Y-71489000D01*
X242680443Y-71495519D01*
X242680443Y-71495519D01*
G37*
G36*
X176640442Y-70225518D02*
G01*
X176706627Y-70232037D01*
X176876466Y-70283557D01*
X177032991Y-70367222D01*
X177068729Y-70396552D01*
X177170186Y-70479814D01*
X177253448Y-70581271D01*
X177282778Y-70617009D01*
X177366443Y-70773534D01*
X177417963Y-70943373D01*
X177435359Y-71120000D01*
X177417963Y-71296627D01*
X177366443Y-71466466D01*
X177282778Y-71622991D01*
X177253448Y-71658729D01*
X177170186Y-71760186D01*
X177068729Y-71843448D01*
X177032991Y-71872778D01*
X176876466Y-71956443D01*
X176706627Y-72007963D01*
X176640443Y-72014481D01*
X176574260Y-72021000D01*
X176485740Y-72021000D01*
X176419557Y-72014481D01*
X176353373Y-72007963D01*
X176183534Y-71956443D01*
X176027009Y-71872778D01*
X175991271Y-71843448D01*
X175889814Y-71760186D01*
X175806552Y-71658729D01*
X175777222Y-71622991D01*
X175693557Y-71466466D01*
X175642037Y-71296627D01*
X175624641Y-71120000D01*
X175642037Y-70943373D01*
X175693557Y-70773534D01*
X175777222Y-70617009D01*
X175806552Y-70581271D01*
X175889814Y-70479814D01*
X175991271Y-70396552D01*
X176027009Y-70367222D01*
X176183534Y-70283557D01*
X176353373Y-70232037D01*
X176419558Y-70225518D01*
X176485740Y-70219000D01*
X176574260Y-70219000D01*
X176640442Y-70225518D01*
X176640442Y-70225518D01*
G37*
G36*
X141711938Y-70751716D02*
G01*
X141732557Y-70757971D01*
X141751553Y-70768124D01*
X141768208Y-70781792D01*
X141781876Y-70798447D01*
X141792029Y-70817443D01*
X141798284Y-70838062D01*
X141801000Y-70865640D01*
X141801000Y-71374360D01*
X141798284Y-71401938D01*
X141792029Y-71422557D01*
X141781876Y-71441553D01*
X141768208Y-71458208D01*
X141751553Y-71471876D01*
X141732557Y-71482029D01*
X141711938Y-71488284D01*
X141684360Y-71491000D01*
X141225640Y-71491000D01*
X141198062Y-71488284D01*
X141177443Y-71482029D01*
X141158447Y-71471876D01*
X141141792Y-71458208D01*
X141128124Y-71441553D01*
X141117971Y-71422557D01*
X141111716Y-71401938D01*
X141109000Y-71374360D01*
X141109000Y-70865640D01*
X141111716Y-70838062D01*
X141117971Y-70817443D01*
X141128124Y-70798447D01*
X141141792Y-70781792D01*
X141158447Y-70768124D01*
X141177443Y-70757971D01*
X141198062Y-70751716D01*
X141225640Y-70749000D01*
X141684360Y-70749000D01*
X141711938Y-70751716D01*
X141711938Y-70751716D01*
G37*
G36*
X140741938Y-70751716D02*
G01*
X140762557Y-70757971D01*
X140781553Y-70768124D01*
X140798208Y-70781792D01*
X140811876Y-70798447D01*
X140822029Y-70817443D01*
X140828284Y-70838062D01*
X140831000Y-70865640D01*
X140831000Y-71374360D01*
X140828284Y-71401938D01*
X140822029Y-71422557D01*
X140811876Y-71441553D01*
X140798208Y-71458208D01*
X140781553Y-71471876D01*
X140762557Y-71482029D01*
X140741938Y-71488284D01*
X140714360Y-71491000D01*
X140255640Y-71491000D01*
X140228062Y-71488284D01*
X140207443Y-71482029D01*
X140188447Y-71471876D01*
X140171792Y-71458208D01*
X140158124Y-71441553D01*
X140147971Y-71422557D01*
X140141716Y-71401938D01*
X140139000Y-71374360D01*
X140139000Y-70865640D01*
X140141716Y-70838062D01*
X140147971Y-70817443D01*
X140158124Y-70798447D01*
X140171792Y-70781792D01*
X140188447Y-70768124D01*
X140207443Y-70757971D01*
X140228062Y-70751716D01*
X140255640Y-70749000D01*
X140714360Y-70749000D01*
X140741938Y-70751716D01*
X140741938Y-70751716D01*
G37*
G36*
X242680443Y-68955519D02*
G01*
X242746627Y-68962037D01*
X242916466Y-69013557D01*
X243072991Y-69097222D01*
X243087781Y-69109360D01*
X243210186Y-69209814D01*
X243293448Y-69311271D01*
X243322778Y-69347009D01*
X243406443Y-69503534D01*
X243457963Y-69673373D01*
X243475359Y-69850000D01*
X243457963Y-70026627D01*
X243406443Y-70196466D01*
X243322778Y-70352991D01*
X243293448Y-70388729D01*
X243210186Y-70490186D01*
X243108729Y-70573448D01*
X243072991Y-70602778D01*
X242916466Y-70686443D01*
X242746627Y-70737963D01*
X242680443Y-70744481D01*
X242614260Y-70751000D01*
X242525740Y-70751000D01*
X242459557Y-70744481D01*
X242393373Y-70737963D01*
X242223534Y-70686443D01*
X242067009Y-70602778D01*
X242031271Y-70573448D01*
X241929814Y-70490186D01*
X241846552Y-70388729D01*
X241817222Y-70352991D01*
X241733557Y-70196466D01*
X241682037Y-70026627D01*
X241664641Y-69850000D01*
X241682037Y-69673373D01*
X241733557Y-69503534D01*
X241817222Y-69347009D01*
X241846552Y-69311271D01*
X241929814Y-69209814D01*
X242052219Y-69109360D01*
X242067009Y-69097222D01*
X242223534Y-69013557D01*
X242393373Y-68962037D01*
X242459557Y-68955519D01*
X242525740Y-68949000D01*
X242614260Y-68949000D01*
X242680443Y-68955519D01*
X242680443Y-68955519D01*
G37*
G36*
X136171938Y-69506716D02*
G01*
X136192557Y-69512971D01*
X136211553Y-69523124D01*
X136228208Y-69536792D01*
X136241876Y-69553447D01*
X136252029Y-69572443D01*
X136258284Y-69593062D01*
X136261000Y-69620640D01*
X136261000Y-70079360D01*
X136258284Y-70106938D01*
X136252029Y-70127557D01*
X136241876Y-70146553D01*
X136228208Y-70163208D01*
X136211553Y-70176876D01*
X136192557Y-70187029D01*
X136171938Y-70193284D01*
X136144360Y-70196000D01*
X135635640Y-70196000D01*
X135608062Y-70193284D01*
X135587443Y-70187029D01*
X135568447Y-70176876D01*
X135551792Y-70163208D01*
X135538124Y-70146553D01*
X135527971Y-70127557D01*
X135521716Y-70106938D01*
X135519000Y-70079360D01*
X135519000Y-69620640D01*
X135521716Y-69593062D01*
X135527971Y-69572443D01*
X135538124Y-69553447D01*
X135551792Y-69536792D01*
X135568447Y-69523124D01*
X135587443Y-69512971D01*
X135608062Y-69506716D01*
X135635640Y-69504000D01*
X136144360Y-69504000D01*
X136171938Y-69506716D01*
X136171938Y-69506716D01*
G37*
G36*
X176640443Y-67685519D02*
G01*
X176706627Y-67692037D01*
X176876466Y-67743557D01*
X177032991Y-67827222D01*
X177068729Y-67856552D01*
X177170186Y-67939814D01*
X177253448Y-68041271D01*
X177282778Y-68077009D01*
X177366443Y-68233534D01*
X177417963Y-68403373D01*
X177435359Y-68580000D01*
X177417963Y-68756627D01*
X177366443Y-68926466D01*
X177282778Y-69082991D01*
X177261137Y-69109360D01*
X177170186Y-69220186D01*
X177068729Y-69303448D01*
X177032991Y-69332778D01*
X176876466Y-69416443D01*
X176706627Y-69467963D01*
X176640442Y-69474482D01*
X176574260Y-69481000D01*
X176485740Y-69481000D01*
X176419558Y-69474482D01*
X176353373Y-69467963D01*
X176183534Y-69416443D01*
X176027009Y-69332778D01*
X175991271Y-69303448D01*
X175889814Y-69220186D01*
X175798863Y-69109360D01*
X175777222Y-69082991D01*
X175693557Y-68926466D01*
X175642037Y-68756627D01*
X175624641Y-68580000D01*
X175642037Y-68403373D01*
X175693557Y-68233534D01*
X175777222Y-68077009D01*
X175806552Y-68041271D01*
X175889814Y-67939814D01*
X175991271Y-67856552D01*
X176027009Y-67827222D01*
X176183534Y-67743557D01*
X176353373Y-67692037D01*
X176419557Y-67685519D01*
X176485740Y-67679000D01*
X176574260Y-67679000D01*
X176640443Y-67685519D01*
X176640443Y-67685519D01*
G37*
G36*
X136171938Y-68536716D02*
G01*
X136192557Y-68542971D01*
X136211553Y-68553124D01*
X136228208Y-68566792D01*
X136241876Y-68583447D01*
X136252029Y-68602443D01*
X136258284Y-68623062D01*
X136261000Y-68650640D01*
X136261000Y-69109360D01*
X136258284Y-69136938D01*
X136252029Y-69157557D01*
X136241876Y-69176553D01*
X136228208Y-69193208D01*
X136211553Y-69206876D01*
X136192557Y-69217029D01*
X136171938Y-69223284D01*
X136144360Y-69226000D01*
X135635640Y-69226000D01*
X135608062Y-69223284D01*
X135587443Y-69217029D01*
X135568447Y-69206876D01*
X135551792Y-69193208D01*
X135538124Y-69176553D01*
X135527971Y-69157557D01*
X135521716Y-69136938D01*
X135519000Y-69109360D01*
X135519000Y-68650640D01*
X135521716Y-68623062D01*
X135527971Y-68602443D01*
X135538124Y-68583447D01*
X135551792Y-68566792D01*
X135568447Y-68553124D01*
X135587443Y-68542971D01*
X135608062Y-68536716D01*
X135635640Y-68534000D01*
X136144360Y-68534000D01*
X136171938Y-68536716D01*
X136171938Y-68536716D01*
G37*
G36*
X242680443Y-66415519D02*
G01*
X242746627Y-66422037D01*
X242916466Y-66473557D01*
X243072991Y-66557222D01*
X243108729Y-66586552D01*
X243210186Y-66669814D01*
X243293448Y-66771271D01*
X243322778Y-66807009D01*
X243406443Y-66963534D01*
X243457963Y-67133373D01*
X243475359Y-67310000D01*
X243457963Y-67486627D01*
X243406443Y-67656466D01*
X243322778Y-67812991D01*
X243293448Y-67848729D01*
X243210186Y-67950186D01*
X243108729Y-68033448D01*
X243072991Y-68062778D01*
X242916466Y-68146443D01*
X242746627Y-68197963D01*
X242680443Y-68204481D01*
X242614260Y-68211000D01*
X242525740Y-68211000D01*
X242459557Y-68204481D01*
X242393373Y-68197963D01*
X242223534Y-68146443D01*
X242067009Y-68062778D01*
X242031271Y-68033448D01*
X241929814Y-67950186D01*
X241846552Y-67848729D01*
X241817222Y-67812991D01*
X241733557Y-67656466D01*
X241682037Y-67486627D01*
X241664641Y-67310000D01*
X241682037Y-67133373D01*
X241733557Y-66963534D01*
X241817222Y-66807009D01*
X241846552Y-66771271D01*
X241929814Y-66669814D01*
X242031271Y-66586552D01*
X242067009Y-66557222D01*
X242223534Y-66473557D01*
X242393373Y-66422037D01*
X242459557Y-66415519D01*
X242525740Y-66409000D01*
X242614260Y-66409000D01*
X242680443Y-66415519D01*
X242680443Y-66415519D01*
G37*
G36*
X176640442Y-65145518D02*
G01*
X176706627Y-65152037D01*
X176876466Y-65203557D01*
X177032991Y-65287222D01*
X177068729Y-65316552D01*
X177170186Y-65399814D01*
X177253448Y-65501271D01*
X177282778Y-65537009D01*
X177366443Y-65693534D01*
X177417963Y-65863373D01*
X177435359Y-66040000D01*
X177417963Y-66216627D01*
X177366443Y-66386466D01*
X177282778Y-66542991D01*
X177253448Y-66578729D01*
X177170186Y-66680186D01*
X177068729Y-66763448D01*
X177032991Y-66792778D01*
X176876466Y-66876443D01*
X176706627Y-66927963D01*
X176640442Y-66934482D01*
X176574260Y-66941000D01*
X176485740Y-66941000D01*
X176419558Y-66934482D01*
X176353373Y-66927963D01*
X176183534Y-66876443D01*
X176027009Y-66792778D01*
X175991271Y-66763448D01*
X175889814Y-66680186D01*
X175806552Y-66578729D01*
X175777222Y-66542991D01*
X175693557Y-66386466D01*
X175642037Y-66216627D01*
X175624641Y-66040000D01*
X175642037Y-65863373D01*
X175693557Y-65693534D01*
X175777222Y-65537009D01*
X175806552Y-65501271D01*
X175889814Y-65399814D01*
X175991271Y-65316552D01*
X176027009Y-65287222D01*
X176183534Y-65203557D01*
X176353373Y-65152037D01*
X176419558Y-65145518D01*
X176485740Y-65139000D01*
X176574260Y-65139000D01*
X176640442Y-65145518D01*
X176640442Y-65145518D01*
G37*
G36*
X243471000Y-65671000D02*
G01*
X241669000Y-65671000D01*
X241669000Y-63869000D01*
X243471000Y-63869000D01*
X243471000Y-65671000D01*
X243471000Y-65671000D01*
G37*
G36*
X176640442Y-62605518D02*
G01*
X176706627Y-62612037D01*
X176876466Y-62663557D01*
X177032991Y-62747222D01*
X177068729Y-62776552D01*
X177170186Y-62859814D01*
X177253448Y-62961271D01*
X177282778Y-62997009D01*
X177366443Y-63153534D01*
X177417963Y-63323373D01*
X177435359Y-63500000D01*
X177417963Y-63676627D01*
X177366443Y-63846466D01*
X177282778Y-64002991D01*
X177253448Y-64038729D01*
X177170186Y-64140186D01*
X177068729Y-64223448D01*
X177032991Y-64252778D01*
X176876466Y-64336443D01*
X176706627Y-64387963D01*
X176640442Y-64394482D01*
X176574260Y-64401000D01*
X176485740Y-64401000D01*
X176419558Y-64394482D01*
X176353373Y-64387963D01*
X176183534Y-64336443D01*
X176027009Y-64252778D01*
X175991271Y-64223448D01*
X175889814Y-64140186D01*
X175806552Y-64038729D01*
X175777222Y-64002991D01*
X175693557Y-63846466D01*
X175642037Y-63676627D01*
X175624641Y-63500000D01*
X175642037Y-63323373D01*
X175693557Y-63153534D01*
X175777222Y-62997009D01*
X175806552Y-62961271D01*
X175889814Y-62859814D01*
X175991271Y-62776552D01*
X176027009Y-62747222D01*
X176183534Y-62663557D01*
X176353373Y-62612037D01*
X176419558Y-62605518D01*
X176485740Y-62599000D01*
X176574260Y-62599000D01*
X176640442Y-62605518D01*
X176640442Y-62605518D01*
G37*
G36*
X176640442Y-60065518D02*
G01*
X176706627Y-60072037D01*
X176876466Y-60123557D01*
X177032991Y-60207222D01*
X177068729Y-60236552D01*
X177170186Y-60319814D01*
X177253448Y-60421271D01*
X177282778Y-60457009D01*
X177366443Y-60613534D01*
X177417963Y-60783373D01*
X177435359Y-60960000D01*
X177417963Y-61136627D01*
X177366443Y-61306466D01*
X177282778Y-61462991D01*
X177253448Y-61498729D01*
X177170186Y-61600186D01*
X177068729Y-61683448D01*
X177032991Y-61712778D01*
X176876466Y-61796443D01*
X176706627Y-61847963D01*
X176640443Y-61854481D01*
X176574260Y-61861000D01*
X176485740Y-61861000D01*
X176419557Y-61854481D01*
X176353373Y-61847963D01*
X176183534Y-61796443D01*
X176027009Y-61712778D01*
X175991271Y-61683448D01*
X175889814Y-61600186D01*
X175806552Y-61498729D01*
X175777222Y-61462991D01*
X175693557Y-61306466D01*
X175642037Y-61136627D01*
X175624641Y-60960000D01*
X175642037Y-60783373D01*
X175693557Y-60613534D01*
X175777222Y-60457009D01*
X175806552Y-60421271D01*
X175889814Y-60319814D01*
X175991271Y-60236552D01*
X176027009Y-60207222D01*
X176183534Y-60123557D01*
X176353373Y-60072037D01*
X176419558Y-60065518D01*
X176485740Y-60059000D01*
X176574260Y-60059000D01*
X176640442Y-60065518D01*
X176640442Y-60065518D01*
G37*
G36*
X176640443Y-57525519D02*
G01*
X176706627Y-57532037D01*
X176876466Y-57583557D01*
X177032991Y-57667222D01*
X177068729Y-57696552D01*
X177170186Y-57779814D01*
X177253448Y-57881271D01*
X177282778Y-57917009D01*
X177366443Y-58073534D01*
X177417963Y-58243373D01*
X177435359Y-58420000D01*
X177417963Y-58596627D01*
X177366443Y-58766466D01*
X177282778Y-58922991D01*
X177253448Y-58958729D01*
X177170186Y-59060186D01*
X177068729Y-59143448D01*
X177032991Y-59172778D01*
X176876466Y-59256443D01*
X176706627Y-59307963D01*
X176640442Y-59314482D01*
X176574260Y-59321000D01*
X176485740Y-59321000D01*
X176419558Y-59314482D01*
X176353373Y-59307963D01*
X176183534Y-59256443D01*
X176027009Y-59172778D01*
X175991271Y-59143448D01*
X175889814Y-59060186D01*
X175806552Y-58958729D01*
X175777222Y-58922991D01*
X175693557Y-58766466D01*
X175642037Y-58596627D01*
X175624641Y-58420000D01*
X175642037Y-58243373D01*
X175693557Y-58073534D01*
X175777222Y-57917009D01*
X175806552Y-57881271D01*
X175889814Y-57779814D01*
X175991271Y-57696552D01*
X176027009Y-57667222D01*
X176183534Y-57583557D01*
X176353373Y-57532037D01*
X176419557Y-57525519D01*
X176485740Y-57519000D01*
X176574260Y-57519000D01*
X176640443Y-57525519D01*
X176640443Y-57525519D01*
G37*
G36*
X143623512Y-56943927D02*
G01*
X143772812Y-56973624D01*
X143936784Y-57041544D01*
X144084354Y-57140147D01*
X144209853Y-57265646D01*
X144308456Y-57413216D01*
X144376376Y-57577188D01*
X144411000Y-57751259D01*
X144411000Y-57928741D01*
X144376376Y-58102812D01*
X144308456Y-58266784D01*
X144209853Y-58414354D01*
X144084354Y-58539853D01*
X143936784Y-58638456D01*
X143772812Y-58706376D01*
X143623512Y-58736073D01*
X143598742Y-58741000D01*
X143421258Y-58741000D01*
X143396488Y-58736073D01*
X143247188Y-58706376D01*
X143083216Y-58638456D01*
X142935646Y-58539853D01*
X142810147Y-58414354D01*
X142711544Y-58266784D01*
X142643624Y-58102812D01*
X142609000Y-57928741D01*
X142609000Y-57751259D01*
X142643624Y-57577188D01*
X142711544Y-57413216D01*
X142810147Y-57265646D01*
X142935646Y-57140147D01*
X143083216Y-57041544D01*
X143247188Y-56973624D01*
X143396488Y-56943927D01*
X143421258Y-56939000D01*
X143598742Y-56939000D01*
X143623512Y-56943927D01*
X143623512Y-56943927D01*
G37*
G36*
X150123512Y-56943927D02*
G01*
X150272812Y-56973624D01*
X150436784Y-57041544D01*
X150584354Y-57140147D01*
X150709853Y-57265646D01*
X150808456Y-57413216D01*
X150876376Y-57577188D01*
X150911000Y-57751259D01*
X150911000Y-57928741D01*
X150876376Y-58102812D01*
X150808456Y-58266784D01*
X150709853Y-58414354D01*
X150584354Y-58539853D01*
X150436784Y-58638456D01*
X150272812Y-58706376D01*
X150123512Y-58736073D01*
X150098742Y-58741000D01*
X149921258Y-58741000D01*
X149896488Y-58736073D01*
X149747188Y-58706376D01*
X149583216Y-58638456D01*
X149435646Y-58539853D01*
X149310147Y-58414354D01*
X149211544Y-58266784D01*
X149143624Y-58102812D01*
X149109000Y-57928741D01*
X149109000Y-57751259D01*
X149143624Y-57577188D01*
X149211544Y-57413216D01*
X149310147Y-57265646D01*
X149435646Y-57140147D01*
X149583216Y-57041544D01*
X149747188Y-56973624D01*
X149896488Y-56943927D01*
X149921258Y-56939000D01*
X150098742Y-56939000D01*
X150123512Y-56943927D01*
X150123512Y-56943927D01*
G37*
G36*
X200890295Y-56920323D02*
G01*
X200897309Y-56922451D01*
X200911077Y-56929810D01*
X200933716Y-56939187D01*
X200957749Y-56943967D01*
X200982253Y-56943967D01*
X201006286Y-56939186D01*
X201028923Y-56929810D01*
X201042691Y-56922451D01*
X201049705Y-56920323D01*
X201063140Y-56919000D01*
X201376860Y-56919000D01*
X201390295Y-56920323D01*
X201397309Y-56922451D01*
X201411077Y-56929810D01*
X201433716Y-56939187D01*
X201457749Y-56943967D01*
X201482253Y-56943967D01*
X201506286Y-56939186D01*
X201528923Y-56929810D01*
X201542691Y-56922451D01*
X201549705Y-56920323D01*
X201563140Y-56919000D01*
X201876860Y-56919000D01*
X201890295Y-56920323D01*
X201897309Y-56922451D01*
X201911077Y-56929810D01*
X201933716Y-56939187D01*
X201957749Y-56943967D01*
X201982253Y-56943967D01*
X202006286Y-56939186D01*
X202028923Y-56929810D01*
X202042691Y-56922451D01*
X202049705Y-56920323D01*
X202063140Y-56919000D01*
X202376860Y-56919000D01*
X202390295Y-56920323D01*
X202397309Y-56922451D01*
X202411077Y-56929810D01*
X202433716Y-56939187D01*
X202457749Y-56943967D01*
X202482253Y-56943967D01*
X202506286Y-56939186D01*
X202528923Y-56929810D01*
X202542691Y-56922451D01*
X202549705Y-56920323D01*
X202563140Y-56919000D01*
X202876860Y-56919000D01*
X202890295Y-56920323D01*
X202897309Y-56922451D01*
X202911077Y-56929810D01*
X202933716Y-56939187D01*
X202957749Y-56943967D01*
X202982253Y-56943967D01*
X203006286Y-56939186D01*
X203028923Y-56929810D01*
X203042691Y-56922451D01*
X203049705Y-56920323D01*
X203063140Y-56919000D01*
X203376860Y-56919000D01*
X203390295Y-56920323D01*
X203397309Y-56922451D01*
X203411077Y-56929810D01*
X203433716Y-56939187D01*
X203457749Y-56943967D01*
X203482253Y-56943967D01*
X203506286Y-56939186D01*
X203528923Y-56929810D01*
X203542691Y-56922451D01*
X203549705Y-56920323D01*
X203563140Y-56919000D01*
X203876860Y-56919000D01*
X203890295Y-56920323D01*
X203897309Y-56922451D01*
X203911077Y-56929810D01*
X203933716Y-56939187D01*
X203957749Y-56943967D01*
X203982253Y-56943967D01*
X204006286Y-56939186D01*
X204028923Y-56929810D01*
X204042691Y-56922451D01*
X204049705Y-56920323D01*
X204063140Y-56919000D01*
X204376860Y-56919000D01*
X204390295Y-56920323D01*
X204397309Y-56922451D01*
X204411077Y-56929810D01*
X204433716Y-56939187D01*
X204457749Y-56943967D01*
X204482253Y-56943967D01*
X204506286Y-56939186D01*
X204528923Y-56929810D01*
X204542691Y-56922451D01*
X204549705Y-56920323D01*
X204563140Y-56919000D01*
X204876860Y-56919000D01*
X204890295Y-56920323D01*
X204897309Y-56922451D01*
X204911077Y-56929810D01*
X204933716Y-56939187D01*
X204957749Y-56943967D01*
X204982253Y-56943967D01*
X205006286Y-56939186D01*
X205028923Y-56929810D01*
X205042691Y-56922451D01*
X205049705Y-56920323D01*
X205063140Y-56919000D01*
X205376860Y-56919000D01*
X205390295Y-56920323D01*
X205397309Y-56922451D01*
X205411077Y-56929810D01*
X205433716Y-56939187D01*
X205457749Y-56943967D01*
X205482253Y-56943967D01*
X205506286Y-56939186D01*
X205528923Y-56929810D01*
X205542691Y-56922451D01*
X205549705Y-56920323D01*
X205563140Y-56919000D01*
X205876860Y-56919000D01*
X205890295Y-56920323D01*
X205897309Y-56922451D01*
X205911077Y-56929810D01*
X205933716Y-56939187D01*
X205957749Y-56943967D01*
X205982253Y-56943967D01*
X206006286Y-56939186D01*
X206028923Y-56929810D01*
X206042691Y-56922451D01*
X206049705Y-56920323D01*
X206063140Y-56919000D01*
X206376860Y-56919000D01*
X206390295Y-56920323D01*
X206397309Y-56922451D01*
X206411077Y-56929810D01*
X206433716Y-56939187D01*
X206457749Y-56943967D01*
X206482253Y-56943967D01*
X206506286Y-56939186D01*
X206528923Y-56929810D01*
X206542691Y-56922451D01*
X206549705Y-56920323D01*
X206563140Y-56919000D01*
X206876860Y-56919000D01*
X206890295Y-56920323D01*
X206897309Y-56922451D01*
X206911077Y-56929810D01*
X206933716Y-56939187D01*
X206957749Y-56943967D01*
X206982253Y-56943967D01*
X207006286Y-56939186D01*
X207028923Y-56929810D01*
X207042691Y-56922451D01*
X207049705Y-56920323D01*
X207063140Y-56919000D01*
X207376860Y-56919000D01*
X207390295Y-56920323D01*
X207397309Y-56922451D01*
X207411077Y-56929810D01*
X207433716Y-56939187D01*
X207457749Y-56943967D01*
X207482253Y-56943967D01*
X207506286Y-56939186D01*
X207528923Y-56929810D01*
X207542691Y-56922451D01*
X207549705Y-56920323D01*
X207563140Y-56919000D01*
X207876860Y-56919000D01*
X207890295Y-56920323D01*
X207897309Y-56922451D01*
X207911077Y-56929810D01*
X207933716Y-56939187D01*
X207957749Y-56943967D01*
X207982253Y-56943967D01*
X208006286Y-56939186D01*
X208028923Y-56929810D01*
X208042691Y-56922451D01*
X208049705Y-56920323D01*
X208063140Y-56919000D01*
X208376860Y-56919000D01*
X208390295Y-56920323D01*
X208397310Y-56922451D01*
X208403776Y-56925908D01*
X208409442Y-56930558D01*
X208414092Y-56936224D01*
X208417549Y-56942690D01*
X208419677Y-56949705D01*
X208421000Y-56963140D01*
X208421000Y-58526860D01*
X208419677Y-58540295D01*
X208417549Y-58547310D01*
X208414092Y-58553776D01*
X208409442Y-58559442D01*
X208403776Y-58564092D01*
X208397310Y-58567549D01*
X208390295Y-58569677D01*
X208376860Y-58571000D01*
X208063140Y-58571000D01*
X208049705Y-58569677D01*
X208042691Y-58567549D01*
X208028923Y-58560190D01*
X208006284Y-58550813D01*
X207982251Y-58546033D01*
X207957747Y-58546033D01*
X207933714Y-58550814D01*
X207911077Y-58560190D01*
X207897309Y-58567549D01*
X207890295Y-58569677D01*
X207876860Y-58571000D01*
X207563140Y-58571000D01*
X207549705Y-58569677D01*
X207542691Y-58567549D01*
X207528923Y-58560190D01*
X207506284Y-58550813D01*
X207482251Y-58546033D01*
X207457747Y-58546033D01*
X207433714Y-58550814D01*
X207411077Y-58560190D01*
X207397309Y-58567549D01*
X207390295Y-58569677D01*
X207376860Y-58571000D01*
X207063140Y-58571000D01*
X207049705Y-58569677D01*
X207042691Y-58567549D01*
X207028923Y-58560190D01*
X207006284Y-58550813D01*
X206982251Y-58546033D01*
X206957747Y-58546033D01*
X206933714Y-58550814D01*
X206911077Y-58560190D01*
X206897309Y-58567549D01*
X206890295Y-58569677D01*
X206876860Y-58571000D01*
X206563140Y-58571000D01*
X206549705Y-58569677D01*
X206542691Y-58567549D01*
X206528923Y-58560190D01*
X206506284Y-58550813D01*
X206482251Y-58546033D01*
X206457747Y-58546033D01*
X206433714Y-58550814D01*
X206411077Y-58560190D01*
X206397309Y-58567549D01*
X206390295Y-58569677D01*
X206376860Y-58571000D01*
X206063140Y-58571000D01*
X206049705Y-58569677D01*
X206042691Y-58567549D01*
X206028923Y-58560190D01*
X206006284Y-58550813D01*
X205982251Y-58546033D01*
X205957747Y-58546033D01*
X205933714Y-58550814D01*
X205911077Y-58560190D01*
X205897309Y-58567549D01*
X205890295Y-58569677D01*
X205876860Y-58571000D01*
X205563140Y-58571000D01*
X205549705Y-58569677D01*
X205542691Y-58567549D01*
X205528923Y-58560190D01*
X205506284Y-58550813D01*
X205482251Y-58546033D01*
X205457747Y-58546033D01*
X205433714Y-58550814D01*
X205411077Y-58560190D01*
X205397309Y-58567549D01*
X205390295Y-58569677D01*
X205376860Y-58571000D01*
X205063140Y-58571000D01*
X205049705Y-58569677D01*
X205042691Y-58567549D01*
X205028923Y-58560190D01*
X205006284Y-58550813D01*
X204982251Y-58546033D01*
X204957747Y-58546033D01*
X204933714Y-58550814D01*
X204911077Y-58560190D01*
X204897309Y-58567549D01*
X204890295Y-58569677D01*
X204876860Y-58571000D01*
X204563140Y-58571000D01*
X204549705Y-58569677D01*
X204542691Y-58567549D01*
X204528923Y-58560190D01*
X204506284Y-58550813D01*
X204482251Y-58546033D01*
X204457747Y-58546033D01*
X204433714Y-58550814D01*
X204411077Y-58560190D01*
X204397309Y-58567549D01*
X204390295Y-58569677D01*
X204376860Y-58571000D01*
X204063140Y-58571000D01*
X204049705Y-58569677D01*
X204042691Y-58567549D01*
X204028923Y-58560190D01*
X204006284Y-58550813D01*
X203982251Y-58546033D01*
X203957747Y-58546033D01*
X203933714Y-58550814D01*
X203911077Y-58560190D01*
X203897309Y-58567549D01*
X203890295Y-58569677D01*
X203876860Y-58571000D01*
X203563140Y-58571000D01*
X203549705Y-58569677D01*
X203542691Y-58567549D01*
X203528923Y-58560190D01*
X203506284Y-58550813D01*
X203482251Y-58546033D01*
X203457747Y-58546033D01*
X203433714Y-58550814D01*
X203411077Y-58560190D01*
X203397309Y-58567549D01*
X203390295Y-58569677D01*
X203376860Y-58571000D01*
X203063140Y-58571000D01*
X203049705Y-58569677D01*
X203042691Y-58567549D01*
X203028923Y-58560190D01*
X203006284Y-58550813D01*
X202982251Y-58546033D01*
X202957747Y-58546033D01*
X202933714Y-58550814D01*
X202911077Y-58560190D01*
X202897309Y-58567549D01*
X202890295Y-58569677D01*
X202876860Y-58571000D01*
X202563140Y-58571000D01*
X202549705Y-58569677D01*
X202542691Y-58567549D01*
X202528923Y-58560190D01*
X202506284Y-58550813D01*
X202482251Y-58546033D01*
X202457747Y-58546033D01*
X202433714Y-58550814D01*
X202411077Y-58560190D01*
X202397309Y-58567549D01*
X202390295Y-58569677D01*
X202376860Y-58571000D01*
X202063140Y-58571000D01*
X202049705Y-58569677D01*
X202042691Y-58567549D01*
X202028923Y-58560190D01*
X202006284Y-58550813D01*
X201982251Y-58546033D01*
X201957747Y-58546033D01*
X201933714Y-58550814D01*
X201911077Y-58560190D01*
X201897309Y-58567549D01*
X201890295Y-58569677D01*
X201876860Y-58571000D01*
X201563140Y-58571000D01*
X201549705Y-58569677D01*
X201542691Y-58567549D01*
X201528923Y-58560190D01*
X201506284Y-58550813D01*
X201482251Y-58546033D01*
X201457747Y-58546033D01*
X201433714Y-58550814D01*
X201411077Y-58560190D01*
X201397309Y-58567549D01*
X201390295Y-58569677D01*
X201376860Y-58571000D01*
X201063140Y-58571000D01*
X201049705Y-58569677D01*
X201042691Y-58567549D01*
X201028923Y-58560190D01*
X201006284Y-58550813D01*
X200982251Y-58546033D01*
X200957747Y-58546033D01*
X200933714Y-58550814D01*
X200911077Y-58560190D01*
X200897309Y-58567549D01*
X200890295Y-58569677D01*
X200876860Y-58571000D01*
X200563140Y-58571000D01*
X200549705Y-58569677D01*
X200542690Y-58567549D01*
X200536224Y-58564092D01*
X200530558Y-58559442D01*
X200525908Y-58553776D01*
X200522451Y-58547310D01*
X200520323Y-58540295D01*
X200519000Y-58526860D01*
X200519000Y-56963140D01*
X200520323Y-56949705D01*
X200522451Y-56942690D01*
X200525908Y-56936224D01*
X200530558Y-56930558D01*
X200536224Y-56925908D01*
X200542690Y-56922451D01*
X200549705Y-56920323D01*
X200563140Y-56919000D01*
X200876860Y-56919000D01*
X200890295Y-56920323D01*
X200890295Y-56920323D01*
G37*
G36*
X176640443Y-54985519D02*
G01*
X176706627Y-54992037D01*
X176876466Y-55043557D01*
X176876468Y-55043558D01*
X176903017Y-55057749D01*
X177032991Y-55127222D01*
X177043610Y-55135937D01*
X177170186Y-55239814D01*
X177239570Y-55324360D01*
X177282778Y-55377009D01*
X177366443Y-55533534D01*
X177417963Y-55703373D01*
X177435359Y-55880000D01*
X177417963Y-56056627D01*
X177366443Y-56226466D01*
X177282778Y-56382991D01*
X177253448Y-56418729D01*
X177170186Y-56520186D01*
X177068729Y-56603448D01*
X177032991Y-56632778D01*
X176876466Y-56716443D01*
X176706627Y-56767963D01*
X176640443Y-56774481D01*
X176574260Y-56781000D01*
X176485740Y-56781000D01*
X176419557Y-56774481D01*
X176353373Y-56767963D01*
X176183534Y-56716443D01*
X176027009Y-56632778D01*
X175991271Y-56603448D01*
X175889814Y-56520186D01*
X175806552Y-56418729D01*
X175777222Y-56382991D01*
X175693557Y-56226466D01*
X175642037Y-56056627D01*
X175624641Y-55880000D01*
X175642037Y-55703373D01*
X175693557Y-55533534D01*
X175777222Y-55377009D01*
X175820430Y-55324360D01*
X175889814Y-55239814D01*
X176016390Y-55135937D01*
X176027009Y-55127222D01*
X176156983Y-55057749D01*
X176183532Y-55043558D01*
X176183534Y-55043557D01*
X176353373Y-54992037D01*
X176419557Y-54985519D01*
X176485740Y-54979000D01*
X176574260Y-54979000D01*
X176640443Y-54985519D01*
X176640443Y-54985519D01*
G37*
G36*
X210940295Y-48120323D02*
G01*
X210947310Y-48122451D01*
X210953776Y-48125908D01*
X210959442Y-48130558D01*
X210964092Y-48136224D01*
X210967549Y-48142690D01*
X210969677Y-48149705D01*
X210971000Y-48163140D01*
X210971000Y-48476860D01*
X210969677Y-48490295D01*
X210967549Y-48497309D01*
X210960190Y-48511077D01*
X210950813Y-48533716D01*
X210946033Y-48557749D01*
X210946033Y-48582253D01*
X210950814Y-48606286D01*
X210960190Y-48628923D01*
X210967549Y-48642691D01*
X210969677Y-48649705D01*
X210971000Y-48663140D01*
X210971000Y-48976860D01*
X210969677Y-48990295D01*
X210967549Y-48997309D01*
X210960190Y-49011077D01*
X210950813Y-49033716D01*
X210946033Y-49057749D01*
X210946033Y-49082253D01*
X210950814Y-49106286D01*
X210960190Y-49128923D01*
X210967549Y-49142691D01*
X210969677Y-49149705D01*
X210971000Y-49163140D01*
X210971000Y-49476860D01*
X210969677Y-49490295D01*
X210967549Y-49497309D01*
X210960190Y-49511077D01*
X210950813Y-49533716D01*
X210946033Y-49557749D01*
X210946033Y-49582253D01*
X210950814Y-49606286D01*
X210960190Y-49628923D01*
X210967549Y-49642691D01*
X210969677Y-49649705D01*
X210971000Y-49663140D01*
X210971000Y-49976860D01*
X210969677Y-49990295D01*
X210967549Y-49997309D01*
X210960190Y-50011077D01*
X210950813Y-50033716D01*
X210946033Y-50057749D01*
X210946033Y-50082253D01*
X210950814Y-50106286D01*
X210960190Y-50128923D01*
X210967549Y-50142691D01*
X210969677Y-50149705D01*
X210971000Y-50163140D01*
X210971000Y-50476860D01*
X210969677Y-50490295D01*
X210967549Y-50497309D01*
X210960190Y-50511077D01*
X210950813Y-50533716D01*
X210946033Y-50557749D01*
X210946033Y-50582253D01*
X210950814Y-50606286D01*
X210960190Y-50628923D01*
X210967549Y-50642691D01*
X210969677Y-50649705D01*
X210971000Y-50663140D01*
X210971000Y-50976860D01*
X210969677Y-50990295D01*
X210967549Y-50997309D01*
X210960190Y-51011077D01*
X210950813Y-51033716D01*
X210946033Y-51057749D01*
X210946033Y-51082253D01*
X210950814Y-51106286D01*
X210960190Y-51128923D01*
X210967549Y-51142691D01*
X210969677Y-51149705D01*
X210971000Y-51163140D01*
X210971000Y-51476860D01*
X210969677Y-51490295D01*
X210967549Y-51497309D01*
X210960190Y-51511077D01*
X210950813Y-51533716D01*
X210946033Y-51557749D01*
X210946033Y-51582253D01*
X210950814Y-51606286D01*
X210960190Y-51628923D01*
X210967549Y-51642691D01*
X210969677Y-51649705D01*
X210971000Y-51663140D01*
X210971000Y-51976860D01*
X210969677Y-51990295D01*
X210967549Y-51997309D01*
X210960190Y-52011077D01*
X210950813Y-52033716D01*
X210946033Y-52057749D01*
X210946033Y-52082253D01*
X210950814Y-52106286D01*
X210960190Y-52128923D01*
X210967549Y-52142691D01*
X210969677Y-52149705D01*
X210971000Y-52163140D01*
X210971000Y-52476860D01*
X210969677Y-52490295D01*
X210967549Y-52497309D01*
X210960190Y-52511077D01*
X210950813Y-52533716D01*
X210946033Y-52557749D01*
X210946033Y-52582253D01*
X210950814Y-52606286D01*
X210960190Y-52628923D01*
X210967549Y-52642691D01*
X210969677Y-52649705D01*
X210971000Y-52663140D01*
X210971000Y-52976860D01*
X210969677Y-52990295D01*
X210967549Y-52997309D01*
X210960190Y-53011077D01*
X210950813Y-53033716D01*
X210946033Y-53057749D01*
X210946033Y-53082253D01*
X210950814Y-53106286D01*
X210960190Y-53128923D01*
X210967549Y-53142691D01*
X210969677Y-53149705D01*
X210971000Y-53163140D01*
X210971000Y-53476860D01*
X210969677Y-53490295D01*
X210967549Y-53497309D01*
X210960190Y-53511077D01*
X210950813Y-53533716D01*
X210946033Y-53557749D01*
X210946033Y-53582253D01*
X210950814Y-53606286D01*
X210960190Y-53628923D01*
X210967549Y-53642691D01*
X210969677Y-53649705D01*
X210971000Y-53663140D01*
X210971000Y-53976860D01*
X210969677Y-53990295D01*
X210967549Y-53997309D01*
X210960190Y-54011077D01*
X210950813Y-54033716D01*
X210946033Y-54057749D01*
X210946033Y-54082253D01*
X210950814Y-54106286D01*
X210960190Y-54128923D01*
X210967549Y-54142691D01*
X210969677Y-54149705D01*
X210971000Y-54163140D01*
X210971000Y-54476860D01*
X210969677Y-54490295D01*
X210967549Y-54497309D01*
X210960190Y-54511077D01*
X210950813Y-54533716D01*
X210946033Y-54557749D01*
X210946033Y-54582253D01*
X210950814Y-54606286D01*
X210960190Y-54628923D01*
X210967549Y-54642691D01*
X210969677Y-54649705D01*
X210971000Y-54663140D01*
X210971000Y-54976860D01*
X210969677Y-54990295D01*
X210967549Y-54997309D01*
X210960190Y-55011077D01*
X210950813Y-55033716D01*
X210946033Y-55057749D01*
X210946033Y-55082253D01*
X210950814Y-55106286D01*
X210960190Y-55128923D01*
X210967549Y-55142691D01*
X210969677Y-55149705D01*
X210971000Y-55163140D01*
X210971000Y-55476860D01*
X210969677Y-55490295D01*
X210967549Y-55497309D01*
X210960190Y-55511077D01*
X210950813Y-55533716D01*
X210946033Y-55557749D01*
X210946033Y-55582253D01*
X210950814Y-55606286D01*
X210960190Y-55628923D01*
X210967549Y-55642691D01*
X210969677Y-55649705D01*
X210971000Y-55663140D01*
X210971000Y-55976860D01*
X210969677Y-55990295D01*
X210967549Y-55997310D01*
X210964092Y-56003776D01*
X210959442Y-56009442D01*
X210953776Y-56014092D01*
X210947310Y-56017549D01*
X210940295Y-56019677D01*
X210926860Y-56021000D01*
X209363140Y-56021000D01*
X209349705Y-56019677D01*
X209342690Y-56017549D01*
X209336224Y-56014092D01*
X209330558Y-56009442D01*
X209325908Y-56003776D01*
X209322451Y-55997310D01*
X209320323Y-55990295D01*
X209319000Y-55976860D01*
X209319000Y-55663140D01*
X209320323Y-55649705D01*
X209322451Y-55642691D01*
X209329810Y-55628923D01*
X209339187Y-55606284D01*
X209343967Y-55582251D01*
X209343967Y-55557747D01*
X209339186Y-55533714D01*
X209329810Y-55511077D01*
X209322451Y-55497309D01*
X209320323Y-55490295D01*
X209319000Y-55476860D01*
X209319000Y-55163140D01*
X209320323Y-55149705D01*
X209322451Y-55142691D01*
X209329810Y-55128923D01*
X209339187Y-55106284D01*
X209343967Y-55082251D01*
X209343967Y-55057747D01*
X209339186Y-55033714D01*
X209329810Y-55011077D01*
X209322451Y-54997309D01*
X209320323Y-54990295D01*
X209319000Y-54976860D01*
X209319000Y-54663140D01*
X209320323Y-54649705D01*
X209322451Y-54642691D01*
X209329810Y-54628923D01*
X209339187Y-54606284D01*
X209343967Y-54582251D01*
X209343967Y-54557747D01*
X209339186Y-54533714D01*
X209329810Y-54511077D01*
X209322451Y-54497309D01*
X209320323Y-54490295D01*
X209319000Y-54476860D01*
X209319000Y-54163140D01*
X209320323Y-54149705D01*
X209322451Y-54142691D01*
X209329810Y-54128923D01*
X209339187Y-54106284D01*
X209343967Y-54082251D01*
X209343967Y-54057747D01*
X209339186Y-54033714D01*
X209329810Y-54011077D01*
X209322451Y-53997309D01*
X209320323Y-53990295D01*
X209319000Y-53976860D01*
X209319000Y-53663140D01*
X209320323Y-53649705D01*
X209322451Y-53642691D01*
X209329810Y-53628923D01*
X209339187Y-53606284D01*
X209343967Y-53582251D01*
X209343967Y-53557747D01*
X209339186Y-53533714D01*
X209329810Y-53511077D01*
X209322451Y-53497309D01*
X209320323Y-53490295D01*
X209319000Y-53476860D01*
X209319000Y-53163140D01*
X209320323Y-53149705D01*
X209322451Y-53142691D01*
X209329810Y-53128923D01*
X209339187Y-53106284D01*
X209343967Y-53082251D01*
X209343967Y-53057747D01*
X209339186Y-53033714D01*
X209329810Y-53011077D01*
X209322451Y-52997309D01*
X209320323Y-52990295D01*
X209319000Y-52976860D01*
X209319000Y-52663140D01*
X209320323Y-52649705D01*
X209322451Y-52642691D01*
X209329810Y-52628923D01*
X209339187Y-52606284D01*
X209343967Y-52582251D01*
X209343967Y-52557747D01*
X209339186Y-52533714D01*
X209329810Y-52511077D01*
X209322451Y-52497309D01*
X209320323Y-52490295D01*
X209319000Y-52476860D01*
X209319000Y-52163140D01*
X209320323Y-52149705D01*
X209322451Y-52142691D01*
X209329810Y-52128923D01*
X209339187Y-52106284D01*
X209343967Y-52082251D01*
X209343967Y-52057747D01*
X209339186Y-52033714D01*
X209329810Y-52011077D01*
X209322451Y-51997309D01*
X209320323Y-51990295D01*
X209319000Y-51976860D01*
X209319000Y-51663140D01*
X209320323Y-51649705D01*
X209322451Y-51642691D01*
X209329810Y-51628923D01*
X209339187Y-51606284D01*
X209343967Y-51582251D01*
X209343967Y-51557747D01*
X209339186Y-51533714D01*
X209329810Y-51511077D01*
X209322451Y-51497309D01*
X209320323Y-51490295D01*
X209319000Y-51476860D01*
X209319000Y-51163140D01*
X209320323Y-51149705D01*
X209322451Y-51142691D01*
X209329810Y-51128923D01*
X209339187Y-51106284D01*
X209343967Y-51082251D01*
X209343967Y-51057747D01*
X209339186Y-51033714D01*
X209329810Y-51011077D01*
X209322451Y-50997309D01*
X209320323Y-50990295D01*
X209319000Y-50976860D01*
X209319000Y-50663140D01*
X209320323Y-50649705D01*
X209322451Y-50642691D01*
X209329810Y-50628923D01*
X209339187Y-50606284D01*
X209343967Y-50582251D01*
X209343967Y-50557747D01*
X209339186Y-50533714D01*
X209329810Y-50511077D01*
X209322451Y-50497309D01*
X209320323Y-50490295D01*
X209319000Y-50476860D01*
X209319000Y-50163140D01*
X209320323Y-50149705D01*
X209322451Y-50142691D01*
X209329810Y-50128923D01*
X209339187Y-50106284D01*
X209343967Y-50082251D01*
X209343967Y-50057747D01*
X209339186Y-50033714D01*
X209329810Y-50011077D01*
X209322451Y-49997309D01*
X209320323Y-49990295D01*
X209319000Y-49976860D01*
X209319000Y-49663140D01*
X209320323Y-49649705D01*
X209322451Y-49642691D01*
X209329810Y-49628923D01*
X209339187Y-49606284D01*
X209343967Y-49582251D01*
X209343967Y-49557747D01*
X209339186Y-49533714D01*
X209329810Y-49511077D01*
X209322451Y-49497309D01*
X209320323Y-49490295D01*
X209319000Y-49476860D01*
X209319000Y-49163140D01*
X209320323Y-49149705D01*
X209322451Y-49142691D01*
X209329810Y-49128923D01*
X209339187Y-49106284D01*
X209343967Y-49082251D01*
X209343967Y-49057747D01*
X209339186Y-49033714D01*
X209329810Y-49011077D01*
X209322451Y-48997309D01*
X209320323Y-48990295D01*
X209319000Y-48976860D01*
X209319000Y-48663140D01*
X209320323Y-48649705D01*
X209322451Y-48642691D01*
X209329810Y-48628923D01*
X209339187Y-48606284D01*
X209343967Y-48582251D01*
X209343967Y-48557747D01*
X209339186Y-48533714D01*
X209329810Y-48511077D01*
X209322451Y-48497309D01*
X209320323Y-48490295D01*
X209319000Y-48476860D01*
X209319000Y-48163140D01*
X209320323Y-48149705D01*
X209322451Y-48142690D01*
X209325908Y-48136224D01*
X209330558Y-48130558D01*
X209336224Y-48125908D01*
X209342690Y-48122451D01*
X209349705Y-48120323D01*
X209363140Y-48119000D01*
X210926860Y-48119000D01*
X210940295Y-48120323D01*
X210940295Y-48120323D01*
G37*
G36*
X199590295Y-48120323D02*
G01*
X199597310Y-48122451D01*
X199603776Y-48125908D01*
X199609442Y-48130558D01*
X199614092Y-48136224D01*
X199617549Y-48142690D01*
X199619677Y-48149705D01*
X199621000Y-48163140D01*
X199621000Y-48476860D01*
X199619677Y-48490295D01*
X199617549Y-48497309D01*
X199610190Y-48511077D01*
X199600813Y-48533716D01*
X199596033Y-48557749D01*
X199596033Y-48582253D01*
X199600814Y-48606286D01*
X199610190Y-48628923D01*
X199617549Y-48642691D01*
X199619677Y-48649705D01*
X199621000Y-48663140D01*
X199621000Y-48976860D01*
X199619677Y-48990295D01*
X199617549Y-48997309D01*
X199610190Y-49011077D01*
X199600813Y-49033716D01*
X199596033Y-49057749D01*
X199596033Y-49082253D01*
X199600814Y-49106286D01*
X199610190Y-49128923D01*
X199617549Y-49142691D01*
X199619677Y-49149705D01*
X199621000Y-49163140D01*
X199621000Y-49476860D01*
X199619677Y-49490295D01*
X199617549Y-49497309D01*
X199610190Y-49511077D01*
X199600813Y-49533716D01*
X199596033Y-49557749D01*
X199596033Y-49582253D01*
X199600814Y-49606286D01*
X199610190Y-49628923D01*
X199617549Y-49642691D01*
X199619677Y-49649705D01*
X199621000Y-49663140D01*
X199621000Y-49976860D01*
X199619677Y-49990295D01*
X199617549Y-49997309D01*
X199610190Y-50011077D01*
X199600813Y-50033716D01*
X199596033Y-50057749D01*
X199596033Y-50082253D01*
X199600814Y-50106286D01*
X199610190Y-50128923D01*
X199617549Y-50142691D01*
X199619677Y-50149705D01*
X199621000Y-50163140D01*
X199621000Y-50476860D01*
X199619677Y-50490295D01*
X199617549Y-50497309D01*
X199610190Y-50511077D01*
X199600813Y-50533716D01*
X199596033Y-50557749D01*
X199596033Y-50582253D01*
X199600814Y-50606286D01*
X199610190Y-50628923D01*
X199617549Y-50642691D01*
X199619677Y-50649705D01*
X199621000Y-50663140D01*
X199621000Y-50976860D01*
X199619677Y-50990295D01*
X199617549Y-50997309D01*
X199610190Y-51011077D01*
X199600813Y-51033716D01*
X199596033Y-51057749D01*
X199596033Y-51082253D01*
X199600814Y-51106286D01*
X199610190Y-51128923D01*
X199617549Y-51142691D01*
X199619677Y-51149705D01*
X199621000Y-51163140D01*
X199621000Y-51476860D01*
X199619677Y-51490295D01*
X199617549Y-51497309D01*
X199610190Y-51511077D01*
X199600813Y-51533716D01*
X199596033Y-51557749D01*
X199596033Y-51582253D01*
X199600814Y-51606286D01*
X199610190Y-51628923D01*
X199617549Y-51642691D01*
X199619677Y-51649705D01*
X199621000Y-51663140D01*
X199621000Y-51976860D01*
X199619677Y-51990295D01*
X199617549Y-51997309D01*
X199610190Y-52011077D01*
X199600813Y-52033716D01*
X199596033Y-52057749D01*
X199596033Y-52082253D01*
X199600814Y-52106286D01*
X199610190Y-52128923D01*
X199617549Y-52142691D01*
X199619677Y-52149705D01*
X199621000Y-52163140D01*
X199621000Y-52476860D01*
X199619677Y-52490295D01*
X199617549Y-52497309D01*
X199610190Y-52511077D01*
X199600813Y-52533716D01*
X199596033Y-52557749D01*
X199596033Y-52582253D01*
X199600814Y-52606286D01*
X199610190Y-52628923D01*
X199617549Y-52642691D01*
X199619677Y-52649705D01*
X199621000Y-52663140D01*
X199621000Y-52976860D01*
X199619677Y-52990295D01*
X199617549Y-52997309D01*
X199610190Y-53011077D01*
X199600813Y-53033716D01*
X199596033Y-53057749D01*
X199596033Y-53082253D01*
X199600814Y-53106286D01*
X199610190Y-53128923D01*
X199617549Y-53142691D01*
X199619677Y-53149705D01*
X199621000Y-53163140D01*
X199621000Y-53476860D01*
X199619677Y-53490295D01*
X199617549Y-53497309D01*
X199610190Y-53511077D01*
X199600813Y-53533716D01*
X199596033Y-53557749D01*
X199596033Y-53582253D01*
X199600814Y-53606286D01*
X199610190Y-53628923D01*
X199617549Y-53642691D01*
X199619677Y-53649705D01*
X199621000Y-53663140D01*
X199621000Y-53976860D01*
X199619677Y-53990295D01*
X199617549Y-53997309D01*
X199610190Y-54011077D01*
X199600813Y-54033716D01*
X199596033Y-54057749D01*
X199596033Y-54082253D01*
X199600814Y-54106286D01*
X199610190Y-54128923D01*
X199617549Y-54142691D01*
X199619677Y-54149705D01*
X199621000Y-54163140D01*
X199621000Y-54476860D01*
X199619677Y-54490295D01*
X199617549Y-54497309D01*
X199610190Y-54511077D01*
X199600813Y-54533716D01*
X199596033Y-54557749D01*
X199596033Y-54582253D01*
X199600814Y-54606286D01*
X199610190Y-54628923D01*
X199617549Y-54642691D01*
X199619677Y-54649705D01*
X199621000Y-54663140D01*
X199621000Y-54976860D01*
X199619677Y-54990295D01*
X199617549Y-54997309D01*
X199610190Y-55011077D01*
X199600813Y-55033716D01*
X199596033Y-55057749D01*
X199596033Y-55082253D01*
X199600814Y-55106286D01*
X199610190Y-55128923D01*
X199617549Y-55142691D01*
X199619677Y-55149705D01*
X199621000Y-55163140D01*
X199621000Y-55476860D01*
X199619677Y-55490295D01*
X199617549Y-55497309D01*
X199610190Y-55511077D01*
X199600813Y-55533716D01*
X199596033Y-55557749D01*
X199596033Y-55582253D01*
X199600814Y-55606286D01*
X199610190Y-55628923D01*
X199617549Y-55642691D01*
X199619677Y-55649705D01*
X199621000Y-55663140D01*
X199621000Y-55976860D01*
X199619677Y-55990295D01*
X199617549Y-55997310D01*
X199614092Y-56003776D01*
X199609442Y-56009442D01*
X199603776Y-56014092D01*
X199597310Y-56017549D01*
X199590295Y-56019677D01*
X199576860Y-56021000D01*
X198013140Y-56021000D01*
X197999705Y-56019677D01*
X197992690Y-56017549D01*
X197986224Y-56014092D01*
X197980558Y-56009442D01*
X197975908Y-56003776D01*
X197972451Y-55997310D01*
X197970323Y-55990295D01*
X197969000Y-55976860D01*
X197969000Y-55663140D01*
X197970323Y-55649705D01*
X197972451Y-55642691D01*
X197979810Y-55628923D01*
X197989187Y-55606284D01*
X197993967Y-55582251D01*
X197993967Y-55557747D01*
X197989186Y-55533714D01*
X197979810Y-55511077D01*
X197972451Y-55497309D01*
X197970323Y-55490295D01*
X197969000Y-55476860D01*
X197969000Y-55163140D01*
X197970323Y-55149705D01*
X197972451Y-55142691D01*
X197979810Y-55128923D01*
X197989187Y-55106284D01*
X197993967Y-55082251D01*
X197993967Y-55057747D01*
X197989186Y-55033714D01*
X197979810Y-55011077D01*
X197972451Y-54997309D01*
X197970323Y-54990295D01*
X197969000Y-54976860D01*
X197969000Y-54663140D01*
X197970323Y-54649705D01*
X197972451Y-54642691D01*
X197979810Y-54628923D01*
X197989187Y-54606284D01*
X197993967Y-54582251D01*
X197993967Y-54557747D01*
X197989186Y-54533714D01*
X197979810Y-54511077D01*
X197972451Y-54497309D01*
X197970323Y-54490295D01*
X197969000Y-54476860D01*
X197969000Y-54163140D01*
X197970323Y-54149705D01*
X197972451Y-54142691D01*
X197979810Y-54128923D01*
X197989187Y-54106284D01*
X197993967Y-54082251D01*
X197993967Y-54057747D01*
X197989186Y-54033714D01*
X197979810Y-54011077D01*
X197972451Y-53997309D01*
X197970323Y-53990295D01*
X197969000Y-53976860D01*
X197969000Y-53663140D01*
X197970323Y-53649705D01*
X197972451Y-53642691D01*
X197979810Y-53628923D01*
X197989187Y-53606284D01*
X197993967Y-53582251D01*
X197993967Y-53557747D01*
X197989186Y-53533714D01*
X197979810Y-53511077D01*
X197972451Y-53497309D01*
X197970323Y-53490295D01*
X197969000Y-53476860D01*
X197969000Y-53163140D01*
X197970323Y-53149705D01*
X197972451Y-53142691D01*
X197979810Y-53128923D01*
X197989187Y-53106284D01*
X197993967Y-53082251D01*
X197993967Y-53057747D01*
X197989186Y-53033714D01*
X197979810Y-53011077D01*
X197972451Y-52997309D01*
X197970323Y-52990295D01*
X197969000Y-52976860D01*
X197969000Y-52663140D01*
X197970323Y-52649705D01*
X197972451Y-52642691D01*
X197979810Y-52628923D01*
X197989187Y-52606284D01*
X197993967Y-52582251D01*
X197993967Y-52557747D01*
X197989186Y-52533714D01*
X197979810Y-52511077D01*
X197972451Y-52497309D01*
X197970323Y-52490295D01*
X197969000Y-52476860D01*
X197969000Y-52163140D01*
X197970323Y-52149705D01*
X197972451Y-52142691D01*
X197979810Y-52128923D01*
X197989187Y-52106284D01*
X197993967Y-52082251D01*
X197993967Y-52057747D01*
X197989186Y-52033714D01*
X197979810Y-52011077D01*
X197972451Y-51997309D01*
X197970323Y-51990295D01*
X197969000Y-51976860D01*
X197969000Y-51663140D01*
X197970323Y-51649705D01*
X197972451Y-51642691D01*
X197979810Y-51628923D01*
X197989187Y-51606284D01*
X197993967Y-51582251D01*
X197993967Y-51557747D01*
X197989186Y-51533714D01*
X197979810Y-51511077D01*
X197972451Y-51497309D01*
X197970323Y-51490295D01*
X197969000Y-51476860D01*
X197969000Y-51163140D01*
X197970323Y-51149705D01*
X197972451Y-51142691D01*
X197979810Y-51128923D01*
X197989187Y-51106284D01*
X197993967Y-51082251D01*
X197993967Y-51057747D01*
X197989186Y-51033714D01*
X197979810Y-51011077D01*
X197972451Y-50997309D01*
X197970323Y-50990295D01*
X197969000Y-50976860D01*
X197969000Y-50663140D01*
X197970323Y-50649705D01*
X197972451Y-50642691D01*
X197979810Y-50628923D01*
X197989187Y-50606284D01*
X197993967Y-50582251D01*
X197993967Y-50557747D01*
X197989186Y-50533714D01*
X197979810Y-50511077D01*
X197972451Y-50497309D01*
X197970323Y-50490295D01*
X197969000Y-50476860D01*
X197969000Y-50163140D01*
X197970323Y-50149705D01*
X197972451Y-50142691D01*
X197979810Y-50128923D01*
X197989187Y-50106284D01*
X197993967Y-50082251D01*
X197993967Y-50057747D01*
X197989186Y-50033714D01*
X197979810Y-50011077D01*
X197972451Y-49997309D01*
X197970323Y-49990295D01*
X197969000Y-49976860D01*
X197969000Y-49663140D01*
X197970323Y-49649705D01*
X197972451Y-49642691D01*
X197979810Y-49628923D01*
X197989187Y-49606284D01*
X197993967Y-49582251D01*
X197993967Y-49557747D01*
X197989186Y-49533714D01*
X197979810Y-49511077D01*
X197972451Y-49497309D01*
X197970323Y-49490295D01*
X197969000Y-49476860D01*
X197969000Y-49163140D01*
X197970323Y-49149705D01*
X197972451Y-49142691D01*
X197979810Y-49128923D01*
X197989187Y-49106284D01*
X197993967Y-49082251D01*
X197993967Y-49057747D01*
X197989186Y-49033714D01*
X197979810Y-49011077D01*
X197972451Y-48997309D01*
X197970323Y-48990295D01*
X197969000Y-48976860D01*
X197969000Y-48663140D01*
X197970323Y-48649705D01*
X197972451Y-48642691D01*
X197979810Y-48628923D01*
X197989187Y-48606284D01*
X197993967Y-48582251D01*
X197993967Y-48557747D01*
X197989186Y-48533714D01*
X197979810Y-48511077D01*
X197972451Y-48497309D01*
X197970323Y-48490295D01*
X197969000Y-48476860D01*
X197969000Y-48163140D01*
X197970323Y-48149705D01*
X197972451Y-48142690D01*
X197975908Y-48136224D01*
X197980558Y-48130558D01*
X197986224Y-48125908D01*
X197992690Y-48122451D01*
X197999705Y-48120323D01*
X198013140Y-48119000D01*
X199576860Y-48119000D01*
X199590295Y-48120323D01*
X199590295Y-48120323D01*
G37*
G36*
X155221938Y-54751716D02*
G01*
X155242557Y-54757971D01*
X155261553Y-54768124D01*
X155278208Y-54781792D01*
X155291876Y-54798447D01*
X155302029Y-54817443D01*
X155308284Y-54838062D01*
X155311000Y-54865640D01*
X155311000Y-55324360D01*
X155308284Y-55351938D01*
X155302029Y-55372557D01*
X155291876Y-55391553D01*
X155278208Y-55408208D01*
X155261553Y-55421876D01*
X155242557Y-55432029D01*
X155221938Y-55438284D01*
X155194360Y-55441000D01*
X154685640Y-55441000D01*
X154658062Y-55438284D01*
X154637443Y-55432029D01*
X154618447Y-55421876D01*
X154601792Y-55408208D01*
X154588124Y-55391553D01*
X154577971Y-55372557D01*
X154571716Y-55351938D01*
X154569000Y-55324360D01*
X154569000Y-54865640D01*
X154571716Y-54838062D01*
X154577971Y-54817443D01*
X154588124Y-54798447D01*
X154601792Y-54781792D01*
X154618447Y-54768124D01*
X154637443Y-54757971D01*
X154658062Y-54751716D01*
X154685640Y-54749000D01*
X155194360Y-54749000D01*
X155221938Y-54751716D01*
X155221938Y-54751716D01*
G37*
G36*
X246181000Y-55161000D02*
G01*
X243979000Y-55161000D01*
X243979000Y-54059000D01*
X246181000Y-54059000D01*
X246181000Y-55161000D01*
X246181000Y-55161000D01*
G37*
G36*
X236081000Y-55161000D02*
G01*
X233879000Y-55161000D01*
X233879000Y-54059000D01*
X236081000Y-54059000D01*
X236081000Y-55161000D01*
X236081000Y-55161000D01*
G37*
G36*
X155221938Y-53781716D02*
G01*
X155242557Y-53787971D01*
X155261553Y-53798124D01*
X155278208Y-53811792D01*
X155291876Y-53828447D01*
X155302029Y-53847443D01*
X155308284Y-53868062D01*
X155311000Y-53895640D01*
X155311000Y-54354360D01*
X155308284Y-54381938D01*
X155302029Y-54402557D01*
X155291876Y-54421553D01*
X155278208Y-54438208D01*
X155261553Y-54451876D01*
X155242557Y-54462029D01*
X155221938Y-54468284D01*
X155194360Y-54471000D01*
X154685640Y-54471000D01*
X154658062Y-54468284D01*
X154637443Y-54462029D01*
X154618447Y-54451876D01*
X154601792Y-54438208D01*
X154588124Y-54421553D01*
X154577971Y-54402557D01*
X154571716Y-54381938D01*
X154569000Y-54354360D01*
X154569000Y-53895640D01*
X154571716Y-53868062D01*
X154577971Y-53847443D01*
X154588124Y-53828447D01*
X154601792Y-53811792D01*
X154618447Y-53798124D01*
X154637443Y-53787971D01*
X154658062Y-53781716D01*
X154685640Y-53779000D01*
X155194360Y-53779000D01*
X155221938Y-53781716D01*
X155221938Y-53781716D01*
G37*
G36*
X254350318Y-52105153D02*
G01*
X254533524Y-52181040D01*
X254568887Y-52195688D01*
X254765593Y-52327122D01*
X254932878Y-52494407D01*
X255035796Y-52648436D01*
X255064313Y-52691115D01*
X255154847Y-52909682D01*
X255201000Y-53141710D01*
X255201000Y-53378290D01*
X255154847Y-53610318D01*
X255072899Y-53808156D01*
X255064312Y-53828887D01*
X254932878Y-54025593D01*
X254765593Y-54192878D01*
X254568887Y-54324312D01*
X254568886Y-54324313D01*
X254568885Y-54324313D01*
X254350318Y-54414847D01*
X254118290Y-54461000D01*
X253881710Y-54461000D01*
X253649682Y-54414847D01*
X253431115Y-54324313D01*
X253431114Y-54324313D01*
X253431113Y-54324312D01*
X253234407Y-54192878D01*
X253067122Y-54025593D01*
X252935688Y-53828887D01*
X252927101Y-53808156D01*
X252845153Y-53610318D01*
X252799000Y-53378290D01*
X252799000Y-53141710D01*
X252845153Y-52909682D01*
X252935687Y-52691115D01*
X252964204Y-52648436D01*
X253067122Y-52494407D01*
X253234407Y-52327122D01*
X253431113Y-52195688D01*
X253466476Y-52181040D01*
X253649682Y-52105153D01*
X253881710Y-52059000D01*
X254118290Y-52059000D01*
X254350318Y-52105153D01*
X254350318Y-52105153D01*
G37*
G36*
X150123512Y-52443927D02*
G01*
X150272812Y-52473624D01*
X150436784Y-52541544D01*
X150584354Y-52640147D01*
X150709853Y-52765646D01*
X150808456Y-52913216D01*
X150876376Y-53077188D01*
X150911000Y-53251259D01*
X150911000Y-53428741D01*
X150876376Y-53602812D01*
X150808456Y-53766784D01*
X150709853Y-53914354D01*
X150584354Y-54039853D01*
X150436784Y-54138456D01*
X150272812Y-54206376D01*
X150123512Y-54236073D01*
X150098742Y-54241000D01*
X149921258Y-54241000D01*
X149896488Y-54236073D01*
X149747188Y-54206376D01*
X149583216Y-54138456D01*
X149435646Y-54039853D01*
X149310147Y-53914354D01*
X149211544Y-53766784D01*
X149143624Y-53602812D01*
X149109000Y-53428741D01*
X149109000Y-53251259D01*
X149143624Y-53077188D01*
X149211544Y-52913216D01*
X149310147Y-52765646D01*
X149435646Y-52640147D01*
X149583216Y-52541544D01*
X149747188Y-52473624D01*
X149896488Y-52443927D01*
X149921258Y-52439000D01*
X150098742Y-52439000D01*
X150123512Y-52443927D01*
X150123512Y-52443927D01*
G37*
G36*
X143623512Y-52443927D02*
G01*
X143772812Y-52473624D01*
X143936784Y-52541544D01*
X144084354Y-52640147D01*
X144209853Y-52765646D01*
X144308456Y-52913216D01*
X144376376Y-53077188D01*
X144411000Y-53251259D01*
X144411000Y-53428741D01*
X144376376Y-53602812D01*
X144308456Y-53766784D01*
X144209853Y-53914354D01*
X144084354Y-54039853D01*
X143936784Y-54138456D01*
X143772812Y-54206376D01*
X143623512Y-54236073D01*
X143598742Y-54241000D01*
X143421258Y-54241000D01*
X143396488Y-54236073D01*
X143247188Y-54206376D01*
X143083216Y-54138456D01*
X142935646Y-54039853D01*
X142810147Y-53914354D01*
X142711544Y-53766784D01*
X142643624Y-53602812D01*
X142609000Y-53428741D01*
X142609000Y-53251259D01*
X142643624Y-53077188D01*
X142711544Y-52913216D01*
X142810147Y-52765646D01*
X142935646Y-52640147D01*
X143083216Y-52541544D01*
X143247188Y-52473624D01*
X143396488Y-52443927D01*
X143421258Y-52439000D01*
X143598742Y-52439000D01*
X143623512Y-52443927D01*
X143623512Y-52443927D01*
G37*
G36*
X176640443Y-52445519D02*
G01*
X176706627Y-52452037D01*
X176876466Y-52503557D01*
X177032991Y-52587222D01*
X177056218Y-52606284D01*
X177170186Y-52699814D01*
X177253448Y-52801271D01*
X177282778Y-52837009D01*
X177282779Y-52837011D01*
X177357531Y-52976860D01*
X177366443Y-52993534D01*
X177417963Y-53163373D01*
X177435359Y-53340000D01*
X177417963Y-53516627D01*
X177366443Y-53686466D01*
X177282778Y-53842991D01*
X177253448Y-53878729D01*
X177170186Y-53980186D01*
X177097480Y-54039853D01*
X177032991Y-54092778D01*
X176876466Y-54176443D01*
X176706627Y-54227963D01*
X176640442Y-54234482D01*
X176574260Y-54241000D01*
X176485740Y-54241000D01*
X176419558Y-54234482D01*
X176353373Y-54227963D01*
X176183534Y-54176443D01*
X176027009Y-54092778D01*
X175962520Y-54039853D01*
X175889814Y-53980186D01*
X175806552Y-53878729D01*
X175777222Y-53842991D01*
X175693557Y-53686466D01*
X175642037Y-53516627D01*
X175624641Y-53340000D01*
X175642037Y-53163373D01*
X175693557Y-52993534D01*
X175702470Y-52976860D01*
X175777221Y-52837011D01*
X175777222Y-52837009D01*
X175806552Y-52801271D01*
X175889814Y-52699814D01*
X176003782Y-52606284D01*
X176027009Y-52587222D01*
X176183534Y-52503557D01*
X176353373Y-52452037D01*
X176419558Y-52445518D01*
X176485740Y-52439000D01*
X176574260Y-52439000D01*
X176640443Y-52445519D01*
X176640443Y-52445519D01*
G37*
G36*
X246181000Y-52621000D02*
G01*
X243979000Y-52621000D01*
X243979000Y-51519000D01*
X246181000Y-51519000D01*
X246181000Y-52621000D01*
X246181000Y-52621000D01*
G37*
G36*
X176640442Y-49905518D02*
G01*
X176706627Y-49912037D01*
X176876466Y-49963557D01*
X177032991Y-50047222D01*
X177045818Y-50057749D01*
X177170186Y-50159814D01*
X177239570Y-50244360D01*
X177282778Y-50297009D01*
X177366443Y-50453534D01*
X177417963Y-50623373D01*
X177435359Y-50800000D01*
X177417963Y-50976627D01*
X177369637Y-51135937D01*
X177366442Y-51146468D01*
X177357250Y-51163665D01*
X177282778Y-51302991D01*
X177253448Y-51338729D01*
X177170186Y-51440186D01*
X177081034Y-51513350D01*
X177032991Y-51552778D01*
X176876466Y-51636443D01*
X176706627Y-51687963D01*
X176640442Y-51694482D01*
X176574260Y-51701000D01*
X176485740Y-51701000D01*
X176419558Y-51694482D01*
X176353373Y-51687963D01*
X176183534Y-51636443D01*
X176027009Y-51552778D01*
X175978966Y-51513350D01*
X175889814Y-51440186D01*
X175806552Y-51338729D01*
X175777222Y-51302991D01*
X175702750Y-51163665D01*
X175693558Y-51146468D01*
X175690363Y-51135937D01*
X175642037Y-50976627D01*
X175624641Y-50800000D01*
X175642037Y-50623373D01*
X175693557Y-50453534D01*
X175777222Y-50297009D01*
X175820430Y-50244360D01*
X175889814Y-50159814D01*
X176014182Y-50057749D01*
X176027009Y-50047222D01*
X176183534Y-49963557D01*
X176353373Y-49912037D01*
X176419557Y-49905519D01*
X176485740Y-49899000D01*
X176574260Y-49899000D01*
X176640442Y-49905518D01*
X176640442Y-49905518D01*
G37*
G36*
X154711938Y-50916716D02*
G01*
X154732557Y-50922971D01*
X154751553Y-50933124D01*
X154768208Y-50946792D01*
X154781876Y-50963447D01*
X154792029Y-50982443D01*
X154798284Y-51003062D01*
X154801000Y-51030640D01*
X154801000Y-51539360D01*
X154798284Y-51566938D01*
X154792029Y-51587557D01*
X154781876Y-51606553D01*
X154768208Y-51623208D01*
X154751553Y-51636876D01*
X154732557Y-51647029D01*
X154711938Y-51653284D01*
X154684360Y-51656000D01*
X154225640Y-51656000D01*
X154198062Y-51653284D01*
X154177443Y-51647029D01*
X154158447Y-51636876D01*
X154141792Y-51623208D01*
X154128124Y-51606553D01*
X154117971Y-51587557D01*
X154111716Y-51566938D01*
X154109000Y-51539360D01*
X154109000Y-51030640D01*
X154111716Y-51003062D01*
X154117971Y-50982443D01*
X154128124Y-50963447D01*
X154141792Y-50946792D01*
X154158447Y-50933124D01*
X154177443Y-50922971D01*
X154198062Y-50916716D01*
X154225640Y-50914000D01*
X154684360Y-50914000D01*
X154711938Y-50916716D01*
X154711938Y-50916716D01*
G37*
G36*
X155681938Y-50916716D02*
G01*
X155702557Y-50922971D01*
X155721553Y-50933124D01*
X155738208Y-50946792D01*
X155751876Y-50963447D01*
X155762029Y-50982443D01*
X155768284Y-51003062D01*
X155771000Y-51030640D01*
X155771000Y-51539360D01*
X155768284Y-51566938D01*
X155762029Y-51587557D01*
X155751876Y-51606553D01*
X155738208Y-51623208D01*
X155721553Y-51636876D01*
X155702557Y-51647029D01*
X155681938Y-51653284D01*
X155654360Y-51656000D01*
X155195640Y-51656000D01*
X155168062Y-51653284D01*
X155147443Y-51647029D01*
X155128447Y-51636876D01*
X155111792Y-51623208D01*
X155098124Y-51606553D01*
X155087971Y-51587557D01*
X155081716Y-51566938D01*
X155079000Y-51539360D01*
X155079000Y-51030640D01*
X155081716Y-51003062D01*
X155087971Y-50982443D01*
X155098124Y-50963447D01*
X155111792Y-50946792D01*
X155128447Y-50933124D01*
X155147443Y-50922971D01*
X155168062Y-50916716D01*
X155195640Y-50914000D01*
X155654360Y-50914000D01*
X155681938Y-50916716D01*
X155681938Y-50916716D01*
G37*
G36*
X228881938Y-49671716D02*
G01*
X228902557Y-49677971D01*
X228921553Y-49688124D01*
X228938208Y-49701792D01*
X228951876Y-49718447D01*
X228962029Y-49737443D01*
X228968284Y-49758062D01*
X228971000Y-49785640D01*
X228971000Y-50244360D01*
X228968284Y-50271938D01*
X228962029Y-50292557D01*
X228951876Y-50311553D01*
X228938208Y-50328208D01*
X228921553Y-50341876D01*
X228902557Y-50352029D01*
X228881938Y-50358284D01*
X228854360Y-50361000D01*
X228345640Y-50361000D01*
X228318062Y-50358284D01*
X228297443Y-50352029D01*
X228278447Y-50341876D01*
X228261792Y-50328208D01*
X228248124Y-50311553D01*
X228237971Y-50292557D01*
X228231716Y-50271938D01*
X228229000Y-50244360D01*
X228229000Y-49785640D01*
X228231716Y-49758062D01*
X228237971Y-49737443D01*
X228248124Y-49718447D01*
X228261792Y-49701792D01*
X228278447Y-49688124D01*
X228297443Y-49677971D01*
X228318062Y-49671716D01*
X228345640Y-49669000D01*
X228854360Y-49669000D01*
X228881938Y-49671716D01*
X228881938Y-49671716D01*
G37*
G36*
X231421938Y-49671716D02*
G01*
X231442557Y-49677971D01*
X231461553Y-49688124D01*
X231478208Y-49701792D01*
X231491876Y-49718447D01*
X231502029Y-49737443D01*
X231508284Y-49758062D01*
X231511000Y-49785640D01*
X231511000Y-50244360D01*
X231508284Y-50271938D01*
X231502029Y-50292557D01*
X231491876Y-50311553D01*
X231478208Y-50328208D01*
X231461553Y-50341876D01*
X231442557Y-50352029D01*
X231421938Y-50358284D01*
X231394360Y-50361000D01*
X230885640Y-50361000D01*
X230858062Y-50358284D01*
X230837443Y-50352029D01*
X230818447Y-50341876D01*
X230801792Y-50328208D01*
X230788124Y-50311553D01*
X230777971Y-50292557D01*
X230771716Y-50271938D01*
X230769000Y-50244360D01*
X230769000Y-49785640D01*
X230771716Y-49758062D01*
X230777971Y-49737443D01*
X230788124Y-49718447D01*
X230801792Y-49701792D01*
X230818447Y-49688124D01*
X230837443Y-49677971D01*
X230858062Y-49671716D01*
X230885640Y-49669000D01*
X231394360Y-49669000D01*
X231421938Y-49671716D01*
X231421938Y-49671716D01*
G37*
G36*
X255201000Y-49461000D02*
G01*
X252799000Y-49461000D01*
X252799000Y-47059000D01*
X255201000Y-47059000D01*
X255201000Y-49461000D01*
X255201000Y-49461000D01*
G37*
G36*
X231421938Y-48701716D02*
G01*
X231442557Y-48707971D01*
X231461553Y-48718124D01*
X231478208Y-48731792D01*
X231491876Y-48748447D01*
X231502029Y-48767443D01*
X231508284Y-48788062D01*
X231511000Y-48815640D01*
X231511000Y-49274360D01*
X231508284Y-49301938D01*
X231502029Y-49322557D01*
X231491876Y-49341553D01*
X231478208Y-49358208D01*
X231461553Y-49371876D01*
X231442557Y-49382029D01*
X231421938Y-49388284D01*
X231394360Y-49391000D01*
X230885640Y-49391000D01*
X230858062Y-49388284D01*
X230837443Y-49382029D01*
X230818447Y-49371876D01*
X230801792Y-49358208D01*
X230788124Y-49341553D01*
X230777971Y-49322557D01*
X230771716Y-49301938D01*
X230769000Y-49274360D01*
X230769000Y-48815640D01*
X230771716Y-48788062D01*
X230777971Y-48767443D01*
X230788124Y-48748447D01*
X230801792Y-48731792D01*
X230818447Y-48718124D01*
X230837443Y-48707971D01*
X230858062Y-48701716D01*
X230885640Y-48699000D01*
X231394360Y-48699000D01*
X231421938Y-48701716D01*
X231421938Y-48701716D01*
G37*
G36*
X228881938Y-48701716D02*
G01*
X228902557Y-48707971D01*
X228921553Y-48718124D01*
X228938208Y-48731792D01*
X228951876Y-48748447D01*
X228962029Y-48767443D01*
X228968284Y-48788062D01*
X228971000Y-48815640D01*
X228971000Y-49274360D01*
X228968284Y-49301938D01*
X228962029Y-49322557D01*
X228951876Y-49341553D01*
X228938208Y-49358208D01*
X228921553Y-49371876D01*
X228902557Y-49382029D01*
X228881938Y-49388284D01*
X228854360Y-49391000D01*
X228345640Y-49391000D01*
X228318062Y-49388284D01*
X228297443Y-49382029D01*
X228278447Y-49371876D01*
X228261792Y-49358208D01*
X228248124Y-49341553D01*
X228237971Y-49322557D01*
X228231716Y-49301938D01*
X228229000Y-49274360D01*
X228229000Y-48815640D01*
X228231716Y-48788062D01*
X228237971Y-48767443D01*
X228248124Y-48748447D01*
X228261792Y-48731792D01*
X228278447Y-48718124D01*
X228297443Y-48707971D01*
X228318062Y-48701716D01*
X228345640Y-48699000D01*
X228854360Y-48699000D01*
X228881938Y-48701716D01*
X228881938Y-48701716D01*
G37*
G36*
X176640443Y-47365519D02*
G01*
X176706627Y-47372037D01*
X176876466Y-47423557D01*
X177032991Y-47507222D01*
X177068729Y-47536552D01*
X177170186Y-47619814D01*
X177239570Y-47704360D01*
X177282778Y-47757009D01*
X177366443Y-47913534D01*
X177417963Y-48083373D01*
X177435359Y-48260000D01*
X177417963Y-48436627D01*
X177366443Y-48606466D01*
X177282778Y-48762991D01*
X177253448Y-48798729D01*
X177170186Y-48900186D01*
X177077397Y-48976335D01*
X177032991Y-49012778D01*
X177032989Y-49012779D01*
X176903014Y-49082253D01*
X176876466Y-49096443D01*
X176706627Y-49147963D01*
X176640443Y-49154481D01*
X176574260Y-49161000D01*
X176485740Y-49161000D01*
X176419557Y-49154481D01*
X176353373Y-49147963D01*
X176183534Y-49096443D01*
X176156987Y-49082253D01*
X176027011Y-49012779D01*
X176027009Y-49012778D01*
X175982603Y-48976335D01*
X175889814Y-48900186D01*
X175806552Y-48798729D01*
X175777222Y-48762991D01*
X175693557Y-48606466D01*
X175642037Y-48436627D01*
X175624641Y-48260000D01*
X175642037Y-48083373D01*
X175693557Y-47913534D01*
X175777222Y-47757009D01*
X175820430Y-47704360D01*
X175889814Y-47619814D01*
X175991271Y-47536552D01*
X176027009Y-47507222D01*
X176183534Y-47423557D01*
X176353373Y-47372037D01*
X176419557Y-47365519D01*
X176485740Y-47359000D01*
X176574260Y-47359000D01*
X176640443Y-47365519D01*
X176640443Y-47365519D01*
G37*
G36*
X194591938Y-47131716D02*
G01*
X194612557Y-47137971D01*
X194631553Y-47148124D01*
X194648208Y-47161792D01*
X194661876Y-47178447D01*
X194672029Y-47197443D01*
X194678284Y-47218062D01*
X194681000Y-47245640D01*
X194681000Y-47704360D01*
X194678284Y-47731938D01*
X194672029Y-47752557D01*
X194661876Y-47771553D01*
X194648208Y-47788208D01*
X194631553Y-47801876D01*
X194612557Y-47812029D01*
X194591938Y-47818284D01*
X194564360Y-47821000D01*
X194055640Y-47821000D01*
X194028062Y-47818284D01*
X194007443Y-47812029D01*
X193988447Y-47801876D01*
X193971792Y-47788208D01*
X193958124Y-47771553D01*
X193947971Y-47752557D01*
X193941716Y-47731938D01*
X193939000Y-47704360D01*
X193939000Y-47245640D01*
X193941716Y-47218062D01*
X193947971Y-47197443D01*
X193958124Y-47178447D01*
X193971792Y-47161792D01*
X193988447Y-47148124D01*
X194007443Y-47137971D01*
X194028062Y-47131716D01*
X194055640Y-47129000D01*
X194564360Y-47129000D01*
X194591938Y-47131716D01*
X194591938Y-47131716D01*
G37*
G36*
X246181000Y-47541000D02*
G01*
X243979000Y-47541000D01*
X243979000Y-46439000D01*
X246181000Y-46439000D01*
X246181000Y-47541000D01*
X246181000Y-47541000D01*
G37*
G36*
X236081000Y-47541000D02*
G01*
X233879000Y-47541000D01*
X233879000Y-46439000D01*
X236081000Y-46439000D01*
X236081000Y-47541000D01*
X236081000Y-47541000D01*
G37*
G36*
X200890295Y-45570323D02*
G01*
X200897309Y-45572451D01*
X200911077Y-45579810D01*
X200933716Y-45589187D01*
X200957749Y-45593967D01*
X200982253Y-45593967D01*
X201006286Y-45589186D01*
X201028923Y-45579810D01*
X201042691Y-45572451D01*
X201049705Y-45570323D01*
X201063140Y-45569000D01*
X201376860Y-45569000D01*
X201390295Y-45570323D01*
X201397309Y-45572451D01*
X201411077Y-45579810D01*
X201433716Y-45589187D01*
X201457749Y-45593967D01*
X201482253Y-45593967D01*
X201506286Y-45589186D01*
X201528923Y-45579810D01*
X201542691Y-45572451D01*
X201549705Y-45570323D01*
X201563140Y-45569000D01*
X201876860Y-45569000D01*
X201890295Y-45570323D01*
X201897309Y-45572451D01*
X201911077Y-45579810D01*
X201933716Y-45589187D01*
X201957749Y-45593967D01*
X201982253Y-45593967D01*
X202006286Y-45589186D01*
X202028923Y-45579810D01*
X202042691Y-45572451D01*
X202049705Y-45570323D01*
X202063140Y-45569000D01*
X202376860Y-45569000D01*
X202390295Y-45570323D01*
X202397309Y-45572451D01*
X202411077Y-45579810D01*
X202433716Y-45589187D01*
X202457749Y-45593967D01*
X202482253Y-45593967D01*
X202506286Y-45589186D01*
X202528923Y-45579810D01*
X202542691Y-45572451D01*
X202549705Y-45570323D01*
X202563140Y-45569000D01*
X202876860Y-45569000D01*
X202890295Y-45570323D01*
X202897309Y-45572451D01*
X202911077Y-45579810D01*
X202933716Y-45589187D01*
X202957749Y-45593967D01*
X202982253Y-45593967D01*
X203006286Y-45589186D01*
X203028923Y-45579810D01*
X203042691Y-45572451D01*
X203049705Y-45570323D01*
X203063140Y-45569000D01*
X203376860Y-45569000D01*
X203390295Y-45570323D01*
X203397309Y-45572451D01*
X203411077Y-45579810D01*
X203433716Y-45589187D01*
X203457749Y-45593967D01*
X203482253Y-45593967D01*
X203506286Y-45589186D01*
X203528923Y-45579810D01*
X203542691Y-45572451D01*
X203549705Y-45570323D01*
X203563140Y-45569000D01*
X203876860Y-45569000D01*
X203890295Y-45570323D01*
X203897309Y-45572451D01*
X203911077Y-45579810D01*
X203933716Y-45589187D01*
X203957749Y-45593967D01*
X203982253Y-45593967D01*
X204006286Y-45589186D01*
X204028923Y-45579810D01*
X204042691Y-45572451D01*
X204049705Y-45570323D01*
X204063140Y-45569000D01*
X204376860Y-45569000D01*
X204390295Y-45570323D01*
X204397309Y-45572451D01*
X204411077Y-45579810D01*
X204433716Y-45589187D01*
X204457749Y-45593967D01*
X204482253Y-45593967D01*
X204506286Y-45589186D01*
X204528923Y-45579810D01*
X204542691Y-45572451D01*
X204549705Y-45570323D01*
X204563140Y-45569000D01*
X204876860Y-45569000D01*
X204890295Y-45570323D01*
X204897309Y-45572451D01*
X204911077Y-45579810D01*
X204933716Y-45589187D01*
X204957749Y-45593967D01*
X204982253Y-45593967D01*
X205006286Y-45589186D01*
X205028923Y-45579810D01*
X205042691Y-45572451D01*
X205049705Y-45570323D01*
X205063140Y-45569000D01*
X205376860Y-45569000D01*
X205390295Y-45570323D01*
X205397309Y-45572451D01*
X205411077Y-45579810D01*
X205433716Y-45589187D01*
X205457749Y-45593967D01*
X205482253Y-45593967D01*
X205506286Y-45589186D01*
X205528923Y-45579810D01*
X205542691Y-45572451D01*
X205549705Y-45570323D01*
X205563140Y-45569000D01*
X205876860Y-45569000D01*
X205890295Y-45570323D01*
X205897309Y-45572451D01*
X205911077Y-45579810D01*
X205933716Y-45589187D01*
X205957749Y-45593967D01*
X205982253Y-45593967D01*
X206006286Y-45589186D01*
X206028923Y-45579810D01*
X206042691Y-45572451D01*
X206049705Y-45570323D01*
X206063140Y-45569000D01*
X206376860Y-45569000D01*
X206390295Y-45570323D01*
X206397309Y-45572451D01*
X206411077Y-45579810D01*
X206433716Y-45589187D01*
X206457749Y-45593967D01*
X206482253Y-45593967D01*
X206506286Y-45589186D01*
X206528923Y-45579810D01*
X206542691Y-45572451D01*
X206549705Y-45570323D01*
X206563140Y-45569000D01*
X206876860Y-45569000D01*
X206890295Y-45570323D01*
X206897309Y-45572451D01*
X206911077Y-45579810D01*
X206933716Y-45589187D01*
X206957749Y-45593967D01*
X206982253Y-45593967D01*
X207006286Y-45589186D01*
X207028923Y-45579810D01*
X207042691Y-45572451D01*
X207049705Y-45570323D01*
X207063140Y-45569000D01*
X207376860Y-45569000D01*
X207390295Y-45570323D01*
X207397309Y-45572451D01*
X207411077Y-45579810D01*
X207433716Y-45589187D01*
X207457749Y-45593967D01*
X207482253Y-45593967D01*
X207506286Y-45589186D01*
X207528923Y-45579810D01*
X207542691Y-45572451D01*
X207549705Y-45570323D01*
X207563140Y-45569000D01*
X207876860Y-45569000D01*
X207890295Y-45570323D01*
X207897309Y-45572451D01*
X207911077Y-45579810D01*
X207933716Y-45589187D01*
X207957749Y-45593967D01*
X207982253Y-45593967D01*
X208006286Y-45589186D01*
X208028923Y-45579810D01*
X208042691Y-45572451D01*
X208049705Y-45570323D01*
X208063140Y-45569000D01*
X208376860Y-45569000D01*
X208390295Y-45570323D01*
X208397310Y-45572451D01*
X208403776Y-45575908D01*
X208409442Y-45580558D01*
X208414092Y-45586224D01*
X208417549Y-45592690D01*
X208419677Y-45599705D01*
X208421000Y-45613140D01*
X208421000Y-47176860D01*
X208419677Y-47190295D01*
X208417549Y-47197310D01*
X208414092Y-47203776D01*
X208409442Y-47209442D01*
X208403776Y-47214092D01*
X208397310Y-47217549D01*
X208390295Y-47219677D01*
X208376860Y-47221000D01*
X208063140Y-47221000D01*
X208049705Y-47219677D01*
X208042691Y-47217549D01*
X208028923Y-47210190D01*
X208006284Y-47200813D01*
X207982251Y-47196033D01*
X207957747Y-47196033D01*
X207933714Y-47200814D01*
X207911077Y-47210190D01*
X207897309Y-47217549D01*
X207890295Y-47219677D01*
X207876860Y-47221000D01*
X207563140Y-47221000D01*
X207549705Y-47219677D01*
X207542691Y-47217549D01*
X207528923Y-47210190D01*
X207506284Y-47200813D01*
X207482251Y-47196033D01*
X207457747Y-47196033D01*
X207433714Y-47200814D01*
X207411077Y-47210190D01*
X207397309Y-47217549D01*
X207390295Y-47219677D01*
X207376860Y-47221000D01*
X207063140Y-47221000D01*
X207049705Y-47219677D01*
X207042691Y-47217549D01*
X207028923Y-47210190D01*
X207006284Y-47200813D01*
X206982251Y-47196033D01*
X206957747Y-47196033D01*
X206933714Y-47200814D01*
X206911077Y-47210190D01*
X206897309Y-47217549D01*
X206890295Y-47219677D01*
X206876860Y-47221000D01*
X206563140Y-47221000D01*
X206549705Y-47219677D01*
X206542691Y-47217549D01*
X206528923Y-47210190D01*
X206506284Y-47200813D01*
X206482251Y-47196033D01*
X206457747Y-47196033D01*
X206433714Y-47200814D01*
X206411077Y-47210190D01*
X206397309Y-47217549D01*
X206390295Y-47219677D01*
X206376860Y-47221000D01*
X206063140Y-47221000D01*
X206049705Y-47219677D01*
X206042691Y-47217549D01*
X206028923Y-47210190D01*
X206006284Y-47200813D01*
X205982251Y-47196033D01*
X205957747Y-47196033D01*
X205933714Y-47200814D01*
X205911077Y-47210190D01*
X205897309Y-47217549D01*
X205890295Y-47219677D01*
X205876860Y-47221000D01*
X205563140Y-47221000D01*
X205549705Y-47219677D01*
X205542691Y-47217549D01*
X205528923Y-47210190D01*
X205506284Y-47200813D01*
X205482251Y-47196033D01*
X205457747Y-47196033D01*
X205433714Y-47200814D01*
X205411077Y-47210190D01*
X205397309Y-47217549D01*
X205390295Y-47219677D01*
X205376860Y-47221000D01*
X205063140Y-47221000D01*
X205049705Y-47219677D01*
X205042691Y-47217549D01*
X205028923Y-47210190D01*
X205006284Y-47200813D01*
X204982251Y-47196033D01*
X204957747Y-47196033D01*
X204933714Y-47200814D01*
X204911077Y-47210190D01*
X204897309Y-47217549D01*
X204890295Y-47219677D01*
X204876860Y-47221000D01*
X204563140Y-47221000D01*
X204549705Y-47219677D01*
X204542691Y-47217549D01*
X204528923Y-47210190D01*
X204506284Y-47200813D01*
X204482251Y-47196033D01*
X204457747Y-47196033D01*
X204433714Y-47200814D01*
X204411077Y-47210190D01*
X204397309Y-47217549D01*
X204390295Y-47219677D01*
X204376860Y-47221000D01*
X204063140Y-47221000D01*
X204049705Y-47219677D01*
X204042691Y-47217549D01*
X204028923Y-47210190D01*
X204006284Y-47200813D01*
X203982251Y-47196033D01*
X203957747Y-47196033D01*
X203933714Y-47200814D01*
X203911077Y-47210190D01*
X203897309Y-47217549D01*
X203890295Y-47219677D01*
X203876860Y-47221000D01*
X203563140Y-47221000D01*
X203549705Y-47219677D01*
X203542691Y-47217549D01*
X203528923Y-47210190D01*
X203506284Y-47200813D01*
X203482251Y-47196033D01*
X203457747Y-47196033D01*
X203433714Y-47200814D01*
X203411077Y-47210190D01*
X203397309Y-47217549D01*
X203390295Y-47219677D01*
X203376860Y-47221000D01*
X203063140Y-47221000D01*
X203049705Y-47219677D01*
X203042691Y-47217549D01*
X203028923Y-47210190D01*
X203006284Y-47200813D01*
X202982251Y-47196033D01*
X202957747Y-47196033D01*
X202933714Y-47200814D01*
X202911077Y-47210190D01*
X202897309Y-47217549D01*
X202890295Y-47219677D01*
X202876860Y-47221000D01*
X202563140Y-47221000D01*
X202549705Y-47219677D01*
X202542691Y-47217549D01*
X202528923Y-47210190D01*
X202506284Y-47200813D01*
X202482251Y-47196033D01*
X202457747Y-47196033D01*
X202433714Y-47200814D01*
X202411077Y-47210190D01*
X202397309Y-47217549D01*
X202390295Y-47219677D01*
X202376860Y-47221000D01*
X202063140Y-47221000D01*
X202049705Y-47219677D01*
X202042691Y-47217549D01*
X202028923Y-47210190D01*
X202006284Y-47200813D01*
X201982251Y-47196033D01*
X201957747Y-47196033D01*
X201933714Y-47200814D01*
X201911077Y-47210190D01*
X201897309Y-47217549D01*
X201890295Y-47219677D01*
X201876860Y-47221000D01*
X201563140Y-47221000D01*
X201549705Y-47219677D01*
X201542691Y-47217549D01*
X201528923Y-47210190D01*
X201506284Y-47200813D01*
X201482251Y-47196033D01*
X201457747Y-47196033D01*
X201433714Y-47200814D01*
X201411077Y-47210190D01*
X201397309Y-47217549D01*
X201390295Y-47219677D01*
X201376860Y-47221000D01*
X201063140Y-47221000D01*
X201049705Y-47219677D01*
X201042691Y-47217549D01*
X201028923Y-47210190D01*
X201006284Y-47200813D01*
X200982251Y-47196033D01*
X200957747Y-47196033D01*
X200933714Y-47200814D01*
X200911077Y-47210190D01*
X200897309Y-47217549D01*
X200890295Y-47219677D01*
X200876860Y-47221000D01*
X200563140Y-47221000D01*
X200549705Y-47219677D01*
X200542690Y-47217549D01*
X200536224Y-47214092D01*
X200530558Y-47209442D01*
X200525908Y-47203776D01*
X200522451Y-47197310D01*
X200520323Y-47190295D01*
X200519000Y-47176860D01*
X200519000Y-45613140D01*
X200520323Y-45599705D01*
X200522451Y-45592690D01*
X200525908Y-45586224D01*
X200530558Y-45580558D01*
X200536224Y-45575908D01*
X200542690Y-45572451D01*
X200549705Y-45570323D01*
X200563140Y-45569000D01*
X200876860Y-45569000D01*
X200890295Y-45570323D01*
X200890295Y-45570323D01*
G37*
G36*
X194591938Y-46161716D02*
G01*
X194612557Y-46167971D01*
X194631553Y-46178124D01*
X194648208Y-46191792D01*
X194661876Y-46208447D01*
X194672029Y-46227443D01*
X194678284Y-46248062D01*
X194681000Y-46275640D01*
X194681000Y-46734360D01*
X194678284Y-46761938D01*
X194672029Y-46782557D01*
X194661876Y-46801553D01*
X194648208Y-46818208D01*
X194631553Y-46831876D01*
X194612557Y-46842029D01*
X194591938Y-46848284D01*
X194564360Y-46851000D01*
X194055640Y-46851000D01*
X194028062Y-46848284D01*
X194007443Y-46842029D01*
X193988447Y-46831876D01*
X193971792Y-46818208D01*
X193958124Y-46801553D01*
X193947971Y-46782557D01*
X193941716Y-46761938D01*
X193939000Y-46734360D01*
X193939000Y-46275640D01*
X193941716Y-46248062D01*
X193947971Y-46227443D01*
X193958124Y-46208447D01*
X193971792Y-46191792D01*
X193988447Y-46178124D01*
X194007443Y-46167971D01*
X194028062Y-46161716D01*
X194055640Y-46159000D01*
X194564360Y-46159000D01*
X194591938Y-46161716D01*
X194591938Y-46161716D01*
G37*
G36*
X176640442Y-44825518D02*
G01*
X176706627Y-44832037D01*
X176876466Y-44883557D01*
X177032991Y-44967222D01*
X177068729Y-44996552D01*
X177170186Y-45079814D01*
X177253448Y-45181271D01*
X177282778Y-45217009D01*
X177366443Y-45373534D01*
X177417963Y-45543373D01*
X177435359Y-45720000D01*
X177417963Y-45896627D01*
X177366443Y-46066466D01*
X177282778Y-46222991D01*
X177253448Y-46258729D01*
X177170186Y-46360186D01*
X177074149Y-46439000D01*
X177032991Y-46472778D01*
X176876466Y-46556443D01*
X176706627Y-46607963D01*
X176640443Y-46614481D01*
X176574260Y-46621000D01*
X176485740Y-46621000D01*
X176419558Y-46614482D01*
X176353373Y-46607963D01*
X176183534Y-46556443D01*
X176027009Y-46472778D01*
X175985851Y-46439000D01*
X175889814Y-46360186D01*
X175806552Y-46258729D01*
X175777222Y-46222991D01*
X175693557Y-46066466D01*
X175642037Y-45896627D01*
X175624641Y-45720000D01*
X175642037Y-45543373D01*
X175693557Y-45373534D01*
X175777222Y-45217009D01*
X175806552Y-45181271D01*
X175889814Y-45079814D01*
X175991271Y-44996552D01*
X176027009Y-44967222D01*
X176183534Y-44883557D01*
X176353373Y-44832037D01*
X176419558Y-44825518D01*
X176485740Y-44819000D01*
X176574260Y-44819000D01*
X176640442Y-44825518D01*
X176640442Y-44825518D01*
G37*
G36*
X176640442Y-42285518D02*
G01*
X176706627Y-42292037D01*
X176876466Y-42343557D01*
X177032991Y-42427222D01*
X177068729Y-42456552D01*
X177170186Y-42539814D01*
X177253448Y-42641271D01*
X177282778Y-42677009D01*
X177366443Y-42833534D01*
X177417963Y-43003373D01*
X177435359Y-43180000D01*
X177417963Y-43356627D01*
X177366443Y-43526466D01*
X177282778Y-43682991D01*
X177253448Y-43718729D01*
X177170186Y-43820186D01*
X177068729Y-43903448D01*
X177032991Y-43932778D01*
X176876466Y-44016443D01*
X176706627Y-44067963D01*
X176640443Y-44074481D01*
X176574260Y-44081000D01*
X176485740Y-44081000D01*
X176419557Y-44074481D01*
X176353373Y-44067963D01*
X176183534Y-44016443D01*
X176027009Y-43932778D01*
X175991271Y-43903448D01*
X175889814Y-43820186D01*
X175806552Y-43718729D01*
X175777222Y-43682991D01*
X175693557Y-43526466D01*
X175642037Y-43356627D01*
X175624641Y-43180000D01*
X175642037Y-43003373D01*
X175693557Y-42833534D01*
X175777222Y-42677009D01*
X175806552Y-42641271D01*
X175889814Y-42539814D01*
X175991271Y-42456552D01*
X176027009Y-42427222D01*
X176183534Y-42343557D01*
X176353373Y-42292037D01*
X176419557Y-42285519D01*
X176485740Y-42279000D01*
X176574260Y-42279000D01*
X176640442Y-42285518D01*
X176640442Y-42285518D01*
G37*
G36*
X195351938Y-42811716D02*
G01*
X195372557Y-42817971D01*
X195391553Y-42828124D01*
X195408208Y-42841792D01*
X195421876Y-42858447D01*
X195432029Y-42877443D01*
X195438284Y-42898062D01*
X195441000Y-42925640D01*
X195441000Y-43434360D01*
X195438284Y-43461938D01*
X195432029Y-43482557D01*
X195421876Y-43501553D01*
X195408208Y-43518208D01*
X195391553Y-43531876D01*
X195372557Y-43542029D01*
X195351938Y-43548284D01*
X195324360Y-43551000D01*
X194865640Y-43551000D01*
X194838062Y-43548284D01*
X194817443Y-43542029D01*
X194798447Y-43531876D01*
X194781792Y-43518208D01*
X194768124Y-43501553D01*
X194757971Y-43482557D01*
X194751716Y-43461938D01*
X194749000Y-43434360D01*
X194749000Y-42925640D01*
X194751716Y-42898062D01*
X194757971Y-42877443D01*
X194768124Y-42858447D01*
X194781792Y-42841792D01*
X194798447Y-42828124D01*
X194817443Y-42817971D01*
X194838062Y-42811716D01*
X194865640Y-42809000D01*
X195324360Y-42809000D01*
X195351938Y-42811716D01*
X195351938Y-42811716D01*
G37*
G36*
X196321938Y-42811716D02*
G01*
X196342557Y-42817971D01*
X196361553Y-42828124D01*
X196378208Y-42841792D01*
X196391876Y-42858447D01*
X196402029Y-42877443D01*
X196408284Y-42898062D01*
X196411000Y-42925640D01*
X196411000Y-43434360D01*
X196408284Y-43461938D01*
X196402029Y-43482557D01*
X196391876Y-43501553D01*
X196378208Y-43518208D01*
X196361553Y-43531876D01*
X196342557Y-43542029D01*
X196321938Y-43548284D01*
X196294360Y-43551000D01*
X195835640Y-43551000D01*
X195808062Y-43548284D01*
X195787443Y-43542029D01*
X195768447Y-43531876D01*
X195751792Y-43518208D01*
X195738124Y-43501553D01*
X195727971Y-43482557D01*
X195721716Y-43461938D01*
X195719000Y-43434360D01*
X195719000Y-42925640D01*
X195721716Y-42898062D01*
X195727971Y-42877443D01*
X195738124Y-42858447D01*
X195751792Y-42841792D01*
X195768447Y-42828124D01*
X195787443Y-42817971D01*
X195808062Y-42811716D01*
X195835640Y-42809000D01*
X196294360Y-42809000D01*
X196321938Y-42811716D01*
X196321938Y-42811716D01*
G37*
G36*
X176640442Y-39745518D02*
G01*
X176706627Y-39752037D01*
X176876466Y-39803557D01*
X177032991Y-39887222D01*
X177068729Y-39916552D01*
X177170186Y-39999814D01*
X177253448Y-40101271D01*
X177282778Y-40137009D01*
X177366443Y-40293534D01*
X177417963Y-40463373D01*
X177435359Y-40640000D01*
X177417963Y-40816627D01*
X177366443Y-40986466D01*
X177282778Y-41142991D01*
X177253448Y-41178729D01*
X177170186Y-41280186D01*
X177068729Y-41363448D01*
X177032991Y-41392778D01*
X176876466Y-41476443D01*
X176706627Y-41527963D01*
X176640442Y-41534482D01*
X176574260Y-41541000D01*
X176485740Y-41541000D01*
X176419558Y-41534482D01*
X176353373Y-41527963D01*
X176183534Y-41476443D01*
X176027009Y-41392778D01*
X175991271Y-41363448D01*
X175889814Y-41280186D01*
X175806552Y-41178729D01*
X175777222Y-41142991D01*
X175693557Y-40986466D01*
X175642037Y-40816627D01*
X175624641Y-40640000D01*
X175642037Y-40463373D01*
X175693557Y-40293534D01*
X175777222Y-40137009D01*
X175806552Y-40101271D01*
X175889814Y-39999814D01*
X175991271Y-39916552D01*
X176027009Y-39887222D01*
X176183534Y-39803557D01*
X176353373Y-39752037D01*
X176419557Y-39745519D01*
X176485740Y-39739000D01*
X176574260Y-39739000D01*
X176640442Y-39745518D01*
X176640442Y-39745518D01*
G37*
G36*
X196321938Y-40271716D02*
G01*
X196342557Y-40277971D01*
X196361553Y-40288124D01*
X196378208Y-40301792D01*
X196391876Y-40318447D01*
X196402029Y-40337443D01*
X196408284Y-40358062D01*
X196411000Y-40385640D01*
X196411000Y-40894360D01*
X196408284Y-40921938D01*
X196402029Y-40942557D01*
X196391876Y-40961553D01*
X196378208Y-40978208D01*
X196361553Y-40991876D01*
X196342557Y-41002029D01*
X196321938Y-41008284D01*
X196294360Y-41011000D01*
X195835640Y-41011000D01*
X195808062Y-41008284D01*
X195787443Y-41002029D01*
X195768447Y-40991876D01*
X195751792Y-40978208D01*
X195738124Y-40961553D01*
X195727971Y-40942557D01*
X195721716Y-40921938D01*
X195719000Y-40894360D01*
X195719000Y-40385640D01*
X195721716Y-40358062D01*
X195727971Y-40337443D01*
X195738124Y-40318447D01*
X195751792Y-40301792D01*
X195768447Y-40288124D01*
X195787443Y-40277971D01*
X195808062Y-40271716D01*
X195835640Y-40269000D01*
X196294360Y-40269000D01*
X196321938Y-40271716D01*
X196321938Y-40271716D01*
G37*
G36*
X195351938Y-40271716D02*
G01*
X195372557Y-40277971D01*
X195391553Y-40288124D01*
X195408208Y-40301792D01*
X195421876Y-40318447D01*
X195432029Y-40337443D01*
X195438284Y-40358062D01*
X195441000Y-40385640D01*
X195441000Y-40894360D01*
X195438284Y-40921938D01*
X195432029Y-40942557D01*
X195421876Y-40961553D01*
X195408208Y-40978208D01*
X195391553Y-40991876D01*
X195372557Y-41002029D01*
X195351938Y-41008284D01*
X195324360Y-41011000D01*
X194865640Y-41011000D01*
X194838062Y-41008284D01*
X194817443Y-41002029D01*
X194798447Y-40991876D01*
X194781792Y-40978208D01*
X194768124Y-40961553D01*
X194757971Y-40942557D01*
X194751716Y-40921938D01*
X194749000Y-40894360D01*
X194749000Y-40385640D01*
X194751716Y-40358062D01*
X194757971Y-40337443D01*
X194768124Y-40318447D01*
X194781792Y-40301792D01*
X194798447Y-40288124D01*
X194817443Y-40277971D01*
X194838062Y-40271716D01*
X194865640Y-40269000D01*
X195324360Y-40269000D01*
X195351938Y-40271716D01*
X195351938Y-40271716D01*
G37*
G36*
X176640442Y-37205518D02*
G01*
X176706627Y-37212037D01*
X176876466Y-37263557D01*
X177032991Y-37347222D01*
X177068729Y-37376552D01*
X177170186Y-37459814D01*
X177253448Y-37561271D01*
X177282778Y-37597009D01*
X177366443Y-37753534D01*
X177417963Y-37923373D01*
X177435359Y-38100000D01*
X177417963Y-38276627D01*
X177366443Y-38446466D01*
X177282778Y-38602991D01*
X177253448Y-38638729D01*
X177170186Y-38740186D01*
X177068729Y-38823448D01*
X177032991Y-38852778D01*
X176876466Y-38936443D01*
X176706627Y-38987963D01*
X176640443Y-38994481D01*
X176574260Y-39001000D01*
X176485740Y-39001000D01*
X176419557Y-38994481D01*
X176353373Y-38987963D01*
X176183534Y-38936443D01*
X176027009Y-38852778D01*
X175991271Y-38823448D01*
X175889814Y-38740186D01*
X175806552Y-38638729D01*
X175777222Y-38602991D01*
X175693557Y-38446466D01*
X175642037Y-38276627D01*
X175624641Y-38100000D01*
X175642037Y-37923373D01*
X175693557Y-37753534D01*
X175777222Y-37597009D01*
X175806552Y-37561271D01*
X175889814Y-37459814D01*
X175991271Y-37376552D01*
X176027009Y-37347222D01*
X176183534Y-37263557D01*
X176353373Y-37212037D01*
X176419558Y-37205518D01*
X176485740Y-37199000D01*
X176574260Y-37199000D01*
X176640442Y-37205518D01*
X176640442Y-37205518D01*
G37*
G36*
X177431000Y-36461000D02*
G01*
X175629000Y-36461000D01*
X175629000Y-34659000D01*
X177431000Y-34659000D01*
X177431000Y-36461000D01*
X177431000Y-36461000D01*
G37*
G36*
X212200442Y-33395518D02*
G01*
X212266627Y-33402037D01*
X212436466Y-33453557D01*
X212592991Y-33537222D01*
X212628729Y-33566552D01*
X212730186Y-33649814D01*
X212813448Y-33751271D01*
X212842778Y-33787009D01*
X212926443Y-33943534D01*
X212977963Y-34113373D01*
X212995359Y-34290000D01*
X212977963Y-34466627D01*
X212926443Y-34636466D01*
X212842778Y-34792991D01*
X212813448Y-34828729D01*
X212730186Y-34930186D01*
X212628729Y-35013448D01*
X212592991Y-35042778D01*
X212436466Y-35126443D01*
X212266627Y-35177963D01*
X212200443Y-35184481D01*
X212134260Y-35191000D01*
X212045740Y-35191000D01*
X211979558Y-35184482D01*
X211913373Y-35177963D01*
X211743534Y-35126443D01*
X211587009Y-35042778D01*
X211551271Y-35013448D01*
X211449814Y-34930186D01*
X211366552Y-34828729D01*
X211337222Y-34792991D01*
X211253557Y-34636466D01*
X211202037Y-34466627D01*
X211184641Y-34290000D01*
X211202037Y-34113373D01*
X211253557Y-33943534D01*
X211337222Y-33787009D01*
X211366552Y-33751271D01*
X211449814Y-33649814D01*
X211551271Y-33566552D01*
X211587009Y-33537222D01*
X211743534Y-33453557D01*
X211913373Y-33402037D01*
X211979558Y-33395518D01*
X212045740Y-33389000D01*
X212134260Y-33389000D01*
X212200442Y-33395518D01*
X212200442Y-33395518D01*
G37*
G36*
X194420442Y-33395518D02*
G01*
X194486627Y-33402037D01*
X194656466Y-33453557D01*
X194812991Y-33537222D01*
X194848729Y-33566552D01*
X194950186Y-33649814D01*
X195033448Y-33751271D01*
X195062778Y-33787009D01*
X195146443Y-33943534D01*
X195197963Y-34113373D01*
X195215359Y-34290000D01*
X195197963Y-34466627D01*
X195146443Y-34636466D01*
X195062778Y-34792991D01*
X195033448Y-34828729D01*
X194950186Y-34930186D01*
X194848729Y-35013448D01*
X194812991Y-35042778D01*
X194656466Y-35126443D01*
X194486627Y-35177963D01*
X194420443Y-35184481D01*
X194354260Y-35191000D01*
X194265740Y-35191000D01*
X194199558Y-35184482D01*
X194133373Y-35177963D01*
X193963534Y-35126443D01*
X193807009Y-35042778D01*
X193771271Y-35013448D01*
X193669814Y-34930186D01*
X193586552Y-34828729D01*
X193557222Y-34792991D01*
X193473557Y-34636466D01*
X193422037Y-34466627D01*
X193404641Y-34290000D01*
X193422037Y-34113373D01*
X193473557Y-33943534D01*
X193557222Y-33787009D01*
X193586552Y-33751271D01*
X193669814Y-33649814D01*
X193771271Y-33566552D01*
X193807009Y-33537222D01*
X193963534Y-33453557D01*
X194133373Y-33402037D01*
X194199558Y-33395518D01*
X194265740Y-33389000D01*
X194354260Y-33389000D01*
X194420442Y-33395518D01*
X194420442Y-33395518D01*
G37*
G36*
X196960442Y-33395518D02*
G01*
X197026627Y-33402037D01*
X197196466Y-33453557D01*
X197352991Y-33537222D01*
X197388729Y-33566552D01*
X197490186Y-33649814D01*
X197573448Y-33751271D01*
X197602778Y-33787009D01*
X197686443Y-33943534D01*
X197737963Y-34113373D01*
X197755359Y-34290000D01*
X197737963Y-34466627D01*
X197686443Y-34636466D01*
X197602778Y-34792991D01*
X197573448Y-34828729D01*
X197490186Y-34930186D01*
X197388729Y-35013448D01*
X197352991Y-35042778D01*
X197196466Y-35126443D01*
X197026627Y-35177963D01*
X196960443Y-35184481D01*
X196894260Y-35191000D01*
X196805740Y-35191000D01*
X196739558Y-35184482D01*
X196673373Y-35177963D01*
X196503534Y-35126443D01*
X196347009Y-35042778D01*
X196311271Y-35013448D01*
X196209814Y-34930186D01*
X196126552Y-34828729D01*
X196097222Y-34792991D01*
X196013557Y-34636466D01*
X195962037Y-34466627D01*
X195944641Y-34290000D01*
X195962037Y-34113373D01*
X196013557Y-33943534D01*
X196097222Y-33787009D01*
X196126552Y-33751271D01*
X196209814Y-33649814D01*
X196311271Y-33566552D01*
X196347009Y-33537222D01*
X196503534Y-33453557D01*
X196673373Y-33402037D01*
X196739558Y-33395518D01*
X196805740Y-33389000D01*
X196894260Y-33389000D01*
X196960442Y-33395518D01*
X196960442Y-33395518D01*
G37*
G36*
X199500442Y-33395518D02*
G01*
X199566627Y-33402037D01*
X199736466Y-33453557D01*
X199892991Y-33537222D01*
X199928729Y-33566552D01*
X200030186Y-33649814D01*
X200113448Y-33751271D01*
X200142778Y-33787009D01*
X200226443Y-33943534D01*
X200277963Y-34113373D01*
X200295359Y-34290000D01*
X200277963Y-34466627D01*
X200226443Y-34636466D01*
X200142778Y-34792991D01*
X200113448Y-34828729D01*
X200030186Y-34930186D01*
X199928729Y-35013448D01*
X199892991Y-35042778D01*
X199736466Y-35126443D01*
X199566627Y-35177963D01*
X199500443Y-35184481D01*
X199434260Y-35191000D01*
X199345740Y-35191000D01*
X199279558Y-35184482D01*
X199213373Y-35177963D01*
X199043534Y-35126443D01*
X198887009Y-35042778D01*
X198851271Y-35013448D01*
X198749814Y-34930186D01*
X198666552Y-34828729D01*
X198637222Y-34792991D01*
X198553557Y-34636466D01*
X198502037Y-34466627D01*
X198484641Y-34290000D01*
X198502037Y-34113373D01*
X198553557Y-33943534D01*
X198637222Y-33787009D01*
X198666552Y-33751271D01*
X198749814Y-33649814D01*
X198851271Y-33566552D01*
X198887009Y-33537222D01*
X199043534Y-33453557D01*
X199213373Y-33402037D01*
X199279558Y-33395518D01*
X199345740Y-33389000D01*
X199434260Y-33389000D01*
X199500442Y-33395518D01*
X199500442Y-33395518D01*
G37*
G36*
X217280442Y-33395518D02*
G01*
X217346627Y-33402037D01*
X217516466Y-33453557D01*
X217672991Y-33537222D01*
X217708729Y-33566552D01*
X217810186Y-33649814D01*
X217893448Y-33751271D01*
X217922778Y-33787009D01*
X218006443Y-33943534D01*
X218057963Y-34113373D01*
X218075359Y-34290000D01*
X218057963Y-34466627D01*
X218006443Y-34636466D01*
X217922778Y-34792991D01*
X217893448Y-34828729D01*
X217810186Y-34930186D01*
X217708729Y-35013448D01*
X217672991Y-35042778D01*
X217516466Y-35126443D01*
X217346627Y-35177963D01*
X217280443Y-35184481D01*
X217214260Y-35191000D01*
X217125740Y-35191000D01*
X217059558Y-35184482D01*
X216993373Y-35177963D01*
X216823534Y-35126443D01*
X216667009Y-35042778D01*
X216631271Y-35013448D01*
X216529814Y-34930186D01*
X216446552Y-34828729D01*
X216417222Y-34792991D01*
X216333557Y-34636466D01*
X216282037Y-34466627D01*
X216264641Y-34290000D01*
X216282037Y-34113373D01*
X216333557Y-33943534D01*
X216417222Y-33787009D01*
X216446552Y-33751271D01*
X216529814Y-33649814D01*
X216631271Y-33566552D01*
X216667009Y-33537222D01*
X216823534Y-33453557D01*
X216993373Y-33402037D01*
X217059558Y-33395518D01*
X217125740Y-33389000D01*
X217214260Y-33389000D01*
X217280442Y-33395518D01*
X217280442Y-33395518D01*
G37*
G36*
X202040442Y-33395518D02*
G01*
X202106627Y-33402037D01*
X202276466Y-33453557D01*
X202432991Y-33537222D01*
X202468729Y-33566552D01*
X202570186Y-33649814D01*
X202653448Y-33751271D01*
X202682778Y-33787009D01*
X202766443Y-33943534D01*
X202817963Y-34113373D01*
X202835359Y-34290000D01*
X202817963Y-34466627D01*
X202766443Y-34636466D01*
X202682778Y-34792991D01*
X202653448Y-34828729D01*
X202570186Y-34930186D01*
X202468729Y-35013448D01*
X202432991Y-35042778D01*
X202276466Y-35126443D01*
X202106627Y-35177963D01*
X202040443Y-35184481D01*
X201974260Y-35191000D01*
X201885740Y-35191000D01*
X201819558Y-35184482D01*
X201753373Y-35177963D01*
X201583534Y-35126443D01*
X201427009Y-35042778D01*
X201391271Y-35013448D01*
X201289814Y-34930186D01*
X201206552Y-34828729D01*
X201177222Y-34792991D01*
X201093557Y-34636466D01*
X201042037Y-34466627D01*
X201024641Y-34290000D01*
X201042037Y-34113373D01*
X201093557Y-33943534D01*
X201177222Y-33787009D01*
X201206552Y-33751271D01*
X201289814Y-33649814D01*
X201391271Y-33566552D01*
X201427009Y-33537222D01*
X201583534Y-33453557D01*
X201753373Y-33402037D01*
X201819558Y-33395518D01*
X201885740Y-33389000D01*
X201974260Y-33389000D01*
X202040442Y-33395518D01*
X202040442Y-33395518D01*
G37*
G36*
X204580442Y-33395518D02*
G01*
X204646627Y-33402037D01*
X204816466Y-33453557D01*
X204972991Y-33537222D01*
X205008729Y-33566552D01*
X205110186Y-33649814D01*
X205193448Y-33751271D01*
X205222778Y-33787009D01*
X205306443Y-33943534D01*
X205357963Y-34113373D01*
X205375359Y-34290000D01*
X205357963Y-34466627D01*
X205306443Y-34636466D01*
X205222778Y-34792991D01*
X205193448Y-34828729D01*
X205110186Y-34930186D01*
X205008729Y-35013448D01*
X204972991Y-35042778D01*
X204816466Y-35126443D01*
X204646627Y-35177963D01*
X204580443Y-35184481D01*
X204514260Y-35191000D01*
X204425740Y-35191000D01*
X204359558Y-35184482D01*
X204293373Y-35177963D01*
X204123534Y-35126443D01*
X203967009Y-35042778D01*
X203931271Y-35013448D01*
X203829814Y-34930186D01*
X203746552Y-34828729D01*
X203717222Y-34792991D01*
X203633557Y-34636466D01*
X203582037Y-34466627D01*
X203564641Y-34290000D01*
X203582037Y-34113373D01*
X203633557Y-33943534D01*
X203717222Y-33787009D01*
X203746552Y-33751271D01*
X203829814Y-33649814D01*
X203931271Y-33566552D01*
X203967009Y-33537222D01*
X204123534Y-33453557D01*
X204293373Y-33402037D01*
X204359558Y-33395518D01*
X204425740Y-33389000D01*
X204514260Y-33389000D01*
X204580442Y-33395518D01*
X204580442Y-33395518D01*
G37*
G36*
X207120442Y-33395518D02*
G01*
X207186627Y-33402037D01*
X207356466Y-33453557D01*
X207512991Y-33537222D01*
X207548729Y-33566552D01*
X207650186Y-33649814D01*
X207733448Y-33751271D01*
X207762778Y-33787009D01*
X207846443Y-33943534D01*
X207897963Y-34113373D01*
X207915359Y-34290000D01*
X207897963Y-34466627D01*
X207846443Y-34636466D01*
X207762778Y-34792991D01*
X207733448Y-34828729D01*
X207650186Y-34930186D01*
X207548729Y-35013448D01*
X207512991Y-35042778D01*
X207356466Y-35126443D01*
X207186627Y-35177963D01*
X207120443Y-35184481D01*
X207054260Y-35191000D01*
X206965740Y-35191000D01*
X206899558Y-35184482D01*
X206833373Y-35177963D01*
X206663534Y-35126443D01*
X206507009Y-35042778D01*
X206471271Y-35013448D01*
X206369814Y-34930186D01*
X206286552Y-34828729D01*
X206257222Y-34792991D01*
X206173557Y-34636466D01*
X206122037Y-34466627D01*
X206104641Y-34290000D01*
X206122037Y-34113373D01*
X206173557Y-33943534D01*
X206257222Y-33787009D01*
X206286552Y-33751271D01*
X206369814Y-33649814D01*
X206471271Y-33566552D01*
X206507009Y-33537222D01*
X206663534Y-33453557D01*
X206833373Y-33402037D01*
X206899558Y-33395518D01*
X206965740Y-33389000D01*
X207054260Y-33389000D01*
X207120442Y-33395518D01*
X207120442Y-33395518D01*
G37*
G36*
X209660442Y-33395518D02*
G01*
X209726627Y-33402037D01*
X209896466Y-33453557D01*
X210052991Y-33537222D01*
X210088729Y-33566552D01*
X210190186Y-33649814D01*
X210273448Y-33751271D01*
X210302778Y-33787009D01*
X210386443Y-33943534D01*
X210437963Y-34113373D01*
X210455359Y-34290000D01*
X210437963Y-34466627D01*
X210386443Y-34636466D01*
X210302778Y-34792991D01*
X210273448Y-34828729D01*
X210190186Y-34930186D01*
X210088729Y-35013448D01*
X210052991Y-35042778D01*
X209896466Y-35126443D01*
X209726627Y-35177963D01*
X209660443Y-35184481D01*
X209594260Y-35191000D01*
X209505740Y-35191000D01*
X209439558Y-35184482D01*
X209373373Y-35177963D01*
X209203534Y-35126443D01*
X209047009Y-35042778D01*
X209011271Y-35013448D01*
X208909814Y-34930186D01*
X208826552Y-34828729D01*
X208797222Y-34792991D01*
X208713557Y-34636466D01*
X208662037Y-34466627D01*
X208644641Y-34290000D01*
X208662037Y-34113373D01*
X208713557Y-33943534D01*
X208797222Y-33787009D01*
X208826552Y-33751271D01*
X208909814Y-33649814D01*
X209011271Y-33566552D01*
X209047009Y-33537222D01*
X209203534Y-33453557D01*
X209373373Y-33402037D01*
X209439558Y-33395518D01*
X209505740Y-33389000D01*
X209594260Y-33389000D01*
X209660442Y-33395518D01*
X209660442Y-33395518D01*
G37*
G36*
X192671000Y-35191000D02*
G01*
X190869000Y-35191000D01*
X190869000Y-33389000D01*
X192671000Y-33389000D01*
X192671000Y-35191000D01*
X192671000Y-35191000D01*
G37*
G36*
X219820442Y-33395518D02*
G01*
X219886627Y-33402037D01*
X220056466Y-33453557D01*
X220212991Y-33537222D01*
X220248729Y-33566552D01*
X220350186Y-33649814D01*
X220433448Y-33751271D01*
X220462778Y-33787009D01*
X220546443Y-33943534D01*
X220597963Y-34113373D01*
X220615359Y-34290000D01*
X220597963Y-34466627D01*
X220546443Y-34636466D01*
X220462778Y-34792991D01*
X220433448Y-34828729D01*
X220350186Y-34930186D01*
X220248729Y-35013448D01*
X220212991Y-35042778D01*
X220056466Y-35126443D01*
X219886627Y-35177963D01*
X219820443Y-35184481D01*
X219754260Y-35191000D01*
X219665740Y-35191000D01*
X219599558Y-35184482D01*
X219533373Y-35177963D01*
X219363534Y-35126443D01*
X219207009Y-35042778D01*
X219171271Y-35013448D01*
X219069814Y-34930186D01*
X218986552Y-34828729D01*
X218957222Y-34792991D01*
X218873557Y-34636466D01*
X218822037Y-34466627D01*
X218804641Y-34290000D01*
X218822037Y-34113373D01*
X218873557Y-33943534D01*
X218957222Y-33787009D01*
X218986552Y-33751271D01*
X219069814Y-33649814D01*
X219171271Y-33566552D01*
X219207009Y-33537222D01*
X219363534Y-33453557D01*
X219533373Y-33402037D01*
X219599558Y-33395518D01*
X219665740Y-33389000D01*
X219754260Y-33389000D01*
X219820442Y-33395518D01*
X219820442Y-33395518D01*
G37*
G36*
X214740442Y-33395518D02*
G01*
X214806627Y-33402037D01*
X214976466Y-33453557D01*
X215132991Y-33537222D01*
X215168729Y-33566552D01*
X215270186Y-33649814D01*
X215353448Y-33751271D01*
X215382778Y-33787009D01*
X215466443Y-33943534D01*
X215517963Y-34113373D01*
X215535359Y-34290000D01*
X215517963Y-34466627D01*
X215466443Y-34636466D01*
X215382778Y-34792991D01*
X215353448Y-34828729D01*
X215270186Y-34930186D01*
X215168729Y-35013448D01*
X215132991Y-35042778D01*
X214976466Y-35126443D01*
X214806627Y-35177963D01*
X214740443Y-35184481D01*
X214674260Y-35191000D01*
X214585740Y-35191000D01*
X214519558Y-35184482D01*
X214453373Y-35177963D01*
X214283534Y-35126443D01*
X214127009Y-35042778D01*
X214091271Y-35013448D01*
X213989814Y-34930186D01*
X213906552Y-34828729D01*
X213877222Y-34792991D01*
X213793557Y-34636466D01*
X213742037Y-34466627D01*
X213724641Y-34290000D01*
X213742037Y-34113373D01*
X213793557Y-33943534D01*
X213877222Y-33787009D01*
X213906552Y-33751271D01*
X213989814Y-33649814D01*
X214091271Y-33566552D01*
X214127009Y-33537222D01*
X214283534Y-33453557D01*
X214453373Y-33402037D01*
X214519558Y-33395518D01*
X214585740Y-33389000D01*
X214674260Y-33389000D01*
X214740442Y-33395518D01*
X214740442Y-33395518D01*
G37*
G36*
X229980442Y-33395518D02*
G01*
X230046627Y-33402037D01*
X230216466Y-33453557D01*
X230372991Y-33537222D01*
X230408729Y-33566552D01*
X230510186Y-33649814D01*
X230593448Y-33751271D01*
X230622778Y-33787009D01*
X230706443Y-33943534D01*
X230757963Y-34113373D01*
X230775359Y-34290000D01*
X230757963Y-34466627D01*
X230706443Y-34636466D01*
X230622778Y-34792991D01*
X230593448Y-34828729D01*
X230510186Y-34930186D01*
X230408729Y-35013448D01*
X230372991Y-35042778D01*
X230216466Y-35126443D01*
X230046627Y-35177963D01*
X229980443Y-35184481D01*
X229914260Y-35191000D01*
X229825740Y-35191000D01*
X229759558Y-35184482D01*
X229693373Y-35177963D01*
X229523534Y-35126443D01*
X229367009Y-35042778D01*
X229331271Y-35013448D01*
X229229814Y-34930186D01*
X229146552Y-34828729D01*
X229117222Y-34792991D01*
X229033557Y-34636466D01*
X228982037Y-34466627D01*
X228964641Y-34290000D01*
X228982037Y-34113373D01*
X229033557Y-33943534D01*
X229117222Y-33787009D01*
X229146552Y-33751271D01*
X229229814Y-33649814D01*
X229331271Y-33566552D01*
X229367009Y-33537222D01*
X229523534Y-33453557D01*
X229693373Y-33402037D01*
X229759558Y-33395518D01*
X229825740Y-33389000D01*
X229914260Y-33389000D01*
X229980442Y-33395518D01*
X229980442Y-33395518D01*
G37*
G36*
X227440442Y-33395518D02*
G01*
X227506627Y-33402037D01*
X227676466Y-33453557D01*
X227832991Y-33537222D01*
X227868729Y-33566552D01*
X227970186Y-33649814D01*
X228053448Y-33751271D01*
X228082778Y-33787009D01*
X228166443Y-33943534D01*
X228217963Y-34113373D01*
X228235359Y-34290000D01*
X228217963Y-34466627D01*
X228166443Y-34636466D01*
X228082778Y-34792991D01*
X228053448Y-34828729D01*
X227970186Y-34930186D01*
X227868729Y-35013448D01*
X227832991Y-35042778D01*
X227676466Y-35126443D01*
X227506627Y-35177963D01*
X227440443Y-35184481D01*
X227374260Y-35191000D01*
X227285740Y-35191000D01*
X227219558Y-35184482D01*
X227153373Y-35177963D01*
X226983534Y-35126443D01*
X226827009Y-35042778D01*
X226791271Y-35013448D01*
X226689814Y-34930186D01*
X226606552Y-34828729D01*
X226577222Y-34792991D01*
X226493557Y-34636466D01*
X226442037Y-34466627D01*
X226424641Y-34290000D01*
X226442037Y-34113373D01*
X226493557Y-33943534D01*
X226577222Y-33787009D01*
X226606552Y-33751271D01*
X226689814Y-33649814D01*
X226791271Y-33566552D01*
X226827009Y-33537222D01*
X226983534Y-33453557D01*
X227153373Y-33402037D01*
X227219558Y-33395518D01*
X227285740Y-33389000D01*
X227374260Y-33389000D01*
X227440442Y-33395518D01*
X227440442Y-33395518D01*
G37*
G36*
X222360442Y-33395518D02*
G01*
X222426627Y-33402037D01*
X222596466Y-33453557D01*
X222752991Y-33537222D01*
X222788729Y-33566552D01*
X222890186Y-33649814D01*
X222973448Y-33751271D01*
X223002778Y-33787009D01*
X223086443Y-33943534D01*
X223137963Y-34113373D01*
X223155359Y-34290000D01*
X223137963Y-34466627D01*
X223086443Y-34636466D01*
X223002778Y-34792991D01*
X222973448Y-34828729D01*
X222890186Y-34930186D01*
X222788729Y-35013448D01*
X222752991Y-35042778D01*
X222596466Y-35126443D01*
X222426627Y-35177963D01*
X222360443Y-35184481D01*
X222294260Y-35191000D01*
X222205740Y-35191000D01*
X222139558Y-35184482D01*
X222073373Y-35177963D01*
X221903534Y-35126443D01*
X221747009Y-35042778D01*
X221711271Y-35013448D01*
X221609814Y-34930186D01*
X221526552Y-34828729D01*
X221497222Y-34792991D01*
X221413557Y-34636466D01*
X221362037Y-34466627D01*
X221344641Y-34290000D01*
X221362037Y-34113373D01*
X221413557Y-33943534D01*
X221497222Y-33787009D01*
X221526552Y-33751271D01*
X221609814Y-33649814D01*
X221711271Y-33566552D01*
X221747009Y-33537222D01*
X221903534Y-33453557D01*
X222073373Y-33402037D01*
X222139558Y-33395518D01*
X222205740Y-33389000D01*
X222294260Y-33389000D01*
X222360442Y-33395518D01*
X222360442Y-33395518D01*
G37*
G36*
X224900442Y-33395518D02*
G01*
X224966627Y-33402037D01*
X225136466Y-33453557D01*
X225292991Y-33537222D01*
X225328729Y-33566552D01*
X225430186Y-33649814D01*
X225513448Y-33751271D01*
X225542778Y-33787009D01*
X225626443Y-33943534D01*
X225677963Y-34113373D01*
X225695359Y-34290000D01*
X225677963Y-34466627D01*
X225626443Y-34636466D01*
X225542778Y-34792991D01*
X225513448Y-34828729D01*
X225430186Y-34930186D01*
X225328729Y-35013448D01*
X225292991Y-35042778D01*
X225136466Y-35126443D01*
X224966627Y-35177963D01*
X224900443Y-35184481D01*
X224834260Y-35191000D01*
X224745740Y-35191000D01*
X224679558Y-35184482D01*
X224613373Y-35177963D01*
X224443534Y-35126443D01*
X224287009Y-35042778D01*
X224251271Y-35013448D01*
X224149814Y-34930186D01*
X224066552Y-34828729D01*
X224037222Y-34792991D01*
X223953557Y-34636466D01*
X223902037Y-34466627D01*
X223884641Y-34290000D01*
X223902037Y-34113373D01*
X223953557Y-33943534D01*
X224037222Y-33787009D01*
X224066552Y-33751271D01*
X224149814Y-33649814D01*
X224251271Y-33566552D01*
X224287009Y-33537222D01*
X224443534Y-33453557D01*
X224613373Y-33402037D01*
X224679558Y-33395518D01*
X224745740Y-33389000D01*
X224834260Y-33389000D01*
X224900442Y-33395518D01*
X224900442Y-33395518D01*
G37*
M02*
